<svg id="Layer_1" data-name="Layer 1" xmlns="http://www.w3.org/2000/svg" viewBox="0 0 259.78 218.76"><defs><style>.cls-1{fill:#fff;}.cls-2{fill:#231f20;}</style></defs><title>binarykb-logo</title><rect class="cls-1" width="259.78" height="218.76"/><path class="cls-2" d="M192.37,178.73H114a10.82,10.82,0,0,0-10.82,10.83v78.35A10.81,10.81,0,0,0,114,278.73h78.35a10.82,10.82,0,0,0,10.83-10.82V189.56A10.83,10.83,0,0,0,192.37,178.73Zm-39.1,73.62c-11.14,0-20.07-11.42-20.07-25.53s8.93-25.54,20.07-25.54,20,11.49,20,25.54S164.33,252.35,153.27,252.35Z" transform="translate(-79.4 -119.35)"/><path class="cls-2" d="M153.23,210.29c-7.66,0-10.07,7.45-10.07,16.53s2.41,16.52,10.07,16.52,10-7.37,10-16.52S160.82,210.29,153.23,210.29Z" transform="translate(-79.4 -119.35)"/><path class="cls-2" d="M304.56,178.73H226.21a10.83,10.83,0,0,0-10.83,10.83v78.35a10.82,10.82,0,0,0,10.83,10.82h78.35a10.82,10.82,0,0,0,10.82-10.82V189.56A10.83,10.83,0,0,0,304.56,178.73Zm-30.17,68.44a5.21,5.21,0,0,1-5.18,5.18,5.15,5.15,0,0,1-5.1-5.18v-26.1c0-1.42,0-2.76-1.63-2.76a26.66,26.66,0,0,1-4.83-.22,4.11,4.11,0,0,1-3.19-3.68c0-1.71,1.56-3,3.41-4a30.31,30.31,0,0,0,6.24-4c2.27-2,3.12-5,5.95-5s4.33,1.77,4.33,4.61Z" transform="translate(-79.4 -119.35)"/></svg>