G04 #@! TF.GenerationSoftware,KiCad,Pcbnew,(5.1.5)-3*
G04 #@! TF.CreationDate,2020-04-03T15:26:20-04:00*
G04 #@! TF.ProjectId,binarykb,62696e61-7279-46b6-922e-6b696361645f,rev?*
G04 #@! TF.SameCoordinates,Original*
G04 #@! TF.FileFunction,Soldermask,Top*
G04 #@! TF.FilePolarity,Negative*
%FSLAX46Y46*%
G04 Gerber Fmt 4.6, Leading zero omitted, Abs format (unit mm)*
G04 Created by KiCad (PCBNEW (5.1.5)-3) date 2020-04-03 15:26:20*
%MOMM*%
%LPD*%
G04 APERTURE LIST*
%ADD10C,0.100000*%
G04 APERTURE END LIST*
D10*
G36*
X50943835Y-136280802D02*
G01*
X51093660Y-136310604D01*
X51375924Y-136427521D01*
X51629955Y-136597259D01*
X51845991Y-136813295D01*
X52015729Y-137067326D01*
X52132646Y-137349590D01*
X52192250Y-137649240D01*
X52192250Y-137954760D01*
X52132646Y-138254410D01*
X52015729Y-138536674D01*
X51845991Y-138790705D01*
X51629955Y-139006741D01*
X51375924Y-139176479D01*
X51093660Y-139293396D01*
X50943835Y-139323198D01*
X50794011Y-139353000D01*
X50488489Y-139353000D01*
X50338665Y-139323198D01*
X50188840Y-139293396D01*
X49906576Y-139176479D01*
X49652545Y-139006741D01*
X49436509Y-138790705D01*
X49266771Y-138536674D01*
X49149854Y-138254410D01*
X49090250Y-137954760D01*
X49090250Y-137649240D01*
X49149854Y-137349590D01*
X49266771Y-137067326D01*
X49436509Y-136813295D01*
X49652545Y-136597259D01*
X49906576Y-136427521D01*
X50188840Y-136310604D01*
X50338665Y-136280802D01*
X50488489Y-136251000D01*
X50794011Y-136251000D01*
X50943835Y-136280802D01*
G37*
G36*
X69993835Y-136280802D02*
G01*
X70143660Y-136310604D01*
X70425924Y-136427521D01*
X70679955Y-136597259D01*
X70895991Y-136813295D01*
X71065729Y-137067326D01*
X71182646Y-137349590D01*
X71242250Y-137649240D01*
X71242250Y-137954760D01*
X71182646Y-138254410D01*
X71065729Y-138536674D01*
X70895991Y-138790705D01*
X70679955Y-139006741D01*
X70425924Y-139176479D01*
X70143660Y-139293396D01*
X69993835Y-139323198D01*
X69844011Y-139353000D01*
X69538489Y-139353000D01*
X69388665Y-139323198D01*
X69238840Y-139293396D01*
X68956576Y-139176479D01*
X68702545Y-139006741D01*
X68486509Y-138790705D01*
X68316771Y-138536674D01*
X68199854Y-138254410D01*
X68140250Y-137954760D01*
X68140250Y-137649240D01*
X68199854Y-137349590D01*
X68316771Y-137067326D01*
X68486509Y-136813295D01*
X68702545Y-136597259D01*
X68956576Y-136427521D01*
X69238840Y-136310604D01*
X69388665Y-136280802D01*
X69538489Y-136251000D01*
X69844011Y-136251000D01*
X69993835Y-136280802D01*
G37*
G36*
X57293835Y-133740802D02*
G01*
X57443660Y-133770604D01*
X57725924Y-133887521D01*
X57979955Y-134057259D01*
X58195991Y-134273295D01*
X58365729Y-134527326D01*
X58482646Y-134809590D01*
X58542250Y-135109240D01*
X58542250Y-135414760D01*
X58482646Y-135714410D01*
X58365729Y-135996674D01*
X58195991Y-136250705D01*
X57979955Y-136466741D01*
X57725924Y-136636479D01*
X57443660Y-136753396D01*
X57293835Y-136783198D01*
X57144011Y-136813000D01*
X56838489Y-136813000D01*
X56688665Y-136783198D01*
X56538840Y-136753396D01*
X56256576Y-136636479D01*
X56002545Y-136466741D01*
X55786509Y-136250705D01*
X55616771Y-135996674D01*
X55499854Y-135714410D01*
X55440250Y-135414760D01*
X55440250Y-135109240D01*
X55499854Y-134809590D01*
X55616771Y-134527326D01*
X55786509Y-134273295D01*
X56002545Y-134057259D01*
X56256576Y-133887521D01*
X56538840Y-133770604D01*
X56688665Y-133740802D01*
X56838489Y-133711000D01*
X57144011Y-133711000D01*
X57293835Y-133740802D01*
G37*
G36*
X76343835Y-133740802D02*
G01*
X76493660Y-133770604D01*
X76775924Y-133887521D01*
X77029955Y-134057259D01*
X77245991Y-134273295D01*
X77415729Y-134527326D01*
X77532646Y-134809590D01*
X77592250Y-135109240D01*
X77592250Y-135414760D01*
X77532646Y-135714410D01*
X77415729Y-135996674D01*
X77245991Y-136250705D01*
X77029955Y-136466741D01*
X76775924Y-136636479D01*
X76493660Y-136753396D01*
X76343835Y-136783198D01*
X76194011Y-136813000D01*
X75888489Y-136813000D01*
X75738665Y-136783198D01*
X75588840Y-136753396D01*
X75306576Y-136636479D01*
X75052545Y-136466741D01*
X74836509Y-136250705D01*
X74666771Y-135996674D01*
X74549854Y-135714410D01*
X74490250Y-135414760D01*
X74490250Y-135109240D01*
X74549854Y-134809590D01*
X74666771Y-134527326D01*
X74836509Y-134273295D01*
X75052545Y-134057259D01*
X75306576Y-133887521D01*
X75588840Y-133770604D01*
X75738665Y-133740802D01*
X75888489Y-133711000D01*
X76194011Y-133711000D01*
X76343835Y-133740802D01*
G37*
G36*
X72827724Y-130755684D02*
G01*
X73045724Y-130845983D01*
X73199873Y-130909833D01*
X73534798Y-131133623D01*
X73819627Y-131418452D01*
X74043417Y-131753377D01*
X74075812Y-131831586D01*
X74197566Y-132125526D01*
X74276150Y-132520594D01*
X74276150Y-132923406D01*
X74197566Y-133318474D01*
X74146701Y-133441272D01*
X74043417Y-133690623D01*
X73819627Y-134025548D01*
X73534798Y-134310377D01*
X73199873Y-134534167D01*
X73045724Y-134598017D01*
X72827724Y-134688316D01*
X72432656Y-134766900D01*
X72029844Y-134766900D01*
X71634776Y-134688316D01*
X71416776Y-134598017D01*
X71262627Y-134534167D01*
X70927702Y-134310377D01*
X70642873Y-134025548D01*
X70419083Y-133690623D01*
X70315799Y-133441272D01*
X70264934Y-133318474D01*
X70186350Y-132923406D01*
X70186350Y-132520594D01*
X70264934Y-132125526D01*
X70386688Y-131831586D01*
X70419083Y-131753377D01*
X70642873Y-131418452D01*
X70927702Y-131133623D01*
X71262627Y-130909833D01*
X71416776Y-130845983D01*
X71634776Y-130755684D01*
X72029844Y-130677100D01*
X72432656Y-130677100D01*
X72827724Y-130755684D01*
G37*
G36*
X53777724Y-130755684D02*
G01*
X53995724Y-130845983D01*
X54149873Y-130909833D01*
X54484798Y-131133623D01*
X54769627Y-131418452D01*
X54993417Y-131753377D01*
X55025812Y-131831586D01*
X55147566Y-132125526D01*
X55226150Y-132520594D01*
X55226150Y-132923406D01*
X55147566Y-133318474D01*
X55096701Y-133441272D01*
X54993417Y-133690623D01*
X54769627Y-134025548D01*
X54484798Y-134310377D01*
X54149873Y-134534167D01*
X53995724Y-134598017D01*
X53777724Y-134688316D01*
X53382656Y-134766900D01*
X52979844Y-134766900D01*
X52584776Y-134688316D01*
X52366776Y-134598017D01*
X52212627Y-134534167D01*
X51877702Y-134310377D01*
X51592873Y-134025548D01*
X51369083Y-133690623D01*
X51265799Y-133441272D01*
X51214934Y-133318474D01*
X51136350Y-132923406D01*
X51136350Y-132520594D01*
X51214934Y-132125526D01*
X51336688Y-131831586D01*
X51369083Y-131753377D01*
X51592873Y-131418452D01*
X51877702Y-131133623D01*
X52212627Y-130909833D01*
X52366776Y-130845983D01*
X52584776Y-130755684D01*
X52979844Y-130677100D01*
X53382656Y-130677100D01*
X53777724Y-130755684D01*
G37*
G36*
X77581354Y-131831585D02*
G01*
X77749876Y-131901389D01*
X77901541Y-132002728D01*
X78030522Y-132131709D01*
X78131861Y-132283374D01*
X78201665Y-132451896D01*
X78237250Y-132630797D01*
X78237250Y-132813203D01*
X78201665Y-132992104D01*
X78131861Y-133160626D01*
X78030522Y-133312291D01*
X77901541Y-133441272D01*
X77749876Y-133542611D01*
X77581354Y-133612415D01*
X77402453Y-133648000D01*
X77220047Y-133648000D01*
X77041146Y-133612415D01*
X76872624Y-133542611D01*
X76720959Y-133441272D01*
X76591978Y-133312291D01*
X76490639Y-133160626D01*
X76420835Y-132992104D01*
X76385250Y-132813203D01*
X76385250Y-132630797D01*
X76420835Y-132451896D01*
X76490639Y-132283374D01*
X76591978Y-132131709D01*
X76720959Y-132002728D01*
X76872624Y-131901389D01*
X77041146Y-131831585D01*
X77220047Y-131796000D01*
X77402453Y-131796000D01*
X77581354Y-131831585D01*
G37*
G36*
X67421354Y-131831585D02*
G01*
X67589876Y-131901389D01*
X67741541Y-132002728D01*
X67870522Y-132131709D01*
X67971861Y-132283374D01*
X68041665Y-132451896D01*
X68077250Y-132630797D01*
X68077250Y-132813203D01*
X68041665Y-132992104D01*
X67971861Y-133160626D01*
X67870522Y-133312291D01*
X67741541Y-133441272D01*
X67589876Y-133542611D01*
X67421354Y-133612415D01*
X67242453Y-133648000D01*
X67060047Y-133648000D01*
X66881146Y-133612415D01*
X66712624Y-133542611D01*
X66560959Y-133441272D01*
X66431978Y-133312291D01*
X66330639Y-133160626D01*
X66260835Y-132992104D01*
X66225250Y-132813203D01*
X66225250Y-132630797D01*
X66260835Y-132451896D01*
X66330639Y-132283374D01*
X66431978Y-132131709D01*
X66560959Y-132002728D01*
X66712624Y-131901389D01*
X66881146Y-131831585D01*
X67060047Y-131796000D01*
X67242453Y-131796000D01*
X67421354Y-131831585D01*
G37*
G36*
X58531354Y-131831585D02*
G01*
X58699876Y-131901389D01*
X58851541Y-132002728D01*
X58980522Y-132131709D01*
X59081861Y-132283374D01*
X59151665Y-132451896D01*
X59187250Y-132630797D01*
X59187250Y-132813203D01*
X59151665Y-132992104D01*
X59081861Y-133160626D01*
X58980522Y-133312291D01*
X58851541Y-133441272D01*
X58699876Y-133542611D01*
X58531354Y-133612415D01*
X58352453Y-133648000D01*
X58170047Y-133648000D01*
X57991146Y-133612415D01*
X57822624Y-133542611D01*
X57670959Y-133441272D01*
X57541978Y-133312291D01*
X57440639Y-133160626D01*
X57370835Y-132992104D01*
X57335250Y-132813203D01*
X57335250Y-132630797D01*
X57370835Y-132451896D01*
X57440639Y-132283374D01*
X57541978Y-132131709D01*
X57670959Y-132002728D01*
X57822624Y-131901389D01*
X57991146Y-131831585D01*
X58170047Y-131796000D01*
X58352453Y-131796000D01*
X58531354Y-131831585D01*
G37*
G36*
X48371354Y-131831585D02*
G01*
X48539876Y-131901389D01*
X48691541Y-132002728D01*
X48820522Y-132131709D01*
X48921861Y-132283374D01*
X48991665Y-132451896D01*
X49027250Y-132630797D01*
X49027250Y-132813203D01*
X48991665Y-132992104D01*
X48921861Y-133160626D01*
X48820522Y-133312291D01*
X48691541Y-133441272D01*
X48539876Y-133542611D01*
X48371354Y-133612415D01*
X48192453Y-133648000D01*
X48010047Y-133648000D01*
X47831146Y-133612415D01*
X47662624Y-133542611D01*
X47510959Y-133441272D01*
X47381978Y-133312291D01*
X47280639Y-133160626D01*
X47210835Y-132992104D01*
X47175250Y-132813203D01*
X47175250Y-132630797D01*
X47210835Y-132451896D01*
X47280639Y-132283374D01*
X47381978Y-132131709D01*
X47510959Y-132002728D01*
X47662624Y-131901389D01*
X47831146Y-131831585D01*
X48010047Y-131796000D01*
X48192453Y-131796000D01*
X48371354Y-131831585D01*
G37*
G36*
X71956264Y-121447473D02*
G01*
X72060128Y-121478979D01*
X72104157Y-121502513D01*
X72155849Y-121530143D01*
X72155851Y-121530144D01*
X72155850Y-121530144D01*
X72239751Y-121598999D01*
X72308606Y-121682900D01*
X72359771Y-121778621D01*
X72391277Y-121882485D01*
X72399250Y-121963433D01*
X72399250Y-123117567D01*
X72391277Y-123198515D01*
X72359771Y-123302379D01*
X72359769Y-123302382D01*
X72308607Y-123398100D01*
X72239751Y-123482001D01*
X72155850Y-123550857D01*
X72087305Y-123587495D01*
X72060129Y-123602021D01*
X71956265Y-123633527D01*
X71848250Y-123644166D01*
X71740236Y-123633527D01*
X71636372Y-123602021D01*
X71609196Y-123587495D01*
X71540651Y-123550857D01*
X71456750Y-123482001D01*
X71387894Y-123398100D01*
X71336732Y-123302382D01*
X71336730Y-123302379D01*
X71305224Y-123198515D01*
X71297251Y-123117567D01*
X71297250Y-121963434D01*
X71305223Y-121882486D01*
X71336729Y-121778622D01*
X71387894Y-121682900D01*
X71456749Y-121598999D01*
X71540650Y-121530144D01*
X71540649Y-121530144D01*
X71540651Y-121530143D01*
X71592343Y-121502513D01*
X71636371Y-121478979D01*
X71740235Y-121447473D01*
X71848250Y-121436834D01*
X71956264Y-121447473D01*
G37*
G36*
X80596264Y-121447473D02*
G01*
X80700128Y-121478979D01*
X80744157Y-121502513D01*
X80795849Y-121530143D01*
X80795851Y-121530144D01*
X80795850Y-121530144D01*
X80879751Y-121598999D01*
X80948606Y-121682900D01*
X80999771Y-121778621D01*
X81031277Y-121882485D01*
X81039250Y-121963433D01*
X81039250Y-123117567D01*
X81031277Y-123198515D01*
X80999771Y-123302379D01*
X80999769Y-123302382D01*
X80948607Y-123398100D01*
X80879751Y-123482001D01*
X80795850Y-123550857D01*
X80727305Y-123587495D01*
X80700129Y-123602021D01*
X80596265Y-123633527D01*
X80488250Y-123644166D01*
X80380236Y-123633527D01*
X80276372Y-123602021D01*
X80249196Y-123587495D01*
X80180651Y-123550857D01*
X80096750Y-123482001D01*
X80027894Y-123398100D01*
X79976732Y-123302382D01*
X79976730Y-123302379D01*
X79945224Y-123198515D01*
X79937251Y-123117567D01*
X79937250Y-121963434D01*
X79945223Y-121882486D01*
X79976729Y-121778622D01*
X80027894Y-121682900D01*
X80096749Y-121598999D01*
X80180650Y-121530144D01*
X80180649Y-121530144D01*
X80180651Y-121530143D01*
X80232343Y-121502513D01*
X80276371Y-121478979D01*
X80380235Y-121447473D01*
X80488250Y-121436834D01*
X80596264Y-121447473D01*
G37*
G36*
X79167922Y-121648949D02*
G01*
X79167924Y-121648950D01*
X79167925Y-121648950D01*
X79236353Y-121677293D01*
X79297936Y-121718442D01*
X79350308Y-121770814D01*
X79391457Y-121832397D01*
X79419800Y-121900825D01*
X79419801Y-121900828D01*
X79434250Y-121973466D01*
X79434250Y-122047533D01*
X79419800Y-122120175D01*
X79391457Y-122188603D01*
X79350308Y-122250186D01*
X79297936Y-122302558D01*
X79236353Y-122343707D01*
X79167925Y-122372050D01*
X79167924Y-122372050D01*
X79167922Y-122372051D01*
X79095284Y-122386500D01*
X79021216Y-122386500D01*
X78948578Y-122372051D01*
X78948576Y-122372050D01*
X78948575Y-122372050D01*
X78880147Y-122343707D01*
X78818564Y-122302558D01*
X78766192Y-122250186D01*
X78725043Y-122188603D01*
X78696700Y-122120175D01*
X78682250Y-122047533D01*
X78682250Y-121973466D01*
X78696699Y-121900828D01*
X78696700Y-121900825D01*
X78725043Y-121832397D01*
X78766192Y-121770814D01*
X78818564Y-121718442D01*
X78880147Y-121677293D01*
X78948575Y-121648950D01*
X78948576Y-121648950D01*
X78948578Y-121648949D01*
X79021216Y-121634500D01*
X79095284Y-121634500D01*
X79167922Y-121648949D01*
G37*
G36*
X73387922Y-121648949D02*
G01*
X73387924Y-121648950D01*
X73387925Y-121648950D01*
X73456353Y-121677293D01*
X73517936Y-121718442D01*
X73570308Y-121770814D01*
X73611457Y-121832397D01*
X73639800Y-121900825D01*
X73639801Y-121900828D01*
X73654250Y-121973466D01*
X73654250Y-122047533D01*
X73639800Y-122120175D01*
X73611457Y-122188603D01*
X73570308Y-122250186D01*
X73517936Y-122302558D01*
X73456353Y-122343707D01*
X73387925Y-122372050D01*
X73387924Y-122372050D01*
X73387922Y-122372051D01*
X73315284Y-122386500D01*
X73241216Y-122386500D01*
X73168578Y-122372051D01*
X73168576Y-122372050D01*
X73168575Y-122372050D01*
X73100147Y-122343707D01*
X73038564Y-122302558D01*
X72986192Y-122250186D01*
X72945043Y-122188603D01*
X72916700Y-122120175D01*
X72902250Y-122047533D01*
X72902250Y-121973466D01*
X72916699Y-121900828D01*
X72916700Y-121900825D01*
X72945043Y-121832397D01*
X72986192Y-121770814D01*
X73038564Y-121718442D01*
X73100147Y-121677293D01*
X73168575Y-121648950D01*
X73168576Y-121648950D01*
X73168578Y-121648949D01*
X73241216Y-121634500D01*
X73315284Y-121634500D01*
X73387922Y-121648949D01*
G37*
G36*
X80596264Y-117517473D02*
G01*
X80700128Y-117548979D01*
X80744157Y-117572513D01*
X80795849Y-117600143D01*
X80795851Y-117600144D01*
X80795850Y-117600144D01*
X80879751Y-117668999D01*
X80948606Y-117752900D01*
X80999771Y-117848621D01*
X81031277Y-117952485D01*
X81039250Y-118033433D01*
X81039250Y-118687567D01*
X81031277Y-118768515D01*
X80999771Y-118872379D01*
X80999769Y-118872382D01*
X80948607Y-118968100D01*
X80879751Y-119052001D01*
X80795850Y-119120857D01*
X80727305Y-119157495D01*
X80700129Y-119172021D01*
X80596265Y-119203527D01*
X80488250Y-119214166D01*
X80380236Y-119203527D01*
X80276372Y-119172021D01*
X80249196Y-119157495D01*
X80180651Y-119120857D01*
X80096750Y-119052001D01*
X80027895Y-118968101D01*
X79976730Y-118872379D01*
X79945223Y-118768515D01*
X79937250Y-118687567D01*
X79937250Y-118033434D01*
X79945223Y-117952486D01*
X79976729Y-117848622D01*
X80027894Y-117752900D01*
X80096749Y-117668999D01*
X80180650Y-117600144D01*
X80180649Y-117600144D01*
X80180651Y-117600143D01*
X80232343Y-117572513D01*
X80276371Y-117548979D01*
X80380235Y-117517473D01*
X80488250Y-117506834D01*
X80596264Y-117517473D01*
G37*
G36*
X71956264Y-117517473D02*
G01*
X72060128Y-117548979D01*
X72104157Y-117572513D01*
X72155849Y-117600143D01*
X72155851Y-117600144D01*
X72155850Y-117600144D01*
X72239751Y-117668999D01*
X72308606Y-117752900D01*
X72359771Y-117848621D01*
X72391277Y-117952485D01*
X72399250Y-118033433D01*
X72399250Y-118687567D01*
X72391277Y-118768515D01*
X72359771Y-118872379D01*
X72359769Y-118872382D01*
X72308607Y-118968100D01*
X72239751Y-119052001D01*
X72155850Y-119120857D01*
X72087305Y-119157495D01*
X72060129Y-119172021D01*
X71956265Y-119203527D01*
X71848250Y-119214166D01*
X71740236Y-119203527D01*
X71636372Y-119172021D01*
X71609196Y-119157495D01*
X71540651Y-119120857D01*
X71456750Y-119052001D01*
X71387895Y-118968101D01*
X71336730Y-118872379D01*
X71305223Y-118768515D01*
X71297250Y-118687567D01*
X71297250Y-118033434D01*
X71305223Y-117952486D01*
X71336729Y-117848622D01*
X71387894Y-117752900D01*
X71456749Y-117668999D01*
X71540650Y-117600144D01*
X71540649Y-117600144D01*
X71540651Y-117600143D01*
X71592343Y-117572513D01*
X71636371Y-117548979D01*
X71740235Y-117517473D01*
X71848250Y-117506834D01*
X71956264Y-117517473D01*
G37*
M02*
