G04 #@! TF.GenerationSoftware,KiCad,Pcbnew,(5.1.5)-3*
G04 #@! TF.CreationDate,2020-04-16T21:49:39-04:00*
G04 #@! TF.ProjectId,binarykb,62696e61-7279-46b6-922e-6b696361645f,rev?*
G04 #@! TF.SameCoordinates,Original*
G04 #@! TF.FileFunction,Soldermask,Top*
G04 #@! TF.FilePolarity,Negative*
%FSLAX46Y46*%
G04 Gerber Fmt 4.6, Leading zero omitted, Abs format (unit mm)*
G04 Created by KiCad (PCBNEW (5.1.5)-3) date 2020-04-16 21:49:39*
%MOMM*%
%LPD*%
G04 APERTURE LIST*
%ADD10C,0.100000*%
G04 APERTURE END LIST*
D10*
G36*
X49324585Y-136146802D02*
G01*
X49474410Y-136176604D01*
X49756674Y-136293521D01*
X50010705Y-136463259D01*
X50226741Y-136679295D01*
X50396479Y-136933326D01*
X50513396Y-137215590D01*
X50573000Y-137515240D01*
X50573000Y-137820760D01*
X50513396Y-138120410D01*
X50396479Y-138402674D01*
X50226741Y-138656705D01*
X50010705Y-138872741D01*
X49756674Y-139042479D01*
X49474410Y-139159396D01*
X49324585Y-139189198D01*
X49174761Y-139219000D01*
X48869239Y-139219000D01*
X48719415Y-139189198D01*
X48569590Y-139159396D01*
X48287326Y-139042479D01*
X48033295Y-138872741D01*
X47817259Y-138656705D01*
X47647521Y-138402674D01*
X47530604Y-138120410D01*
X47471000Y-137820760D01*
X47471000Y-137515240D01*
X47530604Y-137215590D01*
X47647521Y-136933326D01*
X47817259Y-136679295D01*
X48033295Y-136463259D01*
X48287326Y-136293521D01*
X48569590Y-136176604D01*
X48719415Y-136146802D01*
X48869239Y-136117000D01*
X49174761Y-136117000D01*
X49324585Y-136146802D01*
G37*
G36*
X68374585Y-136146802D02*
G01*
X68524410Y-136176604D01*
X68806674Y-136293521D01*
X69060705Y-136463259D01*
X69276741Y-136679295D01*
X69446479Y-136933326D01*
X69563396Y-137215590D01*
X69623000Y-137515240D01*
X69623000Y-137820760D01*
X69563396Y-138120410D01*
X69446479Y-138402674D01*
X69276741Y-138656705D01*
X69060705Y-138872741D01*
X68806674Y-139042479D01*
X68524410Y-139159396D01*
X68374585Y-139189198D01*
X68224761Y-139219000D01*
X67919239Y-139219000D01*
X67769415Y-139189198D01*
X67619590Y-139159396D01*
X67337326Y-139042479D01*
X67083295Y-138872741D01*
X66867259Y-138656705D01*
X66697521Y-138402674D01*
X66580604Y-138120410D01*
X66521000Y-137820760D01*
X66521000Y-137515240D01*
X66580604Y-137215590D01*
X66697521Y-136933326D01*
X66867259Y-136679295D01*
X67083295Y-136463259D01*
X67337326Y-136293521D01*
X67619590Y-136176604D01*
X67769415Y-136146802D01*
X67919239Y-136117000D01*
X68224761Y-136117000D01*
X68374585Y-136146802D01*
G37*
G36*
X74724585Y-133606802D02*
G01*
X74874410Y-133636604D01*
X75156674Y-133753521D01*
X75410705Y-133923259D01*
X75626741Y-134139295D01*
X75796479Y-134393326D01*
X75913396Y-134675590D01*
X75973000Y-134975240D01*
X75973000Y-135280760D01*
X75913396Y-135580410D01*
X75796479Y-135862674D01*
X75626741Y-136116705D01*
X75410705Y-136332741D01*
X75156674Y-136502479D01*
X74874410Y-136619396D01*
X74724585Y-136649198D01*
X74574761Y-136679000D01*
X74269239Y-136679000D01*
X74119415Y-136649198D01*
X73969590Y-136619396D01*
X73687326Y-136502479D01*
X73433295Y-136332741D01*
X73217259Y-136116705D01*
X73047521Y-135862674D01*
X72930604Y-135580410D01*
X72871000Y-135280760D01*
X72871000Y-134975240D01*
X72930604Y-134675590D01*
X73047521Y-134393326D01*
X73217259Y-134139295D01*
X73433295Y-133923259D01*
X73687326Y-133753521D01*
X73969590Y-133636604D01*
X74119415Y-133606802D01*
X74269239Y-133577000D01*
X74574761Y-133577000D01*
X74724585Y-133606802D01*
G37*
G36*
X55674585Y-133606802D02*
G01*
X55824410Y-133636604D01*
X56106674Y-133753521D01*
X56360705Y-133923259D01*
X56576741Y-134139295D01*
X56746479Y-134393326D01*
X56863396Y-134675590D01*
X56923000Y-134975240D01*
X56923000Y-135280760D01*
X56863396Y-135580410D01*
X56746479Y-135862674D01*
X56576741Y-136116705D01*
X56360705Y-136332741D01*
X56106674Y-136502479D01*
X55824410Y-136619396D01*
X55674585Y-136649198D01*
X55524761Y-136679000D01*
X55219239Y-136679000D01*
X55069415Y-136649198D01*
X54919590Y-136619396D01*
X54637326Y-136502479D01*
X54383295Y-136332741D01*
X54167259Y-136116705D01*
X53997521Y-135862674D01*
X53880604Y-135580410D01*
X53821000Y-135280760D01*
X53821000Y-134975240D01*
X53880604Y-134675590D01*
X53997521Y-134393326D01*
X54167259Y-134139295D01*
X54383295Y-133923259D01*
X54637326Y-133753521D01*
X54919590Y-133636604D01*
X55069415Y-133606802D01*
X55219239Y-133577000D01*
X55524761Y-133577000D01*
X55674585Y-133606802D01*
G37*
G36*
X71208474Y-130621684D02*
G01*
X71426474Y-130711983D01*
X71580623Y-130775833D01*
X71915548Y-130999623D01*
X72200377Y-131284452D01*
X72424167Y-131619377D01*
X72456562Y-131697586D01*
X72578316Y-131991526D01*
X72656900Y-132386594D01*
X72656900Y-132789406D01*
X72578316Y-133184474D01*
X72527451Y-133307272D01*
X72424167Y-133556623D01*
X72200377Y-133891548D01*
X71915548Y-134176377D01*
X71580623Y-134400167D01*
X71426474Y-134464017D01*
X71208474Y-134554316D01*
X70813406Y-134632900D01*
X70410594Y-134632900D01*
X70015526Y-134554316D01*
X69797526Y-134464017D01*
X69643377Y-134400167D01*
X69308452Y-134176377D01*
X69023623Y-133891548D01*
X68799833Y-133556623D01*
X68696549Y-133307272D01*
X68645684Y-133184474D01*
X68567100Y-132789406D01*
X68567100Y-132386594D01*
X68645684Y-131991526D01*
X68767438Y-131697586D01*
X68799833Y-131619377D01*
X69023623Y-131284452D01*
X69308452Y-130999623D01*
X69643377Y-130775833D01*
X69797526Y-130711983D01*
X70015526Y-130621684D01*
X70410594Y-130543100D01*
X70813406Y-130543100D01*
X71208474Y-130621684D01*
G37*
G36*
X52158474Y-130621684D02*
G01*
X52376474Y-130711983D01*
X52530623Y-130775833D01*
X52865548Y-130999623D01*
X53150377Y-131284452D01*
X53374167Y-131619377D01*
X53406562Y-131697586D01*
X53528316Y-131991526D01*
X53606900Y-132386594D01*
X53606900Y-132789406D01*
X53528316Y-133184474D01*
X53477451Y-133307272D01*
X53374167Y-133556623D01*
X53150377Y-133891548D01*
X52865548Y-134176377D01*
X52530623Y-134400167D01*
X52376474Y-134464017D01*
X52158474Y-134554316D01*
X51763406Y-134632900D01*
X51360594Y-134632900D01*
X50965526Y-134554316D01*
X50747526Y-134464017D01*
X50593377Y-134400167D01*
X50258452Y-134176377D01*
X49973623Y-133891548D01*
X49749833Y-133556623D01*
X49646549Y-133307272D01*
X49595684Y-133184474D01*
X49517100Y-132789406D01*
X49517100Y-132386594D01*
X49595684Y-131991526D01*
X49717438Y-131697586D01*
X49749833Y-131619377D01*
X49973623Y-131284452D01*
X50258452Y-130999623D01*
X50593377Y-130775833D01*
X50747526Y-130711983D01*
X50965526Y-130621684D01*
X51360594Y-130543100D01*
X51763406Y-130543100D01*
X52158474Y-130621684D01*
G37*
G36*
X46752104Y-131697585D02*
G01*
X46920626Y-131767389D01*
X47072291Y-131868728D01*
X47201272Y-131997709D01*
X47302611Y-132149374D01*
X47372415Y-132317896D01*
X47408000Y-132496797D01*
X47408000Y-132679203D01*
X47372415Y-132858104D01*
X47302611Y-133026626D01*
X47201272Y-133178291D01*
X47072291Y-133307272D01*
X46920626Y-133408611D01*
X46752104Y-133478415D01*
X46573203Y-133514000D01*
X46390797Y-133514000D01*
X46211896Y-133478415D01*
X46043374Y-133408611D01*
X45891709Y-133307272D01*
X45762728Y-133178291D01*
X45661389Y-133026626D01*
X45591585Y-132858104D01*
X45556000Y-132679203D01*
X45556000Y-132496797D01*
X45591585Y-132317896D01*
X45661389Y-132149374D01*
X45762728Y-131997709D01*
X45891709Y-131868728D01*
X46043374Y-131767389D01*
X46211896Y-131697585D01*
X46390797Y-131662000D01*
X46573203Y-131662000D01*
X46752104Y-131697585D01*
G37*
G36*
X75962104Y-131697585D02*
G01*
X76130626Y-131767389D01*
X76282291Y-131868728D01*
X76411272Y-131997709D01*
X76512611Y-132149374D01*
X76582415Y-132317896D01*
X76618000Y-132496797D01*
X76618000Y-132679203D01*
X76582415Y-132858104D01*
X76512611Y-133026626D01*
X76411272Y-133178291D01*
X76282291Y-133307272D01*
X76130626Y-133408611D01*
X75962104Y-133478415D01*
X75783203Y-133514000D01*
X75600797Y-133514000D01*
X75421896Y-133478415D01*
X75253374Y-133408611D01*
X75101709Y-133307272D01*
X74972728Y-133178291D01*
X74871389Y-133026626D01*
X74801585Y-132858104D01*
X74766000Y-132679203D01*
X74766000Y-132496797D01*
X74801585Y-132317896D01*
X74871389Y-132149374D01*
X74972728Y-131997709D01*
X75101709Y-131868728D01*
X75253374Y-131767389D01*
X75421896Y-131697585D01*
X75600797Y-131662000D01*
X75783203Y-131662000D01*
X75962104Y-131697585D01*
G37*
G36*
X65802104Y-131697585D02*
G01*
X65970626Y-131767389D01*
X66122291Y-131868728D01*
X66251272Y-131997709D01*
X66352611Y-132149374D01*
X66422415Y-132317896D01*
X66458000Y-132496797D01*
X66458000Y-132679203D01*
X66422415Y-132858104D01*
X66352611Y-133026626D01*
X66251272Y-133178291D01*
X66122291Y-133307272D01*
X65970626Y-133408611D01*
X65802104Y-133478415D01*
X65623203Y-133514000D01*
X65440797Y-133514000D01*
X65261896Y-133478415D01*
X65093374Y-133408611D01*
X64941709Y-133307272D01*
X64812728Y-133178291D01*
X64711389Y-133026626D01*
X64641585Y-132858104D01*
X64606000Y-132679203D01*
X64606000Y-132496797D01*
X64641585Y-132317896D01*
X64711389Y-132149374D01*
X64812728Y-131997709D01*
X64941709Y-131868728D01*
X65093374Y-131767389D01*
X65261896Y-131697585D01*
X65440797Y-131662000D01*
X65623203Y-131662000D01*
X65802104Y-131697585D01*
G37*
G36*
X56912104Y-131697585D02*
G01*
X57080626Y-131767389D01*
X57232291Y-131868728D01*
X57361272Y-131997709D01*
X57462611Y-132149374D01*
X57532415Y-132317896D01*
X57568000Y-132496797D01*
X57568000Y-132679203D01*
X57532415Y-132858104D01*
X57462611Y-133026626D01*
X57361272Y-133178291D01*
X57232291Y-133307272D01*
X57080626Y-133408611D01*
X56912104Y-133478415D01*
X56733203Y-133514000D01*
X56550797Y-133514000D01*
X56371896Y-133478415D01*
X56203374Y-133408611D01*
X56051709Y-133307272D01*
X55922728Y-133178291D01*
X55821389Y-133026626D01*
X55751585Y-132858104D01*
X55716000Y-132679203D01*
X55716000Y-132496797D01*
X55751585Y-132317896D01*
X55821389Y-132149374D01*
X55922728Y-131997709D01*
X56051709Y-131868728D01*
X56203374Y-131767389D01*
X56371896Y-131697585D01*
X56550797Y-131662000D01*
X56733203Y-131662000D01*
X56912104Y-131697585D01*
G37*
G36*
X70432264Y-121320473D02*
G01*
X70536128Y-121351979D01*
X70580157Y-121375513D01*
X70631849Y-121403143D01*
X70631851Y-121403144D01*
X70631850Y-121403144D01*
X70715751Y-121471999D01*
X70784606Y-121555900D01*
X70835771Y-121651621D01*
X70867277Y-121755485D01*
X70875250Y-121836433D01*
X70875250Y-122990567D01*
X70867277Y-123071515D01*
X70835771Y-123175379D01*
X70835769Y-123175382D01*
X70784607Y-123271100D01*
X70715751Y-123355001D01*
X70631850Y-123423857D01*
X70563305Y-123460495D01*
X70536129Y-123475021D01*
X70432265Y-123506527D01*
X70324250Y-123517166D01*
X70216236Y-123506527D01*
X70112372Y-123475021D01*
X70085196Y-123460495D01*
X70016651Y-123423857D01*
X69932750Y-123355001D01*
X69863894Y-123271100D01*
X69812732Y-123175382D01*
X69812730Y-123175379D01*
X69781224Y-123071515D01*
X69773251Y-122990567D01*
X69773250Y-121836434D01*
X69781223Y-121755486D01*
X69812729Y-121651622D01*
X69863894Y-121555900D01*
X69932749Y-121471999D01*
X70016650Y-121403144D01*
X70016649Y-121403144D01*
X70016651Y-121403143D01*
X70068343Y-121375513D01*
X70112371Y-121351979D01*
X70216235Y-121320473D01*
X70324250Y-121309834D01*
X70432264Y-121320473D01*
G37*
G36*
X79072264Y-121320473D02*
G01*
X79176128Y-121351979D01*
X79220157Y-121375513D01*
X79271849Y-121403143D01*
X79271851Y-121403144D01*
X79271850Y-121403144D01*
X79355751Y-121471999D01*
X79424606Y-121555900D01*
X79475771Y-121651621D01*
X79507277Y-121755485D01*
X79515250Y-121836433D01*
X79515250Y-122990567D01*
X79507277Y-123071515D01*
X79475771Y-123175379D01*
X79475769Y-123175382D01*
X79424607Y-123271100D01*
X79355751Y-123355001D01*
X79271850Y-123423857D01*
X79203305Y-123460495D01*
X79176129Y-123475021D01*
X79072265Y-123506527D01*
X78964250Y-123517166D01*
X78856236Y-123506527D01*
X78752372Y-123475021D01*
X78725196Y-123460495D01*
X78656651Y-123423857D01*
X78572750Y-123355001D01*
X78503894Y-123271100D01*
X78452732Y-123175382D01*
X78452730Y-123175379D01*
X78421224Y-123071515D01*
X78413251Y-122990567D01*
X78413250Y-121836434D01*
X78421223Y-121755486D01*
X78452729Y-121651622D01*
X78503894Y-121555900D01*
X78572749Y-121471999D01*
X78656650Y-121403144D01*
X78656649Y-121403144D01*
X78656651Y-121403143D01*
X78708343Y-121375513D01*
X78752371Y-121351979D01*
X78856235Y-121320473D01*
X78964250Y-121309834D01*
X79072264Y-121320473D01*
G37*
G36*
X71863922Y-121521949D02*
G01*
X71863924Y-121521950D01*
X71863925Y-121521950D01*
X71932353Y-121550293D01*
X71993936Y-121591442D01*
X72046308Y-121643814D01*
X72087457Y-121705397D01*
X72115800Y-121773825D01*
X72115801Y-121773828D01*
X72130250Y-121846466D01*
X72130250Y-121920533D01*
X72115800Y-121993175D01*
X72087457Y-122061603D01*
X72046308Y-122123186D01*
X71993936Y-122175558D01*
X71932353Y-122216707D01*
X71863925Y-122245050D01*
X71863924Y-122245050D01*
X71863922Y-122245051D01*
X71791284Y-122259500D01*
X71717216Y-122259500D01*
X71644578Y-122245051D01*
X71644576Y-122245050D01*
X71644575Y-122245050D01*
X71576147Y-122216707D01*
X71514564Y-122175558D01*
X71462192Y-122123186D01*
X71421043Y-122061603D01*
X71392700Y-121993175D01*
X71378250Y-121920533D01*
X71378250Y-121846466D01*
X71392699Y-121773828D01*
X71392700Y-121773825D01*
X71421043Y-121705397D01*
X71462192Y-121643814D01*
X71514564Y-121591442D01*
X71576147Y-121550293D01*
X71644575Y-121521950D01*
X71644576Y-121521950D01*
X71644578Y-121521949D01*
X71717216Y-121507500D01*
X71791284Y-121507500D01*
X71863922Y-121521949D01*
G37*
G36*
X77643922Y-121521949D02*
G01*
X77643924Y-121521950D01*
X77643925Y-121521950D01*
X77712353Y-121550293D01*
X77773936Y-121591442D01*
X77826308Y-121643814D01*
X77867457Y-121705397D01*
X77895800Y-121773825D01*
X77895801Y-121773828D01*
X77910250Y-121846466D01*
X77910250Y-121920533D01*
X77895800Y-121993175D01*
X77867457Y-122061603D01*
X77826308Y-122123186D01*
X77773936Y-122175558D01*
X77712353Y-122216707D01*
X77643925Y-122245050D01*
X77643924Y-122245050D01*
X77643922Y-122245051D01*
X77571284Y-122259500D01*
X77497216Y-122259500D01*
X77424578Y-122245051D01*
X77424576Y-122245050D01*
X77424575Y-122245050D01*
X77356147Y-122216707D01*
X77294564Y-122175558D01*
X77242192Y-122123186D01*
X77201043Y-122061603D01*
X77172700Y-121993175D01*
X77158250Y-121920533D01*
X77158250Y-121846466D01*
X77172699Y-121773828D01*
X77172700Y-121773825D01*
X77201043Y-121705397D01*
X77242192Y-121643814D01*
X77294564Y-121591442D01*
X77356147Y-121550293D01*
X77424575Y-121521950D01*
X77424576Y-121521950D01*
X77424578Y-121521949D01*
X77497216Y-121507500D01*
X77571284Y-121507500D01*
X77643922Y-121521949D01*
G37*
G36*
X70432264Y-117390473D02*
G01*
X70536128Y-117421979D01*
X70580157Y-117445513D01*
X70631849Y-117473143D01*
X70631851Y-117473144D01*
X70631850Y-117473144D01*
X70715751Y-117541999D01*
X70784606Y-117625900D01*
X70835771Y-117721621D01*
X70867277Y-117825485D01*
X70875250Y-117906433D01*
X70875250Y-118560567D01*
X70867277Y-118641515D01*
X70835771Y-118745379D01*
X70835769Y-118745382D01*
X70784607Y-118841100D01*
X70715751Y-118925001D01*
X70631850Y-118993857D01*
X70563305Y-119030495D01*
X70536129Y-119045021D01*
X70432265Y-119076527D01*
X70324250Y-119087166D01*
X70216236Y-119076527D01*
X70112372Y-119045021D01*
X70085196Y-119030495D01*
X70016651Y-118993857D01*
X69932750Y-118925001D01*
X69863895Y-118841101D01*
X69812730Y-118745379D01*
X69781223Y-118641515D01*
X69773250Y-118560567D01*
X69773250Y-117906434D01*
X69781223Y-117825486D01*
X69812729Y-117721622D01*
X69863894Y-117625900D01*
X69932749Y-117541999D01*
X70016650Y-117473144D01*
X70016649Y-117473144D01*
X70016651Y-117473143D01*
X70068343Y-117445513D01*
X70112371Y-117421979D01*
X70216235Y-117390473D01*
X70324250Y-117379834D01*
X70432264Y-117390473D01*
G37*
G36*
X79072264Y-117390473D02*
G01*
X79176128Y-117421979D01*
X79220157Y-117445513D01*
X79271849Y-117473143D01*
X79271851Y-117473144D01*
X79271850Y-117473144D01*
X79355751Y-117541999D01*
X79424606Y-117625900D01*
X79475771Y-117721621D01*
X79507277Y-117825485D01*
X79515250Y-117906433D01*
X79515250Y-118560567D01*
X79507277Y-118641515D01*
X79475771Y-118745379D01*
X79475769Y-118745382D01*
X79424607Y-118841100D01*
X79355751Y-118925001D01*
X79271850Y-118993857D01*
X79203305Y-119030495D01*
X79176129Y-119045021D01*
X79072265Y-119076527D01*
X78964250Y-119087166D01*
X78856236Y-119076527D01*
X78752372Y-119045021D01*
X78725196Y-119030495D01*
X78656651Y-118993857D01*
X78572750Y-118925001D01*
X78503895Y-118841101D01*
X78452730Y-118745379D01*
X78421223Y-118641515D01*
X78413250Y-118560567D01*
X78413250Y-117906434D01*
X78421223Y-117825486D01*
X78452729Y-117721622D01*
X78503894Y-117625900D01*
X78572749Y-117541999D01*
X78656650Y-117473144D01*
X78656649Y-117473144D01*
X78656651Y-117473143D01*
X78708343Y-117445513D01*
X78752371Y-117421979D01*
X78856235Y-117390473D01*
X78964250Y-117379834D01*
X79072264Y-117390473D01*
G37*
M02*
