G04 #@! TF.GenerationSoftware,KiCad,Pcbnew,(5.1.5)-3*
G04 #@! TF.CreationDate,2020-04-16T21:49:39-04:00*
G04 #@! TF.ProjectId,binarykb,62696e61-7279-46b6-922e-6b696361645f,rev?*
G04 #@! TF.SameCoordinates,Original*
G04 #@! TF.FileFunction,Soldermask,Bot*
G04 #@! TF.FilePolarity,Negative*
%FSLAX46Y46*%
G04 Gerber Fmt 4.6, Leading zero omitted, Abs format (unit mm)*
G04 Created by KiCad (PCBNEW (5.1.5)-3) date 2020-04-16 21:49:39*
%MOMM*%
%LPD*%
G04 APERTURE LIST*
%ADD10C,0.100000*%
G04 APERTURE END LIST*
D10*
G36*
X68374585Y-136146802D02*
G01*
X68524410Y-136176604D01*
X68806674Y-136293521D01*
X69060705Y-136463259D01*
X69276741Y-136679295D01*
X69446479Y-136933326D01*
X69563396Y-137215590D01*
X69623000Y-137515240D01*
X69623000Y-137820760D01*
X69563396Y-138120410D01*
X69446479Y-138402674D01*
X69276741Y-138656705D01*
X69060705Y-138872741D01*
X68806674Y-139042479D01*
X68524410Y-139159396D01*
X68374585Y-139189198D01*
X68224761Y-139219000D01*
X67919239Y-139219000D01*
X67769415Y-139189198D01*
X67619590Y-139159396D01*
X67337326Y-139042479D01*
X67083295Y-138872741D01*
X66867259Y-138656705D01*
X66697521Y-138402674D01*
X66580604Y-138120410D01*
X66521000Y-137820760D01*
X66521000Y-137515240D01*
X66580604Y-137215590D01*
X66697521Y-136933326D01*
X66867259Y-136679295D01*
X67083295Y-136463259D01*
X67337326Y-136293521D01*
X67619590Y-136176604D01*
X67769415Y-136146802D01*
X67919239Y-136117000D01*
X68224761Y-136117000D01*
X68374585Y-136146802D01*
G37*
G36*
X49324585Y-136146802D02*
G01*
X49474410Y-136176604D01*
X49756674Y-136293521D01*
X50010705Y-136463259D01*
X50226741Y-136679295D01*
X50396479Y-136933326D01*
X50513396Y-137215590D01*
X50573000Y-137515240D01*
X50573000Y-137820760D01*
X50513396Y-138120410D01*
X50396479Y-138402674D01*
X50226741Y-138656705D01*
X50010705Y-138872741D01*
X49756674Y-139042479D01*
X49474410Y-139159396D01*
X49324585Y-139189198D01*
X49174761Y-139219000D01*
X48869239Y-139219000D01*
X48719415Y-139189198D01*
X48569590Y-139159396D01*
X48287326Y-139042479D01*
X48033295Y-138872741D01*
X47817259Y-138656705D01*
X47647521Y-138402674D01*
X47530604Y-138120410D01*
X47471000Y-137820760D01*
X47471000Y-137515240D01*
X47530604Y-137215590D01*
X47647521Y-136933326D01*
X47817259Y-136679295D01*
X48033295Y-136463259D01*
X48287326Y-136293521D01*
X48569590Y-136176604D01*
X48719415Y-136146802D01*
X48869239Y-136117000D01*
X49174761Y-136117000D01*
X49324585Y-136146802D01*
G37*
G36*
X66096000Y-138969000D02*
G01*
X63444000Y-138969000D01*
X63444000Y-136367000D01*
X66096000Y-136367000D01*
X66096000Y-138969000D01*
G37*
G36*
X47046000Y-138969000D02*
G01*
X44394000Y-138969000D01*
X44394000Y-136367000D01*
X47046000Y-136367000D01*
X47046000Y-138969000D01*
G37*
G36*
X74724585Y-133606802D02*
G01*
X74874410Y-133636604D01*
X75156674Y-133753521D01*
X75410705Y-133923259D01*
X75626741Y-134139295D01*
X75796479Y-134393326D01*
X75913396Y-134675590D01*
X75973000Y-134975240D01*
X75973000Y-135280760D01*
X75913396Y-135580410D01*
X75796479Y-135862674D01*
X75626741Y-136116705D01*
X75410705Y-136332741D01*
X75156674Y-136502479D01*
X74874410Y-136619396D01*
X74724585Y-136649198D01*
X74574761Y-136679000D01*
X74269239Y-136679000D01*
X74119415Y-136649198D01*
X73969590Y-136619396D01*
X73687326Y-136502479D01*
X73433295Y-136332741D01*
X73217259Y-136116705D01*
X73047521Y-135862674D01*
X72930604Y-135580410D01*
X72871000Y-135280760D01*
X72871000Y-134975240D01*
X72930604Y-134675590D01*
X73047521Y-134393326D01*
X73217259Y-134139295D01*
X73433295Y-133923259D01*
X73687326Y-133753521D01*
X73969590Y-133636604D01*
X74119415Y-133606802D01*
X74269239Y-133577000D01*
X74574761Y-133577000D01*
X74724585Y-133606802D01*
G37*
G36*
X55674585Y-133606802D02*
G01*
X55824410Y-133636604D01*
X56106674Y-133753521D01*
X56360705Y-133923259D01*
X56576741Y-134139295D01*
X56746479Y-134393326D01*
X56863396Y-134675590D01*
X56923000Y-134975240D01*
X56923000Y-135280760D01*
X56863396Y-135580410D01*
X56746479Y-135862674D01*
X56576741Y-136116705D01*
X56360705Y-136332741D01*
X56106674Y-136502479D01*
X55824410Y-136619396D01*
X55674585Y-136649198D01*
X55524761Y-136679000D01*
X55219239Y-136679000D01*
X55069415Y-136649198D01*
X54919590Y-136619396D01*
X54637326Y-136502479D01*
X54383295Y-136332741D01*
X54167259Y-136116705D01*
X53997521Y-135862674D01*
X53880604Y-135580410D01*
X53821000Y-135280760D01*
X53821000Y-134975240D01*
X53880604Y-134675590D01*
X53997521Y-134393326D01*
X54167259Y-134139295D01*
X54383295Y-133923259D01*
X54637326Y-133753521D01*
X54919590Y-133636604D01*
X55069415Y-133606802D01*
X55219239Y-133577000D01*
X55524761Y-133577000D01*
X55674585Y-133606802D01*
G37*
G36*
X59973000Y-136429000D02*
G01*
X57321000Y-136429000D01*
X57321000Y-133827000D01*
X59973000Y-133827000D01*
X59973000Y-136429000D01*
G37*
G36*
X79023000Y-136429000D02*
G01*
X76371000Y-136429000D01*
X76371000Y-133827000D01*
X79023000Y-133827000D01*
X79023000Y-136429000D01*
G37*
G36*
X71208474Y-130621684D02*
G01*
X71426474Y-130711983D01*
X71580623Y-130775833D01*
X71915548Y-130999623D01*
X72200377Y-131284452D01*
X72424167Y-131619377D01*
X72456562Y-131697586D01*
X72578316Y-131991526D01*
X72656900Y-132386594D01*
X72656900Y-132789406D01*
X72578316Y-133184474D01*
X72527451Y-133307272D01*
X72424167Y-133556623D01*
X72200377Y-133891548D01*
X71915548Y-134176377D01*
X71580623Y-134400167D01*
X71426474Y-134464017D01*
X71208474Y-134554316D01*
X70813406Y-134632900D01*
X70410594Y-134632900D01*
X70015526Y-134554316D01*
X69797526Y-134464017D01*
X69643377Y-134400167D01*
X69308452Y-134176377D01*
X69023623Y-133891548D01*
X68799833Y-133556623D01*
X68696549Y-133307272D01*
X68645684Y-133184474D01*
X68567100Y-132789406D01*
X68567100Y-132386594D01*
X68645684Y-131991526D01*
X68767438Y-131697586D01*
X68799833Y-131619377D01*
X69023623Y-131284452D01*
X69308452Y-130999623D01*
X69643377Y-130775833D01*
X69797526Y-130711983D01*
X70015526Y-130621684D01*
X70410594Y-130543100D01*
X70813406Y-130543100D01*
X71208474Y-130621684D01*
G37*
G36*
X52158474Y-130621684D02*
G01*
X52376474Y-130711983D01*
X52530623Y-130775833D01*
X52865548Y-130999623D01*
X53150377Y-131284452D01*
X53374167Y-131619377D01*
X53406562Y-131697586D01*
X53528316Y-131991526D01*
X53606900Y-132386594D01*
X53606900Y-132789406D01*
X53528316Y-133184474D01*
X53477451Y-133307272D01*
X53374167Y-133556623D01*
X53150377Y-133891548D01*
X52865548Y-134176377D01*
X52530623Y-134400167D01*
X52376474Y-134464017D01*
X52158474Y-134554316D01*
X51763406Y-134632900D01*
X51360594Y-134632900D01*
X50965526Y-134554316D01*
X50747526Y-134464017D01*
X50593377Y-134400167D01*
X50258452Y-134176377D01*
X49973623Y-133891548D01*
X49749833Y-133556623D01*
X49646549Y-133307272D01*
X49595684Y-133184474D01*
X49517100Y-132789406D01*
X49517100Y-132386594D01*
X49595684Y-131991526D01*
X49717438Y-131697586D01*
X49749833Y-131619377D01*
X49973623Y-131284452D01*
X50258452Y-130999623D01*
X50593377Y-130775833D01*
X50747526Y-130711983D01*
X50965526Y-130621684D01*
X51360594Y-130543100D01*
X51763406Y-130543100D01*
X52158474Y-130621684D01*
G37*
G36*
X75962104Y-131697585D02*
G01*
X76130626Y-131767389D01*
X76282291Y-131868728D01*
X76411272Y-131997709D01*
X76512611Y-132149374D01*
X76582415Y-132317896D01*
X76618000Y-132496797D01*
X76618000Y-132679203D01*
X76582415Y-132858104D01*
X76512611Y-133026626D01*
X76411272Y-133178291D01*
X76282291Y-133307272D01*
X76130626Y-133408611D01*
X75962104Y-133478415D01*
X75783203Y-133514000D01*
X75600797Y-133514000D01*
X75421896Y-133478415D01*
X75253374Y-133408611D01*
X75101709Y-133307272D01*
X74972728Y-133178291D01*
X74871389Y-133026626D01*
X74801585Y-132858104D01*
X74766000Y-132679203D01*
X74766000Y-132496797D01*
X74801585Y-132317896D01*
X74871389Y-132149374D01*
X74972728Y-131997709D01*
X75101709Y-131868728D01*
X75253374Y-131767389D01*
X75421896Y-131697585D01*
X75600797Y-131662000D01*
X75783203Y-131662000D01*
X75962104Y-131697585D01*
G37*
G36*
X65802104Y-131697585D02*
G01*
X65970626Y-131767389D01*
X66122291Y-131868728D01*
X66251272Y-131997709D01*
X66352611Y-132149374D01*
X66422415Y-132317896D01*
X66458000Y-132496797D01*
X66458000Y-132679203D01*
X66422415Y-132858104D01*
X66352611Y-133026626D01*
X66251272Y-133178291D01*
X66122291Y-133307272D01*
X65970626Y-133408611D01*
X65802104Y-133478415D01*
X65623203Y-133514000D01*
X65440797Y-133514000D01*
X65261896Y-133478415D01*
X65093374Y-133408611D01*
X64941709Y-133307272D01*
X64812728Y-133178291D01*
X64711389Y-133026626D01*
X64641585Y-132858104D01*
X64606000Y-132679203D01*
X64606000Y-132496797D01*
X64641585Y-132317896D01*
X64711389Y-132149374D01*
X64812728Y-131997709D01*
X64941709Y-131868728D01*
X65093374Y-131767389D01*
X65261896Y-131697585D01*
X65440797Y-131662000D01*
X65623203Y-131662000D01*
X65802104Y-131697585D01*
G37*
G36*
X56912104Y-131697585D02*
G01*
X57080626Y-131767389D01*
X57232291Y-131868728D01*
X57361272Y-131997709D01*
X57462611Y-132149374D01*
X57532415Y-132317896D01*
X57568000Y-132496797D01*
X57568000Y-132679203D01*
X57532415Y-132858104D01*
X57462611Y-133026626D01*
X57361272Y-133178291D01*
X57232291Y-133307272D01*
X57080626Y-133408611D01*
X56912104Y-133478415D01*
X56733203Y-133514000D01*
X56550797Y-133514000D01*
X56371896Y-133478415D01*
X56203374Y-133408611D01*
X56051709Y-133307272D01*
X55922728Y-133178291D01*
X55821389Y-133026626D01*
X55751585Y-132858104D01*
X55716000Y-132679203D01*
X55716000Y-132496797D01*
X55751585Y-132317896D01*
X55821389Y-132149374D01*
X55922728Y-131997709D01*
X56051709Y-131868728D01*
X56203374Y-131767389D01*
X56371896Y-131697585D01*
X56550797Y-131662000D01*
X56733203Y-131662000D01*
X56912104Y-131697585D01*
G37*
G36*
X46752104Y-131697585D02*
G01*
X46920626Y-131767389D01*
X47072291Y-131868728D01*
X47201272Y-131997709D01*
X47302611Y-132149374D01*
X47372415Y-132317896D01*
X47408000Y-132496797D01*
X47408000Y-132679203D01*
X47372415Y-132858104D01*
X47302611Y-133026626D01*
X47201272Y-133178291D01*
X47072291Y-133307272D01*
X46920626Y-133408611D01*
X46752104Y-133478415D01*
X46573203Y-133514000D01*
X46390797Y-133514000D01*
X46211896Y-133478415D01*
X46043374Y-133408611D01*
X45891709Y-133307272D01*
X45762728Y-133178291D01*
X45661389Y-133026626D01*
X45591585Y-132858104D01*
X45556000Y-132679203D01*
X45556000Y-132496797D01*
X45591585Y-132317896D01*
X45661389Y-132149374D01*
X45762728Y-131997709D01*
X45891709Y-131868728D01*
X46043374Y-131767389D01*
X46211896Y-131697585D01*
X46390797Y-131662000D01*
X46573203Y-131662000D01*
X46752104Y-131697585D01*
G37*
G36*
X62427591Y-129951085D02*
G01*
X62461569Y-129961393D01*
X62492890Y-129978134D01*
X62520339Y-130000661D01*
X62542866Y-130028110D01*
X62559607Y-130059431D01*
X62569915Y-130093409D01*
X62574000Y-130134890D01*
X62574000Y-130811110D01*
X62569915Y-130852591D01*
X62559607Y-130886569D01*
X62542866Y-130917890D01*
X62520339Y-130945339D01*
X62492890Y-130967866D01*
X62461569Y-130984607D01*
X62427591Y-130994915D01*
X62386110Y-130999000D01*
X61784890Y-130999000D01*
X61743409Y-130994915D01*
X61709431Y-130984607D01*
X61678110Y-130967866D01*
X61650661Y-130945339D01*
X61628134Y-130917890D01*
X61611393Y-130886569D01*
X61601085Y-130852591D01*
X61597000Y-130811110D01*
X61597000Y-130134890D01*
X61601085Y-130093409D01*
X61611393Y-130059431D01*
X61628134Y-130028110D01*
X61650661Y-130000661D01*
X61678110Y-129978134D01*
X61709431Y-129961393D01*
X61743409Y-129951085D01*
X61784890Y-129947000D01*
X62386110Y-129947000D01*
X62427591Y-129951085D01*
G37*
G36*
X64002591Y-129951085D02*
G01*
X64036569Y-129961393D01*
X64067890Y-129978134D01*
X64095339Y-130000661D01*
X64117866Y-130028110D01*
X64134607Y-130059431D01*
X64144915Y-130093409D01*
X64149000Y-130134890D01*
X64149000Y-130811110D01*
X64144915Y-130852591D01*
X64134607Y-130886569D01*
X64117866Y-130917890D01*
X64095339Y-130945339D01*
X64067890Y-130967866D01*
X64036569Y-130984607D01*
X64002591Y-130994915D01*
X63961110Y-130999000D01*
X63359890Y-130999000D01*
X63318409Y-130994915D01*
X63284431Y-130984607D01*
X63253110Y-130967866D01*
X63225661Y-130945339D01*
X63203134Y-130917890D01*
X63186393Y-130886569D01*
X63176085Y-130852591D01*
X63172000Y-130811110D01*
X63172000Y-130134890D01*
X63176085Y-130093409D01*
X63186393Y-130059431D01*
X63203134Y-130028110D01*
X63225661Y-130000661D01*
X63253110Y-129978134D01*
X63284431Y-129961393D01*
X63318409Y-129951085D01*
X63359890Y-129947000D01*
X63961110Y-129947000D01*
X64002591Y-129951085D01*
G37*
G36*
X57152591Y-129208085D02*
G01*
X57186569Y-129218393D01*
X57217890Y-129235134D01*
X57245339Y-129257661D01*
X57267866Y-129285110D01*
X57284607Y-129316431D01*
X57294915Y-129350409D01*
X57299000Y-129391890D01*
X57299000Y-129993110D01*
X57294915Y-130034591D01*
X57284607Y-130068569D01*
X57267866Y-130099890D01*
X57245339Y-130127339D01*
X57217890Y-130149866D01*
X57186569Y-130166607D01*
X57152591Y-130176915D01*
X57111110Y-130181000D01*
X56434890Y-130181000D01*
X56393409Y-130176915D01*
X56359431Y-130166607D01*
X56328110Y-130149866D01*
X56300661Y-130127339D01*
X56278134Y-130099890D01*
X56261393Y-130068569D01*
X56251085Y-130034591D01*
X56247000Y-129993110D01*
X56247000Y-129391890D01*
X56251085Y-129350409D01*
X56261393Y-129316431D01*
X56278134Y-129285110D01*
X56300661Y-129257661D01*
X56328110Y-129235134D01*
X56359431Y-129218393D01*
X56393409Y-129208085D01*
X56434890Y-129204000D01*
X57111110Y-129204000D01*
X57152591Y-129208085D01*
G37*
G36*
X59815591Y-129208085D02*
G01*
X59849569Y-129218393D01*
X59880890Y-129235134D01*
X59908339Y-129257661D01*
X59930866Y-129285110D01*
X59947607Y-129316431D01*
X59957915Y-129350409D01*
X59962000Y-129391890D01*
X59962000Y-129993110D01*
X59957915Y-130034591D01*
X59947607Y-130068569D01*
X59930866Y-130099890D01*
X59908339Y-130127339D01*
X59880890Y-130149866D01*
X59849569Y-130166607D01*
X59815591Y-130176915D01*
X59774110Y-130181000D01*
X59097890Y-130181000D01*
X59056409Y-130176915D01*
X59022431Y-130166607D01*
X58991110Y-130149866D01*
X58963661Y-130127339D01*
X58941134Y-130099890D01*
X58924393Y-130068569D01*
X58914085Y-130034591D01*
X58910000Y-129993110D01*
X58910000Y-129391890D01*
X58914085Y-129350409D01*
X58924393Y-129316431D01*
X58941134Y-129285110D01*
X58963661Y-129257661D01*
X58991110Y-129235134D01*
X59022431Y-129218393D01*
X59056409Y-129208085D01*
X59097890Y-129204000D01*
X59774110Y-129204000D01*
X59815591Y-129208085D01*
G37*
G36*
X62419591Y-127748085D02*
G01*
X62453569Y-127758393D01*
X62484890Y-127775134D01*
X62512339Y-127797661D01*
X62534866Y-127825110D01*
X62551607Y-127856431D01*
X62561915Y-127890409D01*
X62566000Y-127931890D01*
X62566000Y-128608110D01*
X62561915Y-128649591D01*
X62551607Y-128683569D01*
X62534866Y-128714890D01*
X62512339Y-128742339D01*
X62484890Y-128764866D01*
X62453569Y-128781607D01*
X62419591Y-128791915D01*
X62378110Y-128796000D01*
X61776890Y-128796000D01*
X61735409Y-128791915D01*
X61701431Y-128781607D01*
X61670110Y-128764866D01*
X61642661Y-128742339D01*
X61620134Y-128714890D01*
X61603393Y-128683569D01*
X61593085Y-128649591D01*
X61589000Y-128608110D01*
X61589000Y-127931890D01*
X61593085Y-127890409D01*
X61603393Y-127856431D01*
X61620134Y-127825110D01*
X61642661Y-127797661D01*
X61670110Y-127775134D01*
X61701431Y-127758393D01*
X61735409Y-127748085D01*
X61776890Y-127744000D01*
X62378110Y-127744000D01*
X62419591Y-127748085D01*
G37*
G36*
X63994591Y-127748085D02*
G01*
X64028569Y-127758393D01*
X64059890Y-127775134D01*
X64087339Y-127797661D01*
X64109866Y-127825110D01*
X64126607Y-127856431D01*
X64136915Y-127890409D01*
X64141000Y-127931890D01*
X64141000Y-128608110D01*
X64136915Y-128649591D01*
X64126607Y-128683569D01*
X64109866Y-128714890D01*
X64087339Y-128742339D01*
X64059890Y-128764866D01*
X64028569Y-128781607D01*
X63994591Y-128791915D01*
X63953110Y-128796000D01*
X63351890Y-128796000D01*
X63310409Y-128791915D01*
X63276431Y-128781607D01*
X63245110Y-128764866D01*
X63217661Y-128742339D01*
X63195134Y-128714890D01*
X63178393Y-128683569D01*
X63168085Y-128649591D01*
X63164000Y-128608110D01*
X63164000Y-127931890D01*
X63168085Y-127890409D01*
X63178393Y-127856431D01*
X63195134Y-127825110D01*
X63217661Y-127797661D01*
X63245110Y-127775134D01*
X63276431Y-127758393D01*
X63310409Y-127748085D01*
X63351890Y-127744000D01*
X63953110Y-127744000D01*
X63994591Y-127748085D01*
G37*
G36*
X57152591Y-127633085D02*
G01*
X57186569Y-127643393D01*
X57217890Y-127660134D01*
X57245339Y-127682661D01*
X57267866Y-127710110D01*
X57284607Y-127741431D01*
X57294915Y-127775409D01*
X57299000Y-127816890D01*
X57299000Y-128418110D01*
X57294915Y-128459591D01*
X57284607Y-128493569D01*
X57267866Y-128524890D01*
X57245339Y-128552339D01*
X57217890Y-128574866D01*
X57186569Y-128591607D01*
X57152591Y-128601915D01*
X57111110Y-128606000D01*
X56434890Y-128606000D01*
X56393409Y-128601915D01*
X56359431Y-128591607D01*
X56328110Y-128574866D01*
X56300661Y-128552339D01*
X56278134Y-128524890D01*
X56261393Y-128493569D01*
X56251085Y-128459591D01*
X56247000Y-128418110D01*
X56247000Y-127816890D01*
X56251085Y-127775409D01*
X56261393Y-127741431D01*
X56278134Y-127710110D01*
X56300661Y-127682661D01*
X56328110Y-127660134D01*
X56359431Y-127643393D01*
X56393409Y-127633085D01*
X56434890Y-127629000D01*
X57111110Y-127629000D01*
X57152591Y-127633085D01*
G37*
G36*
X59815591Y-127633085D02*
G01*
X59849569Y-127643393D01*
X59880890Y-127660134D01*
X59908339Y-127682661D01*
X59930866Y-127710110D01*
X59947607Y-127741431D01*
X59957915Y-127775409D01*
X59962000Y-127816890D01*
X59962000Y-128418110D01*
X59957915Y-128459591D01*
X59947607Y-128493569D01*
X59930866Y-128524890D01*
X59908339Y-128552339D01*
X59880890Y-128574866D01*
X59849569Y-128591607D01*
X59815591Y-128601915D01*
X59774110Y-128606000D01*
X59097890Y-128606000D01*
X59056409Y-128601915D01*
X59022431Y-128591607D01*
X58991110Y-128574866D01*
X58963661Y-128552339D01*
X58941134Y-128524890D01*
X58924393Y-128493569D01*
X58914085Y-128459591D01*
X58910000Y-128418110D01*
X58910000Y-127816890D01*
X58914085Y-127775409D01*
X58924393Y-127741431D01*
X58941134Y-127710110D01*
X58963661Y-127682661D01*
X58991110Y-127660134D01*
X59022431Y-127643393D01*
X59056409Y-127633085D01*
X59097890Y-127629000D01*
X59774110Y-127629000D01*
X59815591Y-127633085D01*
G37*
G36*
X71452591Y-127276085D02*
G01*
X71486569Y-127286393D01*
X71517890Y-127303134D01*
X71545339Y-127325661D01*
X71567866Y-127353110D01*
X71584607Y-127384431D01*
X71594915Y-127418409D01*
X71599000Y-127459890D01*
X71599000Y-128061110D01*
X71594915Y-128102591D01*
X71584607Y-128136569D01*
X71567866Y-128167890D01*
X71545339Y-128195339D01*
X71517890Y-128217866D01*
X71486569Y-128234607D01*
X71452591Y-128244915D01*
X71411110Y-128249000D01*
X70734890Y-128249000D01*
X70693409Y-128244915D01*
X70659431Y-128234607D01*
X70628110Y-128217866D01*
X70600661Y-128195339D01*
X70578134Y-128167890D01*
X70561393Y-128136569D01*
X70551085Y-128102591D01*
X70547000Y-128061110D01*
X70547000Y-127459890D01*
X70551085Y-127418409D01*
X70561393Y-127384431D01*
X70578134Y-127353110D01*
X70600661Y-127325661D01*
X70628110Y-127303134D01*
X70659431Y-127286393D01*
X70693409Y-127276085D01*
X70734890Y-127272000D01*
X71411110Y-127272000D01*
X71452591Y-127276085D01*
G37*
G36*
X78484591Y-126922085D02*
G01*
X78518569Y-126932393D01*
X78549890Y-126949134D01*
X78577339Y-126971661D01*
X78599866Y-126999110D01*
X78616607Y-127030431D01*
X78626915Y-127064409D01*
X78631000Y-127105890D01*
X78631000Y-127707110D01*
X78626915Y-127748591D01*
X78616607Y-127782569D01*
X78599866Y-127813890D01*
X78577339Y-127841339D01*
X78549890Y-127863866D01*
X78518569Y-127880607D01*
X78484591Y-127890915D01*
X78443110Y-127895000D01*
X77766890Y-127895000D01*
X77725409Y-127890915D01*
X77691431Y-127880607D01*
X77660110Y-127863866D01*
X77632661Y-127841339D01*
X77610134Y-127813890D01*
X77593393Y-127782569D01*
X77583085Y-127748591D01*
X77579000Y-127707110D01*
X77579000Y-127105890D01*
X77583085Y-127064409D01*
X77593393Y-127030431D01*
X77610134Y-126999110D01*
X77632661Y-126971661D01*
X77660110Y-126949134D01*
X77691431Y-126932393D01*
X77725409Y-126922085D01*
X77766890Y-126918000D01*
X78443110Y-126918000D01*
X78484591Y-126922085D01*
G37*
G36*
X76712000Y-127793000D02*
G01*
X75910000Y-127793000D01*
X75910000Y-127091000D01*
X76712000Y-127091000D01*
X76712000Y-127793000D01*
G37*
G36*
X74712000Y-127793000D02*
G01*
X73910000Y-127793000D01*
X73910000Y-127091000D01*
X74712000Y-127091000D01*
X74712000Y-127793000D01*
G37*
G36*
X52974000Y-127224000D02*
G01*
X50972000Y-127224000D01*
X50972000Y-126722000D01*
X52974000Y-126722000D01*
X52974000Y-127224000D01*
G37*
G36*
X71452591Y-125701085D02*
G01*
X71486569Y-125711393D01*
X71517890Y-125728134D01*
X71545339Y-125750661D01*
X71567866Y-125778110D01*
X71584607Y-125809431D01*
X71594915Y-125843409D01*
X71599000Y-125884890D01*
X71599000Y-126486110D01*
X71594915Y-126527591D01*
X71584607Y-126561569D01*
X71567866Y-126592890D01*
X71545339Y-126620339D01*
X71517890Y-126642866D01*
X71486569Y-126659607D01*
X71452591Y-126669915D01*
X71411110Y-126674000D01*
X70734890Y-126674000D01*
X70693409Y-126669915D01*
X70659431Y-126659607D01*
X70628110Y-126642866D01*
X70600661Y-126620339D01*
X70578134Y-126592890D01*
X70561393Y-126561569D01*
X70551085Y-126527591D01*
X70547000Y-126486110D01*
X70547000Y-125884890D01*
X70551085Y-125843409D01*
X70561393Y-125809431D01*
X70578134Y-125778110D01*
X70600661Y-125750661D01*
X70628110Y-125728134D01*
X70659431Y-125711393D01*
X70693409Y-125701085D01*
X70734890Y-125697000D01*
X71411110Y-125697000D01*
X71452591Y-125701085D01*
G37*
G36*
X78484591Y-125347085D02*
G01*
X78518569Y-125357393D01*
X78549890Y-125374134D01*
X78577339Y-125396661D01*
X78599866Y-125424110D01*
X78616607Y-125455431D01*
X78626915Y-125489409D01*
X78631000Y-125530890D01*
X78631000Y-126132110D01*
X78626915Y-126173591D01*
X78616607Y-126207569D01*
X78599866Y-126238890D01*
X78577339Y-126266339D01*
X78549890Y-126288866D01*
X78518569Y-126305607D01*
X78484591Y-126315915D01*
X78443110Y-126320000D01*
X77766890Y-126320000D01*
X77725409Y-126315915D01*
X77691431Y-126305607D01*
X77660110Y-126288866D01*
X77632661Y-126266339D01*
X77610134Y-126238890D01*
X77593393Y-126207569D01*
X77583085Y-126173591D01*
X77579000Y-126132110D01*
X77579000Y-125530890D01*
X77583085Y-125489409D01*
X77593393Y-125455431D01*
X77610134Y-125424110D01*
X77632661Y-125396661D01*
X77660110Y-125374134D01*
X77691431Y-125357393D01*
X77725409Y-125347085D01*
X77766890Y-125343000D01*
X78443110Y-125343000D01*
X78484591Y-125347085D01*
G37*
G36*
X76712000Y-126293000D02*
G01*
X75910000Y-126293000D01*
X75910000Y-125191000D01*
X76712000Y-125191000D01*
X76712000Y-126293000D01*
G37*
G36*
X52974000Y-126024000D02*
G01*
X50972000Y-126024000D01*
X50972000Y-125522000D01*
X52974000Y-125522000D01*
X52974000Y-126024000D01*
G37*
G36*
X47824000Y-125924000D02*
G01*
X46622000Y-125924000D01*
X46622000Y-124022000D01*
X47824000Y-124022000D01*
X47824000Y-125924000D01*
G37*
G36*
X44124000Y-125924000D02*
G01*
X42922000Y-125924000D01*
X42922000Y-124022000D01*
X44124000Y-124022000D01*
X44124000Y-125924000D01*
G37*
G36*
X74712000Y-125893000D02*
G01*
X73910000Y-125893000D01*
X73910000Y-125191000D01*
X74712000Y-125191000D01*
X74712000Y-125893000D01*
G37*
G36*
X65784591Y-124890085D02*
G01*
X65818569Y-124900393D01*
X65849890Y-124917134D01*
X65877339Y-124939661D01*
X65899866Y-124967110D01*
X65916607Y-124998431D01*
X65926915Y-125032409D01*
X65931000Y-125073890D01*
X65931000Y-125675110D01*
X65926915Y-125716591D01*
X65916607Y-125750569D01*
X65899866Y-125781890D01*
X65877339Y-125809339D01*
X65849890Y-125831866D01*
X65818569Y-125848607D01*
X65784591Y-125858915D01*
X65743110Y-125863000D01*
X65066890Y-125863000D01*
X65025409Y-125858915D01*
X64991431Y-125848607D01*
X64960110Y-125831866D01*
X64932661Y-125809339D01*
X64910134Y-125781890D01*
X64893393Y-125750569D01*
X64883085Y-125716591D01*
X64879000Y-125675110D01*
X64879000Y-125073890D01*
X64883085Y-125032409D01*
X64893393Y-124998431D01*
X64910134Y-124967110D01*
X64932661Y-124939661D01*
X64960110Y-124917134D01*
X64991431Y-124900393D01*
X65025409Y-124890085D01*
X65066890Y-124886000D01*
X65743110Y-124886000D01*
X65784591Y-124890085D01*
G37*
G36*
X59160855Y-119852333D02*
G01*
X59165529Y-119853751D01*
X59169830Y-119856050D01*
X59176202Y-119861279D01*
X59196576Y-119874893D01*
X59219215Y-119884270D01*
X59243249Y-119889050D01*
X59267753Y-119889050D01*
X59291786Y-119884269D01*
X59314425Y-119874892D01*
X59334798Y-119861279D01*
X59341170Y-119856050D01*
X59345471Y-119853751D01*
X59350145Y-119852333D01*
X59361141Y-119851250D01*
X59649859Y-119851250D01*
X59660855Y-119852333D01*
X59665529Y-119853751D01*
X59669830Y-119856050D01*
X59676202Y-119861279D01*
X59696576Y-119874893D01*
X59719215Y-119884270D01*
X59743249Y-119889050D01*
X59767753Y-119889050D01*
X59791786Y-119884269D01*
X59814425Y-119874892D01*
X59834798Y-119861279D01*
X59841170Y-119856050D01*
X59845471Y-119853751D01*
X59850145Y-119852333D01*
X59861141Y-119851250D01*
X60149859Y-119851250D01*
X60160855Y-119852333D01*
X60165529Y-119853751D01*
X60169830Y-119856050D01*
X60176202Y-119861279D01*
X60196576Y-119874893D01*
X60219215Y-119884270D01*
X60243249Y-119889050D01*
X60267753Y-119889050D01*
X60291786Y-119884269D01*
X60314425Y-119874892D01*
X60334798Y-119861279D01*
X60341170Y-119856050D01*
X60345471Y-119853751D01*
X60350145Y-119852333D01*
X60361141Y-119851250D01*
X60649859Y-119851250D01*
X60660855Y-119852333D01*
X60665529Y-119853751D01*
X60669830Y-119856050D01*
X60676202Y-119861279D01*
X60696576Y-119874893D01*
X60719215Y-119884270D01*
X60743249Y-119889050D01*
X60767753Y-119889050D01*
X60791786Y-119884269D01*
X60814425Y-119874892D01*
X60834798Y-119861279D01*
X60841170Y-119856050D01*
X60845471Y-119853751D01*
X60850145Y-119852333D01*
X60861141Y-119851250D01*
X61149859Y-119851250D01*
X61160855Y-119852333D01*
X61165529Y-119853751D01*
X61169830Y-119856050D01*
X61176202Y-119861279D01*
X61196576Y-119874893D01*
X61219215Y-119884270D01*
X61243249Y-119889050D01*
X61267753Y-119889050D01*
X61291786Y-119884269D01*
X61314425Y-119874892D01*
X61334798Y-119861279D01*
X61341170Y-119856050D01*
X61345471Y-119853751D01*
X61350145Y-119852333D01*
X61361141Y-119851250D01*
X61649859Y-119851250D01*
X61660855Y-119852333D01*
X61665529Y-119853751D01*
X61669830Y-119856050D01*
X61676202Y-119861279D01*
X61696576Y-119874893D01*
X61719215Y-119884270D01*
X61743249Y-119889050D01*
X61767753Y-119889050D01*
X61791786Y-119884269D01*
X61814425Y-119874892D01*
X61834798Y-119861279D01*
X61841170Y-119856050D01*
X61845471Y-119853751D01*
X61850145Y-119852333D01*
X61861141Y-119851250D01*
X62149859Y-119851250D01*
X62160855Y-119852333D01*
X62165529Y-119853751D01*
X62169830Y-119856050D01*
X62176202Y-119861279D01*
X62196576Y-119874893D01*
X62219215Y-119884270D01*
X62243249Y-119889050D01*
X62267753Y-119889050D01*
X62291786Y-119884269D01*
X62314425Y-119874892D01*
X62334798Y-119861279D01*
X62341170Y-119856050D01*
X62345471Y-119853751D01*
X62350145Y-119852333D01*
X62361141Y-119851250D01*
X62649859Y-119851250D01*
X62660855Y-119852333D01*
X62665529Y-119853751D01*
X62669831Y-119856050D01*
X62673604Y-119859146D01*
X62676700Y-119862919D01*
X62678999Y-119867221D01*
X62680417Y-119871895D01*
X62681500Y-119882891D01*
X62681500Y-120726251D01*
X62683902Y-120750637D01*
X62691015Y-120774086D01*
X62702566Y-120795697D01*
X62718111Y-120814639D01*
X62737053Y-120830184D01*
X62758664Y-120841735D01*
X62782113Y-120848848D01*
X62806499Y-120851250D01*
X63649859Y-120851250D01*
X63660855Y-120852333D01*
X63665529Y-120853751D01*
X63669831Y-120856050D01*
X63673604Y-120859146D01*
X63676700Y-120862919D01*
X63678999Y-120867221D01*
X63680417Y-120871895D01*
X63681500Y-120882891D01*
X63681500Y-121171609D01*
X63680417Y-121182605D01*
X63678999Y-121187279D01*
X63676700Y-121191580D01*
X63671471Y-121197952D01*
X63657857Y-121218326D01*
X63648480Y-121240965D01*
X63643700Y-121264999D01*
X63643700Y-121289503D01*
X63648481Y-121313536D01*
X63657858Y-121336175D01*
X63671471Y-121356548D01*
X63676700Y-121362920D01*
X63678999Y-121367221D01*
X63680417Y-121371895D01*
X63681500Y-121382891D01*
X63681500Y-121671609D01*
X63680417Y-121682605D01*
X63678999Y-121687279D01*
X63676700Y-121691580D01*
X63671471Y-121697952D01*
X63657857Y-121718326D01*
X63648480Y-121740965D01*
X63643700Y-121764999D01*
X63643700Y-121789503D01*
X63648481Y-121813536D01*
X63657858Y-121836175D01*
X63671471Y-121856548D01*
X63676700Y-121862920D01*
X63678999Y-121867221D01*
X63680417Y-121871895D01*
X63681500Y-121882891D01*
X63681500Y-122171609D01*
X63680417Y-122182605D01*
X63678999Y-122187279D01*
X63676700Y-122191580D01*
X63671471Y-122197952D01*
X63657857Y-122218326D01*
X63648480Y-122240965D01*
X63643700Y-122264999D01*
X63643700Y-122289503D01*
X63648481Y-122313536D01*
X63657858Y-122336175D01*
X63671471Y-122356548D01*
X63676700Y-122362920D01*
X63678999Y-122367221D01*
X63680417Y-122371895D01*
X63681500Y-122382891D01*
X63681500Y-122671609D01*
X63680417Y-122682605D01*
X63678999Y-122687279D01*
X63676700Y-122691580D01*
X63671471Y-122697952D01*
X63657857Y-122718326D01*
X63648480Y-122740965D01*
X63643700Y-122764999D01*
X63643700Y-122789503D01*
X63648481Y-122813536D01*
X63657858Y-122836175D01*
X63671471Y-122856548D01*
X63676700Y-122862920D01*
X63678999Y-122867221D01*
X63680417Y-122871895D01*
X63681500Y-122882891D01*
X63681500Y-123171609D01*
X63680417Y-123182605D01*
X63678999Y-123187279D01*
X63676700Y-123191580D01*
X63671471Y-123197952D01*
X63657857Y-123218326D01*
X63648480Y-123240965D01*
X63643700Y-123264999D01*
X63643700Y-123289503D01*
X63648481Y-123313536D01*
X63657858Y-123336175D01*
X63671471Y-123356548D01*
X63676700Y-123362920D01*
X63678999Y-123367221D01*
X63680417Y-123371895D01*
X63681500Y-123382891D01*
X63681500Y-123671609D01*
X63680417Y-123682605D01*
X63678999Y-123687279D01*
X63676700Y-123691580D01*
X63671471Y-123697952D01*
X63657857Y-123718326D01*
X63648480Y-123740965D01*
X63643700Y-123764999D01*
X63643700Y-123789503D01*
X63648481Y-123813536D01*
X63657858Y-123836175D01*
X63671471Y-123856548D01*
X63676700Y-123862920D01*
X63678999Y-123867221D01*
X63680417Y-123871895D01*
X63681500Y-123882891D01*
X63681500Y-124171609D01*
X63680417Y-124182605D01*
X63678999Y-124187279D01*
X63676700Y-124191580D01*
X63671471Y-124197952D01*
X63657857Y-124218326D01*
X63648480Y-124240965D01*
X63643700Y-124264999D01*
X63643700Y-124289503D01*
X63648481Y-124313536D01*
X63657858Y-124336175D01*
X63671471Y-124356548D01*
X63676700Y-124362920D01*
X63678999Y-124367221D01*
X63680417Y-124371895D01*
X63681500Y-124382891D01*
X63681500Y-124671609D01*
X63680417Y-124682605D01*
X63678999Y-124687279D01*
X63676700Y-124691581D01*
X63673604Y-124695354D01*
X63669831Y-124698450D01*
X63665529Y-124700749D01*
X63660855Y-124702167D01*
X63649859Y-124703250D01*
X62806499Y-124703250D01*
X62782113Y-124705652D01*
X62758664Y-124712765D01*
X62737053Y-124724316D01*
X62718111Y-124739861D01*
X62702566Y-124758803D01*
X62691015Y-124780414D01*
X62683902Y-124803863D01*
X62681500Y-124828249D01*
X62681500Y-125671609D01*
X62680417Y-125682605D01*
X62678999Y-125687279D01*
X62676700Y-125691581D01*
X62673604Y-125695354D01*
X62669831Y-125698450D01*
X62665529Y-125700749D01*
X62660855Y-125702167D01*
X62649859Y-125703250D01*
X62361141Y-125703250D01*
X62350145Y-125702167D01*
X62345471Y-125700749D01*
X62341170Y-125698450D01*
X62334798Y-125693221D01*
X62314424Y-125679607D01*
X62291785Y-125670230D01*
X62267751Y-125665450D01*
X62243247Y-125665450D01*
X62219214Y-125670231D01*
X62196575Y-125679608D01*
X62176202Y-125693221D01*
X62169830Y-125698450D01*
X62165529Y-125700749D01*
X62160855Y-125702167D01*
X62149859Y-125703250D01*
X61861141Y-125703250D01*
X61850145Y-125702167D01*
X61845471Y-125700749D01*
X61841170Y-125698450D01*
X61834798Y-125693221D01*
X61814424Y-125679607D01*
X61791785Y-125670230D01*
X61767751Y-125665450D01*
X61743247Y-125665450D01*
X61719214Y-125670231D01*
X61696575Y-125679608D01*
X61676202Y-125693221D01*
X61669830Y-125698450D01*
X61665529Y-125700749D01*
X61660855Y-125702167D01*
X61649859Y-125703250D01*
X61361141Y-125703250D01*
X61350145Y-125702167D01*
X61345471Y-125700749D01*
X61341170Y-125698450D01*
X61334798Y-125693221D01*
X61314424Y-125679607D01*
X61291785Y-125670230D01*
X61267751Y-125665450D01*
X61243247Y-125665450D01*
X61219214Y-125670231D01*
X61196575Y-125679608D01*
X61176202Y-125693221D01*
X61169830Y-125698450D01*
X61165529Y-125700749D01*
X61160855Y-125702167D01*
X61149859Y-125703250D01*
X60861141Y-125703250D01*
X60850145Y-125702167D01*
X60845471Y-125700749D01*
X60841170Y-125698450D01*
X60834798Y-125693221D01*
X60814424Y-125679607D01*
X60791785Y-125670230D01*
X60767751Y-125665450D01*
X60743247Y-125665450D01*
X60719214Y-125670231D01*
X60696575Y-125679608D01*
X60676202Y-125693221D01*
X60669830Y-125698450D01*
X60665529Y-125700749D01*
X60660855Y-125702167D01*
X60649859Y-125703250D01*
X60361141Y-125703250D01*
X60350145Y-125702167D01*
X60345471Y-125700749D01*
X60341170Y-125698450D01*
X60334798Y-125693221D01*
X60314424Y-125679607D01*
X60291785Y-125670230D01*
X60267751Y-125665450D01*
X60243247Y-125665450D01*
X60219214Y-125670231D01*
X60196575Y-125679608D01*
X60176202Y-125693221D01*
X60169830Y-125698450D01*
X60165529Y-125700749D01*
X60160855Y-125702167D01*
X60149859Y-125703250D01*
X59861141Y-125703250D01*
X59850145Y-125702167D01*
X59845471Y-125700749D01*
X59841170Y-125698450D01*
X59834798Y-125693221D01*
X59814424Y-125679607D01*
X59791785Y-125670230D01*
X59767751Y-125665450D01*
X59743247Y-125665450D01*
X59719214Y-125670231D01*
X59696575Y-125679608D01*
X59676202Y-125693221D01*
X59669830Y-125698450D01*
X59665529Y-125700749D01*
X59660855Y-125702167D01*
X59649859Y-125703250D01*
X59361141Y-125703250D01*
X59350145Y-125702167D01*
X59345471Y-125700749D01*
X59341170Y-125698450D01*
X59334798Y-125693221D01*
X59314424Y-125679607D01*
X59291785Y-125670230D01*
X59267751Y-125665450D01*
X59243247Y-125665450D01*
X59219214Y-125670231D01*
X59196575Y-125679608D01*
X59176202Y-125693221D01*
X59169830Y-125698450D01*
X59165529Y-125700749D01*
X59160855Y-125702167D01*
X59149859Y-125703250D01*
X58861141Y-125703250D01*
X58850145Y-125702167D01*
X58845471Y-125700749D01*
X58841169Y-125698450D01*
X58837396Y-125695354D01*
X58834300Y-125691581D01*
X58832001Y-125687279D01*
X58830583Y-125682605D01*
X58829500Y-125671609D01*
X58829500Y-124828249D01*
X58827098Y-124803863D01*
X58819985Y-124780414D01*
X58808434Y-124758803D01*
X58792889Y-124739861D01*
X58773947Y-124724316D01*
X58752336Y-124712765D01*
X58728887Y-124705652D01*
X58704501Y-124703250D01*
X57861141Y-124703250D01*
X57850145Y-124702167D01*
X57845471Y-124700749D01*
X57841169Y-124698450D01*
X57837396Y-124695354D01*
X57834300Y-124691581D01*
X57832001Y-124687279D01*
X57830583Y-124682605D01*
X57829500Y-124671609D01*
X57829500Y-124382891D01*
X57830583Y-124371895D01*
X57832001Y-124367221D01*
X57834300Y-124362920D01*
X57839529Y-124356548D01*
X57853143Y-124336174D01*
X57862520Y-124313535D01*
X57867300Y-124289501D01*
X57867300Y-124264997D01*
X57862519Y-124240964D01*
X57853142Y-124218325D01*
X57839529Y-124197952D01*
X57834300Y-124191580D01*
X57832001Y-124187279D01*
X57830583Y-124182605D01*
X57829500Y-124171609D01*
X57829500Y-123882891D01*
X57830583Y-123871895D01*
X57832001Y-123867221D01*
X57834300Y-123862920D01*
X57839529Y-123856548D01*
X57853143Y-123836174D01*
X57862520Y-123813535D01*
X57867300Y-123789501D01*
X57867300Y-123764997D01*
X57862519Y-123740964D01*
X57853142Y-123718325D01*
X57839529Y-123697952D01*
X57834300Y-123691580D01*
X57832001Y-123687279D01*
X57830583Y-123682605D01*
X57829500Y-123671609D01*
X57829500Y-123382891D01*
X57830583Y-123371895D01*
X57832001Y-123367221D01*
X57834300Y-123362920D01*
X57839529Y-123356548D01*
X57853143Y-123336174D01*
X57862520Y-123313535D01*
X57867300Y-123289501D01*
X57867300Y-123264997D01*
X57862519Y-123240964D01*
X57853142Y-123218325D01*
X57839529Y-123197952D01*
X57834300Y-123191580D01*
X57832001Y-123187279D01*
X57830583Y-123182605D01*
X57829500Y-123171609D01*
X57829500Y-122882891D01*
X57830583Y-122871895D01*
X57832001Y-122867221D01*
X57834300Y-122862920D01*
X57839529Y-122856548D01*
X57853143Y-122836174D01*
X57862520Y-122813535D01*
X57867300Y-122789501D01*
X57867300Y-122764997D01*
X57862519Y-122740964D01*
X57853142Y-122718325D01*
X57839529Y-122697952D01*
X57834300Y-122691580D01*
X57832001Y-122687279D01*
X57830583Y-122682605D01*
X57829500Y-122671609D01*
X57829500Y-122382891D01*
X57830583Y-122371895D01*
X57832001Y-122367221D01*
X57834300Y-122362920D01*
X57839529Y-122356548D01*
X57853143Y-122336174D01*
X57862520Y-122313535D01*
X57867300Y-122289501D01*
X57867300Y-122264997D01*
X57862519Y-122240964D01*
X57853142Y-122218325D01*
X57839529Y-122197952D01*
X57834300Y-122191580D01*
X57832001Y-122187279D01*
X57830583Y-122182605D01*
X57829500Y-122171609D01*
X57829500Y-121882891D01*
X57830583Y-121871895D01*
X57832001Y-121867221D01*
X57834300Y-121862920D01*
X57839529Y-121856548D01*
X57853143Y-121836174D01*
X57862520Y-121813535D01*
X57867300Y-121789501D01*
X57867300Y-121764997D01*
X57862519Y-121740964D01*
X57853142Y-121718325D01*
X57839529Y-121697952D01*
X57834300Y-121691580D01*
X57832001Y-121687279D01*
X57830583Y-121682605D01*
X57829500Y-121671609D01*
X57829500Y-121382891D01*
X57830583Y-121371895D01*
X57832001Y-121367221D01*
X57834300Y-121362920D01*
X57839529Y-121356548D01*
X57853143Y-121336174D01*
X57862520Y-121313535D01*
X57867300Y-121289501D01*
X57867300Y-121264999D01*
X58768700Y-121264999D01*
X58768700Y-121289503D01*
X58773481Y-121313536D01*
X58782858Y-121336175D01*
X58796471Y-121356548D01*
X58801700Y-121362920D01*
X58803999Y-121367221D01*
X58805417Y-121371895D01*
X58806500Y-121382891D01*
X58806500Y-121671609D01*
X58805417Y-121682605D01*
X58803999Y-121687279D01*
X58801700Y-121691580D01*
X58796471Y-121697952D01*
X58782857Y-121718326D01*
X58773480Y-121740965D01*
X58768700Y-121764999D01*
X58768700Y-121789503D01*
X58773481Y-121813536D01*
X58782858Y-121836175D01*
X58796471Y-121856548D01*
X58801700Y-121862920D01*
X58803999Y-121867221D01*
X58805417Y-121871895D01*
X58806500Y-121882891D01*
X58806500Y-122171609D01*
X58805417Y-122182605D01*
X58803999Y-122187279D01*
X58801700Y-122191580D01*
X58796471Y-122197952D01*
X58782857Y-122218326D01*
X58773480Y-122240965D01*
X58768700Y-122264999D01*
X58768700Y-122289503D01*
X58773481Y-122313536D01*
X58782858Y-122336175D01*
X58796471Y-122356548D01*
X58801700Y-122362920D01*
X58803999Y-122367221D01*
X58805417Y-122371895D01*
X58806500Y-122382891D01*
X58806500Y-122671609D01*
X58805417Y-122682605D01*
X58803999Y-122687279D01*
X58801700Y-122691580D01*
X58796471Y-122697952D01*
X58782857Y-122718326D01*
X58773480Y-122740965D01*
X58768700Y-122764999D01*
X58768700Y-122789503D01*
X58773481Y-122813536D01*
X58782858Y-122836175D01*
X58796471Y-122856548D01*
X58801700Y-122862920D01*
X58803999Y-122867221D01*
X58805417Y-122871895D01*
X58806500Y-122882891D01*
X58806500Y-123171609D01*
X58805417Y-123182605D01*
X58803999Y-123187279D01*
X58801700Y-123191580D01*
X58796471Y-123197952D01*
X58782857Y-123218326D01*
X58773480Y-123240965D01*
X58768700Y-123264999D01*
X58768700Y-123289503D01*
X58773481Y-123313536D01*
X58782858Y-123336175D01*
X58796471Y-123356548D01*
X58801700Y-123362920D01*
X58803999Y-123367221D01*
X58805417Y-123371895D01*
X58806500Y-123382891D01*
X58806500Y-123671609D01*
X58805417Y-123682605D01*
X58803999Y-123687279D01*
X58801700Y-123691580D01*
X58796471Y-123697952D01*
X58782857Y-123718326D01*
X58773480Y-123740965D01*
X58768700Y-123764999D01*
X58768700Y-123789503D01*
X58773481Y-123813536D01*
X58782858Y-123836175D01*
X58796471Y-123856548D01*
X58801700Y-123862920D01*
X58803999Y-123867221D01*
X58805417Y-123871895D01*
X58806500Y-123882891D01*
X58806500Y-124171609D01*
X58805417Y-124182605D01*
X58803999Y-124187279D01*
X58801700Y-124191580D01*
X58796471Y-124197952D01*
X58782857Y-124218326D01*
X58773480Y-124240965D01*
X58768700Y-124264999D01*
X58768700Y-124289503D01*
X58773481Y-124313536D01*
X58782858Y-124336175D01*
X58796471Y-124356548D01*
X58801700Y-124362920D01*
X58803999Y-124367221D01*
X58805417Y-124371895D01*
X58806500Y-124382891D01*
X58806500Y-124601251D01*
X58808902Y-124625637D01*
X58816015Y-124649086D01*
X58827566Y-124670697D01*
X58843111Y-124689639D01*
X58862053Y-124705184D01*
X58883664Y-124716735D01*
X58907113Y-124723848D01*
X58931499Y-124726250D01*
X59149859Y-124726250D01*
X59160855Y-124727333D01*
X59165529Y-124728751D01*
X59169830Y-124731050D01*
X59176202Y-124736279D01*
X59196576Y-124749893D01*
X59219215Y-124759270D01*
X59243249Y-124764050D01*
X59267753Y-124764050D01*
X59291786Y-124759269D01*
X59314425Y-124749892D01*
X59334798Y-124736279D01*
X59341170Y-124731050D01*
X59345471Y-124728751D01*
X59350145Y-124727333D01*
X59361141Y-124726250D01*
X59649859Y-124726250D01*
X59660855Y-124727333D01*
X59665529Y-124728751D01*
X59669830Y-124731050D01*
X59676202Y-124736279D01*
X59696576Y-124749893D01*
X59719215Y-124759270D01*
X59743249Y-124764050D01*
X59767753Y-124764050D01*
X59791786Y-124759269D01*
X59814425Y-124749892D01*
X59834798Y-124736279D01*
X59841170Y-124731050D01*
X59845471Y-124728751D01*
X59850145Y-124727333D01*
X59861141Y-124726250D01*
X60149859Y-124726250D01*
X60160855Y-124727333D01*
X60165529Y-124728751D01*
X60169830Y-124731050D01*
X60176202Y-124736279D01*
X60196576Y-124749893D01*
X60219215Y-124759270D01*
X60243249Y-124764050D01*
X60267753Y-124764050D01*
X60291786Y-124759269D01*
X60314425Y-124749892D01*
X60334798Y-124736279D01*
X60341170Y-124731050D01*
X60345471Y-124728751D01*
X60350145Y-124727333D01*
X60361141Y-124726250D01*
X60649859Y-124726250D01*
X60660855Y-124727333D01*
X60665529Y-124728751D01*
X60669830Y-124731050D01*
X60676202Y-124736279D01*
X60696576Y-124749893D01*
X60719215Y-124759270D01*
X60743249Y-124764050D01*
X60767753Y-124764050D01*
X60791786Y-124759269D01*
X60814425Y-124749892D01*
X60834798Y-124736279D01*
X60841170Y-124731050D01*
X60845471Y-124728751D01*
X60850145Y-124727333D01*
X60861141Y-124726250D01*
X61149859Y-124726250D01*
X61160855Y-124727333D01*
X61165529Y-124728751D01*
X61169830Y-124731050D01*
X61176202Y-124736279D01*
X61196576Y-124749893D01*
X61219215Y-124759270D01*
X61243249Y-124764050D01*
X61267753Y-124764050D01*
X61291786Y-124759269D01*
X61314425Y-124749892D01*
X61334798Y-124736279D01*
X61341170Y-124731050D01*
X61345471Y-124728751D01*
X61350145Y-124727333D01*
X61361141Y-124726250D01*
X61649859Y-124726250D01*
X61660855Y-124727333D01*
X61665529Y-124728751D01*
X61669830Y-124731050D01*
X61676202Y-124736279D01*
X61696576Y-124749893D01*
X61719215Y-124759270D01*
X61743249Y-124764050D01*
X61767753Y-124764050D01*
X61791786Y-124759269D01*
X61814425Y-124749892D01*
X61834798Y-124736279D01*
X61841170Y-124731050D01*
X61845471Y-124728751D01*
X61850145Y-124727333D01*
X61861141Y-124726250D01*
X62149859Y-124726250D01*
X62160855Y-124727333D01*
X62165529Y-124728751D01*
X62169830Y-124731050D01*
X62176202Y-124736279D01*
X62196576Y-124749893D01*
X62219215Y-124759270D01*
X62243249Y-124764050D01*
X62267753Y-124764050D01*
X62291786Y-124759269D01*
X62314425Y-124749892D01*
X62334798Y-124736279D01*
X62341170Y-124731050D01*
X62345471Y-124728751D01*
X62350145Y-124727333D01*
X62361141Y-124726250D01*
X62579501Y-124726250D01*
X62603887Y-124723848D01*
X62627336Y-124716735D01*
X62648947Y-124705184D01*
X62667889Y-124689639D01*
X62683434Y-124670697D01*
X62694985Y-124649086D01*
X62702098Y-124625637D01*
X62704500Y-124601251D01*
X62704500Y-124382891D01*
X62705583Y-124371895D01*
X62707001Y-124367221D01*
X62709300Y-124362920D01*
X62714529Y-124356548D01*
X62728143Y-124336174D01*
X62737520Y-124313535D01*
X62742300Y-124289501D01*
X62742300Y-124264997D01*
X62737519Y-124240964D01*
X62728142Y-124218325D01*
X62714529Y-124197952D01*
X62709300Y-124191580D01*
X62707001Y-124187279D01*
X62705583Y-124182605D01*
X62704500Y-124171609D01*
X62704500Y-123882891D01*
X62705583Y-123871895D01*
X62707001Y-123867221D01*
X62709300Y-123862920D01*
X62714529Y-123856548D01*
X62728143Y-123836174D01*
X62737520Y-123813535D01*
X62742300Y-123789501D01*
X62742300Y-123764997D01*
X62737519Y-123740964D01*
X62728142Y-123718325D01*
X62714529Y-123697952D01*
X62709300Y-123691580D01*
X62707001Y-123687279D01*
X62705583Y-123682605D01*
X62704500Y-123671609D01*
X62704500Y-123382891D01*
X62705583Y-123371895D01*
X62707001Y-123367221D01*
X62709300Y-123362920D01*
X62714529Y-123356548D01*
X62728143Y-123336174D01*
X62737520Y-123313535D01*
X62742300Y-123289501D01*
X62742300Y-123264997D01*
X62737519Y-123240964D01*
X62728142Y-123218325D01*
X62714529Y-123197952D01*
X62709300Y-123191580D01*
X62707001Y-123187279D01*
X62705583Y-123182605D01*
X62704500Y-123171609D01*
X62704500Y-122882891D01*
X62705583Y-122871895D01*
X62707001Y-122867221D01*
X62709300Y-122862920D01*
X62714529Y-122856548D01*
X62728143Y-122836174D01*
X62737520Y-122813535D01*
X62742300Y-122789501D01*
X62742300Y-122764997D01*
X62737519Y-122740964D01*
X62728142Y-122718325D01*
X62714529Y-122697952D01*
X62709300Y-122691580D01*
X62707001Y-122687279D01*
X62705583Y-122682605D01*
X62704500Y-122671609D01*
X62704500Y-122382891D01*
X62705583Y-122371895D01*
X62707001Y-122367221D01*
X62709300Y-122362920D01*
X62714529Y-122356548D01*
X62728143Y-122336174D01*
X62737520Y-122313535D01*
X62742300Y-122289501D01*
X62742300Y-122264997D01*
X62737519Y-122240964D01*
X62728142Y-122218325D01*
X62714529Y-122197952D01*
X62709300Y-122191580D01*
X62707001Y-122187279D01*
X62705583Y-122182605D01*
X62704500Y-122171609D01*
X62704500Y-121882891D01*
X62705583Y-121871895D01*
X62707001Y-121867221D01*
X62709300Y-121862920D01*
X62714529Y-121856548D01*
X62728143Y-121836174D01*
X62737520Y-121813535D01*
X62742300Y-121789501D01*
X62742300Y-121764997D01*
X62737519Y-121740964D01*
X62728142Y-121718325D01*
X62714529Y-121697952D01*
X62709300Y-121691580D01*
X62707001Y-121687279D01*
X62705583Y-121682605D01*
X62704500Y-121671609D01*
X62704500Y-121382891D01*
X62705583Y-121371895D01*
X62707001Y-121367221D01*
X62709300Y-121362920D01*
X62714529Y-121356548D01*
X62728143Y-121336174D01*
X62737520Y-121313535D01*
X62742300Y-121289501D01*
X62742300Y-121264997D01*
X62737519Y-121240964D01*
X62728142Y-121218325D01*
X62714529Y-121197952D01*
X62709300Y-121191580D01*
X62707001Y-121187279D01*
X62705583Y-121182605D01*
X62704500Y-121171609D01*
X62704500Y-120953249D01*
X62702098Y-120928863D01*
X62694985Y-120905414D01*
X62683434Y-120883803D01*
X62667889Y-120864861D01*
X62648947Y-120849316D01*
X62627336Y-120837765D01*
X62603887Y-120830652D01*
X62579501Y-120828250D01*
X62361141Y-120828250D01*
X62350145Y-120827167D01*
X62345471Y-120825749D01*
X62341170Y-120823450D01*
X62334798Y-120818221D01*
X62314424Y-120804607D01*
X62291785Y-120795230D01*
X62267751Y-120790450D01*
X62243247Y-120790450D01*
X62219214Y-120795231D01*
X62196575Y-120804608D01*
X62176202Y-120818221D01*
X62169830Y-120823450D01*
X62165529Y-120825749D01*
X62160855Y-120827167D01*
X62149859Y-120828250D01*
X61861141Y-120828250D01*
X61850145Y-120827167D01*
X61845471Y-120825749D01*
X61841170Y-120823450D01*
X61834798Y-120818221D01*
X61814424Y-120804607D01*
X61791785Y-120795230D01*
X61767751Y-120790450D01*
X61743247Y-120790450D01*
X61719214Y-120795231D01*
X61696575Y-120804608D01*
X61676202Y-120818221D01*
X61669830Y-120823450D01*
X61665529Y-120825749D01*
X61660855Y-120827167D01*
X61649859Y-120828250D01*
X61361141Y-120828250D01*
X61350145Y-120827167D01*
X61345471Y-120825749D01*
X61341170Y-120823450D01*
X61334798Y-120818221D01*
X61314424Y-120804607D01*
X61291785Y-120795230D01*
X61267751Y-120790450D01*
X61243247Y-120790450D01*
X61219214Y-120795231D01*
X61196575Y-120804608D01*
X61176202Y-120818221D01*
X61169830Y-120823450D01*
X61165529Y-120825749D01*
X61160855Y-120827167D01*
X61149859Y-120828250D01*
X60861141Y-120828250D01*
X60850145Y-120827167D01*
X60845471Y-120825749D01*
X60841170Y-120823450D01*
X60834798Y-120818221D01*
X60814424Y-120804607D01*
X60791785Y-120795230D01*
X60767751Y-120790450D01*
X60743247Y-120790450D01*
X60719214Y-120795231D01*
X60696575Y-120804608D01*
X60676202Y-120818221D01*
X60669830Y-120823450D01*
X60665529Y-120825749D01*
X60660855Y-120827167D01*
X60649859Y-120828250D01*
X60361141Y-120828250D01*
X60350145Y-120827167D01*
X60345471Y-120825749D01*
X60341170Y-120823450D01*
X60334798Y-120818221D01*
X60314424Y-120804607D01*
X60291785Y-120795230D01*
X60267751Y-120790450D01*
X60243247Y-120790450D01*
X60219214Y-120795231D01*
X60196575Y-120804608D01*
X60176202Y-120818221D01*
X60169830Y-120823450D01*
X60165529Y-120825749D01*
X60160855Y-120827167D01*
X60149859Y-120828250D01*
X59861141Y-120828250D01*
X59850145Y-120827167D01*
X59845471Y-120825749D01*
X59841170Y-120823450D01*
X59834798Y-120818221D01*
X59814424Y-120804607D01*
X59791785Y-120795230D01*
X59767751Y-120790450D01*
X59743247Y-120790450D01*
X59719214Y-120795231D01*
X59696575Y-120804608D01*
X59676202Y-120818221D01*
X59669830Y-120823450D01*
X59665529Y-120825749D01*
X59660855Y-120827167D01*
X59649859Y-120828250D01*
X59361141Y-120828250D01*
X59350145Y-120827167D01*
X59345471Y-120825749D01*
X59341170Y-120823450D01*
X59334798Y-120818221D01*
X59314424Y-120804607D01*
X59291785Y-120795230D01*
X59267751Y-120790450D01*
X59243247Y-120790450D01*
X59219214Y-120795231D01*
X59196575Y-120804608D01*
X59176202Y-120818221D01*
X59169830Y-120823450D01*
X59165529Y-120825749D01*
X59160855Y-120827167D01*
X59149859Y-120828250D01*
X58931499Y-120828250D01*
X58907113Y-120830652D01*
X58883664Y-120837765D01*
X58862053Y-120849316D01*
X58843111Y-120864861D01*
X58827566Y-120883803D01*
X58816015Y-120905414D01*
X58808902Y-120928863D01*
X58806500Y-120953249D01*
X58806500Y-121171609D01*
X58805417Y-121182605D01*
X58803999Y-121187279D01*
X58801700Y-121191580D01*
X58796471Y-121197952D01*
X58782857Y-121218326D01*
X58773480Y-121240965D01*
X58768700Y-121264999D01*
X57867300Y-121264999D01*
X57867300Y-121264997D01*
X57862519Y-121240964D01*
X57853142Y-121218325D01*
X57839529Y-121197952D01*
X57834300Y-121191580D01*
X57832001Y-121187279D01*
X57830583Y-121182605D01*
X57829500Y-121171609D01*
X57829500Y-120882891D01*
X57830583Y-120871895D01*
X57832001Y-120867221D01*
X57834300Y-120862919D01*
X57837396Y-120859146D01*
X57841169Y-120856050D01*
X57845471Y-120853751D01*
X57850145Y-120852333D01*
X57861141Y-120851250D01*
X58704501Y-120851250D01*
X58728887Y-120848848D01*
X58752336Y-120841735D01*
X58773947Y-120830184D01*
X58792889Y-120814639D01*
X58808434Y-120795697D01*
X58819985Y-120774086D01*
X58827098Y-120750637D01*
X58829500Y-120726251D01*
X58829500Y-119882891D01*
X58830583Y-119871895D01*
X58832001Y-119867221D01*
X58834300Y-119862919D01*
X58837396Y-119859146D01*
X58841169Y-119856050D01*
X58845471Y-119853751D01*
X58850145Y-119852333D01*
X58861141Y-119851250D01*
X59149859Y-119851250D01*
X59160855Y-119852333D01*
G37*
G36*
X62232917Y-121179790D02*
G01*
X62261581Y-121188485D01*
X62287995Y-121202604D01*
X62311146Y-121221604D01*
X62330146Y-121244755D01*
X62344265Y-121271169D01*
X62352960Y-121299833D01*
X62356500Y-121335777D01*
X62356500Y-124218723D01*
X62352960Y-124254667D01*
X62344265Y-124283331D01*
X62330146Y-124309745D01*
X62311146Y-124332896D01*
X62287995Y-124351896D01*
X62261581Y-124366015D01*
X62232917Y-124374710D01*
X62196973Y-124378250D01*
X59314027Y-124378250D01*
X59278083Y-124374710D01*
X59249419Y-124366015D01*
X59223005Y-124351896D01*
X59199854Y-124332896D01*
X59180854Y-124309745D01*
X59166735Y-124283331D01*
X59158040Y-124254667D01*
X59154500Y-124218723D01*
X59154500Y-121335777D01*
X59158040Y-121299833D01*
X59166735Y-121271169D01*
X59180854Y-121244755D01*
X59199854Y-121221604D01*
X59223005Y-121202604D01*
X59249419Y-121188485D01*
X59278083Y-121179790D01*
X59314027Y-121176250D01*
X62196973Y-121176250D01*
X62232917Y-121179790D01*
G37*
G36*
X52974000Y-124824000D02*
G01*
X50972000Y-124824000D01*
X50972000Y-124322000D01*
X52974000Y-124322000D01*
X52974000Y-124824000D01*
G37*
G36*
X65784591Y-123315085D02*
G01*
X65818569Y-123325393D01*
X65849890Y-123342134D01*
X65877339Y-123364661D01*
X65899866Y-123392110D01*
X65916607Y-123423431D01*
X65926915Y-123457409D01*
X65931000Y-123498890D01*
X65931000Y-124100110D01*
X65926915Y-124141591D01*
X65916607Y-124175569D01*
X65899866Y-124206890D01*
X65877339Y-124234339D01*
X65849890Y-124256866D01*
X65818569Y-124273607D01*
X65784591Y-124283915D01*
X65743110Y-124288000D01*
X65066890Y-124288000D01*
X65025409Y-124283915D01*
X64991431Y-124273607D01*
X64960110Y-124256866D01*
X64932661Y-124234339D01*
X64910134Y-124206890D01*
X64893393Y-124175569D01*
X64883085Y-124141591D01*
X64879000Y-124100110D01*
X64879000Y-123498890D01*
X64883085Y-123457409D01*
X64893393Y-123423431D01*
X64910134Y-123392110D01*
X64932661Y-123364661D01*
X64960110Y-123342134D01*
X64991431Y-123325393D01*
X65025409Y-123315085D01*
X65066890Y-123311000D01*
X65743110Y-123311000D01*
X65784591Y-123315085D01*
G37*
G36*
X56259591Y-123239085D02*
G01*
X56293569Y-123249393D01*
X56324890Y-123266134D01*
X56352339Y-123288661D01*
X56374866Y-123316110D01*
X56391607Y-123347431D01*
X56401915Y-123381409D01*
X56406000Y-123422890D01*
X56406000Y-124024110D01*
X56401915Y-124065591D01*
X56391607Y-124099569D01*
X56374866Y-124130890D01*
X56352339Y-124158339D01*
X56324890Y-124180866D01*
X56293569Y-124197607D01*
X56259591Y-124207915D01*
X56218110Y-124212000D01*
X55541890Y-124212000D01*
X55500409Y-124207915D01*
X55466431Y-124197607D01*
X55435110Y-124180866D01*
X55407661Y-124158339D01*
X55385134Y-124130890D01*
X55368393Y-124099569D01*
X55358085Y-124065591D01*
X55354000Y-124024110D01*
X55354000Y-123422890D01*
X55358085Y-123381409D01*
X55368393Y-123347431D01*
X55385134Y-123316110D01*
X55407661Y-123288661D01*
X55435110Y-123266134D01*
X55466431Y-123249393D01*
X55500409Y-123239085D01*
X55541890Y-123235000D01*
X56218110Y-123235000D01*
X56259591Y-123239085D01*
G37*
G36*
X78220250Y-124104500D02*
G01*
X71068250Y-124104500D01*
X71068250Y-122552500D01*
X78220250Y-122552500D01*
X78220250Y-124104500D01*
G37*
G36*
X56259591Y-121664085D02*
G01*
X56293569Y-121674393D01*
X56324890Y-121691134D01*
X56352339Y-121713661D01*
X56374866Y-121741110D01*
X56391607Y-121772431D01*
X56401915Y-121806409D01*
X56406000Y-121847890D01*
X56406000Y-122449110D01*
X56401915Y-122490591D01*
X56391607Y-122524569D01*
X56374866Y-122555890D01*
X56352339Y-122583339D01*
X56324890Y-122605866D01*
X56293569Y-122622607D01*
X56259591Y-122632915D01*
X56218110Y-122637000D01*
X55541890Y-122637000D01*
X55500409Y-122632915D01*
X55466431Y-122622607D01*
X55435110Y-122605866D01*
X55407661Y-122583339D01*
X55385134Y-122555890D01*
X55368393Y-122524569D01*
X55358085Y-122490591D01*
X55354000Y-122449110D01*
X55354000Y-121847890D01*
X55358085Y-121806409D01*
X55368393Y-121772431D01*
X55385134Y-121741110D01*
X55407661Y-121713661D01*
X55435110Y-121691134D01*
X55466431Y-121674393D01*
X55500409Y-121664085D01*
X55541890Y-121660000D01*
X56218110Y-121660000D01*
X56259591Y-121664085D01*
G37*
G36*
X77643922Y-121521949D02*
G01*
X77643924Y-121521950D01*
X77643925Y-121521950D01*
X77712353Y-121550293D01*
X77773936Y-121591442D01*
X77826308Y-121643814D01*
X77867457Y-121705397D01*
X77895800Y-121773825D01*
X77895801Y-121773828D01*
X77910250Y-121846466D01*
X77910250Y-121920534D01*
X77902179Y-121961110D01*
X77895800Y-121993175D01*
X77867457Y-122061603D01*
X77826308Y-122123186D01*
X77773936Y-122175558D01*
X77712353Y-122216707D01*
X77643925Y-122245050D01*
X77643924Y-122245050D01*
X77643922Y-122245051D01*
X77571284Y-122259500D01*
X77497216Y-122259500D01*
X77424578Y-122245051D01*
X77424576Y-122245050D01*
X77424575Y-122245050D01*
X77356147Y-122216707D01*
X77294564Y-122175558D01*
X77242192Y-122123186D01*
X77201043Y-122061603D01*
X77172700Y-121993175D01*
X77166322Y-121961110D01*
X77158250Y-121920534D01*
X77158250Y-121846466D01*
X77172699Y-121773828D01*
X77172700Y-121773825D01*
X77201043Y-121705397D01*
X77242192Y-121643814D01*
X77294564Y-121591442D01*
X77356147Y-121550293D01*
X77424575Y-121521950D01*
X77424576Y-121521950D01*
X77424578Y-121521949D01*
X77497216Y-121507500D01*
X77571284Y-121507500D01*
X77643922Y-121521949D01*
G37*
G36*
X71863922Y-121521949D02*
G01*
X71863924Y-121521950D01*
X71863925Y-121521950D01*
X71932353Y-121550293D01*
X71993936Y-121591442D01*
X72046308Y-121643814D01*
X72087457Y-121705397D01*
X72115800Y-121773825D01*
X72115801Y-121773828D01*
X72130250Y-121846466D01*
X72130250Y-121920534D01*
X72122179Y-121961110D01*
X72115800Y-121993175D01*
X72087457Y-122061603D01*
X72046308Y-122123186D01*
X71993936Y-122175558D01*
X71932353Y-122216707D01*
X71863925Y-122245050D01*
X71863924Y-122245050D01*
X71863922Y-122245051D01*
X71791284Y-122259500D01*
X71717216Y-122259500D01*
X71644578Y-122245051D01*
X71644576Y-122245050D01*
X71644575Y-122245050D01*
X71576147Y-122216707D01*
X71514564Y-122175558D01*
X71462192Y-122123186D01*
X71421043Y-122061603D01*
X71392700Y-121993175D01*
X71386322Y-121961110D01*
X71378250Y-121920534D01*
X71378250Y-121846466D01*
X71392699Y-121773828D01*
X71392700Y-121773825D01*
X71421043Y-121705397D01*
X71462192Y-121643814D01*
X71514564Y-121591442D01*
X71576147Y-121550293D01*
X71644575Y-121521950D01*
X71644576Y-121521950D01*
X71644578Y-121521949D01*
X71717216Y-121507500D01*
X71791284Y-121507500D01*
X71863922Y-121521949D01*
G37*
G36*
X68197591Y-121176085D02*
G01*
X68231569Y-121186393D01*
X68262890Y-121203134D01*
X68290339Y-121225661D01*
X68312866Y-121253110D01*
X68329607Y-121284431D01*
X68339915Y-121318409D01*
X68344000Y-121359890D01*
X68344000Y-121961110D01*
X68339915Y-122002591D01*
X68329607Y-122036569D01*
X68312866Y-122067890D01*
X68290339Y-122095339D01*
X68262890Y-122117866D01*
X68231569Y-122134607D01*
X68197591Y-122144915D01*
X68156110Y-122149000D01*
X67479890Y-122149000D01*
X67438409Y-122144915D01*
X67404431Y-122134607D01*
X67373110Y-122117866D01*
X67345661Y-122095339D01*
X67323134Y-122067890D01*
X67306393Y-122036569D01*
X67296085Y-122002591D01*
X67292000Y-121961110D01*
X67292000Y-121359890D01*
X67296085Y-121318409D01*
X67306393Y-121284431D01*
X67323134Y-121253110D01*
X67345661Y-121225661D01*
X67373110Y-121203134D01*
X67404431Y-121186393D01*
X67438409Y-121176085D01*
X67479890Y-121172000D01*
X68156110Y-121172000D01*
X68197591Y-121176085D01*
G37*
G36*
X68197591Y-119601085D02*
G01*
X68231569Y-119611393D01*
X68262890Y-119628134D01*
X68290339Y-119650661D01*
X68312866Y-119678110D01*
X68329607Y-119709431D01*
X68339915Y-119743409D01*
X68344000Y-119784890D01*
X68344000Y-120386110D01*
X68339915Y-120427591D01*
X68329607Y-120461569D01*
X68312866Y-120492890D01*
X68290339Y-120520339D01*
X68262890Y-120542866D01*
X68231569Y-120559607D01*
X68197591Y-120569915D01*
X68156110Y-120574000D01*
X67479890Y-120574000D01*
X67438409Y-120569915D01*
X67404431Y-120559607D01*
X67373110Y-120542866D01*
X67345661Y-120520339D01*
X67323134Y-120492890D01*
X67306393Y-120461569D01*
X67296085Y-120427591D01*
X67292000Y-120386110D01*
X67292000Y-119784890D01*
X67296085Y-119743409D01*
X67306393Y-119709431D01*
X67323134Y-119678110D01*
X67345661Y-119650661D01*
X67373110Y-119628134D01*
X67404431Y-119611393D01*
X67438409Y-119601085D01*
X67479890Y-119597000D01*
X68156110Y-119597000D01*
X68197591Y-119601085D01*
G37*
G36*
X44124000Y-119724000D02*
G01*
X42922000Y-119724000D01*
X42922000Y-117822000D01*
X44124000Y-117822000D01*
X44124000Y-119724000D01*
G37*
G36*
X47824000Y-119724000D02*
G01*
X46622000Y-119724000D01*
X46622000Y-117822000D01*
X47824000Y-117822000D01*
X47824000Y-119724000D01*
G37*
G36*
X60133591Y-117842085D02*
G01*
X60167569Y-117852393D01*
X60198890Y-117869134D01*
X60226339Y-117891661D01*
X60248866Y-117919110D01*
X60265607Y-117950431D01*
X60275915Y-117984409D01*
X60280000Y-118025890D01*
X60280000Y-118702110D01*
X60275915Y-118743591D01*
X60265607Y-118777569D01*
X60248866Y-118808890D01*
X60226339Y-118836339D01*
X60198890Y-118858866D01*
X60167569Y-118875607D01*
X60133591Y-118885915D01*
X60092110Y-118890000D01*
X59490890Y-118890000D01*
X59449409Y-118885915D01*
X59415431Y-118875607D01*
X59384110Y-118858866D01*
X59356661Y-118836339D01*
X59334134Y-118808890D01*
X59317393Y-118777569D01*
X59307085Y-118743591D01*
X59303000Y-118702110D01*
X59303000Y-118025890D01*
X59307085Y-117984409D01*
X59317393Y-117950431D01*
X59334134Y-117919110D01*
X59356661Y-117891661D01*
X59384110Y-117869134D01*
X59415431Y-117852393D01*
X59449409Y-117842085D01*
X59490890Y-117838000D01*
X60092110Y-117838000D01*
X60133591Y-117842085D01*
G37*
G36*
X61708591Y-117842085D02*
G01*
X61742569Y-117852393D01*
X61773890Y-117869134D01*
X61801339Y-117891661D01*
X61823866Y-117919110D01*
X61840607Y-117950431D01*
X61850915Y-117984409D01*
X61855000Y-118025890D01*
X61855000Y-118702110D01*
X61850915Y-118743591D01*
X61840607Y-118777569D01*
X61823866Y-118808890D01*
X61801339Y-118836339D01*
X61773890Y-118858866D01*
X61742569Y-118875607D01*
X61708591Y-118885915D01*
X61667110Y-118890000D01*
X61065890Y-118890000D01*
X61024409Y-118885915D01*
X60990431Y-118875607D01*
X60959110Y-118858866D01*
X60931661Y-118836339D01*
X60909134Y-118808890D01*
X60892393Y-118777569D01*
X60882085Y-118743591D01*
X60878000Y-118702110D01*
X60878000Y-118025890D01*
X60882085Y-117984409D01*
X60892393Y-117950431D01*
X60909134Y-117919110D01*
X60931661Y-117891661D01*
X60959110Y-117869134D01*
X60990431Y-117852393D01*
X61024409Y-117842085D01*
X61065890Y-117838000D01*
X61667110Y-117838000D01*
X61708591Y-117842085D01*
G37*
M02*
