G04 #@! TF.GenerationSoftware,KiCad,Pcbnew,(5.1.5)-3*
G04 #@! TF.CreationDate,2020-04-15T21:27:14-04:00*
G04 #@! TF.ProjectId,binarykb,62696e61-7279-46b6-922e-6b696361645f,rev?*
G04 #@! TF.SameCoordinates,Original*
G04 #@! TF.FileFunction,Legend,Bot*
G04 #@! TF.FilePolarity,Positive*
%FSLAX46Y46*%
G04 Gerber Fmt 4.6, Leading zero omitted, Abs format (unit mm)*
G04 Created by KiCad (PCBNEW (5.1.5)-3) date 2020-04-15 21:27:14*
%MOMM*%
%LPD*%
G04 APERTURE LIST*
%ADD10C,0.120000*%
%ADD11C,0.150000*%
%ADD12C,0.100000*%
%ADD13R,2.652000X2.602000*%
%ADD14C,1.852000*%
%ADD15C,3.102000*%
%ADD16C,4.089800*%
%ADD17R,0.702000X1.552000*%
%ADD18R,0.402000X1.552000*%
%ADD19C,0.752000*%
%ADD20R,1.202000X1.902000*%
%ADD21R,3.902000X1.502000*%
%ADD22R,0.802000X1.102000*%
%ADD23R,0.802000X0.702000*%
G04 APERTURE END LIST*
D10*
X70563000Y-127135779D02*
X70563000Y-126810221D01*
X71583000Y-127135779D02*
X71583000Y-126810221D01*
X77595000Y-126781779D02*
X77595000Y-126456221D01*
X78615000Y-126781779D02*
X78615000Y-126456221D01*
X60416221Y-117854000D02*
X60741779Y-117854000D01*
X60416221Y-118874000D02*
X60741779Y-118874000D01*
X62702221Y-127760000D02*
X63027779Y-127760000D01*
X62702221Y-128780000D02*
X63027779Y-128780000D01*
X62710221Y-129963000D02*
X63035779Y-129963000D01*
X62710221Y-130983000D02*
X63035779Y-130983000D01*
X68328000Y-120710221D02*
X68328000Y-121035779D01*
X67308000Y-120710221D02*
X67308000Y-121035779D01*
X59946000Y-128742221D02*
X59946000Y-129067779D01*
X58926000Y-128742221D02*
X58926000Y-129067779D01*
X57283000Y-128742221D02*
X57283000Y-129067779D01*
X56263000Y-128742221D02*
X56263000Y-129067779D01*
X56390000Y-122773221D02*
X56390000Y-123098779D01*
X55370000Y-122773221D02*
X55370000Y-123098779D01*
X64895000Y-124749779D02*
X64895000Y-124424221D01*
X65915000Y-124749779D02*
X65915000Y-124424221D01*
D11*
X47973000Y-124473000D02*
X47973000Y-119273000D01*
X47973000Y-119273000D02*
X42773000Y-119273000D01*
X42773000Y-119273000D02*
X42773000Y-124473000D01*
X42773000Y-124473000D02*
X47973000Y-124473000D01*
X46373000Y-121873000D02*
G75*
G03X46373000Y-121873000I-1000000J0D01*
G01*
D10*
X53673000Y-129573000D02*
X53673000Y-129173000D01*
X50273000Y-129573000D02*
X53673000Y-129573000D01*
X50273000Y-129173000D02*
X50273000Y-129573000D01*
X49873000Y-129173000D02*
X50273000Y-129173000D01*
X53673000Y-129813000D02*
X50273000Y-129813000D01*
X50273000Y-121973000D02*
X50273000Y-122373000D01*
X53673000Y-121973000D02*
X50273000Y-121973000D01*
X53673000Y-122373000D02*
X53673000Y-121973000D01*
D11*
X74661000Y-125042000D02*
X74661000Y-127942000D01*
X74661000Y-125042000D02*
X75961000Y-125042000D01*
X75961000Y-125042000D02*
X75961000Y-127942000D01*
X75961000Y-127942000D02*
X74661000Y-127942000D01*
D10*
X58620500Y-125387250D02*
X58145500Y-125387250D01*
X63365500Y-120167250D02*
X63365500Y-120642250D01*
X62890500Y-120167250D02*
X63365500Y-120167250D01*
X58145500Y-120167250D02*
X58145500Y-120642250D01*
X58620500Y-120167250D02*
X58145500Y-120167250D01*
X63365500Y-125387250D02*
X63365500Y-124912250D01*
X62890500Y-125387250D02*
X63365500Y-125387250D01*
D11*
X72955380Y-126806333D02*
X72479190Y-126473000D01*
X72955380Y-126234904D02*
X71955380Y-126234904D01*
X71955380Y-126615857D01*
X72003000Y-126711095D01*
X72050619Y-126758714D01*
X72145857Y-126806333D01*
X72288714Y-126806333D01*
X72383952Y-126758714D01*
X72431571Y-126711095D01*
X72479190Y-126615857D01*
X72479190Y-126234904D01*
X72288714Y-127663476D02*
X72955380Y-127663476D01*
X71907761Y-127425380D02*
X72622047Y-127187285D01*
X72622047Y-127806333D01*
X79987380Y-126452333D02*
X79511190Y-126119000D01*
X79987380Y-125880904D02*
X78987380Y-125880904D01*
X78987380Y-126261857D01*
X79035000Y-126357095D01*
X79082619Y-126404714D01*
X79177857Y-126452333D01*
X79320714Y-126452333D01*
X79415952Y-126404714D01*
X79463571Y-126357095D01*
X79511190Y-126261857D01*
X79511190Y-125880904D01*
X78987380Y-127357095D02*
X78987380Y-126880904D01*
X79463571Y-126833285D01*
X79415952Y-126880904D01*
X79368333Y-126976142D01*
X79368333Y-127214238D01*
X79415952Y-127309476D01*
X79463571Y-127357095D01*
X79558809Y-127404714D01*
X79796904Y-127404714D01*
X79892142Y-127357095D01*
X79939761Y-127309476D01*
X79987380Y-127214238D01*
X79987380Y-126976142D01*
X79939761Y-126880904D01*
X79892142Y-126833285D01*
X60745666Y-120246380D02*
X61079000Y-119770190D01*
X61317095Y-120246380D02*
X61317095Y-119246380D01*
X60936142Y-119246380D01*
X60840904Y-119294000D01*
X60793285Y-119341619D01*
X60745666Y-119436857D01*
X60745666Y-119579714D01*
X60793285Y-119674952D01*
X60840904Y-119722571D01*
X60936142Y-119770190D01*
X61317095Y-119770190D01*
X60412333Y-119246380D02*
X59793285Y-119246380D01*
X60126619Y-119627333D01*
X59983761Y-119627333D01*
X59888523Y-119674952D01*
X59840904Y-119722571D01*
X59793285Y-119817809D01*
X59793285Y-120055904D01*
X59840904Y-120151142D01*
X59888523Y-120198761D01*
X59983761Y-120246380D01*
X60269476Y-120246380D01*
X60364714Y-120198761D01*
X60412333Y-120151142D01*
X63031666Y-130152380D02*
X63365000Y-129676190D01*
X63603095Y-130152380D02*
X63603095Y-129152380D01*
X63222142Y-129152380D01*
X63126904Y-129200000D01*
X63079285Y-129247619D01*
X63031666Y-129342857D01*
X63031666Y-129485714D01*
X63079285Y-129580952D01*
X63126904Y-129628571D01*
X63222142Y-129676190D01*
X63603095Y-129676190D01*
X62650714Y-129247619D02*
X62603095Y-129200000D01*
X62507857Y-129152380D01*
X62269761Y-129152380D01*
X62174523Y-129200000D01*
X62126904Y-129247619D01*
X62079285Y-129342857D01*
X62079285Y-129438095D01*
X62126904Y-129580952D01*
X62698333Y-130152380D01*
X62079285Y-130152380D01*
X63039666Y-132355380D02*
X63373000Y-131879190D01*
X63611095Y-132355380D02*
X63611095Y-131355380D01*
X63230142Y-131355380D01*
X63134904Y-131403000D01*
X63087285Y-131450619D01*
X63039666Y-131545857D01*
X63039666Y-131688714D01*
X63087285Y-131783952D01*
X63134904Y-131831571D01*
X63230142Y-131879190D01*
X63611095Y-131879190D01*
X62087285Y-132355380D02*
X62658714Y-132355380D01*
X62373000Y-132355380D02*
X62373000Y-131355380D01*
X62468238Y-131498238D01*
X62563476Y-131593476D01*
X62658714Y-131641095D01*
X66316571Y-120539666D02*
X66316571Y-120206333D01*
X66840380Y-120206333D02*
X65840380Y-120206333D01*
X65840380Y-120682523D01*
X66840380Y-121587285D02*
X66840380Y-121015857D01*
X66840380Y-121301571D02*
X65840380Y-121301571D01*
X65983238Y-121206333D01*
X66078476Y-121111095D01*
X66126095Y-121015857D01*
X58363142Y-128738333D02*
X58410761Y-128690714D01*
X58458380Y-128547857D01*
X58458380Y-128452619D01*
X58410761Y-128309761D01*
X58315523Y-128214523D01*
X58220285Y-128166904D01*
X58029809Y-128119285D01*
X57886952Y-128119285D01*
X57696476Y-128166904D01*
X57601238Y-128214523D01*
X57506000Y-128309761D01*
X57458380Y-128452619D01*
X57458380Y-128547857D01*
X57506000Y-128690714D01*
X57553619Y-128738333D01*
X57791714Y-129595476D02*
X58458380Y-129595476D01*
X57410761Y-129357380D02*
X58125047Y-129119285D01*
X58125047Y-129738333D01*
X55700142Y-128738333D02*
X55747761Y-128690714D01*
X55795380Y-128547857D01*
X55795380Y-128452619D01*
X55747761Y-128309761D01*
X55652523Y-128214523D01*
X55557285Y-128166904D01*
X55366809Y-128119285D01*
X55223952Y-128119285D01*
X55033476Y-128166904D01*
X54938238Y-128214523D01*
X54843000Y-128309761D01*
X54795380Y-128452619D01*
X54795380Y-128547857D01*
X54843000Y-128690714D01*
X54890619Y-128738333D01*
X54795380Y-129071666D02*
X54795380Y-129690714D01*
X55176333Y-129357380D01*
X55176333Y-129500238D01*
X55223952Y-129595476D01*
X55271571Y-129643095D01*
X55366809Y-129690714D01*
X55604904Y-129690714D01*
X55700142Y-129643095D01*
X55747761Y-129595476D01*
X55795380Y-129500238D01*
X55795380Y-129214523D01*
X55747761Y-129119285D01*
X55700142Y-129071666D01*
X54807142Y-122769333D02*
X54854761Y-122721714D01*
X54902380Y-122578857D01*
X54902380Y-122483619D01*
X54854761Y-122340761D01*
X54759523Y-122245523D01*
X54664285Y-122197904D01*
X54473809Y-122150285D01*
X54330952Y-122150285D01*
X54140476Y-122197904D01*
X54045238Y-122245523D01*
X53950000Y-122340761D01*
X53902380Y-122483619D01*
X53902380Y-122578857D01*
X53950000Y-122721714D01*
X53997619Y-122769333D01*
X53997619Y-123150285D02*
X53950000Y-123197904D01*
X53902380Y-123293142D01*
X53902380Y-123531238D01*
X53950000Y-123626476D01*
X53997619Y-123674095D01*
X54092857Y-123721714D01*
X54188095Y-123721714D01*
X54330952Y-123674095D01*
X54902380Y-123102666D01*
X54902380Y-123721714D01*
X67192142Y-124420333D02*
X67239761Y-124372714D01*
X67287380Y-124229857D01*
X67287380Y-124134619D01*
X67239761Y-123991761D01*
X67144523Y-123896523D01*
X67049285Y-123848904D01*
X66858809Y-123801285D01*
X66715952Y-123801285D01*
X66525476Y-123848904D01*
X66430238Y-123896523D01*
X66335000Y-123991761D01*
X66287380Y-124134619D01*
X66287380Y-124229857D01*
X66335000Y-124372714D01*
X66382619Y-124420333D01*
X67287380Y-125372714D02*
X67287380Y-124801285D01*
X67287380Y-125087000D02*
X66287380Y-125087000D01*
X66430238Y-124991761D01*
X66525476Y-124896523D01*
X66573095Y-124801285D01*
X53069964Y-141161380D02*
X53069964Y-140161380D01*
X52736630Y-140875666D01*
X52403297Y-140161380D01*
X52403297Y-141161380D01*
X52022345Y-140161380D02*
X51355678Y-141161380D01*
X51355678Y-140161380D02*
X52022345Y-141161380D01*
X50450916Y-141161380D02*
X51022345Y-141161380D01*
X50736630Y-141161380D02*
X50736630Y-140161380D01*
X50831869Y-140304238D01*
X50927107Y-140399476D01*
X51022345Y-140447095D01*
X71946464Y-140914380D02*
X71946464Y-139914380D01*
X71613130Y-140628666D01*
X71279797Y-139914380D01*
X71279797Y-140914380D01*
X70898845Y-139914380D02*
X70232178Y-140914380D01*
X70232178Y-139914380D02*
X70898845Y-140914380D01*
X69898845Y-140009619D02*
X69851226Y-139962000D01*
X69755988Y-139914380D01*
X69517892Y-139914380D01*
X69422654Y-139962000D01*
X69375035Y-140009619D01*
X69327416Y-140104857D01*
X69327416Y-140200095D01*
X69375035Y-140342952D01*
X69946464Y-140914380D01*
X69327416Y-140914380D01*
X76414095Y-118705380D02*
X76414095Y-119514904D01*
X76366476Y-119610142D01*
X76318857Y-119657761D01*
X76223619Y-119705380D01*
X76033142Y-119705380D01*
X75937904Y-119657761D01*
X75890285Y-119610142D01*
X75842666Y-119514904D01*
X75842666Y-118705380D01*
X75414095Y-119657761D02*
X75271238Y-119705380D01*
X75033142Y-119705380D01*
X74937904Y-119657761D01*
X74890285Y-119610142D01*
X74842666Y-119514904D01*
X74842666Y-119419666D01*
X74890285Y-119324428D01*
X74937904Y-119276809D01*
X75033142Y-119229190D01*
X75223619Y-119181571D01*
X75318857Y-119133952D01*
X75366476Y-119086333D01*
X75414095Y-118991095D01*
X75414095Y-118895857D01*
X75366476Y-118800619D01*
X75318857Y-118753000D01*
X75223619Y-118705380D01*
X74985523Y-118705380D01*
X74842666Y-118753000D01*
X74080761Y-119181571D02*
X73937904Y-119229190D01*
X73890285Y-119276809D01*
X73842666Y-119372047D01*
X73842666Y-119514904D01*
X73890285Y-119610142D01*
X73937904Y-119657761D01*
X74033142Y-119705380D01*
X74414095Y-119705380D01*
X74414095Y-118705380D01*
X74080761Y-118705380D01*
X73985523Y-118753000D01*
X73937904Y-118800619D01*
X73890285Y-118895857D01*
X73890285Y-118991095D01*
X73937904Y-119086333D01*
X73985523Y-119133952D01*
X74080761Y-119181571D01*
X74414095Y-119181571D01*
X72890285Y-119705380D02*
X73461714Y-119705380D01*
X73176000Y-119705380D02*
X73176000Y-118705380D01*
X73271238Y-118848238D01*
X73366476Y-118943476D01*
X73461714Y-118991095D01*
X49177761Y-120439666D02*
X49225380Y-120582523D01*
X49225380Y-120820619D01*
X49177761Y-120915857D01*
X49130142Y-120963476D01*
X49034904Y-121011095D01*
X48939666Y-121011095D01*
X48844428Y-120963476D01*
X48796809Y-120915857D01*
X48749190Y-120820619D01*
X48701571Y-120630142D01*
X48653952Y-120534904D01*
X48606333Y-120487285D01*
X48511095Y-120439666D01*
X48415857Y-120439666D01*
X48320619Y-120487285D01*
X48273000Y-120534904D01*
X48225380Y-120630142D01*
X48225380Y-120868238D01*
X48273000Y-121011095D01*
X48225380Y-121344428D02*
X49225380Y-121582523D01*
X48511095Y-121773000D01*
X49225380Y-121963476D01*
X48225380Y-122201571D01*
X49225380Y-123106333D02*
X49225380Y-122534904D01*
X49225380Y-122820619D02*
X48225380Y-122820619D01*
X48368238Y-122725380D01*
X48463476Y-122630142D01*
X48511095Y-122534904D01*
X48901190Y-125296809D02*
X49377380Y-125296809D01*
X48377380Y-124963476D02*
X48901190Y-125296809D01*
X48377380Y-125630142D01*
X49377380Y-126487285D02*
X49377380Y-125915857D01*
X49377380Y-126201571D02*
X48377380Y-126201571D01*
X48520238Y-126106333D01*
X48615476Y-126011095D01*
X48663095Y-125915857D01*
X76072904Y-128394380D02*
X76072904Y-129203904D01*
X76025285Y-129299142D01*
X75977666Y-129346761D01*
X75882428Y-129394380D01*
X75691952Y-129394380D01*
X75596714Y-129346761D01*
X75549095Y-129299142D01*
X75501476Y-129203904D01*
X75501476Y-128394380D01*
X75072904Y-128489619D02*
X75025285Y-128442000D01*
X74930047Y-128394380D01*
X74691952Y-128394380D01*
X74596714Y-128442000D01*
X74549095Y-128489619D01*
X74501476Y-128584857D01*
X74501476Y-128680095D01*
X74549095Y-128822952D01*
X75120523Y-129394380D01*
X74501476Y-129394380D01*
X56348380Y-125095095D02*
X57157904Y-125095095D01*
X57253142Y-125142714D01*
X57300761Y-125190333D01*
X57348380Y-125285571D01*
X57348380Y-125476047D01*
X57300761Y-125571285D01*
X57253142Y-125618904D01*
X57157904Y-125666523D01*
X56348380Y-125666523D01*
X57348380Y-126666523D02*
X57348380Y-126095095D01*
X57348380Y-126380809D02*
X56348380Y-126380809D01*
X56491238Y-126285571D01*
X56586476Y-126190333D01*
X56634095Y-126095095D01*
%LPC*%
D12*
G36*
X71378691Y-125698176D02*
G01*
X71402401Y-125701693D01*
X71425652Y-125707517D01*
X71448220Y-125715592D01*
X71469889Y-125725841D01*
X71490448Y-125738164D01*
X71509701Y-125752442D01*
X71527461Y-125768539D01*
X71543558Y-125786299D01*
X71557836Y-125805552D01*
X71570159Y-125826111D01*
X71580408Y-125847780D01*
X71588483Y-125870348D01*
X71594307Y-125893599D01*
X71597824Y-125917309D01*
X71599000Y-125941250D01*
X71599000Y-126429750D01*
X71597824Y-126453691D01*
X71594307Y-126477401D01*
X71588483Y-126500652D01*
X71580408Y-126523220D01*
X71570159Y-126544889D01*
X71557836Y-126565448D01*
X71543558Y-126584701D01*
X71527461Y-126602461D01*
X71509701Y-126618558D01*
X71490448Y-126632836D01*
X71469889Y-126645159D01*
X71448220Y-126655408D01*
X71425652Y-126663483D01*
X71402401Y-126669307D01*
X71378691Y-126672824D01*
X71354750Y-126674000D01*
X70791250Y-126674000D01*
X70767309Y-126672824D01*
X70743599Y-126669307D01*
X70720348Y-126663483D01*
X70697780Y-126655408D01*
X70676111Y-126645159D01*
X70655552Y-126632836D01*
X70636299Y-126618558D01*
X70618539Y-126602461D01*
X70602442Y-126584701D01*
X70588164Y-126565448D01*
X70575841Y-126544889D01*
X70565592Y-126523220D01*
X70557517Y-126500652D01*
X70551693Y-126477401D01*
X70548176Y-126453691D01*
X70547000Y-126429750D01*
X70547000Y-125941250D01*
X70548176Y-125917309D01*
X70551693Y-125893599D01*
X70557517Y-125870348D01*
X70565592Y-125847780D01*
X70575841Y-125826111D01*
X70588164Y-125805552D01*
X70602442Y-125786299D01*
X70618539Y-125768539D01*
X70636299Y-125752442D01*
X70655552Y-125738164D01*
X70676111Y-125725841D01*
X70697780Y-125715592D01*
X70720348Y-125707517D01*
X70743599Y-125701693D01*
X70767309Y-125698176D01*
X70791250Y-125697000D01*
X71354750Y-125697000D01*
X71378691Y-125698176D01*
G37*
G36*
X71378691Y-127273176D02*
G01*
X71402401Y-127276693D01*
X71425652Y-127282517D01*
X71448220Y-127290592D01*
X71469889Y-127300841D01*
X71490448Y-127313164D01*
X71509701Y-127327442D01*
X71527461Y-127343539D01*
X71543558Y-127361299D01*
X71557836Y-127380552D01*
X71570159Y-127401111D01*
X71580408Y-127422780D01*
X71588483Y-127445348D01*
X71594307Y-127468599D01*
X71597824Y-127492309D01*
X71599000Y-127516250D01*
X71599000Y-128004750D01*
X71597824Y-128028691D01*
X71594307Y-128052401D01*
X71588483Y-128075652D01*
X71580408Y-128098220D01*
X71570159Y-128119889D01*
X71557836Y-128140448D01*
X71543558Y-128159701D01*
X71527461Y-128177461D01*
X71509701Y-128193558D01*
X71490448Y-128207836D01*
X71469889Y-128220159D01*
X71448220Y-128230408D01*
X71425652Y-128238483D01*
X71402401Y-128244307D01*
X71378691Y-128247824D01*
X71354750Y-128249000D01*
X70791250Y-128249000D01*
X70767309Y-128247824D01*
X70743599Y-128244307D01*
X70720348Y-128238483D01*
X70697780Y-128230408D01*
X70676111Y-128220159D01*
X70655552Y-128207836D01*
X70636299Y-128193558D01*
X70618539Y-128177461D01*
X70602442Y-128159701D01*
X70588164Y-128140448D01*
X70575841Y-128119889D01*
X70565592Y-128098220D01*
X70557517Y-128075652D01*
X70551693Y-128052401D01*
X70548176Y-128028691D01*
X70547000Y-128004750D01*
X70547000Y-127516250D01*
X70548176Y-127492309D01*
X70551693Y-127468599D01*
X70557517Y-127445348D01*
X70565592Y-127422780D01*
X70575841Y-127401111D01*
X70588164Y-127380552D01*
X70602442Y-127361299D01*
X70618539Y-127343539D01*
X70636299Y-127327442D01*
X70655552Y-127313164D01*
X70676111Y-127300841D01*
X70697780Y-127290592D01*
X70720348Y-127282517D01*
X70743599Y-127276693D01*
X70767309Y-127273176D01*
X70791250Y-127272000D01*
X71354750Y-127272000D01*
X71378691Y-127273176D01*
G37*
G36*
X78410691Y-125344176D02*
G01*
X78434401Y-125347693D01*
X78457652Y-125353517D01*
X78480220Y-125361592D01*
X78501889Y-125371841D01*
X78522448Y-125384164D01*
X78541701Y-125398442D01*
X78559461Y-125414539D01*
X78575558Y-125432299D01*
X78589836Y-125451552D01*
X78602159Y-125472111D01*
X78612408Y-125493780D01*
X78620483Y-125516348D01*
X78626307Y-125539599D01*
X78629824Y-125563309D01*
X78631000Y-125587250D01*
X78631000Y-126075750D01*
X78629824Y-126099691D01*
X78626307Y-126123401D01*
X78620483Y-126146652D01*
X78612408Y-126169220D01*
X78602159Y-126190889D01*
X78589836Y-126211448D01*
X78575558Y-126230701D01*
X78559461Y-126248461D01*
X78541701Y-126264558D01*
X78522448Y-126278836D01*
X78501889Y-126291159D01*
X78480220Y-126301408D01*
X78457652Y-126309483D01*
X78434401Y-126315307D01*
X78410691Y-126318824D01*
X78386750Y-126320000D01*
X77823250Y-126320000D01*
X77799309Y-126318824D01*
X77775599Y-126315307D01*
X77752348Y-126309483D01*
X77729780Y-126301408D01*
X77708111Y-126291159D01*
X77687552Y-126278836D01*
X77668299Y-126264558D01*
X77650539Y-126248461D01*
X77634442Y-126230701D01*
X77620164Y-126211448D01*
X77607841Y-126190889D01*
X77597592Y-126169220D01*
X77589517Y-126146652D01*
X77583693Y-126123401D01*
X77580176Y-126099691D01*
X77579000Y-126075750D01*
X77579000Y-125587250D01*
X77580176Y-125563309D01*
X77583693Y-125539599D01*
X77589517Y-125516348D01*
X77597592Y-125493780D01*
X77607841Y-125472111D01*
X77620164Y-125451552D01*
X77634442Y-125432299D01*
X77650539Y-125414539D01*
X77668299Y-125398442D01*
X77687552Y-125384164D01*
X77708111Y-125371841D01*
X77729780Y-125361592D01*
X77752348Y-125353517D01*
X77775599Y-125347693D01*
X77799309Y-125344176D01*
X77823250Y-125343000D01*
X78386750Y-125343000D01*
X78410691Y-125344176D01*
G37*
G36*
X78410691Y-126919176D02*
G01*
X78434401Y-126922693D01*
X78457652Y-126928517D01*
X78480220Y-126936592D01*
X78501889Y-126946841D01*
X78522448Y-126959164D01*
X78541701Y-126973442D01*
X78559461Y-126989539D01*
X78575558Y-127007299D01*
X78589836Y-127026552D01*
X78602159Y-127047111D01*
X78612408Y-127068780D01*
X78620483Y-127091348D01*
X78626307Y-127114599D01*
X78629824Y-127138309D01*
X78631000Y-127162250D01*
X78631000Y-127650750D01*
X78629824Y-127674691D01*
X78626307Y-127698401D01*
X78620483Y-127721652D01*
X78612408Y-127744220D01*
X78602159Y-127765889D01*
X78589836Y-127786448D01*
X78575558Y-127805701D01*
X78559461Y-127823461D01*
X78541701Y-127839558D01*
X78522448Y-127853836D01*
X78501889Y-127866159D01*
X78480220Y-127876408D01*
X78457652Y-127884483D01*
X78434401Y-127890307D01*
X78410691Y-127893824D01*
X78386750Y-127895000D01*
X77823250Y-127895000D01*
X77799309Y-127893824D01*
X77775599Y-127890307D01*
X77752348Y-127884483D01*
X77729780Y-127876408D01*
X77708111Y-127866159D01*
X77687552Y-127853836D01*
X77668299Y-127839558D01*
X77650539Y-127823461D01*
X77634442Y-127805701D01*
X77620164Y-127786448D01*
X77607841Y-127765889D01*
X77597592Y-127744220D01*
X77589517Y-127721652D01*
X77583693Y-127698401D01*
X77580176Y-127674691D01*
X77579000Y-127650750D01*
X77579000Y-127162250D01*
X77580176Y-127138309D01*
X77583693Y-127114599D01*
X77589517Y-127091348D01*
X77597592Y-127068780D01*
X77607841Y-127047111D01*
X77620164Y-127026552D01*
X77634442Y-127007299D01*
X77650539Y-126989539D01*
X77668299Y-126973442D01*
X77687552Y-126959164D01*
X77708111Y-126946841D01*
X77729780Y-126936592D01*
X77752348Y-126928517D01*
X77775599Y-126922693D01*
X77799309Y-126919176D01*
X77823250Y-126918000D01*
X78386750Y-126918000D01*
X78410691Y-126919176D01*
G37*
G36*
X61634691Y-117839176D02*
G01*
X61658401Y-117842693D01*
X61681652Y-117848517D01*
X61704220Y-117856592D01*
X61725889Y-117866841D01*
X61746448Y-117879164D01*
X61765701Y-117893442D01*
X61783461Y-117909539D01*
X61799558Y-117927299D01*
X61813836Y-117946552D01*
X61826159Y-117967111D01*
X61836408Y-117988780D01*
X61844483Y-118011348D01*
X61850307Y-118034599D01*
X61853824Y-118058309D01*
X61855000Y-118082250D01*
X61855000Y-118645750D01*
X61853824Y-118669691D01*
X61850307Y-118693401D01*
X61844483Y-118716652D01*
X61836408Y-118739220D01*
X61826159Y-118760889D01*
X61813836Y-118781448D01*
X61799558Y-118800701D01*
X61783461Y-118818461D01*
X61765701Y-118834558D01*
X61746448Y-118848836D01*
X61725889Y-118861159D01*
X61704220Y-118871408D01*
X61681652Y-118879483D01*
X61658401Y-118885307D01*
X61634691Y-118888824D01*
X61610750Y-118890000D01*
X61122250Y-118890000D01*
X61098309Y-118888824D01*
X61074599Y-118885307D01*
X61051348Y-118879483D01*
X61028780Y-118871408D01*
X61007111Y-118861159D01*
X60986552Y-118848836D01*
X60967299Y-118834558D01*
X60949539Y-118818461D01*
X60933442Y-118800701D01*
X60919164Y-118781448D01*
X60906841Y-118760889D01*
X60896592Y-118739220D01*
X60888517Y-118716652D01*
X60882693Y-118693401D01*
X60879176Y-118669691D01*
X60878000Y-118645750D01*
X60878000Y-118082250D01*
X60879176Y-118058309D01*
X60882693Y-118034599D01*
X60888517Y-118011348D01*
X60896592Y-117988780D01*
X60906841Y-117967111D01*
X60919164Y-117946552D01*
X60933442Y-117927299D01*
X60949539Y-117909539D01*
X60967299Y-117893442D01*
X60986552Y-117879164D01*
X61007111Y-117866841D01*
X61028780Y-117856592D01*
X61051348Y-117848517D01*
X61074599Y-117842693D01*
X61098309Y-117839176D01*
X61122250Y-117838000D01*
X61610750Y-117838000D01*
X61634691Y-117839176D01*
G37*
G36*
X60059691Y-117839176D02*
G01*
X60083401Y-117842693D01*
X60106652Y-117848517D01*
X60129220Y-117856592D01*
X60150889Y-117866841D01*
X60171448Y-117879164D01*
X60190701Y-117893442D01*
X60208461Y-117909539D01*
X60224558Y-117927299D01*
X60238836Y-117946552D01*
X60251159Y-117967111D01*
X60261408Y-117988780D01*
X60269483Y-118011348D01*
X60275307Y-118034599D01*
X60278824Y-118058309D01*
X60280000Y-118082250D01*
X60280000Y-118645750D01*
X60278824Y-118669691D01*
X60275307Y-118693401D01*
X60269483Y-118716652D01*
X60261408Y-118739220D01*
X60251159Y-118760889D01*
X60238836Y-118781448D01*
X60224558Y-118800701D01*
X60208461Y-118818461D01*
X60190701Y-118834558D01*
X60171448Y-118848836D01*
X60150889Y-118861159D01*
X60129220Y-118871408D01*
X60106652Y-118879483D01*
X60083401Y-118885307D01*
X60059691Y-118888824D01*
X60035750Y-118890000D01*
X59547250Y-118890000D01*
X59523309Y-118888824D01*
X59499599Y-118885307D01*
X59476348Y-118879483D01*
X59453780Y-118871408D01*
X59432111Y-118861159D01*
X59411552Y-118848836D01*
X59392299Y-118834558D01*
X59374539Y-118818461D01*
X59358442Y-118800701D01*
X59344164Y-118781448D01*
X59331841Y-118760889D01*
X59321592Y-118739220D01*
X59313517Y-118716652D01*
X59307693Y-118693401D01*
X59304176Y-118669691D01*
X59303000Y-118645750D01*
X59303000Y-118082250D01*
X59304176Y-118058309D01*
X59307693Y-118034599D01*
X59313517Y-118011348D01*
X59321592Y-117988780D01*
X59331841Y-117967111D01*
X59344164Y-117946552D01*
X59358442Y-117927299D01*
X59374539Y-117909539D01*
X59392299Y-117893442D01*
X59411552Y-117879164D01*
X59432111Y-117866841D01*
X59453780Y-117856592D01*
X59476348Y-117848517D01*
X59499599Y-117842693D01*
X59523309Y-117839176D01*
X59547250Y-117838000D01*
X60035750Y-117838000D01*
X60059691Y-117839176D01*
G37*
G36*
X63920691Y-127745176D02*
G01*
X63944401Y-127748693D01*
X63967652Y-127754517D01*
X63990220Y-127762592D01*
X64011889Y-127772841D01*
X64032448Y-127785164D01*
X64051701Y-127799442D01*
X64069461Y-127815539D01*
X64085558Y-127833299D01*
X64099836Y-127852552D01*
X64112159Y-127873111D01*
X64122408Y-127894780D01*
X64130483Y-127917348D01*
X64136307Y-127940599D01*
X64139824Y-127964309D01*
X64141000Y-127988250D01*
X64141000Y-128551750D01*
X64139824Y-128575691D01*
X64136307Y-128599401D01*
X64130483Y-128622652D01*
X64122408Y-128645220D01*
X64112159Y-128666889D01*
X64099836Y-128687448D01*
X64085558Y-128706701D01*
X64069461Y-128724461D01*
X64051701Y-128740558D01*
X64032448Y-128754836D01*
X64011889Y-128767159D01*
X63990220Y-128777408D01*
X63967652Y-128785483D01*
X63944401Y-128791307D01*
X63920691Y-128794824D01*
X63896750Y-128796000D01*
X63408250Y-128796000D01*
X63384309Y-128794824D01*
X63360599Y-128791307D01*
X63337348Y-128785483D01*
X63314780Y-128777408D01*
X63293111Y-128767159D01*
X63272552Y-128754836D01*
X63253299Y-128740558D01*
X63235539Y-128724461D01*
X63219442Y-128706701D01*
X63205164Y-128687448D01*
X63192841Y-128666889D01*
X63182592Y-128645220D01*
X63174517Y-128622652D01*
X63168693Y-128599401D01*
X63165176Y-128575691D01*
X63164000Y-128551750D01*
X63164000Y-127988250D01*
X63165176Y-127964309D01*
X63168693Y-127940599D01*
X63174517Y-127917348D01*
X63182592Y-127894780D01*
X63192841Y-127873111D01*
X63205164Y-127852552D01*
X63219442Y-127833299D01*
X63235539Y-127815539D01*
X63253299Y-127799442D01*
X63272552Y-127785164D01*
X63293111Y-127772841D01*
X63314780Y-127762592D01*
X63337348Y-127754517D01*
X63360599Y-127748693D01*
X63384309Y-127745176D01*
X63408250Y-127744000D01*
X63896750Y-127744000D01*
X63920691Y-127745176D01*
G37*
G36*
X62345691Y-127745176D02*
G01*
X62369401Y-127748693D01*
X62392652Y-127754517D01*
X62415220Y-127762592D01*
X62436889Y-127772841D01*
X62457448Y-127785164D01*
X62476701Y-127799442D01*
X62494461Y-127815539D01*
X62510558Y-127833299D01*
X62524836Y-127852552D01*
X62537159Y-127873111D01*
X62547408Y-127894780D01*
X62555483Y-127917348D01*
X62561307Y-127940599D01*
X62564824Y-127964309D01*
X62566000Y-127988250D01*
X62566000Y-128551750D01*
X62564824Y-128575691D01*
X62561307Y-128599401D01*
X62555483Y-128622652D01*
X62547408Y-128645220D01*
X62537159Y-128666889D01*
X62524836Y-128687448D01*
X62510558Y-128706701D01*
X62494461Y-128724461D01*
X62476701Y-128740558D01*
X62457448Y-128754836D01*
X62436889Y-128767159D01*
X62415220Y-128777408D01*
X62392652Y-128785483D01*
X62369401Y-128791307D01*
X62345691Y-128794824D01*
X62321750Y-128796000D01*
X61833250Y-128796000D01*
X61809309Y-128794824D01*
X61785599Y-128791307D01*
X61762348Y-128785483D01*
X61739780Y-128777408D01*
X61718111Y-128767159D01*
X61697552Y-128754836D01*
X61678299Y-128740558D01*
X61660539Y-128724461D01*
X61644442Y-128706701D01*
X61630164Y-128687448D01*
X61617841Y-128666889D01*
X61607592Y-128645220D01*
X61599517Y-128622652D01*
X61593693Y-128599401D01*
X61590176Y-128575691D01*
X61589000Y-128551750D01*
X61589000Y-127988250D01*
X61590176Y-127964309D01*
X61593693Y-127940599D01*
X61599517Y-127917348D01*
X61607592Y-127894780D01*
X61617841Y-127873111D01*
X61630164Y-127852552D01*
X61644442Y-127833299D01*
X61660539Y-127815539D01*
X61678299Y-127799442D01*
X61697552Y-127785164D01*
X61718111Y-127772841D01*
X61739780Y-127762592D01*
X61762348Y-127754517D01*
X61785599Y-127748693D01*
X61809309Y-127745176D01*
X61833250Y-127744000D01*
X62321750Y-127744000D01*
X62345691Y-127745176D01*
G37*
G36*
X63928691Y-129948176D02*
G01*
X63952401Y-129951693D01*
X63975652Y-129957517D01*
X63998220Y-129965592D01*
X64019889Y-129975841D01*
X64040448Y-129988164D01*
X64059701Y-130002442D01*
X64077461Y-130018539D01*
X64093558Y-130036299D01*
X64107836Y-130055552D01*
X64120159Y-130076111D01*
X64130408Y-130097780D01*
X64138483Y-130120348D01*
X64144307Y-130143599D01*
X64147824Y-130167309D01*
X64149000Y-130191250D01*
X64149000Y-130754750D01*
X64147824Y-130778691D01*
X64144307Y-130802401D01*
X64138483Y-130825652D01*
X64130408Y-130848220D01*
X64120159Y-130869889D01*
X64107836Y-130890448D01*
X64093558Y-130909701D01*
X64077461Y-130927461D01*
X64059701Y-130943558D01*
X64040448Y-130957836D01*
X64019889Y-130970159D01*
X63998220Y-130980408D01*
X63975652Y-130988483D01*
X63952401Y-130994307D01*
X63928691Y-130997824D01*
X63904750Y-130999000D01*
X63416250Y-130999000D01*
X63392309Y-130997824D01*
X63368599Y-130994307D01*
X63345348Y-130988483D01*
X63322780Y-130980408D01*
X63301111Y-130970159D01*
X63280552Y-130957836D01*
X63261299Y-130943558D01*
X63243539Y-130927461D01*
X63227442Y-130909701D01*
X63213164Y-130890448D01*
X63200841Y-130869889D01*
X63190592Y-130848220D01*
X63182517Y-130825652D01*
X63176693Y-130802401D01*
X63173176Y-130778691D01*
X63172000Y-130754750D01*
X63172000Y-130191250D01*
X63173176Y-130167309D01*
X63176693Y-130143599D01*
X63182517Y-130120348D01*
X63190592Y-130097780D01*
X63200841Y-130076111D01*
X63213164Y-130055552D01*
X63227442Y-130036299D01*
X63243539Y-130018539D01*
X63261299Y-130002442D01*
X63280552Y-129988164D01*
X63301111Y-129975841D01*
X63322780Y-129965592D01*
X63345348Y-129957517D01*
X63368599Y-129951693D01*
X63392309Y-129948176D01*
X63416250Y-129947000D01*
X63904750Y-129947000D01*
X63928691Y-129948176D01*
G37*
G36*
X62353691Y-129948176D02*
G01*
X62377401Y-129951693D01*
X62400652Y-129957517D01*
X62423220Y-129965592D01*
X62444889Y-129975841D01*
X62465448Y-129988164D01*
X62484701Y-130002442D01*
X62502461Y-130018539D01*
X62518558Y-130036299D01*
X62532836Y-130055552D01*
X62545159Y-130076111D01*
X62555408Y-130097780D01*
X62563483Y-130120348D01*
X62569307Y-130143599D01*
X62572824Y-130167309D01*
X62574000Y-130191250D01*
X62574000Y-130754750D01*
X62572824Y-130778691D01*
X62569307Y-130802401D01*
X62563483Y-130825652D01*
X62555408Y-130848220D01*
X62545159Y-130869889D01*
X62532836Y-130890448D01*
X62518558Y-130909701D01*
X62502461Y-130927461D01*
X62484701Y-130943558D01*
X62465448Y-130957836D01*
X62444889Y-130970159D01*
X62423220Y-130980408D01*
X62400652Y-130988483D01*
X62377401Y-130994307D01*
X62353691Y-130997824D01*
X62329750Y-130999000D01*
X61841250Y-130999000D01*
X61817309Y-130997824D01*
X61793599Y-130994307D01*
X61770348Y-130988483D01*
X61747780Y-130980408D01*
X61726111Y-130970159D01*
X61705552Y-130957836D01*
X61686299Y-130943558D01*
X61668539Y-130927461D01*
X61652442Y-130909701D01*
X61638164Y-130890448D01*
X61625841Y-130869889D01*
X61615592Y-130848220D01*
X61607517Y-130825652D01*
X61601693Y-130802401D01*
X61598176Y-130778691D01*
X61597000Y-130754750D01*
X61597000Y-130191250D01*
X61598176Y-130167309D01*
X61601693Y-130143599D01*
X61607517Y-130120348D01*
X61615592Y-130097780D01*
X61625841Y-130076111D01*
X61638164Y-130055552D01*
X61652442Y-130036299D01*
X61668539Y-130018539D01*
X61686299Y-130002442D01*
X61705552Y-129988164D01*
X61726111Y-129975841D01*
X61747780Y-129965592D01*
X61770348Y-129957517D01*
X61793599Y-129951693D01*
X61817309Y-129948176D01*
X61841250Y-129947000D01*
X62329750Y-129947000D01*
X62353691Y-129948176D01*
G37*
G36*
X68123691Y-121173176D02*
G01*
X68147401Y-121176693D01*
X68170652Y-121182517D01*
X68193220Y-121190592D01*
X68214889Y-121200841D01*
X68235448Y-121213164D01*
X68254701Y-121227442D01*
X68272461Y-121243539D01*
X68288558Y-121261299D01*
X68302836Y-121280552D01*
X68315159Y-121301111D01*
X68325408Y-121322780D01*
X68333483Y-121345348D01*
X68339307Y-121368599D01*
X68342824Y-121392309D01*
X68344000Y-121416250D01*
X68344000Y-121904750D01*
X68342824Y-121928691D01*
X68339307Y-121952401D01*
X68333483Y-121975652D01*
X68325408Y-121998220D01*
X68315159Y-122019889D01*
X68302836Y-122040448D01*
X68288558Y-122059701D01*
X68272461Y-122077461D01*
X68254701Y-122093558D01*
X68235448Y-122107836D01*
X68214889Y-122120159D01*
X68193220Y-122130408D01*
X68170652Y-122138483D01*
X68147401Y-122144307D01*
X68123691Y-122147824D01*
X68099750Y-122149000D01*
X67536250Y-122149000D01*
X67512309Y-122147824D01*
X67488599Y-122144307D01*
X67465348Y-122138483D01*
X67442780Y-122130408D01*
X67421111Y-122120159D01*
X67400552Y-122107836D01*
X67381299Y-122093558D01*
X67363539Y-122077461D01*
X67347442Y-122059701D01*
X67333164Y-122040448D01*
X67320841Y-122019889D01*
X67310592Y-121998220D01*
X67302517Y-121975652D01*
X67296693Y-121952401D01*
X67293176Y-121928691D01*
X67292000Y-121904750D01*
X67292000Y-121416250D01*
X67293176Y-121392309D01*
X67296693Y-121368599D01*
X67302517Y-121345348D01*
X67310592Y-121322780D01*
X67320841Y-121301111D01*
X67333164Y-121280552D01*
X67347442Y-121261299D01*
X67363539Y-121243539D01*
X67381299Y-121227442D01*
X67400552Y-121213164D01*
X67421111Y-121200841D01*
X67442780Y-121190592D01*
X67465348Y-121182517D01*
X67488599Y-121176693D01*
X67512309Y-121173176D01*
X67536250Y-121172000D01*
X68099750Y-121172000D01*
X68123691Y-121173176D01*
G37*
G36*
X68123691Y-119598176D02*
G01*
X68147401Y-119601693D01*
X68170652Y-119607517D01*
X68193220Y-119615592D01*
X68214889Y-119625841D01*
X68235448Y-119638164D01*
X68254701Y-119652442D01*
X68272461Y-119668539D01*
X68288558Y-119686299D01*
X68302836Y-119705552D01*
X68315159Y-119726111D01*
X68325408Y-119747780D01*
X68333483Y-119770348D01*
X68339307Y-119793599D01*
X68342824Y-119817309D01*
X68344000Y-119841250D01*
X68344000Y-120329750D01*
X68342824Y-120353691D01*
X68339307Y-120377401D01*
X68333483Y-120400652D01*
X68325408Y-120423220D01*
X68315159Y-120444889D01*
X68302836Y-120465448D01*
X68288558Y-120484701D01*
X68272461Y-120502461D01*
X68254701Y-120518558D01*
X68235448Y-120532836D01*
X68214889Y-120545159D01*
X68193220Y-120555408D01*
X68170652Y-120563483D01*
X68147401Y-120569307D01*
X68123691Y-120572824D01*
X68099750Y-120574000D01*
X67536250Y-120574000D01*
X67512309Y-120572824D01*
X67488599Y-120569307D01*
X67465348Y-120563483D01*
X67442780Y-120555408D01*
X67421111Y-120545159D01*
X67400552Y-120532836D01*
X67381299Y-120518558D01*
X67363539Y-120502461D01*
X67347442Y-120484701D01*
X67333164Y-120465448D01*
X67320841Y-120444889D01*
X67310592Y-120423220D01*
X67302517Y-120400652D01*
X67296693Y-120377401D01*
X67293176Y-120353691D01*
X67292000Y-120329750D01*
X67292000Y-119841250D01*
X67293176Y-119817309D01*
X67296693Y-119793599D01*
X67302517Y-119770348D01*
X67310592Y-119747780D01*
X67320841Y-119726111D01*
X67333164Y-119705552D01*
X67347442Y-119686299D01*
X67363539Y-119668539D01*
X67381299Y-119652442D01*
X67400552Y-119638164D01*
X67421111Y-119625841D01*
X67442780Y-119615592D01*
X67465348Y-119607517D01*
X67488599Y-119601693D01*
X67512309Y-119598176D01*
X67536250Y-119597000D01*
X68099750Y-119597000D01*
X68123691Y-119598176D01*
G37*
G36*
X59741691Y-129205176D02*
G01*
X59765401Y-129208693D01*
X59788652Y-129214517D01*
X59811220Y-129222592D01*
X59832889Y-129232841D01*
X59853448Y-129245164D01*
X59872701Y-129259442D01*
X59890461Y-129275539D01*
X59906558Y-129293299D01*
X59920836Y-129312552D01*
X59933159Y-129333111D01*
X59943408Y-129354780D01*
X59951483Y-129377348D01*
X59957307Y-129400599D01*
X59960824Y-129424309D01*
X59962000Y-129448250D01*
X59962000Y-129936750D01*
X59960824Y-129960691D01*
X59957307Y-129984401D01*
X59951483Y-130007652D01*
X59943408Y-130030220D01*
X59933159Y-130051889D01*
X59920836Y-130072448D01*
X59906558Y-130091701D01*
X59890461Y-130109461D01*
X59872701Y-130125558D01*
X59853448Y-130139836D01*
X59832889Y-130152159D01*
X59811220Y-130162408D01*
X59788652Y-130170483D01*
X59765401Y-130176307D01*
X59741691Y-130179824D01*
X59717750Y-130181000D01*
X59154250Y-130181000D01*
X59130309Y-130179824D01*
X59106599Y-130176307D01*
X59083348Y-130170483D01*
X59060780Y-130162408D01*
X59039111Y-130152159D01*
X59018552Y-130139836D01*
X58999299Y-130125558D01*
X58981539Y-130109461D01*
X58965442Y-130091701D01*
X58951164Y-130072448D01*
X58938841Y-130051889D01*
X58928592Y-130030220D01*
X58920517Y-130007652D01*
X58914693Y-129984401D01*
X58911176Y-129960691D01*
X58910000Y-129936750D01*
X58910000Y-129448250D01*
X58911176Y-129424309D01*
X58914693Y-129400599D01*
X58920517Y-129377348D01*
X58928592Y-129354780D01*
X58938841Y-129333111D01*
X58951164Y-129312552D01*
X58965442Y-129293299D01*
X58981539Y-129275539D01*
X58999299Y-129259442D01*
X59018552Y-129245164D01*
X59039111Y-129232841D01*
X59060780Y-129222592D01*
X59083348Y-129214517D01*
X59106599Y-129208693D01*
X59130309Y-129205176D01*
X59154250Y-129204000D01*
X59717750Y-129204000D01*
X59741691Y-129205176D01*
G37*
G36*
X59741691Y-127630176D02*
G01*
X59765401Y-127633693D01*
X59788652Y-127639517D01*
X59811220Y-127647592D01*
X59832889Y-127657841D01*
X59853448Y-127670164D01*
X59872701Y-127684442D01*
X59890461Y-127700539D01*
X59906558Y-127718299D01*
X59920836Y-127737552D01*
X59933159Y-127758111D01*
X59943408Y-127779780D01*
X59951483Y-127802348D01*
X59957307Y-127825599D01*
X59960824Y-127849309D01*
X59962000Y-127873250D01*
X59962000Y-128361750D01*
X59960824Y-128385691D01*
X59957307Y-128409401D01*
X59951483Y-128432652D01*
X59943408Y-128455220D01*
X59933159Y-128476889D01*
X59920836Y-128497448D01*
X59906558Y-128516701D01*
X59890461Y-128534461D01*
X59872701Y-128550558D01*
X59853448Y-128564836D01*
X59832889Y-128577159D01*
X59811220Y-128587408D01*
X59788652Y-128595483D01*
X59765401Y-128601307D01*
X59741691Y-128604824D01*
X59717750Y-128606000D01*
X59154250Y-128606000D01*
X59130309Y-128604824D01*
X59106599Y-128601307D01*
X59083348Y-128595483D01*
X59060780Y-128587408D01*
X59039111Y-128577159D01*
X59018552Y-128564836D01*
X58999299Y-128550558D01*
X58981539Y-128534461D01*
X58965442Y-128516701D01*
X58951164Y-128497448D01*
X58938841Y-128476889D01*
X58928592Y-128455220D01*
X58920517Y-128432652D01*
X58914693Y-128409401D01*
X58911176Y-128385691D01*
X58910000Y-128361750D01*
X58910000Y-127873250D01*
X58911176Y-127849309D01*
X58914693Y-127825599D01*
X58920517Y-127802348D01*
X58928592Y-127779780D01*
X58938841Y-127758111D01*
X58951164Y-127737552D01*
X58965442Y-127718299D01*
X58981539Y-127700539D01*
X58999299Y-127684442D01*
X59018552Y-127670164D01*
X59039111Y-127657841D01*
X59060780Y-127647592D01*
X59083348Y-127639517D01*
X59106599Y-127633693D01*
X59130309Y-127630176D01*
X59154250Y-127629000D01*
X59717750Y-127629000D01*
X59741691Y-127630176D01*
G37*
G36*
X57078691Y-129205176D02*
G01*
X57102401Y-129208693D01*
X57125652Y-129214517D01*
X57148220Y-129222592D01*
X57169889Y-129232841D01*
X57190448Y-129245164D01*
X57209701Y-129259442D01*
X57227461Y-129275539D01*
X57243558Y-129293299D01*
X57257836Y-129312552D01*
X57270159Y-129333111D01*
X57280408Y-129354780D01*
X57288483Y-129377348D01*
X57294307Y-129400599D01*
X57297824Y-129424309D01*
X57299000Y-129448250D01*
X57299000Y-129936750D01*
X57297824Y-129960691D01*
X57294307Y-129984401D01*
X57288483Y-130007652D01*
X57280408Y-130030220D01*
X57270159Y-130051889D01*
X57257836Y-130072448D01*
X57243558Y-130091701D01*
X57227461Y-130109461D01*
X57209701Y-130125558D01*
X57190448Y-130139836D01*
X57169889Y-130152159D01*
X57148220Y-130162408D01*
X57125652Y-130170483D01*
X57102401Y-130176307D01*
X57078691Y-130179824D01*
X57054750Y-130181000D01*
X56491250Y-130181000D01*
X56467309Y-130179824D01*
X56443599Y-130176307D01*
X56420348Y-130170483D01*
X56397780Y-130162408D01*
X56376111Y-130152159D01*
X56355552Y-130139836D01*
X56336299Y-130125558D01*
X56318539Y-130109461D01*
X56302442Y-130091701D01*
X56288164Y-130072448D01*
X56275841Y-130051889D01*
X56265592Y-130030220D01*
X56257517Y-130007652D01*
X56251693Y-129984401D01*
X56248176Y-129960691D01*
X56247000Y-129936750D01*
X56247000Y-129448250D01*
X56248176Y-129424309D01*
X56251693Y-129400599D01*
X56257517Y-129377348D01*
X56265592Y-129354780D01*
X56275841Y-129333111D01*
X56288164Y-129312552D01*
X56302442Y-129293299D01*
X56318539Y-129275539D01*
X56336299Y-129259442D01*
X56355552Y-129245164D01*
X56376111Y-129232841D01*
X56397780Y-129222592D01*
X56420348Y-129214517D01*
X56443599Y-129208693D01*
X56467309Y-129205176D01*
X56491250Y-129204000D01*
X57054750Y-129204000D01*
X57078691Y-129205176D01*
G37*
G36*
X57078691Y-127630176D02*
G01*
X57102401Y-127633693D01*
X57125652Y-127639517D01*
X57148220Y-127647592D01*
X57169889Y-127657841D01*
X57190448Y-127670164D01*
X57209701Y-127684442D01*
X57227461Y-127700539D01*
X57243558Y-127718299D01*
X57257836Y-127737552D01*
X57270159Y-127758111D01*
X57280408Y-127779780D01*
X57288483Y-127802348D01*
X57294307Y-127825599D01*
X57297824Y-127849309D01*
X57299000Y-127873250D01*
X57299000Y-128361750D01*
X57297824Y-128385691D01*
X57294307Y-128409401D01*
X57288483Y-128432652D01*
X57280408Y-128455220D01*
X57270159Y-128476889D01*
X57257836Y-128497448D01*
X57243558Y-128516701D01*
X57227461Y-128534461D01*
X57209701Y-128550558D01*
X57190448Y-128564836D01*
X57169889Y-128577159D01*
X57148220Y-128587408D01*
X57125652Y-128595483D01*
X57102401Y-128601307D01*
X57078691Y-128604824D01*
X57054750Y-128606000D01*
X56491250Y-128606000D01*
X56467309Y-128604824D01*
X56443599Y-128601307D01*
X56420348Y-128595483D01*
X56397780Y-128587408D01*
X56376111Y-128577159D01*
X56355552Y-128564836D01*
X56336299Y-128550558D01*
X56318539Y-128534461D01*
X56302442Y-128516701D01*
X56288164Y-128497448D01*
X56275841Y-128476889D01*
X56265592Y-128455220D01*
X56257517Y-128432652D01*
X56251693Y-128409401D01*
X56248176Y-128385691D01*
X56247000Y-128361750D01*
X56247000Y-127873250D01*
X56248176Y-127849309D01*
X56251693Y-127825599D01*
X56257517Y-127802348D01*
X56265592Y-127779780D01*
X56275841Y-127758111D01*
X56288164Y-127737552D01*
X56302442Y-127718299D01*
X56318539Y-127700539D01*
X56336299Y-127684442D01*
X56355552Y-127670164D01*
X56376111Y-127657841D01*
X56397780Y-127647592D01*
X56420348Y-127639517D01*
X56443599Y-127633693D01*
X56467309Y-127630176D01*
X56491250Y-127629000D01*
X57054750Y-127629000D01*
X57078691Y-127630176D01*
G37*
G36*
X56185691Y-123236176D02*
G01*
X56209401Y-123239693D01*
X56232652Y-123245517D01*
X56255220Y-123253592D01*
X56276889Y-123263841D01*
X56297448Y-123276164D01*
X56316701Y-123290442D01*
X56334461Y-123306539D01*
X56350558Y-123324299D01*
X56364836Y-123343552D01*
X56377159Y-123364111D01*
X56387408Y-123385780D01*
X56395483Y-123408348D01*
X56401307Y-123431599D01*
X56404824Y-123455309D01*
X56406000Y-123479250D01*
X56406000Y-123967750D01*
X56404824Y-123991691D01*
X56401307Y-124015401D01*
X56395483Y-124038652D01*
X56387408Y-124061220D01*
X56377159Y-124082889D01*
X56364836Y-124103448D01*
X56350558Y-124122701D01*
X56334461Y-124140461D01*
X56316701Y-124156558D01*
X56297448Y-124170836D01*
X56276889Y-124183159D01*
X56255220Y-124193408D01*
X56232652Y-124201483D01*
X56209401Y-124207307D01*
X56185691Y-124210824D01*
X56161750Y-124212000D01*
X55598250Y-124212000D01*
X55574309Y-124210824D01*
X55550599Y-124207307D01*
X55527348Y-124201483D01*
X55504780Y-124193408D01*
X55483111Y-124183159D01*
X55462552Y-124170836D01*
X55443299Y-124156558D01*
X55425539Y-124140461D01*
X55409442Y-124122701D01*
X55395164Y-124103448D01*
X55382841Y-124082889D01*
X55372592Y-124061220D01*
X55364517Y-124038652D01*
X55358693Y-124015401D01*
X55355176Y-123991691D01*
X55354000Y-123967750D01*
X55354000Y-123479250D01*
X55355176Y-123455309D01*
X55358693Y-123431599D01*
X55364517Y-123408348D01*
X55372592Y-123385780D01*
X55382841Y-123364111D01*
X55395164Y-123343552D01*
X55409442Y-123324299D01*
X55425539Y-123306539D01*
X55443299Y-123290442D01*
X55462552Y-123276164D01*
X55483111Y-123263841D01*
X55504780Y-123253592D01*
X55527348Y-123245517D01*
X55550599Y-123239693D01*
X55574309Y-123236176D01*
X55598250Y-123235000D01*
X56161750Y-123235000D01*
X56185691Y-123236176D01*
G37*
G36*
X56185691Y-121661176D02*
G01*
X56209401Y-121664693D01*
X56232652Y-121670517D01*
X56255220Y-121678592D01*
X56276889Y-121688841D01*
X56297448Y-121701164D01*
X56316701Y-121715442D01*
X56334461Y-121731539D01*
X56350558Y-121749299D01*
X56364836Y-121768552D01*
X56377159Y-121789111D01*
X56387408Y-121810780D01*
X56395483Y-121833348D01*
X56401307Y-121856599D01*
X56404824Y-121880309D01*
X56406000Y-121904250D01*
X56406000Y-122392750D01*
X56404824Y-122416691D01*
X56401307Y-122440401D01*
X56395483Y-122463652D01*
X56387408Y-122486220D01*
X56377159Y-122507889D01*
X56364836Y-122528448D01*
X56350558Y-122547701D01*
X56334461Y-122565461D01*
X56316701Y-122581558D01*
X56297448Y-122595836D01*
X56276889Y-122608159D01*
X56255220Y-122618408D01*
X56232652Y-122626483D01*
X56209401Y-122632307D01*
X56185691Y-122635824D01*
X56161750Y-122637000D01*
X55598250Y-122637000D01*
X55574309Y-122635824D01*
X55550599Y-122632307D01*
X55527348Y-122626483D01*
X55504780Y-122618408D01*
X55483111Y-122608159D01*
X55462552Y-122595836D01*
X55443299Y-122581558D01*
X55425539Y-122565461D01*
X55409442Y-122547701D01*
X55395164Y-122528448D01*
X55382841Y-122507889D01*
X55372592Y-122486220D01*
X55364517Y-122463652D01*
X55358693Y-122440401D01*
X55355176Y-122416691D01*
X55354000Y-122392750D01*
X55354000Y-121904250D01*
X55355176Y-121880309D01*
X55358693Y-121856599D01*
X55364517Y-121833348D01*
X55372592Y-121810780D01*
X55382841Y-121789111D01*
X55395164Y-121768552D01*
X55409442Y-121749299D01*
X55425539Y-121731539D01*
X55443299Y-121715442D01*
X55462552Y-121701164D01*
X55483111Y-121688841D01*
X55504780Y-121678592D01*
X55527348Y-121670517D01*
X55550599Y-121664693D01*
X55574309Y-121661176D01*
X55598250Y-121660000D01*
X56161750Y-121660000D01*
X56185691Y-121661176D01*
G37*
G36*
X65710691Y-123312176D02*
G01*
X65734401Y-123315693D01*
X65757652Y-123321517D01*
X65780220Y-123329592D01*
X65801889Y-123339841D01*
X65822448Y-123352164D01*
X65841701Y-123366442D01*
X65859461Y-123382539D01*
X65875558Y-123400299D01*
X65889836Y-123419552D01*
X65902159Y-123440111D01*
X65912408Y-123461780D01*
X65920483Y-123484348D01*
X65926307Y-123507599D01*
X65929824Y-123531309D01*
X65931000Y-123555250D01*
X65931000Y-124043750D01*
X65929824Y-124067691D01*
X65926307Y-124091401D01*
X65920483Y-124114652D01*
X65912408Y-124137220D01*
X65902159Y-124158889D01*
X65889836Y-124179448D01*
X65875558Y-124198701D01*
X65859461Y-124216461D01*
X65841701Y-124232558D01*
X65822448Y-124246836D01*
X65801889Y-124259159D01*
X65780220Y-124269408D01*
X65757652Y-124277483D01*
X65734401Y-124283307D01*
X65710691Y-124286824D01*
X65686750Y-124288000D01*
X65123250Y-124288000D01*
X65099309Y-124286824D01*
X65075599Y-124283307D01*
X65052348Y-124277483D01*
X65029780Y-124269408D01*
X65008111Y-124259159D01*
X64987552Y-124246836D01*
X64968299Y-124232558D01*
X64950539Y-124216461D01*
X64934442Y-124198701D01*
X64920164Y-124179448D01*
X64907841Y-124158889D01*
X64897592Y-124137220D01*
X64889517Y-124114652D01*
X64883693Y-124091401D01*
X64880176Y-124067691D01*
X64879000Y-124043750D01*
X64879000Y-123555250D01*
X64880176Y-123531309D01*
X64883693Y-123507599D01*
X64889517Y-123484348D01*
X64897592Y-123461780D01*
X64907841Y-123440111D01*
X64920164Y-123419552D01*
X64934442Y-123400299D01*
X64950539Y-123382539D01*
X64968299Y-123366442D01*
X64987552Y-123352164D01*
X65008111Y-123339841D01*
X65029780Y-123329592D01*
X65052348Y-123321517D01*
X65075599Y-123315693D01*
X65099309Y-123312176D01*
X65123250Y-123311000D01*
X65686750Y-123311000D01*
X65710691Y-123312176D01*
G37*
G36*
X65710691Y-124887176D02*
G01*
X65734401Y-124890693D01*
X65757652Y-124896517D01*
X65780220Y-124904592D01*
X65801889Y-124914841D01*
X65822448Y-124927164D01*
X65841701Y-124941442D01*
X65859461Y-124957539D01*
X65875558Y-124975299D01*
X65889836Y-124994552D01*
X65902159Y-125015111D01*
X65912408Y-125036780D01*
X65920483Y-125059348D01*
X65926307Y-125082599D01*
X65929824Y-125106309D01*
X65931000Y-125130250D01*
X65931000Y-125618750D01*
X65929824Y-125642691D01*
X65926307Y-125666401D01*
X65920483Y-125689652D01*
X65912408Y-125712220D01*
X65902159Y-125733889D01*
X65889836Y-125754448D01*
X65875558Y-125773701D01*
X65859461Y-125791461D01*
X65841701Y-125807558D01*
X65822448Y-125821836D01*
X65801889Y-125834159D01*
X65780220Y-125844408D01*
X65757652Y-125852483D01*
X65734401Y-125858307D01*
X65710691Y-125861824D01*
X65686750Y-125863000D01*
X65123250Y-125863000D01*
X65099309Y-125861824D01*
X65075599Y-125858307D01*
X65052348Y-125852483D01*
X65029780Y-125844408D01*
X65008111Y-125834159D01*
X64987552Y-125821836D01*
X64968299Y-125807558D01*
X64950539Y-125791461D01*
X64934442Y-125773701D01*
X64920164Y-125754448D01*
X64907841Y-125733889D01*
X64897592Y-125712220D01*
X64889517Y-125689652D01*
X64883693Y-125666401D01*
X64880176Y-125642691D01*
X64879000Y-125618750D01*
X64879000Y-125130250D01*
X64880176Y-125106309D01*
X64883693Y-125082599D01*
X64889517Y-125059348D01*
X64897592Y-125036780D01*
X64907841Y-125015111D01*
X64920164Y-124994552D01*
X64934442Y-124975299D01*
X64950539Y-124957539D01*
X64968299Y-124941442D01*
X64987552Y-124927164D01*
X65008111Y-124914841D01*
X65029780Y-124904592D01*
X65052348Y-124896517D01*
X65075599Y-124890693D01*
X65099309Y-124887176D01*
X65123250Y-124886000D01*
X65686750Y-124886000D01*
X65710691Y-124887176D01*
G37*
D13*
X45720000Y-137668000D03*
X58647000Y-135128000D03*
D14*
X46482000Y-132588000D03*
X56642000Y-132588000D03*
D15*
X55372000Y-135128000D03*
D16*
X51562000Y-132588000D03*
D15*
X49022000Y-137668000D03*
D13*
X64770000Y-137668000D03*
X77697000Y-135128000D03*
D14*
X65532000Y-132588000D03*
X75692000Y-132588000D03*
D15*
X74422000Y-135128000D03*
D16*
X70612000Y-132588000D03*
D15*
X68072000Y-137668000D03*
D17*
X77869250Y-123328500D03*
X71419250Y-123328500D03*
X77094250Y-123328500D03*
X72194250Y-123328500D03*
D18*
X72894250Y-123328500D03*
X76394250Y-123328500D03*
X73394250Y-123328500D03*
X75894250Y-123328500D03*
X73894250Y-123328500D03*
X75394250Y-123328500D03*
X74894250Y-123328500D03*
X74394250Y-123328500D03*
D19*
X77534250Y-121883500D03*
X71754250Y-121883500D03*
D20*
X43523000Y-124973000D03*
X47223000Y-118773000D03*
X47223000Y-124973000D03*
X43523000Y-118773000D03*
D21*
X51973000Y-123273000D03*
X51973000Y-125773000D03*
X51973000Y-128273000D03*
D22*
X76311000Y-125742000D03*
D23*
X74311000Y-125542000D03*
X76311000Y-127442000D03*
X74311000Y-127442000D03*
D12*
G36*
X59102126Y-124726674D02*
G01*
X59110668Y-124727941D01*
X59119045Y-124730039D01*
X59127176Y-124732949D01*
X59134983Y-124736641D01*
X59142390Y-124741081D01*
X59149327Y-124746225D01*
X59155725Y-124752025D01*
X59161525Y-124758423D01*
X59166669Y-124765360D01*
X59171109Y-124772767D01*
X59174801Y-124780574D01*
X59177711Y-124788705D01*
X59179809Y-124797082D01*
X59181076Y-124805624D01*
X59181500Y-124814250D01*
X59181500Y-125615250D01*
X59181076Y-125623876D01*
X59179809Y-125632418D01*
X59177711Y-125640795D01*
X59174801Y-125648926D01*
X59171109Y-125656733D01*
X59166669Y-125664140D01*
X59161525Y-125671077D01*
X59155725Y-125677475D01*
X59149327Y-125683275D01*
X59142390Y-125688419D01*
X59134983Y-125692859D01*
X59127176Y-125696551D01*
X59119045Y-125699461D01*
X59110668Y-125701559D01*
X59102126Y-125702826D01*
X59093500Y-125703250D01*
X58917500Y-125703250D01*
X58908874Y-125702826D01*
X58900332Y-125701559D01*
X58891955Y-125699461D01*
X58883824Y-125696551D01*
X58876017Y-125692859D01*
X58868610Y-125688419D01*
X58861673Y-125683275D01*
X58855275Y-125677475D01*
X58849475Y-125671077D01*
X58844331Y-125664140D01*
X58839891Y-125656733D01*
X58836199Y-125648926D01*
X58833289Y-125640795D01*
X58831191Y-125632418D01*
X58829924Y-125623876D01*
X58829500Y-125615250D01*
X58829500Y-124814250D01*
X58829924Y-124805624D01*
X58831191Y-124797082D01*
X58833289Y-124788705D01*
X58836199Y-124780574D01*
X58839891Y-124772767D01*
X58844331Y-124765360D01*
X58849475Y-124758423D01*
X58855275Y-124752025D01*
X58861673Y-124746225D01*
X58868610Y-124741081D01*
X58876017Y-124736641D01*
X58883824Y-124732949D01*
X58891955Y-124730039D01*
X58900332Y-124727941D01*
X58908874Y-124726674D01*
X58917500Y-124726250D01*
X59093500Y-124726250D01*
X59102126Y-124726674D01*
G37*
G36*
X59602126Y-124726674D02*
G01*
X59610668Y-124727941D01*
X59619045Y-124730039D01*
X59627176Y-124732949D01*
X59634983Y-124736641D01*
X59642390Y-124741081D01*
X59649327Y-124746225D01*
X59655725Y-124752025D01*
X59661525Y-124758423D01*
X59666669Y-124765360D01*
X59671109Y-124772767D01*
X59674801Y-124780574D01*
X59677711Y-124788705D01*
X59679809Y-124797082D01*
X59681076Y-124805624D01*
X59681500Y-124814250D01*
X59681500Y-125615250D01*
X59681076Y-125623876D01*
X59679809Y-125632418D01*
X59677711Y-125640795D01*
X59674801Y-125648926D01*
X59671109Y-125656733D01*
X59666669Y-125664140D01*
X59661525Y-125671077D01*
X59655725Y-125677475D01*
X59649327Y-125683275D01*
X59642390Y-125688419D01*
X59634983Y-125692859D01*
X59627176Y-125696551D01*
X59619045Y-125699461D01*
X59610668Y-125701559D01*
X59602126Y-125702826D01*
X59593500Y-125703250D01*
X59417500Y-125703250D01*
X59408874Y-125702826D01*
X59400332Y-125701559D01*
X59391955Y-125699461D01*
X59383824Y-125696551D01*
X59376017Y-125692859D01*
X59368610Y-125688419D01*
X59361673Y-125683275D01*
X59355275Y-125677475D01*
X59349475Y-125671077D01*
X59344331Y-125664140D01*
X59339891Y-125656733D01*
X59336199Y-125648926D01*
X59333289Y-125640795D01*
X59331191Y-125632418D01*
X59329924Y-125623876D01*
X59329500Y-125615250D01*
X59329500Y-124814250D01*
X59329924Y-124805624D01*
X59331191Y-124797082D01*
X59333289Y-124788705D01*
X59336199Y-124780574D01*
X59339891Y-124772767D01*
X59344331Y-124765360D01*
X59349475Y-124758423D01*
X59355275Y-124752025D01*
X59361673Y-124746225D01*
X59368610Y-124741081D01*
X59376017Y-124736641D01*
X59383824Y-124732949D01*
X59391955Y-124730039D01*
X59400332Y-124727941D01*
X59408874Y-124726674D01*
X59417500Y-124726250D01*
X59593500Y-124726250D01*
X59602126Y-124726674D01*
G37*
G36*
X60102126Y-124726674D02*
G01*
X60110668Y-124727941D01*
X60119045Y-124730039D01*
X60127176Y-124732949D01*
X60134983Y-124736641D01*
X60142390Y-124741081D01*
X60149327Y-124746225D01*
X60155725Y-124752025D01*
X60161525Y-124758423D01*
X60166669Y-124765360D01*
X60171109Y-124772767D01*
X60174801Y-124780574D01*
X60177711Y-124788705D01*
X60179809Y-124797082D01*
X60181076Y-124805624D01*
X60181500Y-124814250D01*
X60181500Y-125615250D01*
X60181076Y-125623876D01*
X60179809Y-125632418D01*
X60177711Y-125640795D01*
X60174801Y-125648926D01*
X60171109Y-125656733D01*
X60166669Y-125664140D01*
X60161525Y-125671077D01*
X60155725Y-125677475D01*
X60149327Y-125683275D01*
X60142390Y-125688419D01*
X60134983Y-125692859D01*
X60127176Y-125696551D01*
X60119045Y-125699461D01*
X60110668Y-125701559D01*
X60102126Y-125702826D01*
X60093500Y-125703250D01*
X59917500Y-125703250D01*
X59908874Y-125702826D01*
X59900332Y-125701559D01*
X59891955Y-125699461D01*
X59883824Y-125696551D01*
X59876017Y-125692859D01*
X59868610Y-125688419D01*
X59861673Y-125683275D01*
X59855275Y-125677475D01*
X59849475Y-125671077D01*
X59844331Y-125664140D01*
X59839891Y-125656733D01*
X59836199Y-125648926D01*
X59833289Y-125640795D01*
X59831191Y-125632418D01*
X59829924Y-125623876D01*
X59829500Y-125615250D01*
X59829500Y-124814250D01*
X59829924Y-124805624D01*
X59831191Y-124797082D01*
X59833289Y-124788705D01*
X59836199Y-124780574D01*
X59839891Y-124772767D01*
X59844331Y-124765360D01*
X59849475Y-124758423D01*
X59855275Y-124752025D01*
X59861673Y-124746225D01*
X59868610Y-124741081D01*
X59876017Y-124736641D01*
X59883824Y-124732949D01*
X59891955Y-124730039D01*
X59900332Y-124727941D01*
X59908874Y-124726674D01*
X59917500Y-124726250D01*
X60093500Y-124726250D01*
X60102126Y-124726674D01*
G37*
G36*
X60602126Y-124726674D02*
G01*
X60610668Y-124727941D01*
X60619045Y-124730039D01*
X60627176Y-124732949D01*
X60634983Y-124736641D01*
X60642390Y-124741081D01*
X60649327Y-124746225D01*
X60655725Y-124752025D01*
X60661525Y-124758423D01*
X60666669Y-124765360D01*
X60671109Y-124772767D01*
X60674801Y-124780574D01*
X60677711Y-124788705D01*
X60679809Y-124797082D01*
X60681076Y-124805624D01*
X60681500Y-124814250D01*
X60681500Y-125615250D01*
X60681076Y-125623876D01*
X60679809Y-125632418D01*
X60677711Y-125640795D01*
X60674801Y-125648926D01*
X60671109Y-125656733D01*
X60666669Y-125664140D01*
X60661525Y-125671077D01*
X60655725Y-125677475D01*
X60649327Y-125683275D01*
X60642390Y-125688419D01*
X60634983Y-125692859D01*
X60627176Y-125696551D01*
X60619045Y-125699461D01*
X60610668Y-125701559D01*
X60602126Y-125702826D01*
X60593500Y-125703250D01*
X60417500Y-125703250D01*
X60408874Y-125702826D01*
X60400332Y-125701559D01*
X60391955Y-125699461D01*
X60383824Y-125696551D01*
X60376017Y-125692859D01*
X60368610Y-125688419D01*
X60361673Y-125683275D01*
X60355275Y-125677475D01*
X60349475Y-125671077D01*
X60344331Y-125664140D01*
X60339891Y-125656733D01*
X60336199Y-125648926D01*
X60333289Y-125640795D01*
X60331191Y-125632418D01*
X60329924Y-125623876D01*
X60329500Y-125615250D01*
X60329500Y-124814250D01*
X60329924Y-124805624D01*
X60331191Y-124797082D01*
X60333289Y-124788705D01*
X60336199Y-124780574D01*
X60339891Y-124772767D01*
X60344331Y-124765360D01*
X60349475Y-124758423D01*
X60355275Y-124752025D01*
X60361673Y-124746225D01*
X60368610Y-124741081D01*
X60376017Y-124736641D01*
X60383824Y-124732949D01*
X60391955Y-124730039D01*
X60400332Y-124727941D01*
X60408874Y-124726674D01*
X60417500Y-124726250D01*
X60593500Y-124726250D01*
X60602126Y-124726674D01*
G37*
G36*
X61102126Y-124726674D02*
G01*
X61110668Y-124727941D01*
X61119045Y-124730039D01*
X61127176Y-124732949D01*
X61134983Y-124736641D01*
X61142390Y-124741081D01*
X61149327Y-124746225D01*
X61155725Y-124752025D01*
X61161525Y-124758423D01*
X61166669Y-124765360D01*
X61171109Y-124772767D01*
X61174801Y-124780574D01*
X61177711Y-124788705D01*
X61179809Y-124797082D01*
X61181076Y-124805624D01*
X61181500Y-124814250D01*
X61181500Y-125615250D01*
X61181076Y-125623876D01*
X61179809Y-125632418D01*
X61177711Y-125640795D01*
X61174801Y-125648926D01*
X61171109Y-125656733D01*
X61166669Y-125664140D01*
X61161525Y-125671077D01*
X61155725Y-125677475D01*
X61149327Y-125683275D01*
X61142390Y-125688419D01*
X61134983Y-125692859D01*
X61127176Y-125696551D01*
X61119045Y-125699461D01*
X61110668Y-125701559D01*
X61102126Y-125702826D01*
X61093500Y-125703250D01*
X60917500Y-125703250D01*
X60908874Y-125702826D01*
X60900332Y-125701559D01*
X60891955Y-125699461D01*
X60883824Y-125696551D01*
X60876017Y-125692859D01*
X60868610Y-125688419D01*
X60861673Y-125683275D01*
X60855275Y-125677475D01*
X60849475Y-125671077D01*
X60844331Y-125664140D01*
X60839891Y-125656733D01*
X60836199Y-125648926D01*
X60833289Y-125640795D01*
X60831191Y-125632418D01*
X60829924Y-125623876D01*
X60829500Y-125615250D01*
X60829500Y-124814250D01*
X60829924Y-124805624D01*
X60831191Y-124797082D01*
X60833289Y-124788705D01*
X60836199Y-124780574D01*
X60839891Y-124772767D01*
X60844331Y-124765360D01*
X60849475Y-124758423D01*
X60855275Y-124752025D01*
X60861673Y-124746225D01*
X60868610Y-124741081D01*
X60876017Y-124736641D01*
X60883824Y-124732949D01*
X60891955Y-124730039D01*
X60900332Y-124727941D01*
X60908874Y-124726674D01*
X60917500Y-124726250D01*
X61093500Y-124726250D01*
X61102126Y-124726674D01*
G37*
G36*
X61602126Y-124726674D02*
G01*
X61610668Y-124727941D01*
X61619045Y-124730039D01*
X61627176Y-124732949D01*
X61634983Y-124736641D01*
X61642390Y-124741081D01*
X61649327Y-124746225D01*
X61655725Y-124752025D01*
X61661525Y-124758423D01*
X61666669Y-124765360D01*
X61671109Y-124772767D01*
X61674801Y-124780574D01*
X61677711Y-124788705D01*
X61679809Y-124797082D01*
X61681076Y-124805624D01*
X61681500Y-124814250D01*
X61681500Y-125615250D01*
X61681076Y-125623876D01*
X61679809Y-125632418D01*
X61677711Y-125640795D01*
X61674801Y-125648926D01*
X61671109Y-125656733D01*
X61666669Y-125664140D01*
X61661525Y-125671077D01*
X61655725Y-125677475D01*
X61649327Y-125683275D01*
X61642390Y-125688419D01*
X61634983Y-125692859D01*
X61627176Y-125696551D01*
X61619045Y-125699461D01*
X61610668Y-125701559D01*
X61602126Y-125702826D01*
X61593500Y-125703250D01*
X61417500Y-125703250D01*
X61408874Y-125702826D01*
X61400332Y-125701559D01*
X61391955Y-125699461D01*
X61383824Y-125696551D01*
X61376017Y-125692859D01*
X61368610Y-125688419D01*
X61361673Y-125683275D01*
X61355275Y-125677475D01*
X61349475Y-125671077D01*
X61344331Y-125664140D01*
X61339891Y-125656733D01*
X61336199Y-125648926D01*
X61333289Y-125640795D01*
X61331191Y-125632418D01*
X61329924Y-125623876D01*
X61329500Y-125615250D01*
X61329500Y-124814250D01*
X61329924Y-124805624D01*
X61331191Y-124797082D01*
X61333289Y-124788705D01*
X61336199Y-124780574D01*
X61339891Y-124772767D01*
X61344331Y-124765360D01*
X61349475Y-124758423D01*
X61355275Y-124752025D01*
X61361673Y-124746225D01*
X61368610Y-124741081D01*
X61376017Y-124736641D01*
X61383824Y-124732949D01*
X61391955Y-124730039D01*
X61400332Y-124727941D01*
X61408874Y-124726674D01*
X61417500Y-124726250D01*
X61593500Y-124726250D01*
X61602126Y-124726674D01*
G37*
G36*
X62102126Y-124726674D02*
G01*
X62110668Y-124727941D01*
X62119045Y-124730039D01*
X62127176Y-124732949D01*
X62134983Y-124736641D01*
X62142390Y-124741081D01*
X62149327Y-124746225D01*
X62155725Y-124752025D01*
X62161525Y-124758423D01*
X62166669Y-124765360D01*
X62171109Y-124772767D01*
X62174801Y-124780574D01*
X62177711Y-124788705D01*
X62179809Y-124797082D01*
X62181076Y-124805624D01*
X62181500Y-124814250D01*
X62181500Y-125615250D01*
X62181076Y-125623876D01*
X62179809Y-125632418D01*
X62177711Y-125640795D01*
X62174801Y-125648926D01*
X62171109Y-125656733D01*
X62166669Y-125664140D01*
X62161525Y-125671077D01*
X62155725Y-125677475D01*
X62149327Y-125683275D01*
X62142390Y-125688419D01*
X62134983Y-125692859D01*
X62127176Y-125696551D01*
X62119045Y-125699461D01*
X62110668Y-125701559D01*
X62102126Y-125702826D01*
X62093500Y-125703250D01*
X61917500Y-125703250D01*
X61908874Y-125702826D01*
X61900332Y-125701559D01*
X61891955Y-125699461D01*
X61883824Y-125696551D01*
X61876017Y-125692859D01*
X61868610Y-125688419D01*
X61861673Y-125683275D01*
X61855275Y-125677475D01*
X61849475Y-125671077D01*
X61844331Y-125664140D01*
X61839891Y-125656733D01*
X61836199Y-125648926D01*
X61833289Y-125640795D01*
X61831191Y-125632418D01*
X61829924Y-125623876D01*
X61829500Y-125615250D01*
X61829500Y-124814250D01*
X61829924Y-124805624D01*
X61831191Y-124797082D01*
X61833289Y-124788705D01*
X61836199Y-124780574D01*
X61839891Y-124772767D01*
X61844331Y-124765360D01*
X61849475Y-124758423D01*
X61855275Y-124752025D01*
X61861673Y-124746225D01*
X61868610Y-124741081D01*
X61876017Y-124736641D01*
X61883824Y-124732949D01*
X61891955Y-124730039D01*
X61900332Y-124727941D01*
X61908874Y-124726674D01*
X61917500Y-124726250D01*
X62093500Y-124726250D01*
X62102126Y-124726674D01*
G37*
G36*
X62602126Y-124726674D02*
G01*
X62610668Y-124727941D01*
X62619045Y-124730039D01*
X62627176Y-124732949D01*
X62634983Y-124736641D01*
X62642390Y-124741081D01*
X62649327Y-124746225D01*
X62655725Y-124752025D01*
X62661525Y-124758423D01*
X62666669Y-124765360D01*
X62671109Y-124772767D01*
X62674801Y-124780574D01*
X62677711Y-124788705D01*
X62679809Y-124797082D01*
X62681076Y-124805624D01*
X62681500Y-124814250D01*
X62681500Y-125615250D01*
X62681076Y-125623876D01*
X62679809Y-125632418D01*
X62677711Y-125640795D01*
X62674801Y-125648926D01*
X62671109Y-125656733D01*
X62666669Y-125664140D01*
X62661525Y-125671077D01*
X62655725Y-125677475D01*
X62649327Y-125683275D01*
X62642390Y-125688419D01*
X62634983Y-125692859D01*
X62627176Y-125696551D01*
X62619045Y-125699461D01*
X62610668Y-125701559D01*
X62602126Y-125702826D01*
X62593500Y-125703250D01*
X62417500Y-125703250D01*
X62408874Y-125702826D01*
X62400332Y-125701559D01*
X62391955Y-125699461D01*
X62383824Y-125696551D01*
X62376017Y-125692859D01*
X62368610Y-125688419D01*
X62361673Y-125683275D01*
X62355275Y-125677475D01*
X62349475Y-125671077D01*
X62344331Y-125664140D01*
X62339891Y-125656733D01*
X62336199Y-125648926D01*
X62333289Y-125640795D01*
X62331191Y-125632418D01*
X62329924Y-125623876D01*
X62329500Y-125615250D01*
X62329500Y-124814250D01*
X62329924Y-124805624D01*
X62331191Y-124797082D01*
X62333289Y-124788705D01*
X62336199Y-124780574D01*
X62339891Y-124772767D01*
X62344331Y-124765360D01*
X62349475Y-124758423D01*
X62355275Y-124752025D01*
X62361673Y-124746225D01*
X62368610Y-124741081D01*
X62376017Y-124736641D01*
X62383824Y-124732949D01*
X62391955Y-124730039D01*
X62400332Y-124727941D01*
X62408874Y-124726674D01*
X62417500Y-124726250D01*
X62593500Y-124726250D01*
X62602126Y-124726674D01*
G37*
G36*
X63602126Y-124351674D02*
G01*
X63610668Y-124352941D01*
X63619045Y-124355039D01*
X63627176Y-124357949D01*
X63634983Y-124361641D01*
X63642390Y-124366081D01*
X63649327Y-124371225D01*
X63655725Y-124377025D01*
X63661525Y-124383423D01*
X63666669Y-124390360D01*
X63671109Y-124397767D01*
X63674801Y-124405574D01*
X63677711Y-124413705D01*
X63679809Y-124422082D01*
X63681076Y-124430624D01*
X63681500Y-124439250D01*
X63681500Y-124615250D01*
X63681076Y-124623876D01*
X63679809Y-124632418D01*
X63677711Y-124640795D01*
X63674801Y-124648926D01*
X63671109Y-124656733D01*
X63666669Y-124664140D01*
X63661525Y-124671077D01*
X63655725Y-124677475D01*
X63649327Y-124683275D01*
X63642390Y-124688419D01*
X63634983Y-124692859D01*
X63627176Y-124696551D01*
X63619045Y-124699461D01*
X63610668Y-124701559D01*
X63602126Y-124702826D01*
X63593500Y-124703250D01*
X62792500Y-124703250D01*
X62783874Y-124702826D01*
X62775332Y-124701559D01*
X62766955Y-124699461D01*
X62758824Y-124696551D01*
X62751017Y-124692859D01*
X62743610Y-124688419D01*
X62736673Y-124683275D01*
X62730275Y-124677475D01*
X62724475Y-124671077D01*
X62719331Y-124664140D01*
X62714891Y-124656733D01*
X62711199Y-124648926D01*
X62708289Y-124640795D01*
X62706191Y-124632418D01*
X62704924Y-124623876D01*
X62704500Y-124615250D01*
X62704500Y-124439250D01*
X62704924Y-124430624D01*
X62706191Y-124422082D01*
X62708289Y-124413705D01*
X62711199Y-124405574D01*
X62714891Y-124397767D01*
X62719331Y-124390360D01*
X62724475Y-124383423D01*
X62730275Y-124377025D01*
X62736673Y-124371225D01*
X62743610Y-124366081D01*
X62751017Y-124361641D01*
X62758824Y-124357949D01*
X62766955Y-124355039D01*
X62775332Y-124352941D01*
X62783874Y-124351674D01*
X62792500Y-124351250D01*
X63593500Y-124351250D01*
X63602126Y-124351674D01*
G37*
G36*
X63602126Y-123851674D02*
G01*
X63610668Y-123852941D01*
X63619045Y-123855039D01*
X63627176Y-123857949D01*
X63634983Y-123861641D01*
X63642390Y-123866081D01*
X63649327Y-123871225D01*
X63655725Y-123877025D01*
X63661525Y-123883423D01*
X63666669Y-123890360D01*
X63671109Y-123897767D01*
X63674801Y-123905574D01*
X63677711Y-123913705D01*
X63679809Y-123922082D01*
X63681076Y-123930624D01*
X63681500Y-123939250D01*
X63681500Y-124115250D01*
X63681076Y-124123876D01*
X63679809Y-124132418D01*
X63677711Y-124140795D01*
X63674801Y-124148926D01*
X63671109Y-124156733D01*
X63666669Y-124164140D01*
X63661525Y-124171077D01*
X63655725Y-124177475D01*
X63649327Y-124183275D01*
X63642390Y-124188419D01*
X63634983Y-124192859D01*
X63627176Y-124196551D01*
X63619045Y-124199461D01*
X63610668Y-124201559D01*
X63602126Y-124202826D01*
X63593500Y-124203250D01*
X62792500Y-124203250D01*
X62783874Y-124202826D01*
X62775332Y-124201559D01*
X62766955Y-124199461D01*
X62758824Y-124196551D01*
X62751017Y-124192859D01*
X62743610Y-124188419D01*
X62736673Y-124183275D01*
X62730275Y-124177475D01*
X62724475Y-124171077D01*
X62719331Y-124164140D01*
X62714891Y-124156733D01*
X62711199Y-124148926D01*
X62708289Y-124140795D01*
X62706191Y-124132418D01*
X62704924Y-124123876D01*
X62704500Y-124115250D01*
X62704500Y-123939250D01*
X62704924Y-123930624D01*
X62706191Y-123922082D01*
X62708289Y-123913705D01*
X62711199Y-123905574D01*
X62714891Y-123897767D01*
X62719331Y-123890360D01*
X62724475Y-123883423D01*
X62730275Y-123877025D01*
X62736673Y-123871225D01*
X62743610Y-123866081D01*
X62751017Y-123861641D01*
X62758824Y-123857949D01*
X62766955Y-123855039D01*
X62775332Y-123852941D01*
X62783874Y-123851674D01*
X62792500Y-123851250D01*
X63593500Y-123851250D01*
X63602126Y-123851674D01*
G37*
G36*
X63602126Y-123351674D02*
G01*
X63610668Y-123352941D01*
X63619045Y-123355039D01*
X63627176Y-123357949D01*
X63634983Y-123361641D01*
X63642390Y-123366081D01*
X63649327Y-123371225D01*
X63655725Y-123377025D01*
X63661525Y-123383423D01*
X63666669Y-123390360D01*
X63671109Y-123397767D01*
X63674801Y-123405574D01*
X63677711Y-123413705D01*
X63679809Y-123422082D01*
X63681076Y-123430624D01*
X63681500Y-123439250D01*
X63681500Y-123615250D01*
X63681076Y-123623876D01*
X63679809Y-123632418D01*
X63677711Y-123640795D01*
X63674801Y-123648926D01*
X63671109Y-123656733D01*
X63666669Y-123664140D01*
X63661525Y-123671077D01*
X63655725Y-123677475D01*
X63649327Y-123683275D01*
X63642390Y-123688419D01*
X63634983Y-123692859D01*
X63627176Y-123696551D01*
X63619045Y-123699461D01*
X63610668Y-123701559D01*
X63602126Y-123702826D01*
X63593500Y-123703250D01*
X62792500Y-123703250D01*
X62783874Y-123702826D01*
X62775332Y-123701559D01*
X62766955Y-123699461D01*
X62758824Y-123696551D01*
X62751017Y-123692859D01*
X62743610Y-123688419D01*
X62736673Y-123683275D01*
X62730275Y-123677475D01*
X62724475Y-123671077D01*
X62719331Y-123664140D01*
X62714891Y-123656733D01*
X62711199Y-123648926D01*
X62708289Y-123640795D01*
X62706191Y-123632418D01*
X62704924Y-123623876D01*
X62704500Y-123615250D01*
X62704500Y-123439250D01*
X62704924Y-123430624D01*
X62706191Y-123422082D01*
X62708289Y-123413705D01*
X62711199Y-123405574D01*
X62714891Y-123397767D01*
X62719331Y-123390360D01*
X62724475Y-123383423D01*
X62730275Y-123377025D01*
X62736673Y-123371225D01*
X62743610Y-123366081D01*
X62751017Y-123361641D01*
X62758824Y-123357949D01*
X62766955Y-123355039D01*
X62775332Y-123352941D01*
X62783874Y-123351674D01*
X62792500Y-123351250D01*
X63593500Y-123351250D01*
X63602126Y-123351674D01*
G37*
G36*
X63602126Y-122851674D02*
G01*
X63610668Y-122852941D01*
X63619045Y-122855039D01*
X63627176Y-122857949D01*
X63634983Y-122861641D01*
X63642390Y-122866081D01*
X63649327Y-122871225D01*
X63655725Y-122877025D01*
X63661525Y-122883423D01*
X63666669Y-122890360D01*
X63671109Y-122897767D01*
X63674801Y-122905574D01*
X63677711Y-122913705D01*
X63679809Y-122922082D01*
X63681076Y-122930624D01*
X63681500Y-122939250D01*
X63681500Y-123115250D01*
X63681076Y-123123876D01*
X63679809Y-123132418D01*
X63677711Y-123140795D01*
X63674801Y-123148926D01*
X63671109Y-123156733D01*
X63666669Y-123164140D01*
X63661525Y-123171077D01*
X63655725Y-123177475D01*
X63649327Y-123183275D01*
X63642390Y-123188419D01*
X63634983Y-123192859D01*
X63627176Y-123196551D01*
X63619045Y-123199461D01*
X63610668Y-123201559D01*
X63602126Y-123202826D01*
X63593500Y-123203250D01*
X62792500Y-123203250D01*
X62783874Y-123202826D01*
X62775332Y-123201559D01*
X62766955Y-123199461D01*
X62758824Y-123196551D01*
X62751017Y-123192859D01*
X62743610Y-123188419D01*
X62736673Y-123183275D01*
X62730275Y-123177475D01*
X62724475Y-123171077D01*
X62719331Y-123164140D01*
X62714891Y-123156733D01*
X62711199Y-123148926D01*
X62708289Y-123140795D01*
X62706191Y-123132418D01*
X62704924Y-123123876D01*
X62704500Y-123115250D01*
X62704500Y-122939250D01*
X62704924Y-122930624D01*
X62706191Y-122922082D01*
X62708289Y-122913705D01*
X62711199Y-122905574D01*
X62714891Y-122897767D01*
X62719331Y-122890360D01*
X62724475Y-122883423D01*
X62730275Y-122877025D01*
X62736673Y-122871225D01*
X62743610Y-122866081D01*
X62751017Y-122861641D01*
X62758824Y-122857949D01*
X62766955Y-122855039D01*
X62775332Y-122852941D01*
X62783874Y-122851674D01*
X62792500Y-122851250D01*
X63593500Y-122851250D01*
X63602126Y-122851674D01*
G37*
G36*
X63602126Y-122351674D02*
G01*
X63610668Y-122352941D01*
X63619045Y-122355039D01*
X63627176Y-122357949D01*
X63634983Y-122361641D01*
X63642390Y-122366081D01*
X63649327Y-122371225D01*
X63655725Y-122377025D01*
X63661525Y-122383423D01*
X63666669Y-122390360D01*
X63671109Y-122397767D01*
X63674801Y-122405574D01*
X63677711Y-122413705D01*
X63679809Y-122422082D01*
X63681076Y-122430624D01*
X63681500Y-122439250D01*
X63681500Y-122615250D01*
X63681076Y-122623876D01*
X63679809Y-122632418D01*
X63677711Y-122640795D01*
X63674801Y-122648926D01*
X63671109Y-122656733D01*
X63666669Y-122664140D01*
X63661525Y-122671077D01*
X63655725Y-122677475D01*
X63649327Y-122683275D01*
X63642390Y-122688419D01*
X63634983Y-122692859D01*
X63627176Y-122696551D01*
X63619045Y-122699461D01*
X63610668Y-122701559D01*
X63602126Y-122702826D01*
X63593500Y-122703250D01*
X62792500Y-122703250D01*
X62783874Y-122702826D01*
X62775332Y-122701559D01*
X62766955Y-122699461D01*
X62758824Y-122696551D01*
X62751017Y-122692859D01*
X62743610Y-122688419D01*
X62736673Y-122683275D01*
X62730275Y-122677475D01*
X62724475Y-122671077D01*
X62719331Y-122664140D01*
X62714891Y-122656733D01*
X62711199Y-122648926D01*
X62708289Y-122640795D01*
X62706191Y-122632418D01*
X62704924Y-122623876D01*
X62704500Y-122615250D01*
X62704500Y-122439250D01*
X62704924Y-122430624D01*
X62706191Y-122422082D01*
X62708289Y-122413705D01*
X62711199Y-122405574D01*
X62714891Y-122397767D01*
X62719331Y-122390360D01*
X62724475Y-122383423D01*
X62730275Y-122377025D01*
X62736673Y-122371225D01*
X62743610Y-122366081D01*
X62751017Y-122361641D01*
X62758824Y-122357949D01*
X62766955Y-122355039D01*
X62775332Y-122352941D01*
X62783874Y-122351674D01*
X62792500Y-122351250D01*
X63593500Y-122351250D01*
X63602126Y-122351674D01*
G37*
G36*
X63602126Y-121851674D02*
G01*
X63610668Y-121852941D01*
X63619045Y-121855039D01*
X63627176Y-121857949D01*
X63634983Y-121861641D01*
X63642390Y-121866081D01*
X63649327Y-121871225D01*
X63655725Y-121877025D01*
X63661525Y-121883423D01*
X63666669Y-121890360D01*
X63671109Y-121897767D01*
X63674801Y-121905574D01*
X63677711Y-121913705D01*
X63679809Y-121922082D01*
X63681076Y-121930624D01*
X63681500Y-121939250D01*
X63681500Y-122115250D01*
X63681076Y-122123876D01*
X63679809Y-122132418D01*
X63677711Y-122140795D01*
X63674801Y-122148926D01*
X63671109Y-122156733D01*
X63666669Y-122164140D01*
X63661525Y-122171077D01*
X63655725Y-122177475D01*
X63649327Y-122183275D01*
X63642390Y-122188419D01*
X63634983Y-122192859D01*
X63627176Y-122196551D01*
X63619045Y-122199461D01*
X63610668Y-122201559D01*
X63602126Y-122202826D01*
X63593500Y-122203250D01*
X62792500Y-122203250D01*
X62783874Y-122202826D01*
X62775332Y-122201559D01*
X62766955Y-122199461D01*
X62758824Y-122196551D01*
X62751017Y-122192859D01*
X62743610Y-122188419D01*
X62736673Y-122183275D01*
X62730275Y-122177475D01*
X62724475Y-122171077D01*
X62719331Y-122164140D01*
X62714891Y-122156733D01*
X62711199Y-122148926D01*
X62708289Y-122140795D01*
X62706191Y-122132418D01*
X62704924Y-122123876D01*
X62704500Y-122115250D01*
X62704500Y-121939250D01*
X62704924Y-121930624D01*
X62706191Y-121922082D01*
X62708289Y-121913705D01*
X62711199Y-121905574D01*
X62714891Y-121897767D01*
X62719331Y-121890360D01*
X62724475Y-121883423D01*
X62730275Y-121877025D01*
X62736673Y-121871225D01*
X62743610Y-121866081D01*
X62751017Y-121861641D01*
X62758824Y-121857949D01*
X62766955Y-121855039D01*
X62775332Y-121852941D01*
X62783874Y-121851674D01*
X62792500Y-121851250D01*
X63593500Y-121851250D01*
X63602126Y-121851674D01*
G37*
G36*
X63602126Y-121351674D02*
G01*
X63610668Y-121352941D01*
X63619045Y-121355039D01*
X63627176Y-121357949D01*
X63634983Y-121361641D01*
X63642390Y-121366081D01*
X63649327Y-121371225D01*
X63655725Y-121377025D01*
X63661525Y-121383423D01*
X63666669Y-121390360D01*
X63671109Y-121397767D01*
X63674801Y-121405574D01*
X63677711Y-121413705D01*
X63679809Y-121422082D01*
X63681076Y-121430624D01*
X63681500Y-121439250D01*
X63681500Y-121615250D01*
X63681076Y-121623876D01*
X63679809Y-121632418D01*
X63677711Y-121640795D01*
X63674801Y-121648926D01*
X63671109Y-121656733D01*
X63666669Y-121664140D01*
X63661525Y-121671077D01*
X63655725Y-121677475D01*
X63649327Y-121683275D01*
X63642390Y-121688419D01*
X63634983Y-121692859D01*
X63627176Y-121696551D01*
X63619045Y-121699461D01*
X63610668Y-121701559D01*
X63602126Y-121702826D01*
X63593500Y-121703250D01*
X62792500Y-121703250D01*
X62783874Y-121702826D01*
X62775332Y-121701559D01*
X62766955Y-121699461D01*
X62758824Y-121696551D01*
X62751017Y-121692859D01*
X62743610Y-121688419D01*
X62736673Y-121683275D01*
X62730275Y-121677475D01*
X62724475Y-121671077D01*
X62719331Y-121664140D01*
X62714891Y-121656733D01*
X62711199Y-121648926D01*
X62708289Y-121640795D01*
X62706191Y-121632418D01*
X62704924Y-121623876D01*
X62704500Y-121615250D01*
X62704500Y-121439250D01*
X62704924Y-121430624D01*
X62706191Y-121422082D01*
X62708289Y-121413705D01*
X62711199Y-121405574D01*
X62714891Y-121397767D01*
X62719331Y-121390360D01*
X62724475Y-121383423D01*
X62730275Y-121377025D01*
X62736673Y-121371225D01*
X62743610Y-121366081D01*
X62751017Y-121361641D01*
X62758824Y-121357949D01*
X62766955Y-121355039D01*
X62775332Y-121352941D01*
X62783874Y-121351674D01*
X62792500Y-121351250D01*
X63593500Y-121351250D01*
X63602126Y-121351674D01*
G37*
G36*
X63602126Y-120851674D02*
G01*
X63610668Y-120852941D01*
X63619045Y-120855039D01*
X63627176Y-120857949D01*
X63634983Y-120861641D01*
X63642390Y-120866081D01*
X63649327Y-120871225D01*
X63655725Y-120877025D01*
X63661525Y-120883423D01*
X63666669Y-120890360D01*
X63671109Y-120897767D01*
X63674801Y-120905574D01*
X63677711Y-120913705D01*
X63679809Y-120922082D01*
X63681076Y-120930624D01*
X63681500Y-120939250D01*
X63681500Y-121115250D01*
X63681076Y-121123876D01*
X63679809Y-121132418D01*
X63677711Y-121140795D01*
X63674801Y-121148926D01*
X63671109Y-121156733D01*
X63666669Y-121164140D01*
X63661525Y-121171077D01*
X63655725Y-121177475D01*
X63649327Y-121183275D01*
X63642390Y-121188419D01*
X63634983Y-121192859D01*
X63627176Y-121196551D01*
X63619045Y-121199461D01*
X63610668Y-121201559D01*
X63602126Y-121202826D01*
X63593500Y-121203250D01*
X62792500Y-121203250D01*
X62783874Y-121202826D01*
X62775332Y-121201559D01*
X62766955Y-121199461D01*
X62758824Y-121196551D01*
X62751017Y-121192859D01*
X62743610Y-121188419D01*
X62736673Y-121183275D01*
X62730275Y-121177475D01*
X62724475Y-121171077D01*
X62719331Y-121164140D01*
X62714891Y-121156733D01*
X62711199Y-121148926D01*
X62708289Y-121140795D01*
X62706191Y-121132418D01*
X62704924Y-121123876D01*
X62704500Y-121115250D01*
X62704500Y-120939250D01*
X62704924Y-120930624D01*
X62706191Y-120922082D01*
X62708289Y-120913705D01*
X62711199Y-120905574D01*
X62714891Y-120897767D01*
X62719331Y-120890360D01*
X62724475Y-120883423D01*
X62730275Y-120877025D01*
X62736673Y-120871225D01*
X62743610Y-120866081D01*
X62751017Y-120861641D01*
X62758824Y-120857949D01*
X62766955Y-120855039D01*
X62775332Y-120852941D01*
X62783874Y-120851674D01*
X62792500Y-120851250D01*
X63593500Y-120851250D01*
X63602126Y-120851674D01*
G37*
G36*
X62602126Y-119851674D02*
G01*
X62610668Y-119852941D01*
X62619045Y-119855039D01*
X62627176Y-119857949D01*
X62634983Y-119861641D01*
X62642390Y-119866081D01*
X62649327Y-119871225D01*
X62655725Y-119877025D01*
X62661525Y-119883423D01*
X62666669Y-119890360D01*
X62671109Y-119897767D01*
X62674801Y-119905574D01*
X62677711Y-119913705D01*
X62679809Y-119922082D01*
X62681076Y-119930624D01*
X62681500Y-119939250D01*
X62681500Y-120740250D01*
X62681076Y-120748876D01*
X62679809Y-120757418D01*
X62677711Y-120765795D01*
X62674801Y-120773926D01*
X62671109Y-120781733D01*
X62666669Y-120789140D01*
X62661525Y-120796077D01*
X62655725Y-120802475D01*
X62649327Y-120808275D01*
X62642390Y-120813419D01*
X62634983Y-120817859D01*
X62627176Y-120821551D01*
X62619045Y-120824461D01*
X62610668Y-120826559D01*
X62602126Y-120827826D01*
X62593500Y-120828250D01*
X62417500Y-120828250D01*
X62408874Y-120827826D01*
X62400332Y-120826559D01*
X62391955Y-120824461D01*
X62383824Y-120821551D01*
X62376017Y-120817859D01*
X62368610Y-120813419D01*
X62361673Y-120808275D01*
X62355275Y-120802475D01*
X62349475Y-120796077D01*
X62344331Y-120789140D01*
X62339891Y-120781733D01*
X62336199Y-120773926D01*
X62333289Y-120765795D01*
X62331191Y-120757418D01*
X62329924Y-120748876D01*
X62329500Y-120740250D01*
X62329500Y-119939250D01*
X62329924Y-119930624D01*
X62331191Y-119922082D01*
X62333289Y-119913705D01*
X62336199Y-119905574D01*
X62339891Y-119897767D01*
X62344331Y-119890360D01*
X62349475Y-119883423D01*
X62355275Y-119877025D01*
X62361673Y-119871225D01*
X62368610Y-119866081D01*
X62376017Y-119861641D01*
X62383824Y-119857949D01*
X62391955Y-119855039D01*
X62400332Y-119852941D01*
X62408874Y-119851674D01*
X62417500Y-119851250D01*
X62593500Y-119851250D01*
X62602126Y-119851674D01*
G37*
G36*
X62102126Y-119851674D02*
G01*
X62110668Y-119852941D01*
X62119045Y-119855039D01*
X62127176Y-119857949D01*
X62134983Y-119861641D01*
X62142390Y-119866081D01*
X62149327Y-119871225D01*
X62155725Y-119877025D01*
X62161525Y-119883423D01*
X62166669Y-119890360D01*
X62171109Y-119897767D01*
X62174801Y-119905574D01*
X62177711Y-119913705D01*
X62179809Y-119922082D01*
X62181076Y-119930624D01*
X62181500Y-119939250D01*
X62181500Y-120740250D01*
X62181076Y-120748876D01*
X62179809Y-120757418D01*
X62177711Y-120765795D01*
X62174801Y-120773926D01*
X62171109Y-120781733D01*
X62166669Y-120789140D01*
X62161525Y-120796077D01*
X62155725Y-120802475D01*
X62149327Y-120808275D01*
X62142390Y-120813419D01*
X62134983Y-120817859D01*
X62127176Y-120821551D01*
X62119045Y-120824461D01*
X62110668Y-120826559D01*
X62102126Y-120827826D01*
X62093500Y-120828250D01*
X61917500Y-120828250D01*
X61908874Y-120827826D01*
X61900332Y-120826559D01*
X61891955Y-120824461D01*
X61883824Y-120821551D01*
X61876017Y-120817859D01*
X61868610Y-120813419D01*
X61861673Y-120808275D01*
X61855275Y-120802475D01*
X61849475Y-120796077D01*
X61844331Y-120789140D01*
X61839891Y-120781733D01*
X61836199Y-120773926D01*
X61833289Y-120765795D01*
X61831191Y-120757418D01*
X61829924Y-120748876D01*
X61829500Y-120740250D01*
X61829500Y-119939250D01*
X61829924Y-119930624D01*
X61831191Y-119922082D01*
X61833289Y-119913705D01*
X61836199Y-119905574D01*
X61839891Y-119897767D01*
X61844331Y-119890360D01*
X61849475Y-119883423D01*
X61855275Y-119877025D01*
X61861673Y-119871225D01*
X61868610Y-119866081D01*
X61876017Y-119861641D01*
X61883824Y-119857949D01*
X61891955Y-119855039D01*
X61900332Y-119852941D01*
X61908874Y-119851674D01*
X61917500Y-119851250D01*
X62093500Y-119851250D01*
X62102126Y-119851674D01*
G37*
G36*
X61602126Y-119851674D02*
G01*
X61610668Y-119852941D01*
X61619045Y-119855039D01*
X61627176Y-119857949D01*
X61634983Y-119861641D01*
X61642390Y-119866081D01*
X61649327Y-119871225D01*
X61655725Y-119877025D01*
X61661525Y-119883423D01*
X61666669Y-119890360D01*
X61671109Y-119897767D01*
X61674801Y-119905574D01*
X61677711Y-119913705D01*
X61679809Y-119922082D01*
X61681076Y-119930624D01*
X61681500Y-119939250D01*
X61681500Y-120740250D01*
X61681076Y-120748876D01*
X61679809Y-120757418D01*
X61677711Y-120765795D01*
X61674801Y-120773926D01*
X61671109Y-120781733D01*
X61666669Y-120789140D01*
X61661525Y-120796077D01*
X61655725Y-120802475D01*
X61649327Y-120808275D01*
X61642390Y-120813419D01*
X61634983Y-120817859D01*
X61627176Y-120821551D01*
X61619045Y-120824461D01*
X61610668Y-120826559D01*
X61602126Y-120827826D01*
X61593500Y-120828250D01*
X61417500Y-120828250D01*
X61408874Y-120827826D01*
X61400332Y-120826559D01*
X61391955Y-120824461D01*
X61383824Y-120821551D01*
X61376017Y-120817859D01*
X61368610Y-120813419D01*
X61361673Y-120808275D01*
X61355275Y-120802475D01*
X61349475Y-120796077D01*
X61344331Y-120789140D01*
X61339891Y-120781733D01*
X61336199Y-120773926D01*
X61333289Y-120765795D01*
X61331191Y-120757418D01*
X61329924Y-120748876D01*
X61329500Y-120740250D01*
X61329500Y-119939250D01*
X61329924Y-119930624D01*
X61331191Y-119922082D01*
X61333289Y-119913705D01*
X61336199Y-119905574D01*
X61339891Y-119897767D01*
X61344331Y-119890360D01*
X61349475Y-119883423D01*
X61355275Y-119877025D01*
X61361673Y-119871225D01*
X61368610Y-119866081D01*
X61376017Y-119861641D01*
X61383824Y-119857949D01*
X61391955Y-119855039D01*
X61400332Y-119852941D01*
X61408874Y-119851674D01*
X61417500Y-119851250D01*
X61593500Y-119851250D01*
X61602126Y-119851674D01*
G37*
G36*
X61102126Y-119851674D02*
G01*
X61110668Y-119852941D01*
X61119045Y-119855039D01*
X61127176Y-119857949D01*
X61134983Y-119861641D01*
X61142390Y-119866081D01*
X61149327Y-119871225D01*
X61155725Y-119877025D01*
X61161525Y-119883423D01*
X61166669Y-119890360D01*
X61171109Y-119897767D01*
X61174801Y-119905574D01*
X61177711Y-119913705D01*
X61179809Y-119922082D01*
X61181076Y-119930624D01*
X61181500Y-119939250D01*
X61181500Y-120740250D01*
X61181076Y-120748876D01*
X61179809Y-120757418D01*
X61177711Y-120765795D01*
X61174801Y-120773926D01*
X61171109Y-120781733D01*
X61166669Y-120789140D01*
X61161525Y-120796077D01*
X61155725Y-120802475D01*
X61149327Y-120808275D01*
X61142390Y-120813419D01*
X61134983Y-120817859D01*
X61127176Y-120821551D01*
X61119045Y-120824461D01*
X61110668Y-120826559D01*
X61102126Y-120827826D01*
X61093500Y-120828250D01*
X60917500Y-120828250D01*
X60908874Y-120827826D01*
X60900332Y-120826559D01*
X60891955Y-120824461D01*
X60883824Y-120821551D01*
X60876017Y-120817859D01*
X60868610Y-120813419D01*
X60861673Y-120808275D01*
X60855275Y-120802475D01*
X60849475Y-120796077D01*
X60844331Y-120789140D01*
X60839891Y-120781733D01*
X60836199Y-120773926D01*
X60833289Y-120765795D01*
X60831191Y-120757418D01*
X60829924Y-120748876D01*
X60829500Y-120740250D01*
X60829500Y-119939250D01*
X60829924Y-119930624D01*
X60831191Y-119922082D01*
X60833289Y-119913705D01*
X60836199Y-119905574D01*
X60839891Y-119897767D01*
X60844331Y-119890360D01*
X60849475Y-119883423D01*
X60855275Y-119877025D01*
X60861673Y-119871225D01*
X60868610Y-119866081D01*
X60876017Y-119861641D01*
X60883824Y-119857949D01*
X60891955Y-119855039D01*
X60900332Y-119852941D01*
X60908874Y-119851674D01*
X60917500Y-119851250D01*
X61093500Y-119851250D01*
X61102126Y-119851674D01*
G37*
G36*
X60602126Y-119851674D02*
G01*
X60610668Y-119852941D01*
X60619045Y-119855039D01*
X60627176Y-119857949D01*
X60634983Y-119861641D01*
X60642390Y-119866081D01*
X60649327Y-119871225D01*
X60655725Y-119877025D01*
X60661525Y-119883423D01*
X60666669Y-119890360D01*
X60671109Y-119897767D01*
X60674801Y-119905574D01*
X60677711Y-119913705D01*
X60679809Y-119922082D01*
X60681076Y-119930624D01*
X60681500Y-119939250D01*
X60681500Y-120740250D01*
X60681076Y-120748876D01*
X60679809Y-120757418D01*
X60677711Y-120765795D01*
X60674801Y-120773926D01*
X60671109Y-120781733D01*
X60666669Y-120789140D01*
X60661525Y-120796077D01*
X60655725Y-120802475D01*
X60649327Y-120808275D01*
X60642390Y-120813419D01*
X60634983Y-120817859D01*
X60627176Y-120821551D01*
X60619045Y-120824461D01*
X60610668Y-120826559D01*
X60602126Y-120827826D01*
X60593500Y-120828250D01*
X60417500Y-120828250D01*
X60408874Y-120827826D01*
X60400332Y-120826559D01*
X60391955Y-120824461D01*
X60383824Y-120821551D01*
X60376017Y-120817859D01*
X60368610Y-120813419D01*
X60361673Y-120808275D01*
X60355275Y-120802475D01*
X60349475Y-120796077D01*
X60344331Y-120789140D01*
X60339891Y-120781733D01*
X60336199Y-120773926D01*
X60333289Y-120765795D01*
X60331191Y-120757418D01*
X60329924Y-120748876D01*
X60329500Y-120740250D01*
X60329500Y-119939250D01*
X60329924Y-119930624D01*
X60331191Y-119922082D01*
X60333289Y-119913705D01*
X60336199Y-119905574D01*
X60339891Y-119897767D01*
X60344331Y-119890360D01*
X60349475Y-119883423D01*
X60355275Y-119877025D01*
X60361673Y-119871225D01*
X60368610Y-119866081D01*
X60376017Y-119861641D01*
X60383824Y-119857949D01*
X60391955Y-119855039D01*
X60400332Y-119852941D01*
X60408874Y-119851674D01*
X60417500Y-119851250D01*
X60593500Y-119851250D01*
X60602126Y-119851674D01*
G37*
G36*
X60102126Y-119851674D02*
G01*
X60110668Y-119852941D01*
X60119045Y-119855039D01*
X60127176Y-119857949D01*
X60134983Y-119861641D01*
X60142390Y-119866081D01*
X60149327Y-119871225D01*
X60155725Y-119877025D01*
X60161525Y-119883423D01*
X60166669Y-119890360D01*
X60171109Y-119897767D01*
X60174801Y-119905574D01*
X60177711Y-119913705D01*
X60179809Y-119922082D01*
X60181076Y-119930624D01*
X60181500Y-119939250D01*
X60181500Y-120740250D01*
X60181076Y-120748876D01*
X60179809Y-120757418D01*
X60177711Y-120765795D01*
X60174801Y-120773926D01*
X60171109Y-120781733D01*
X60166669Y-120789140D01*
X60161525Y-120796077D01*
X60155725Y-120802475D01*
X60149327Y-120808275D01*
X60142390Y-120813419D01*
X60134983Y-120817859D01*
X60127176Y-120821551D01*
X60119045Y-120824461D01*
X60110668Y-120826559D01*
X60102126Y-120827826D01*
X60093500Y-120828250D01*
X59917500Y-120828250D01*
X59908874Y-120827826D01*
X59900332Y-120826559D01*
X59891955Y-120824461D01*
X59883824Y-120821551D01*
X59876017Y-120817859D01*
X59868610Y-120813419D01*
X59861673Y-120808275D01*
X59855275Y-120802475D01*
X59849475Y-120796077D01*
X59844331Y-120789140D01*
X59839891Y-120781733D01*
X59836199Y-120773926D01*
X59833289Y-120765795D01*
X59831191Y-120757418D01*
X59829924Y-120748876D01*
X59829500Y-120740250D01*
X59829500Y-119939250D01*
X59829924Y-119930624D01*
X59831191Y-119922082D01*
X59833289Y-119913705D01*
X59836199Y-119905574D01*
X59839891Y-119897767D01*
X59844331Y-119890360D01*
X59849475Y-119883423D01*
X59855275Y-119877025D01*
X59861673Y-119871225D01*
X59868610Y-119866081D01*
X59876017Y-119861641D01*
X59883824Y-119857949D01*
X59891955Y-119855039D01*
X59900332Y-119852941D01*
X59908874Y-119851674D01*
X59917500Y-119851250D01*
X60093500Y-119851250D01*
X60102126Y-119851674D01*
G37*
G36*
X59602126Y-119851674D02*
G01*
X59610668Y-119852941D01*
X59619045Y-119855039D01*
X59627176Y-119857949D01*
X59634983Y-119861641D01*
X59642390Y-119866081D01*
X59649327Y-119871225D01*
X59655725Y-119877025D01*
X59661525Y-119883423D01*
X59666669Y-119890360D01*
X59671109Y-119897767D01*
X59674801Y-119905574D01*
X59677711Y-119913705D01*
X59679809Y-119922082D01*
X59681076Y-119930624D01*
X59681500Y-119939250D01*
X59681500Y-120740250D01*
X59681076Y-120748876D01*
X59679809Y-120757418D01*
X59677711Y-120765795D01*
X59674801Y-120773926D01*
X59671109Y-120781733D01*
X59666669Y-120789140D01*
X59661525Y-120796077D01*
X59655725Y-120802475D01*
X59649327Y-120808275D01*
X59642390Y-120813419D01*
X59634983Y-120817859D01*
X59627176Y-120821551D01*
X59619045Y-120824461D01*
X59610668Y-120826559D01*
X59602126Y-120827826D01*
X59593500Y-120828250D01*
X59417500Y-120828250D01*
X59408874Y-120827826D01*
X59400332Y-120826559D01*
X59391955Y-120824461D01*
X59383824Y-120821551D01*
X59376017Y-120817859D01*
X59368610Y-120813419D01*
X59361673Y-120808275D01*
X59355275Y-120802475D01*
X59349475Y-120796077D01*
X59344331Y-120789140D01*
X59339891Y-120781733D01*
X59336199Y-120773926D01*
X59333289Y-120765795D01*
X59331191Y-120757418D01*
X59329924Y-120748876D01*
X59329500Y-120740250D01*
X59329500Y-119939250D01*
X59329924Y-119930624D01*
X59331191Y-119922082D01*
X59333289Y-119913705D01*
X59336199Y-119905574D01*
X59339891Y-119897767D01*
X59344331Y-119890360D01*
X59349475Y-119883423D01*
X59355275Y-119877025D01*
X59361673Y-119871225D01*
X59368610Y-119866081D01*
X59376017Y-119861641D01*
X59383824Y-119857949D01*
X59391955Y-119855039D01*
X59400332Y-119852941D01*
X59408874Y-119851674D01*
X59417500Y-119851250D01*
X59593500Y-119851250D01*
X59602126Y-119851674D01*
G37*
G36*
X59102126Y-119851674D02*
G01*
X59110668Y-119852941D01*
X59119045Y-119855039D01*
X59127176Y-119857949D01*
X59134983Y-119861641D01*
X59142390Y-119866081D01*
X59149327Y-119871225D01*
X59155725Y-119877025D01*
X59161525Y-119883423D01*
X59166669Y-119890360D01*
X59171109Y-119897767D01*
X59174801Y-119905574D01*
X59177711Y-119913705D01*
X59179809Y-119922082D01*
X59181076Y-119930624D01*
X59181500Y-119939250D01*
X59181500Y-120740250D01*
X59181076Y-120748876D01*
X59179809Y-120757418D01*
X59177711Y-120765795D01*
X59174801Y-120773926D01*
X59171109Y-120781733D01*
X59166669Y-120789140D01*
X59161525Y-120796077D01*
X59155725Y-120802475D01*
X59149327Y-120808275D01*
X59142390Y-120813419D01*
X59134983Y-120817859D01*
X59127176Y-120821551D01*
X59119045Y-120824461D01*
X59110668Y-120826559D01*
X59102126Y-120827826D01*
X59093500Y-120828250D01*
X58917500Y-120828250D01*
X58908874Y-120827826D01*
X58900332Y-120826559D01*
X58891955Y-120824461D01*
X58883824Y-120821551D01*
X58876017Y-120817859D01*
X58868610Y-120813419D01*
X58861673Y-120808275D01*
X58855275Y-120802475D01*
X58849475Y-120796077D01*
X58844331Y-120789140D01*
X58839891Y-120781733D01*
X58836199Y-120773926D01*
X58833289Y-120765795D01*
X58831191Y-120757418D01*
X58829924Y-120748876D01*
X58829500Y-120740250D01*
X58829500Y-119939250D01*
X58829924Y-119930624D01*
X58831191Y-119922082D01*
X58833289Y-119913705D01*
X58836199Y-119905574D01*
X58839891Y-119897767D01*
X58844331Y-119890360D01*
X58849475Y-119883423D01*
X58855275Y-119877025D01*
X58861673Y-119871225D01*
X58868610Y-119866081D01*
X58876017Y-119861641D01*
X58883824Y-119857949D01*
X58891955Y-119855039D01*
X58900332Y-119852941D01*
X58908874Y-119851674D01*
X58917500Y-119851250D01*
X59093500Y-119851250D01*
X59102126Y-119851674D01*
G37*
G36*
X58727126Y-120851674D02*
G01*
X58735668Y-120852941D01*
X58744045Y-120855039D01*
X58752176Y-120857949D01*
X58759983Y-120861641D01*
X58767390Y-120866081D01*
X58774327Y-120871225D01*
X58780725Y-120877025D01*
X58786525Y-120883423D01*
X58791669Y-120890360D01*
X58796109Y-120897767D01*
X58799801Y-120905574D01*
X58802711Y-120913705D01*
X58804809Y-120922082D01*
X58806076Y-120930624D01*
X58806500Y-120939250D01*
X58806500Y-121115250D01*
X58806076Y-121123876D01*
X58804809Y-121132418D01*
X58802711Y-121140795D01*
X58799801Y-121148926D01*
X58796109Y-121156733D01*
X58791669Y-121164140D01*
X58786525Y-121171077D01*
X58780725Y-121177475D01*
X58774327Y-121183275D01*
X58767390Y-121188419D01*
X58759983Y-121192859D01*
X58752176Y-121196551D01*
X58744045Y-121199461D01*
X58735668Y-121201559D01*
X58727126Y-121202826D01*
X58718500Y-121203250D01*
X57917500Y-121203250D01*
X57908874Y-121202826D01*
X57900332Y-121201559D01*
X57891955Y-121199461D01*
X57883824Y-121196551D01*
X57876017Y-121192859D01*
X57868610Y-121188419D01*
X57861673Y-121183275D01*
X57855275Y-121177475D01*
X57849475Y-121171077D01*
X57844331Y-121164140D01*
X57839891Y-121156733D01*
X57836199Y-121148926D01*
X57833289Y-121140795D01*
X57831191Y-121132418D01*
X57829924Y-121123876D01*
X57829500Y-121115250D01*
X57829500Y-120939250D01*
X57829924Y-120930624D01*
X57831191Y-120922082D01*
X57833289Y-120913705D01*
X57836199Y-120905574D01*
X57839891Y-120897767D01*
X57844331Y-120890360D01*
X57849475Y-120883423D01*
X57855275Y-120877025D01*
X57861673Y-120871225D01*
X57868610Y-120866081D01*
X57876017Y-120861641D01*
X57883824Y-120857949D01*
X57891955Y-120855039D01*
X57900332Y-120852941D01*
X57908874Y-120851674D01*
X57917500Y-120851250D01*
X58718500Y-120851250D01*
X58727126Y-120851674D01*
G37*
G36*
X58727126Y-121351674D02*
G01*
X58735668Y-121352941D01*
X58744045Y-121355039D01*
X58752176Y-121357949D01*
X58759983Y-121361641D01*
X58767390Y-121366081D01*
X58774327Y-121371225D01*
X58780725Y-121377025D01*
X58786525Y-121383423D01*
X58791669Y-121390360D01*
X58796109Y-121397767D01*
X58799801Y-121405574D01*
X58802711Y-121413705D01*
X58804809Y-121422082D01*
X58806076Y-121430624D01*
X58806500Y-121439250D01*
X58806500Y-121615250D01*
X58806076Y-121623876D01*
X58804809Y-121632418D01*
X58802711Y-121640795D01*
X58799801Y-121648926D01*
X58796109Y-121656733D01*
X58791669Y-121664140D01*
X58786525Y-121671077D01*
X58780725Y-121677475D01*
X58774327Y-121683275D01*
X58767390Y-121688419D01*
X58759983Y-121692859D01*
X58752176Y-121696551D01*
X58744045Y-121699461D01*
X58735668Y-121701559D01*
X58727126Y-121702826D01*
X58718500Y-121703250D01*
X57917500Y-121703250D01*
X57908874Y-121702826D01*
X57900332Y-121701559D01*
X57891955Y-121699461D01*
X57883824Y-121696551D01*
X57876017Y-121692859D01*
X57868610Y-121688419D01*
X57861673Y-121683275D01*
X57855275Y-121677475D01*
X57849475Y-121671077D01*
X57844331Y-121664140D01*
X57839891Y-121656733D01*
X57836199Y-121648926D01*
X57833289Y-121640795D01*
X57831191Y-121632418D01*
X57829924Y-121623876D01*
X57829500Y-121615250D01*
X57829500Y-121439250D01*
X57829924Y-121430624D01*
X57831191Y-121422082D01*
X57833289Y-121413705D01*
X57836199Y-121405574D01*
X57839891Y-121397767D01*
X57844331Y-121390360D01*
X57849475Y-121383423D01*
X57855275Y-121377025D01*
X57861673Y-121371225D01*
X57868610Y-121366081D01*
X57876017Y-121361641D01*
X57883824Y-121357949D01*
X57891955Y-121355039D01*
X57900332Y-121352941D01*
X57908874Y-121351674D01*
X57917500Y-121351250D01*
X58718500Y-121351250D01*
X58727126Y-121351674D01*
G37*
G36*
X58727126Y-121851674D02*
G01*
X58735668Y-121852941D01*
X58744045Y-121855039D01*
X58752176Y-121857949D01*
X58759983Y-121861641D01*
X58767390Y-121866081D01*
X58774327Y-121871225D01*
X58780725Y-121877025D01*
X58786525Y-121883423D01*
X58791669Y-121890360D01*
X58796109Y-121897767D01*
X58799801Y-121905574D01*
X58802711Y-121913705D01*
X58804809Y-121922082D01*
X58806076Y-121930624D01*
X58806500Y-121939250D01*
X58806500Y-122115250D01*
X58806076Y-122123876D01*
X58804809Y-122132418D01*
X58802711Y-122140795D01*
X58799801Y-122148926D01*
X58796109Y-122156733D01*
X58791669Y-122164140D01*
X58786525Y-122171077D01*
X58780725Y-122177475D01*
X58774327Y-122183275D01*
X58767390Y-122188419D01*
X58759983Y-122192859D01*
X58752176Y-122196551D01*
X58744045Y-122199461D01*
X58735668Y-122201559D01*
X58727126Y-122202826D01*
X58718500Y-122203250D01*
X57917500Y-122203250D01*
X57908874Y-122202826D01*
X57900332Y-122201559D01*
X57891955Y-122199461D01*
X57883824Y-122196551D01*
X57876017Y-122192859D01*
X57868610Y-122188419D01*
X57861673Y-122183275D01*
X57855275Y-122177475D01*
X57849475Y-122171077D01*
X57844331Y-122164140D01*
X57839891Y-122156733D01*
X57836199Y-122148926D01*
X57833289Y-122140795D01*
X57831191Y-122132418D01*
X57829924Y-122123876D01*
X57829500Y-122115250D01*
X57829500Y-121939250D01*
X57829924Y-121930624D01*
X57831191Y-121922082D01*
X57833289Y-121913705D01*
X57836199Y-121905574D01*
X57839891Y-121897767D01*
X57844331Y-121890360D01*
X57849475Y-121883423D01*
X57855275Y-121877025D01*
X57861673Y-121871225D01*
X57868610Y-121866081D01*
X57876017Y-121861641D01*
X57883824Y-121857949D01*
X57891955Y-121855039D01*
X57900332Y-121852941D01*
X57908874Y-121851674D01*
X57917500Y-121851250D01*
X58718500Y-121851250D01*
X58727126Y-121851674D01*
G37*
G36*
X58727126Y-122351674D02*
G01*
X58735668Y-122352941D01*
X58744045Y-122355039D01*
X58752176Y-122357949D01*
X58759983Y-122361641D01*
X58767390Y-122366081D01*
X58774327Y-122371225D01*
X58780725Y-122377025D01*
X58786525Y-122383423D01*
X58791669Y-122390360D01*
X58796109Y-122397767D01*
X58799801Y-122405574D01*
X58802711Y-122413705D01*
X58804809Y-122422082D01*
X58806076Y-122430624D01*
X58806500Y-122439250D01*
X58806500Y-122615250D01*
X58806076Y-122623876D01*
X58804809Y-122632418D01*
X58802711Y-122640795D01*
X58799801Y-122648926D01*
X58796109Y-122656733D01*
X58791669Y-122664140D01*
X58786525Y-122671077D01*
X58780725Y-122677475D01*
X58774327Y-122683275D01*
X58767390Y-122688419D01*
X58759983Y-122692859D01*
X58752176Y-122696551D01*
X58744045Y-122699461D01*
X58735668Y-122701559D01*
X58727126Y-122702826D01*
X58718500Y-122703250D01*
X57917500Y-122703250D01*
X57908874Y-122702826D01*
X57900332Y-122701559D01*
X57891955Y-122699461D01*
X57883824Y-122696551D01*
X57876017Y-122692859D01*
X57868610Y-122688419D01*
X57861673Y-122683275D01*
X57855275Y-122677475D01*
X57849475Y-122671077D01*
X57844331Y-122664140D01*
X57839891Y-122656733D01*
X57836199Y-122648926D01*
X57833289Y-122640795D01*
X57831191Y-122632418D01*
X57829924Y-122623876D01*
X57829500Y-122615250D01*
X57829500Y-122439250D01*
X57829924Y-122430624D01*
X57831191Y-122422082D01*
X57833289Y-122413705D01*
X57836199Y-122405574D01*
X57839891Y-122397767D01*
X57844331Y-122390360D01*
X57849475Y-122383423D01*
X57855275Y-122377025D01*
X57861673Y-122371225D01*
X57868610Y-122366081D01*
X57876017Y-122361641D01*
X57883824Y-122357949D01*
X57891955Y-122355039D01*
X57900332Y-122352941D01*
X57908874Y-122351674D01*
X57917500Y-122351250D01*
X58718500Y-122351250D01*
X58727126Y-122351674D01*
G37*
G36*
X58727126Y-122851674D02*
G01*
X58735668Y-122852941D01*
X58744045Y-122855039D01*
X58752176Y-122857949D01*
X58759983Y-122861641D01*
X58767390Y-122866081D01*
X58774327Y-122871225D01*
X58780725Y-122877025D01*
X58786525Y-122883423D01*
X58791669Y-122890360D01*
X58796109Y-122897767D01*
X58799801Y-122905574D01*
X58802711Y-122913705D01*
X58804809Y-122922082D01*
X58806076Y-122930624D01*
X58806500Y-122939250D01*
X58806500Y-123115250D01*
X58806076Y-123123876D01*
X58804809Y-123132418D01*
X58802711Y-123140795D01*
X58799801Y-123148926D01*
X58796109Y-123156733D01*
X58791669Y-123164140D01*
X58786525Y-123171077D01*
X58780725Y-123177475D01*
X58774327Y-123183275D01*
X58767390Y-123188419D01*
X58759983Y-123192859D01*
X58752176Y-123196551D01*
X58744045Y-123199461D01*
X58735668Y-123201559D01*
X58727126Y-123202826D01*
X58718500Y-123203250D01*
X57917500Y-123203250D01*
X57908874Y-123202826D01*
X57900332Y-123201559D01*
X57891955Y-123199461D01*
X57883824Y-123196551D01*
X57876017Y-123192859D01*
X57868610Y-123188419D01*
X57861673Y-123183275D01*
X57855275Y-123177475D01*
X57849475Y-123171077D01*
X57844331Y-123164140D01*
X57839891Y-123156733D01*
X57836199Y-123148926D01*
X57833289Y-123140795D01*
X57831191Y-123132418D01*
X57829924Y-123123876D01*
X57829500Y-123115250D01*
X57829500Y-122939250D01*
X57829924Y-122930624D01*
X57831191Y-122922082D01*
X57833289Y-122913705D01*
X57836199Y-122905574D01*
X57839891Y-122897767D01*
X57844331Y-122890360D01*
X57849475Y-122883423D01*
X57855275Y-122877025D01*
X57861673Y-122871225D01*
X57868610Y-122866081D01*
X57876017Y-122861641D01*
X57883824Y-122857949D01*
X57891955Y-122855039D01*
X57900332Y-122852941D01*
X57908874Y-122851674D01*
X57917500Y-122851250D01*
X58718500Y-122851250D01*
X58727126Y-122851674D01*
G37*
G36*
X58727126Y-123351674D02*
G01*
X58735668Y-123352941D01*
X58744045Y-123355039D01*
X58752176Y-123357949D01*
X58759983Y-123361641D01*
X58767390Y-123366081D01*
X58774327Y-123371225D01*
X58780725Y-123377025D01*
X58786525Y-123383423D01*
X58791669Y-123390360D01*
X58796109Y-123397767D01*
X58799801Y-123405574D01*
X58802711Y-123413705D01*
X58804809Y-123422082D01*
X58806076Y-123430624D01*
X58806500Y-123439250D01*
X58806500Y-123615250D01*
X58806076Y-123623876D01*
X58804809Y-123632418D01*
X58802711Y-123640795D01*
X58799801Y-123648926D01*
X58796109Y-123656733D01*
X58791669Y-123664140D01*
X58786525Y-123671077D01*
X58780725Y-123677475D01*
X58774327Y-123683275D01*
X58767390Y-123688419D01*
X58759983Y-123692859D01*
X58752176Y-123696551D01*
X58744045Y-123699461D01*
X58735668Y-123701559D01*
X58727126Y-123702826D01*
X58718500Y-123703250D01*
X57917500Y-123703250D01*
X57908874Y-123702826D01*
X57900332Y-123701559D01*
X57891955Y-123699461D01*
X57883824Y-123696551D01*
X57876017Y-123692859D01*
X57868610Y-123688419D01*
X57861673Y-123683275D01*
X57855275Y-123677475D01*
X57849475Y-123671077D01*
X57844331Y-123664140D01*
X57839891Y-123656733D01*
X57836199Y-123648926D01*
X57833289Y-123640795D01*
X57831191Y-123632418D01*
X57829924Y-123623876D01*
X57829500Y-123615250D01*
X57829500Y-123439250D01*
X57829924Y-123430624D01*
X57831191Y-123422082D01*
X57833289Y-123413705D01*
X57836199Y-123405574D01*
X57839891Y-123397767D01*
X57844331Y-123390360D01*
X57849475Y-123383423D01*
X57855275Y-123377025D01*
X57861673Y-123371225D01*
X57868610Y-123366081D01*
X57876017Y-123361641D01*
X57883824Y-123357949D01*
X57891955Y-123355039D01*
X57900332Y-123352941D01*
X57908874Y-123351674D01*
X57917500Y-123351250D01*
X58718500Y-123351250D01*
X58727126Y-123351674D01*
G37*
G36*
X58727126Y-123851674D02*
G01*
X58735668Y-123852941D01*
X58744045Y-123855039D01*
X58752176Y-123857949D01*
X58759983Y-123861641D01*
X58767390Y-123866081D01*
X58774327Y-123871225D01*
X58780725Y-123877025D01*
X58786525Y-123883423D01*
X58791669Y-123890360D01*
X58796109Y-123897767D01*
X58799801Y-123905574D01*
X58802711Y-123913705D01*
X58804809Y-123922082D01*
X58806076Y-123930624D01*
X58806500Y-123939250D01*
X58806500Y-124115250D01*
X58806076Y-124123876D01*
X58804809Y-124132418D01*
X58802711Y-124140795D01*
X58799801Y-124148926D01*
X58796109Y-124156733D01*
X58791669Y-124164140D01*
X58786525Y-124171077D01*
X58780725Y-124177475D01*
X58774327Y-124183275D01*
X58767390Y-124188419D01*
X58759983Y-124192859D01*
X58752176Y-124196551D01*
X58744045Y-124199461D01*
X58735668Y-124201559D01*
X58727126Y-124202826D01*
X58718500Y-124203250D01*
X57917500Y-124203250D01*
X57908874Y-124202826D01*
X57900332Y-124201559D01*
X57891955Y-124199461D01*
X57883824Y-124196551D01*
X57876017Y-124192859D01*
X57868610Y-124188419D01*
X57861673Y-124183275D01*
X57855275Y-124177475D01*
X57849475Y-124171077D01*
X57844331Y-124164140D01*
X57839891Y-124156733D01*
X57836199Y-124148926D01*
X57833289Y-124140795D01*
X57831191Y-124132418D01*
X57829924Y-124123876D01*
X57829500Y-124115250D01*
X57829500Y-123939250D01*
X57829924Y-123930624D01*
X57831191Y-123922082D01*
X57833289Y-123913705D01*
X57836199Y-123905574D01*
X57839891Y-123897767D01*
X57844331Y-123890360D01*
X57849475Y-123883423D01*
X57855275Y-123877025D01*
X57861673Y-123871225D01*
X57868610Y-123866081D01*
X57876017Y-123861641D01*
X57883824Y-123857949D01*
X57891955Y-123855039D01*
X57900332Y-123852941D01*
X57908874Y-123851674D01*
X57917500Y-123851250D01*
X58718500Y-123851250D01*
X58727126Y-123851674D01*
G37*
G36*
X58727126Y-124351674D02*
G01*
X58735668Y-124352941D01*
X58744045Y-124355039D01*
X58752176Y-124357949D01*
X58759983Y-124361641D01*
X58767390Y-124366081D01*
X58774327Y-124371225D01*
X58780725Y-124377025D01*
X58786525Y-124383423D01*
X58791669Y-124390360D01*
X58796109Y-124397767D01*
X58799801Y-124405574D01*
X58802711Y-124413705D01*
X58804809Y-124422082D01*
X58806076Y-124430624D01*
X58806500Y-124439250D01*
X58806500Y-124615250D01*
X58806076Y-124623876D01*
X58804809Y-124632418D01*
X58802711Y-124640795D01*
X58799801Y-124648926D01*
X58796109Y-124656733D01*
X58791669Y-124664140D01*
X58786525Y-124671077D01*
X58780725Y-124677475D01*
X58774327Y-124683275D01*
X58767390Y-124688419D01*
X58759983Y-124692859D01*
X58752176Y-124696551D01*
X58744045Y-124699461D01*
X58735668Y-124701559D01*
X58727126Y-124702826D01*
X58718500Y-124703250D01*
X57917500Y-124703250D01*
X57908874Y-124702826D01*
X57900332Y-124701559D01*
X57891955Y-124699461D01*
X57883824Y-124696551D01*
X57876017Y-124692859D01*
X57868610Y-124688419D01*
X57861673Y-124683275D01*
X57855275Y-124677475D01*
X57849475Y-124671077D01*
X57844331Y-124664140D01*
X57839891Y-124656733D01*
X57836199Y-124648926D01*
X57833289Y-124640795D01*
X57831191Y-124632418D01*
X57829924Y-124623876D01*
X57829500Y-124615250D01*
X57829500Y-124439250D01*
X57829924Y-124430624D01*
X57831191Y-124422082D01*
X57833289Y-124413705D01*
X57836199Y-124405574D01*
X57839891Y-124397767D01*
X57844331Y-124390360D01*
X57849475Y-124383423D01*
X57855275Y-124377025D01*
X57861673Y-124371225D01*
X57868610Y-124366081D01*
X57876017Y-124361641D01*
X57883824Y-124357949D01*
X57891955Y-124355039D01*
X57900332Y-124352941D01*
X57908874Y-124351674D01*
X57917500Y-124351250D01*
X58718500Y-124351250D01*
X58727126Y-124351674D01*
G37*
G36*
X62123585Y-121177493D02*
G01*
X62148652Y-121181212D01*
X62173234Y-121187369D01*
X62197093Y-121195906D01*
X62220001Y-121206741D01*
X62241737Y-121219769D01*
X62262091Y-121234864D01*
X62280868Y-121251882D01*
X62297886Y-121270659D01*
X62312981Y-121291013D01*
X62326009Y-121312749D01*
X62336844Y-121335657D01*
X62345381Y-121359516D01*
X62351538Y-121384098D01*
X62355257Y-121409165D01*
X62356500Y-121434475D01*
X62356500Y-124120025D01*
X62355257Y-124145335D01*
X62351538Y-124170402D01*
X62345381Y-124194984D01*
X62336844Y-124218843D01*
X62326009Y-124241751D01*
X62312981Y-124263487D01*
X62297886Y-124283841D01*
X62280868Y-124302618D01*
X62262091Y-124319636D01*
X62241737Y-124334731D01*
X62220001Y-124347759D01*
X62197093Y-124358594D01*
X62173234Y-124367131D01*
X62148652Y-124373288D01*
X62123585Y-124377007D01*
X62098275Y-124378250D01*
X59412725Y-124378250D01*
X59387415Y-124377007D01*
X59362348Y-124373288D01*
X59337766Y-124367131D01*
X59313907Y-124358594D01*
X59290999Y-124347759D01*
X59269263Y-124334731D01*
X59248909Y-124319636D01*
X59230132Y-124302618D01*
X59213114Y-124283841D01*
X59198019Y-124263487D01*
X59184991Y-124241751D01*
X59174156Y-124218843D01*
X59165619Y-124194984D01*
X59159462Y-124170402D01*
X59155743Y-124145335D01*
X59154500Y-124120025D01*
X59154500Y-121434475D01*
X59155743Y-121409165D01*
X59159462Y-121384098D01*
X59165619Y-121359516D01*
X59174156Y-121335657D01*
X59184991Y-121312749D01*
X59198019Y-121291013D01*
X59213114Y-121270659D01*
X59230132Y-121251882D01*
X59248909Y-121234864D01*
X59269263Y-121219769D01*
X59290999Y-121206741D01*
X59313907Y-121195906D01*
X59337766Y-121187369D01*
X59362348Y-121181212D01*
X59387415Y-121177493D01*
X59412725Y-121176250D01*
X62098275Y-121176250D01*
X62123585Y-121177493D01*
G37*
M02*
