G04 #@! TF.GenerationSoftware,KiCad,Pcbnew,(5.1.5)-3*
G04 #@! TF.CreationDate,2020-04-16T21:49:39-04:00*
G04 #@! TF.ProjectId,binarykb,62696e61-7279-46b6-922e-6b696361645f,rev?*
G04 #@! TF.SameCoordinates,Original*
G04 #@! TF.FileFunction,Copper,L1,Top*
G04 #@! TF.FilePolarity,Positive*
%FSLAX46Y46*%
G04 Gerber Fmt 4.6, Leading zero omitted, Abs format (unit mm)*
G04 Created by KiCad (PCBNEW (5.1.5)-3) date 2020-04-16 21:49:39*
%MOMM*%
%LPD*%
G04 APERTURE LIST*
%ADD10O,1.000000X2.100000*%
%ADD11O,1.000000X1.600000*%
%ADD12C,0.800000*%
%ADD13C,0.254000*%
%ADD14C,0.203200*%
G04 APERTURE END LIST*
D10*
X70324250Y-122413500D03*
X78964250Y-122413500D03*
D11*
X70324250Y-118233500D03*
X78964250Y-118233500D03*
D12*
X59182000Y-138684000D03*
X54673000Y-125773000D03*
X49073000Y-125773000D03*
X61572260Y-126675463D03*
X58573000Y-118373000D03*
X75435542Y-126852352D03*
X54673000Y-122873000D03*
X58123000Y-128973002D03*
X64523000Y-122723000D03*
X67468750Y-127254000D03*
X78994000Y-129032000D03*
X51973000Y-119823000D03*
X64723000Y-119323000D03*
X73173000Y-126373000D03*
X68673000Y-123673000D03*
X65721579Y-122432841D03*
X65672998Y-135073000D03*
X66572994Y-121773000D03*
X66573000Y-130373000D03*
X63773000Y-124973000D03*
X47273000Y-126773000D03*
D13*
X59182000Y-138684000D02*
X59436000Y-138938000D01*
X64523000Y-122723000D02*
X64523000Y-121673000D01*
X64723000Y-121473000D02*
X64723000Y-119323000D01*
X64523000Y-121673000D02*
X64723000Y-121473000D01*
X53423000Y-118373000D02*
X51973000Y-119823000D01*
X58573000Y-118373000D02*
X53423000Y-118373000D01*
X59274721Y-128973002D02*
X58123000Y-128973002D01*
X61572260Y-126675463D02*
X59274721Y-128973002D01*
X77615190Y-129032000D02*
X78994000Y-129032000D01*
X75435542Y-126852352D02*
X77615190Y-129032000D01*
X65721579Y-135024419D02*
X65672998Y-135073000D01*
D14*
X65721579Y-121867156D02*
X65721579Y-122432841D01*
X66236225Y-121071399D02*
X65721579Y-121586045D01*
X67274595Y-126021475D02*
X67274595Y-121436231D01*
X68170351Y-126917231D02*
X67274595Y-126021475D01*
X65721579Y-121586045D02*
X65721579Y-121867156D01*
X67274595Y-121436231D02*
X66909763Y-121071399D01*
X68170351Y-132575647D02*
X68170351Y-126917231D01*
X66909763Y-121071399D02*
X66236225Y-121071399D01*
X65672998Y-135073000D02*
X68170351Y-132575647D01*
D13*
X66572994Y-130372994D02*
X66573000Y-130373000D01*
X66572994Y-121773000D02*
X66572994Y-130372994D01*
X47273000Y-128673000D02*
X47273000Y-126773000D01*
X59138685Y-130173000D02*
X48773000Y-130173000D01*
X63773000Y-125538685D02*
X59138685Y-130173000D01*
X63773000Y-124973000D02*
X63773000Y-125538685D01*
X48773000Y-130173000D02*
X47273000Y-128673000D01*
G36*
X58271102Y-117377774D02*
G01*
X58082744Y-117455795D01*
X57913226Y-117569063D01*
X57871289Y-117611000D01*
X53460423Y-117611000D01*
X53423000Y-117607314D01*
X53385577Y-117611000D01*
X53385574Y-117611000D01*
X53273622Y-117622026D01*
X53129985Y-117665598D01*
X53090306Y-117686807D01*
X52997607Y-117736355D01*
X52967775Y-117760838D01*
X52881578Y-117831578D01*
X52857716Y-117860654D01*
X51930370Y-118788000D01*
X51871061Y-118788000D01*
X51671102Y-118827774D01*
X51482744Y-118905795D01*
X51313226Y-119019063D01*
X51169063Y-119163226D01*
X51055795Y-119332744D01*
X50977774Y-119521102D01*
X50938000Y-119721061D01*
X50938000Y-119924939D01*
X50977774Y-120124898D01*
X51055795Y-120313256D01*
X51169063Y-120482774D01*
X51313226Y-120626937D01*
X51482744Y-120740205D01*
X51671102Y-120818226D01*
X51871061Y-120858000D01*
X52074939Y-120858000D01*
X52274898Y-120818226D01*
X52463256Y-120740205D01*
X52632774Y-120626937D01*
X52776937Y-120482774D01*
X52890205Y-120313256D01*
X52968226Y-120124898D01*
X53008000Y-119924939D01*
X53008000Y-119865630D01*
X53738630Y-119135000D01*
X57871289Y-119135000D01*
X57913226Y-119176937D01*
X58082744Y-119290205D01*
X58271102Y-119368226D01*
X58471061Y-119408000D01*
X58674939Y-119408000D01*
X58874898Y-119368226D01*
X59063256Y-119290205D01*
X59232774Y-119176937D01*
X59376937Y-119032774D01*
X59490205Y-118863256D01*
X59568226Y-118674898D01*
X59608000Y-118474939D01*
X59608000Y-118271061D01*
X59568226Y-118071102D01*
X59490205Y-117882744D01*
X59376937Y-117713226D01*
X59232774Y-117569063D01*
X59063256Y-117455795D01*
X58874898Y-117377774D01*
X58691278Y-117341250D01*
X69353852Y-117341250D01*
X69270574Y-117497054D01*
X69205673Y-117711002D01*
X69189250Y-117877749D01*
X69189250Y-118589252D01*
X69205673Y-118755999D01*
X69270574Y-118969947D01*
X69375967Y-119167123D01*
X69517802Y-119339949D01*
X69690628Y-119481784D01*
X69887804Y-119587176D01*
X70101752Y-119652077D01*
X70324250Y-119673991D01*
X70546749Y-119652077D01*
X70760697Y-119587176D01*
X70957873Y-119481784D01*
X71130699Y-119339949D01*
X71272534Y-119167123D01*
X71377926Y-118969946D01*
X71442827Y-118755998D01*
X71459250Y-118589251D01*
X71459250Y-117877748D01*
X71442827Y-117711001D01*
X71377926Y-117497053D01*
X71294648Y-117341250D01*
X77993852Y-117341250D01*
X77910574Y-117497054D01*
X77845673Y-117711002D01*
X77829250Y-117877749D01*
X77829250Y-118589252D01*
X77845673Y-118755999D01*
X77910574Y-118969947D01*
X78015967Y-119167123D01*
X78157802Y-119339949D01*
X78330628Y-119481784D01*
X78527804Y-119587176D01*
X78741752Y-119652077D01*
X78964250Y-119673991D01*
X79186749Y-119652077D01*
X79400697Y-119587176D01*
X79508750Y-119529421D01*
X79508750Y-120867579D01*
X79400696Y-120809824D01*
X79186748Y-120744923D01*
X78964250Y-120723009D01*
X78741751Y-120744923D01*
X78527803Y-120809824D01*
X78330627Y-120915216D01*
X78157801Y-121057051D01*
X78110888Y-121114215D01*
X77988981Y-121032759D01*
X77814272Y-120960392D01*
X77628802Y-120923500D01*
X77439698Y-120923500D01*
X77254228Y-120960392D01*
X77079519Y-121032759D01*
X76922286Y-121137819D01*
X76788569Y-121271536D01*
X76683509Y-121428769D01*
X76611142Y-121603478D01*
X76574250Y-121788948D01*
X76574250Y-121978052D01*
X76611142Y-122163522D01*
X76683509Y-122338231D01*
X76788569Y-122495464D01*
X76922286Y-122629181D01*
X77079519Y-122734241D01*
X77254228Y-122806608D01*
X77439698Y-122843500D01*
X77628802Y-122843500D01*
X77814272Y-122806608D01*
X77829250Y-122800404D01*
X77829250Y-123019252D01*
X77845673Y-123185999D01*
X77910574Y-123399947D01*
X78015967Y-123597123D01*
X78157802Y-123769949D01*
X78330628Y-123911784D01*
X78527804Y-124017176D01*
X78741752Y-124082077D01*
X78964250Y-124103991D01*
X79186749Y-124082077D01*
X79400697Y-124017176D01*
X79508750Y-123959421D01*
X79508750Y-128131162D01*
X79484256Y-128114795D01*
X79295898Y-128036774D01*
X79095939Y-127997000D01*
X78892061Y-127997000D01*
X78692102Y-128036774D01*
X78503744Y-128114795D01*
X78334226Y-128228063D01*
X78292289Y-128270000D01*
X77930821Y-128270000D01*
X76470542Y-126809722D01*
X76470542Y-126750413D01*
X76430768Y-126550454D01*
X76352747Y-126362096D01*
X76239479Y-126192578D01*
X76095316Y-126048415D01*
X75925798Y-125935147D01*
X75737440Y-125857126D01*
X75537481Y-125817352D01*
X75333603Y-125817352D01*
X75133644Y-125857126D01*
X74945286Y-125935147D01*
X74775768Y-126048415D01*
X74631605Y-126192578D01*
X74518337Y-126362096D01*
X74440316Y-126550454D01*
X74400542Y-126750413D01*
X74400542Y-126954291D01*
X74440316Y-127154250D01*
X74518337Y-127342608D01*
X74631605Y-127512126D01*
X74775768Y-127656289D01*
X74945286Y-127769557D01*
X75133644Y-127847578D01*
X75333603Y-127887352D01*
X75392912Y-127887352D01*
X77049911Y-129544352D01*
X77073768Y-129573422D01*
X77102838Y-129597279D01*
X77189797Y-129668645D01*
X77233069Y-129691774D01*
X77322175Y-129739402D01*
X77465812Y-129782974D01*
X77577764Y-129794000D01*
X77577767Y-129794000D01*
X77615190Y-129797686D01*
X77652613Y-129794000D01*
X78292289Y-129794000D01*
X78334226Y-129835937D01*
X78503744Y-129949205D01*
X78692102Y-130027226D01*
X78892061Y-130067000D01*
X79095939Y-130067000D01*
X79295898Y-130027226D01*
X79484256Y-129949205D01*
X79508751Y-129932838D01*
X79508751Y-140461460D01*
X79487981Y-140673288D01*
X79435841Y-140845986D01*
X79351149Y-141005268D01*
X79237128Y-141145071D01*
X79098135Y-141260056D01*
X78939445Y-141345860D01*
X78767115Y-141399205D01*
X78557369Y-141421250D01*
X43688530Y-141421250D01*
X43476712Y-141400481D01*
X43304014Y-141348341D01*
X43144732Y-141263649D01*
X43004929Y-141149628D01*
X42889944Y-141010635D01*
X42804140Y-140851945D01*
X42750795Y-140679615D01*
X42728750Y-140469869D01*
X42728750Y-137457721D01*
X46887000Y-137457721D01*
X46887000Y-137878279D01*
X46969047Y-138290756D01*
X47129988Y-138679302D01*
X47363637Y-139028983D01*
X47661017Y-139326363D01*
X48010698Y-139560012D01*
X48399244Y-139720953D01*
X48811721Y-139803000D01*
X49232279Y-139803000D01*
X49644756Y-139720953D01*
X50033302Y-139560012D01*
X50382983Y-139326363D01*
X50680363Y-139028983D01*
X50914012Y-138679302D01*
X50954290Y-138582061D01*
X58147000Y-138582061D01*
X58147000Y-138785939D01*
X58186774Y-138985898D01*
X58264795Y-139174256D01*
X58378063Y-139343774D01*
X58522226Y-139487937D01*
X58691744Y-139601205D01*
X58880102Y-139679226D01*
X59080061Y-139719000D01*
X59283939Y-139719000D01*
X59385790Y-139698741D01*
X59435999Y-139703686D01*
X59585378Y-139688973D01*
X59729015Y-139645401D01*
X59861392Y-139574644D01*
X59977421Y-139479421D01*
X60072644Y-139363392D01*
X60143401Y-139231015D01*
X60186973Y-139087378D01*
X60201686Y-138937999D01*
X60196741Y-138887790D01*
X60217000Y-138785939D01*
X60217000Y-138582061D01*
X60177226Y-138382102D01*
X60099205Y-138193744D01*
X59985937Y-138024226D01*
X59841774Y-137880063D01*
X59672256Y-137766795D01*
X59483898Y-137688774D01*
X59283939Y-137649000D01*
X59080061Y-137649000D01*
X58880102Y-137688774D01*
X58691744Y-137766795D01*
X58522226Y-137880063D01*
X58378063Y-138024226D01*
X58264795Y-138193744D01*
X58186774Y-138382102D01*
X58147000Y-138582061D01*
X50954290Y-138582061D01*
X51074953Y-138290756D01*
X51157000Y-137878279D01*
X51157000Y-137457721D01*
X65937000Y-137457721D01*
X65937000Y-137878279D01*
X66019047Y-138290756D01*
X66179988Y-138679302D01*
X66413637Y-139028983D01*
X66711017Y-139326363D01*
X67060698Y-139560012D01*
X67449244Y-139720953D01*
X67861721Y-139803000D01*
X68282279Y-139803000D01*
X68694756Y-139720953D01*
X69083302Y-139560012D01*
X69432983Y-139326363D01*
X69730363Y-139028983D01*
X69964012Y-138679302D01*
X70124953Y-138290756D01*
X70207000Y-137878279D01*
X70207000Y-137457721D01*
X70124953Y-137045244D01*
X69964012Y-136656698D01*
X69730363Y-136307017D01*
X69432983Y-136009637D01*
X69083302Y-135775988D01*
X68694756Y-135615047D01*
X68282279Y-135533000D01*
X67861721Y-135533000D01*
X67449244Y-135615047D01*
X67060698Y-135775988D01*
X66711017Y-136009637D01*
X66413637Y-136307017D01*
X66179988Y-136656698D01*
X66019047Y-137045244D01*
X65937000Y-137457721D01*
X51157000Y-137457721D01*
X51074953Y-137045244D01*
X50914012Y-136656698D01*
X50680363Y-136307017D01*
X50382983Y-136009637D01*
X50033302Y-135775988D01*
X49644756Y-135615047D01*
X49232279Y-135533000D01*
X48811721Y-135533000D01*
X48399244Y-135615047D01*
X48010698Y-135775988D01*
X47661017Y-136009637D01*
X47363637Y-136307017D01*
X47129988Y-136656698D01*
X46969047Y-137045244D01*
X46887000Y-137457721D01*
X42728750Y-137457721D01*
X42728750Y-132439278D01*
X44972000Y-132439278D01*
X44972000Y-132736722D01*
X45030029Y-133028451D01*
X45143856Y-133303253D01*
X45309107Y-133550569D01*
X45519431Y-133760893D01*
X45766747Y-133926144D01*
X46041549Y-134039971D01*
X46333278Y-134098000D01*
X46630722Y-134098000D01*
X46922451Y-134039971D01*
X47197253Y-133926144D01*
X47444569Y-133760893D01*
X47654893Y-133550569D01*
X47820144Y-133303253D01*
X47933971Y-133028451D01*
X47992000Y-132736722D01*
X47992000Y-132439278D01*
X47933971Y-132147549D01*
X47820144Y-131872747D01*
X47654893Y-131625431D01*
X47444569Y-131415107D01*
X47197253Y-131249856D01*
X46922451Y-131136029D01*
X46630722Y-131078000D01*
X46333278Y-131078000D01*
X46041549Y-131136029D01*
X45766747Y-131249856D01*
X45519431Y-131415107D01*
X45309107Y-131625431D01*
X45143856Y-131872747D01*
X45030029Y-132147549D01*
X44972000Y-132439278D01*
X42728750Y-132439278D01*
X42728750Y-126671061D01*
X46238000Y-126671061D01*
X46238000Y-126874939D01*
X46277774Y-127074898D01*
X46355795Y-127263256D01*
X46469063Y-127432774D01*
X46511001Y-127474712D01*
X46511000Y-128635576D01*
X46507314Y-128673000D01*
X46511000Y-128710423D01*
X46511000Y-128710425D01*
X46522026Y-128822377D01*
X46565598Y-128966014D01*
X46598535Y-129027635D01*
X46636355Y-129098392D01*
X46656042Y-129122380D01*
X46731578Y-129214422D01*
X46760654Y-129238284D01*
X48207721Y-130685352D01*
X48231578Y-130714422D01*
X48347608Y-130809645D01*
X48479985Y-130880402D01*
X48623622Y-130923974D01*
X48735574Y-130935000D01*
X48735576Y-130935000D01*
X48772999Y-130938686D01*
X48810422Y-130935000D01*
X49504748Y-130935000D01*
X49232299Y-131342749D01*
X49034127Y-131821178D01*
X48933100Y-132329076D01*
X48933100Y-132846924D01*
X49034127Y-133354822D01*
X49232299Y-133833251D01*
X49520000Y-134263826D01*
X49886174Y-134630000D01*
X50316749Y-134917701D01*
X50795178Y-135115873D01*
X51303076Y-135216900D01*
X51820924Y-135216900D01*
X52328822Y-135115873D01*
X52807251Y-134917701D01*
X53237826Y-134630000D01*
X53308237Y-134559589D01*
X53237000Y-134917721D01*
X53237000Y-135338279D01*
X53319047Y-135750756D01*
X53479988Y-136139302D01*
X53713637Y-136488983D01*
X54011017Y-136786363D01*
X54360698Y-137020012D01*
X54749244Y-137180953D01*
X55161721Y-137263000D01*
X55582279Y-137263000D01*
X55994756Y-137180953D01*
X56383302Y-137020012D01*
X56732983Y-136786363D01*
X57030363Y-136488983D01*
X57264012Y-136139302D01*
X57424953Y-135750756D01*
X57507000Y-135338279D01*
X57507000Y-134917721D01*
X57424953Y-134505244D01*
X57264012Y-134116698D01*
X57184501Y-133997701D01*
X57357253Y-133926144D01*
X57604569Y-133760893D01*
X57814893Y-133550569D01*
X57980144Y-133303253D01*
X58093971Y-133028451D01*
X58152000Y-132736722D01*
X58152000Y-132439278D01*
X58093971Y-132147549D01*
X57980144Y-131872747D01*
X57814893Y-131625431D01*
X57604569Y-131415107D01*
X57357253Y-131249856D01*
X57082451Y-131136029D01*
X56790722Y-131078000D01*
X56493278Y-131078000D01*
X56201549Y-131136029D01*
X55926747Y-131249856D01*
X55679431Y-131415107D01*
X55469107Y-131625431D01*
X55303856Y-131872747D01*
X55190029Y-132147549D01*
X55132000Y-132439278D01*
X55132000Y-132736722D01*
X55182977Y-132993000D01*
X55161721Y-132993000D01*
X54749244Y-133075047D01*
X54360698Y-133235988D01*
X54054292Y-133440721D01*
X54089873Y-133354822D01*
X54190900Y-132846924D01*
X54190900Y-132329076D01*
X54089873Y-131821178D01*
X53891701Y-131342749D01*
X53619252Y-130935000D01*
X59101262Y-130935000D01*
X59138685Y-130938686D01*
X59176108Y-130935000D01*
X59176111Y-130935000D01*
X59288063Y-130923974D01*
X59431700Y-130880402D01*
X59564077Y-130809645D01*
X59680107Y-130714422D01*
X59703969Y-130685346D01*
X64285352Y-126103964D01*
X64314422Y-126080107D01*
X64409645Y-125964077D01*
X64480402Y-125831700D01*
X64523974Y-125688063D01*
X64524228Y-125685483D01*
X64576937Y-125632774D01*
X64690205Y-125463256D01*
X64768226Y-125274898D01*
X64808000Y-125074939D01*
X64808000Y-124871061D01*
X64768226Y-124671102D01*
X64690205Y-124482744D01*
X64576937Y-124313226D01*
X64432774Y-124169063D01*
X64263256Y-124055795D01*
X64074898Y-123977774D01*
X63874939Y-123938000D01*
X63671061Y-123938000D01*
X63471102Y-123977774D01*
X63282744Y-124055795D01*
X63113226Y-124169063D01*
X62969063Y-124313226D01*
X62855795Y-124482744D01*
X62777774Y-124671102D01*
X62738000Y-124871061D01*
X62738000Y-125074939D01*
X62777774Y-125274898D01*
X62830900Y-125403154D01*
X62297281Y-125936773D01*
X62232034Y-125871526D01*
X62062516Y-125758258D01*
X61874158Y-125680237D01*
X61674199Y-125640463D01*
X61470321Y-125640463D01*
X61270362Y-125680237D01*
X61082004Y-125758258D01*
X60912486Y-125871526D01*
X60768323Y-126015689D01*
X60655055Y-126185207D01*
X60577034Y-126373565D01*
X60537260Y-126573524D01*
X60537260Y-126632832D01*
X58959091Y-128211002D01*
X58824711Y-128211002D01*
X58782774Y-128169065D01*
X58613256Y-128055797D01*
X58424898Y-127977776D01*
X58224939Y-127938002D01*
X58021061Y-127938002D01*
X57821102Y-127977776D01*
X57632744Y-128055797D01*
X57463226Y-128169065D01*
X57319063Y-128313228D01*
X57205795Y-128482746D01*
X57127774Y-128671104D01*
X57088000Y-128871063D01*
X57088000Y-129074941D01*
X57127774Y-129274900D01*
X57184149Y-129411000D01*
X49088631Y-129411000D01*
X48035000Y-128357370D01*
X48035000Y-127474711D01*
X48076937Y-127432774D01*
X48190205Y-127263256D01*
X48268226Y-127074898D01*
X48308000Y-126874939D01*
X48308000Y-126671061D01*
X48268226Y-126471102D01*
X48225090Y-126366964D01*
X48269063Y-126432774D01*
X48413226Y-126576937D01*
X48582744Y-126690205D01*
X48771102Y-126768226D01*
X48971061Y-126808000D01*
X49174939Y-126808000D01*
X49374898Y-126768226D01*
X49563256Y-126690205D01*
X49732774Y-126576937D01*
X49876937Y-126432774D01*
X49990205Y-126263256D01*
X50068226Y-126074898D01*
X50108000Y-125874939D01*
X50108000Y-125671061D01*
X53638000Y-125671061D01*
X53638000Y-125874939D01*
X53677774Y-126074898D01*
X53755795Y-126263256D01*
X53869063Y-126432774D01*
X54013226Y-126576937D01*
X54182744Y-126690205D01*
X54371102Y-126768226D01*
X54571061Y-126808000D01*
X54774939Y-126808000D01*
X54974898Y-126768226D01*
X55163256Y-126690205D01*
X55332774Y-126576937D01*
X55476937Y-126432774D01*
X55590205Y-126263256D01*
X55668226Y-126074898D01*
X55708000Y-125874939D01*
X55708000Y-125671061D01*
X55668226Y-125471102D01*
X55590205Y-125282744D01*
X55476937Y-125113226D01*
X55332774Y-124969063D01*
X55163256Y-124855795D01*
X54974898Y-124777774D01*
X54774939Y-124738000D01*
X54571061Y-124738000D01*
X54371102Y-124777774D01*
X54182744Y-124855795D01*
X54013226Y-124969063D01*
X53869063Y-125113226D01*
X53755795Y-125282744D01*
X53677774Y-125471102D01*
X53638000Y-125671061D01*
X50108000Y-125671061D01*
X50068226Y-125471102D01*
X49990205Y-125282744D01*
X49876937Y-125113226D01*
X49732774Y-124969063D01*
X49563256Y-124855795D01*
X49374898Y-124777774D01*
X49174939Y-124738000D01*
X48971061Y-124738000D01*
X48771102Y-124777774D01*
X48582744Y-124855795D01*
X48413226Y-124969063D01*
X48269063Y-125113226D01*
X48155795Y-125282744D01*
X48077774Y-125471102D01*
X48038000Y-125671061D01*
X48038000Y-125874939D01*
X48077774Y-126074898D01*
X48120910Y-126179036D01*
X48076937Y-126113226D01*
X47932774Y-125969063D01*
X47763256Y-125855795D01*
X47574898Y-125777774D01*
X47374939Y-125738000D01*
X47171061Y-125738000D01*
X46971102Y-125777774D01*
X46782744Y-125855795D01*
X46613226Y-125969063D01*
X46469063Y-126113226D01*
X46355795Y-126282744D01*
X46277774Y-126471102D01*
X46238000Y-126671061D01*
X42728750Y-126671061D01*
X42728750Y-122771061D01*
X53638000Y-122771061D01*
X53638000Y-122974939D01*
X53677774Y-123174898D01*
X53755795Y-123363256D01*
X53869063Y-123532774D01*
X54013226Y-123676937D01*
X54182744Y-123790205D01*
X54371102Y-123868226D01*
X54571061Y-123908000D01*
X54774939Y-123908000D01*
X54974898Y-123868226D01*
X55163256Y-123790205D01*
X55332774Y-123676937D01*
X55476937Y-123532774D01*
X55590205Y-123363256D01*
X55668226Y-123174898D01*
X55708000Y-122974939D01*
X55708000Y-122771061D01*
X55678164Y-122621061D01*
X63488000Y-122621061D01*
X63488000Y-122824939D01*
X63527774Y-123024898D01*
X63605795Y-123213256D01*
X63719063Y-123382774D01*
X63863226Y-123526937D01*
X64032744Y-123640205D01*
X64221102Y-123718226D01*
X64421061Y-123758000D01*
X64624939Y-123758000D01*
X64824898Y-123718226D01*
X65013256Y-123640205D01*
X65182774Y-123526937D01*
X65322074Y-123387637D01*
X65419681Y-123428067D01*
X65619640Y-123467841D01*
X65810994Y-123467841D01*
X65810995Y-129671294D01*
X65769063Y-129713226D01*
X65655795Y-129882744D01*
X65577774Y-130071102D01*
X65538000Y-130271061D01*
X65538000Y-130474939D01*
X65577774Y-130674898D01*
X65655795Y-130863256D01*
X65769063Y-131032774D01*
X65847454Y-131111165D01*
X65680722Y-131078000D01*
X65383278Y-131078000D01*
X65091549Y-131136029D01*
X64816747Y-131249856D01*
X64569431Y-131415107D01*
X64359107Y-131625431D01*
X64193856Y-131872747D01*
X64080029Y-132147549D01*
X64022000Y-132439278D01*
X64022000Y-132736722D01*
X64080029Y-133028451D01*
X64193856Y-133303253D01*
X64359107Y-133550569D01*
X64569431Y-133760893D01*
X64816747Y-133926144D01*
X65091549Y-134039971D01*
X65342063Y-134089802D01*
X65182742Y-134155795D01*
X65013224Y-134269063D01*
X64869061Y-134413226D01*
X64755793Y-134582744D01*
X64677772Y-134771102D01*
X64637998Y-134971061D01*
X64637998Y-135174939D01*
X64677772Y-135374898D01*
X64755793Y-135563256D01*
X64869061Y-135732774D01*
X65013224Y-135876937D01*
X65182742Y-135990205D01*
X65371100Y-136068226D01*
X65571059Y-136108000D01*
X65774937Y-136108000D01*
X65974896Y-136068226D01*
X66163254Y-135990205D01*
X66332772Y-135876937D01*
X66476935Y-135732774D01*
X66590203Y-135563256D01*
X66668224Y-135374898D01*
X66707998Y-135174939D01*
X66707998Y-135079709D01*
X68186276Y-133601431D01*
X68282299Y-133833251D01*
X68570000Y-134263826D01*
X68936174Y-134630000D01*
X69366749Y-134917701D01*
X69845178Y-135115873D01*
X70353076Y-135216900D01*
X70870924Y-135216900D01*
X71378822Y-135115873D01*
X71857251Y-134917701D01*
X72287826Y-134630000D01*
X72358237Y-134559589D01*
X72287000Y-134917721D01*
X72287000Y-135338279D01*
X72369047Y-135750756D01*
X72529988Y-136139302D01*
X72763637Y-136488983D01*
X73061017Y-136786363D01*
X73410698Y-137020012D01*
X73799244Y-137180953D01*
X74211721Y-137263000D01*
X74632279Y-137263000D01*
X75044756Y-137180953D01*
X75433302Y-137020012D01*
X75782983Y-136786363D01*
X76080363Y-136488983D01*
X76314012Y-136139302D01*
X76474953Y-135750756D01*
X76557000Y-135338279D01*
X76557000Y-134917721D01*
X76474953Y-134505244D01*
X76314012Y-134116698D01*
X76234501Y-133997701D01*
X76407253Y-133926144D01*
X76654569Y-133760893D01*
X76864893Y-133550569D01*
X77030144Y-133303253D01*
X77143971Y-133028451D01*
X77202000Y-132736722D01*
X77202000Y-132439278D01*
X77143971Y-132147549D01*
X77030144Y-131872747D01*
X76864893Y-131625431D01*
X76654569Y-131415107D01*
X76407253Y-131249856D01*
X76132451Y-131136029D01*
X75840722Y-131078000D01*
X75543278Y-131078000D01*
X75251549Y-131136029D01*
X74976747Y-131249856D01*
X74729431Y-131415107D01*
X74519107Y-131625431D01*
X74353856Y-131872747D01*
X74240029Y-132147549D01*
X74182000Y-132439278D01*
X74182000Y-132736722D01*
X74232977Y-132993000D01*
X74211721Y-132993000D01*
X73799244Y-133075047D01*
X73410698Y-133235988D01*
X73104292Y-133440721D01*
X73139873Y-133354822D01*
X73240900Y-132846924D01*
X73240900Y-132329076D01*
X73139873Y-131821178D01*
X72941701Y-131342749D01*
X72654000Y-130912174D01*
X72287826Y-130546000D01*
X71857251Y-130258299D01*
X71378822Y-130060127D01*
X70870924Y-129959100D01*
X70353076Y-129959100D01*
X69845178Y-130060127D01*
X69366749Y-130258299D01*
X68936174Y-130546000D01*
X68906951Y-130575223D01*
X68906951Y-126953406D01*
X68910514Y-126917230D01*
X68906951Y-126881054D01*
X68906951Y-126881045D01*
X68896293Y-126772832D01*
X68854173Y-126633982D01*
X68785775Y-126506018D01*
X68693726Y-126393856D01*
X68665620Y-126370790D01*
X68565891Y-126271061D01*
X72138000Y-126271061D01*
X72138000Y-126474939D01*
X72177774Y-126674898D01*
X72255795Y-126863256D01*
X72369063Y-127032774D01*
X72513226Y-127176937D01*
X72682744Y-127290205D01*
X72871102Y-127368226D01*
X73071061Y-127408000D01*
X73274939Y-127408000D01*
X73474898Y-127368226D01*
X73663256Y-127290205D01*
X73832774Y-127176937D01*
X73976937Y-127032774D01*
X74090205Y-126863256D01*
X74168226Y-126674898D01*
X74208000Y-126474939D01*
X74208000Y-126271061D01*
X74168226Y-126071102D01*
X74090205Y-125882744D01*
X73976937Y-125713226D01*
X73832774Y-125569063D01*
X73663256Y-125455795D01*
X73474898Y-125377774D01*
X73274939Y-125338000D01*
X73071061Y-125338000D01*
X72871102Y-125377774D01*
X72682744Y-125455795D01*
X72513226Y-125569063D01*
X72369063Y-125713226D01*
X72255795Y-125882744D01*
X72177774Y-126071102D01*
X72138000Y-126271061D01*
X68565891Y-126271061D01*
X68011195Y-125716366D01*
X68011195Y-124474906D01*
X68013226Y-124476937D01*
X68182744Y-124590205D01*
X68371102Y-124668226D01*
X68571061Y-124708000D01*
X68774939Y-124708000D01*
X68974898Y-124668226D01*
X69163256Y-124590205D01*
X69332774Y-124476937D01*
X69476937Y-124332774D01*
X69590205Y-124163256D01*
X69668226Y-123974898D01*
X69682162Y-123904836D01*
X69690628Y-123911784D01*
X69887804Y-124017176D01*
X70101752Y-124082077D01*
X70324250Y-124103991D01*
X70546749Y-124082077D01*
X70760697Y-124017176D01*
X70957873Y-123911784D01*
X71130699Y-123769949D01*
X71272534Y-123597123D01*
X71377926Y-123399947D01*
X71442827Y-123185999D01*
X71459250Y-123019252D01*
X71459250Y-122800404D01*
X71474228Y-122806608D01*
X71659698Y-122843500D01*
X71848802Y-122843500D01*
X72034272Y-122806608D01*
X72208981Y-122734241D01*
X72366214Y-122629181D01*
X72499931Y-122495464D01*
X72604991Y-122338231D01*
X72677358Y-122163522D01*
X72714250Y-121978052D01*
X72714250Y-121788948D01*
X72677358Y-121603478D01*
X72604991Y-121428769D01*
X72499931Y-121271536D01*
X72366214Y-121137819D01*
X72208981Y-121032759D01*
X72034272Y-120960392D01*
X71848802Y-120923500D01*
X71659698Y-120923500D01*
X71474228Y-120960392D01*
X71299519Y-121032759D01*
X71177612Y-121114215D01*
X71130699Y-121057051D01*
X70957873Y-120915216D01*
X70760696Y-120809824D01*
X70546748Y-120744923D01*
X70324250Y-120723009D01*
X70101751Y-120744923D01*
X69887803Y-120809824D01*
X69690627Y-120915216D01*
X69517801Y-121057051D01*
X69375966Y-121229877D01*
X69270574Y-121427054D01*
X69205673Y-121641002D01*
X69189250Y-121807749D01*
X69189250Y-122773164D01*
X69163256Y-122755795D01*
X68974898Y-122677774D01*
X68774939Y-122638000D01*
X68571061Y-122638000D01*
X68371102Y-122677774D01*
X68182744Y-122755795D01*
X68013226Y-122869063D01*
X68011195Y-122871094D01*
X68011195Y-121472406D01*
X68014758Y-121436230D01*
X68011195Y-121400054D01*
X68011195Y-121400045D01*
X68000537Y-121291832D01*
X67958417Y-121152982D01*
X67890019Y-121025018D01*
X67797970Y-120912856D01*
X67769854Y-120889781D01*
X67456209Y-120576136D01*
X67433138Y-120548024D01*
X67320976Y-120455975D01*
X67193012Y-120387577D01*
X67054162Y-120345457D01*
X66945949Y-120334799D01*
X66945946Y-120334799D01*
X66909763Y-120331235D01*
X66873580Y-120334799D01*
X66272400Y-120334799D01*
X66236224Y-120331236D01*
X66200048Y-120334799D01*
X66200039Y-120334799D01*
X66091826Y-120345457D01*
X65952976Y-120387577D01*
X65825012Y-120455975D01*
X65712850Y-120548024D01*
X65689779Y-120576136D01*
X65485000Y-120780915D01*
X65485000Y-120024711D01*
X65526937Y-119982774D01*
X65640205Y-119813256D01*
X65718226Y-119624898D01*
X65758000Y-119424939D01*
X65758000Y-119221061D01*
X65718226Y-119021102D01*
X65640205Y-118832744D01*
X65526937Y-118663226D01*
X65382774Y-118519063D01*
X65213256Y-118405795D01*
X65024898Y-118327774D01*
X64824939Y-118288000D01*
X64621061Y-118288000D01*
X64421102Y-118327774D01*
X64232744Y-118405795D01*
X64063226Y-118519063D01*
X63919063Y-118663226D01*
X63805795Y-118832744D01*
X63727774Y-119021102D01*
X63688000Y-119221061D01*
X63688000Y-119424939D01*
X63727774Y-119624898D01*
X63805795Y-119813256D01*
X63919063Y-119982774D01*
X63961001Y-120024712D01*
X63961000Y-121156653D01*
X63957722Y-121160648D01*
X63957721Y-121160649D01*
X63886355Y-121247608D01*
X63815599Y-121379985D01*
X63772027Y-121523622D01*
X63757314Y-121673000D01*
X63761001Y-121710433D01*
X63761001Y-122021288D01*
X63719063Y-122063226D01*
X63605795Y-122232744D01*
X63527774Y-122421102D01*
X63488000Y-122621061D01*
X55678164Y-122621061D01*
X55668226Y-122571102D01*
X55590205Y-122382744D01*
X55476937Y-122213226D01*
X55332774Y-122069063D01*
X55163256Y-121955795D01*
X54974898Y-121877774D01*
X54774939Y-121838000D01*
X54571061Y-121838000D01*
X54371102Y-121877774D01*
X54182744Y-121955795D01*
X54013226Y-122069063D01*
X53869063Y-122213226D01*
X53755795Y-122382744D01*
X53677774Y-122571102D01*
X53638000Y-122771061D01*
X42728750Y-122771061D01*
X42728750Y-118301029D01*
X42749519Y-118089212D01*
X42801660Y-117916513D01*
X42886352Y-117757232D01*
X43000369Y-117617431D01*
X43139367Y-117502442D01*
X43298055Y-117416640D01*
X43470385Y-117363295D01*
X43680130Y-117341250D01*
X58454722Y-117341250D01*
X58271102Y-117377774D01*
G37*
X58271102Y-117377774D02*
X58082744Y-117455795D01*
X57913226Y-117569063D01*
X57871289Y-117611000D01*
X53460423Y-117611000D01*
X53423000Y-117607314D01*
X53385577Y-117611000D01*
X53385574Y-117611000D01*
X53273622Y-117622026D01*
X53129985Y-117665598D01*
X53090306Y-117686807D01*
X52997607Y-117736355D01*
X52967775Y-117760838D01*
X52881578Y-117831578D01*
X52857716Y-117860654D01*
X51930370Y-118788000D01*
X51871061Y-118788000D01*
X51671102Y-118827774D01*
X51482744Y-118905795D01*
X51313226Y-119019063D01*
X51169063Y-119163226D01*
X51055795Y-119332744D01*
X50977774Y-119521102D01*
X50938000Y-119721061D01*
X50938000Y-119924939D01*
X50977774Y-120124898D01*
X51055795Y-120313256D01*
X51169063Y-120482774D01*
X51313226Y-120626937D01*
X51482744Y-120740205D01*
X51671102Y-120818226D01*
X51871061Y-120858000D01*
X52074939Y-120858000D01*
X52274898Y-120818226D01*
X52463256Y-120740205D01*
X52632774Y-120626937D01*
X52776937Y-120482774D01*
X52890205Y-120313256D01*
X52968226Y-120124898D01*
X53008000Y-119924939D01*
X53008000Y-119865630D01*
X53738630Y-119135000D01*
X57871289Y-119135000D01*
X57913226Y-119176937D01*
X58082744Y-119290205D01*
X58271102Y-119368226D01*
X58471061Y-119408000D01*
X58674939Y-119408000D01*
X58874898Y-119368226D01*
X59063256Y-119290205D01*
X59232774Y-119176937D01*
X59376937Y-119032774D01*
X59490205Y-118863256D01*
X59568226Y-118674898D01*
X59608000Y-118474939D01*
X59608000Y-118271061D01*
X59568226Y-118071102D01*
X59490205Y-117882744D01*
X59376937Y-117713226D01*
X59232774Y-117569063D01*
X59063256Y-117455795D01*
X58874898Y-117377774D01*
X58691278Y-117341250D01*
X69353852Y-117341250D01*
X69270574Y-117497054D01*
X69205673Y-117711002D01*
X69189250Y-117877749D01*
X69189250Y-118589252D01*
X69205673Y-118755999D01*
X69270574Y-118969947D01*
X69375967Y-119167123D01*
X69517802Y-119339949D01*
X69690628Y-119481784D01*
X69887804Y-119587176D01*
X70101752Y-119652077D01*
X70324250Y-119673991D01*
X70546749Y-119652077D01*
X70760697Y-119587176D01*
X70957873Y-119481784D01*
X71130699Y-119339949D01*
X71272534Y-119167123D01*
X71377926Y-118969946D01*
X71442827Y-118755998D01*
X71459250Y-118589251D01*
X71459250Y-117877748D01*
X71442827Y-117711001D01*
X71377926Y-117497053D01*
X71294648Y-117341250D01*
X77993852Y-117341250D01*
X77910574Y-117497054D01*
X77845673Y-117711002D01*
X77829250Y-117877749D01*
X77829250Y-118589252D01*
X77845673Y-118755999D01*
X77910574Y-118969947D01*
X78015967Y-119167123D01*
X78157802Y-119339949D01*
X78330628Y-119481784D01*
X78527804Y-119587176D01*
X78741752Y-119652077D01*
X78964250Y-119673991D01*
X79186749Y-119652077D01*
X79400697Y-119587176D01*
X79508750Y-119529421D01*
X79508750Y-120867579D01*
X79400696Y-120809824D01*
X79186748Y-120744923D01*
X78964250Y-120723009D01*
X78741751Y-120744923D01*
X78527803Y-120809824D01*
X78330627Y-120915216D01*
X78157801Y-121057051D01*
X78110888Y-121114215D01*
X77988981Y-121032759D01*
X77814272Y-120960392D01*
X77628802Y-120923500D01*
X77439698Y-120923500D01*
X77254228Y-120960392D01*
X77079519Y-121032759D01*
X76922286Y-121137819D01*
X76788569Y-121271536D01*
X76683509Y-121428769D01*
X76611142Y-121603478D01*
X76574250Y-121788948D01*
X76574250Y-121978052D01*
X76611142Y-122163522D01*
X76683509Y-122338231D01*
X76788569Y-122495464D01*
X76922286Y-122629181D01*
X77079519Y-122734241D01*
X77254228Y-122806608D01*
X77439698Y-122843500D01*
X77628802Y-122843500D01*
X77814272Y-122806608D01*
X77829250Y-122800404D01*
X77829250Y-123019252D01*
X77845673Y-123185999D01*
X77910574Y-123399947D01*
X78015967Y-123597123D01*
X78157802Y-123769949D01*
X78330628Y-123911784D01*
X78527804Y-124017176D01*
X78741752Y-124082077D01*
X78964250Y-124103991D01*
X79186749Y-124082077D01*
X79400697Y-124017176D01*
X79508750Y-123959421D01*
X79508750Y-128131162D01*
X79484256Y-128114795D01*
X79295898Y-128036774D01*
X79095939Y-127997000D01*
X78892061Y-127997000D01*
X78692102Y-128036774D01*
X78503744Y-128114795D01*
X78334226Y-128228063D01*
X78292289Y-128270000D01*
X77930821Y-128270000D01*
X76470542Y-126809722D01*
X76470542Y-126750413D01*
X76430768Y-126550454D01*
X76352747Y-126362096D01*
X76239479Y-126192578D01*
X76095316Y-126048415D01*
X75925798Y-125935147D01*
X75737440Y-125857126D01*
X75537481Y-125817352D01*
X75333603Y-125817352D01*
X75133644Y-125857126D01*
X74945286Y-125935147D01*
X74775768Y-126048415D01*
X74631605Y-126192578D01*
X74518337Y-126362096D01*
X74440316Y-126550454D01*
X74400542Y-126750413D01*
X74400542Y-126954291D01*
X74440316Y-127154250D01*
X74518337Y-127342608D01*
X74631605Y-127512126D01*
X74775768Y-127656289D01*
X74945286Y-127769557D01*
X75133644Y-127847578D01*
X75333603Y-127887352D01*
X75392912Y-127887352D01*
X77049911Y-129544352D01*
X77073768Y-129573422D01*
X77102838Y-129597279D01*
X77189797Y-129668645D01*
X77233069Y-129691774D01*
X77322175Y-129739402D01*
X77465812Y-129782974D01*
X77577764Y-129794000D01*
X77577767Y-129794000D01*
X77615190Y-129797686D01*
X77652613Y-129794000D01*
X78292289Y-129794000D01*
X78334226Y-129835937D01*
X78503744Y-129949205D01*
X78692102Y-130027226D01*
X78892061Y-130067000D01*
X79095939Y-130067000D01*
X79295898Y-130027226D01*
X79484256Y-129949205D01*
X79508751Y-129932838D01*
X79508751Y-140461460D01*
X79487981Y-140673288D01*
X79435841Y-140845986D01*
X79351149Y-141005268D01*
X79237128Y-141145071D01*
X79098135Y-141260056D01*
X78939445Y-141345860D01*
X78767115Y-141399205D01*
X78557369Y-141421250D01*
X43688530Y-141421250D01*
X43476712Y-141400481D01*
X43304014Y-141348341D01*
X43144732Y-141263649D01*
X43004929Y-141149628D01*
X42889944Y-141010635D01*
X42804140Y-140851945D01*
X42750795Y-140679615D01*
X42728750Y-140469869D01*
X42728750Y-137457721D01*
X46887000Y-137457721D01*
X46887000Y-137878279D01*
X46969047Y-138290756D01*
X47129988Y-138679302D01*
X47363637Y-139028983D01*
X47661017Y-139326363D01*
X48010698Y-139560012D01*
X48399244Y-139720953D01*
X48811721Y-139803000D01*
X49232279Y-139803000D01*
X49644756Y-139720953D01*
X50033302Y-139560012D01*
X50382983Y-139326363D01*
X50680363Y-139028983D01*
X50914012Y-138679302D01*
X50954290Y-138582061D01*
X58147000Y-138582061D01*
X58147000Y-138785939D01*
X58186774Y-138985898D01*
X58264795Y-139174256D01*
X58378063Y-139343774D01*
X58522226Y-139487937D01*
X58691744Y-139601205D01*
X58880102Y-139679226D01*
X59080061Y-139719000D01*
X59283939Y-139719000D01*
X59385790Y-139698741D01*
X59435999Y-139703686D01*
X59585378Y-139688973D01*
X59729015Y-139645401D01*
X59861392Y-139574644D01*
X59977421Y-139479421D01*
X60072644Y-139363392D01*
X60143401Y-139231015D01*
X60186973Y-139087378D01*
X60201686Y-138937999D01*
X60196741Y-138887790D01*
X60217000Y-138785939D01*
X60217000Y-138582061D01*
X60177226Y-138382102D01*
X60099205Y-138193744D01*
X59985937Y-138024226D01*
X59841774Y-137880063D01*
X59672256Y-137766795D01*
X59483898Y-137688774D01*
X59283939Y-137649000D01*
X59080061Y-137649000D01*
X58880102Y-137688774D01*
X58691744Y-137766795D01*
X58522226Y-137880063D01*
X58378063Y-138024226D01*
X58264795Y-138193744D01*
X58186774Y-138382102D01*
X58147000Y-138582061D01*
X50954290Y-138582061D01*
X51074953Y-138290756D01*
X51157000Y-137878279D01*
X51157000Y-137457721D01*
X65937000Y-137457721D01*
X65937000Y-137878279D01*
X66019047Y-138290756D01*
X66179988Y-138679302D01*
X66413637Y-139028983D01*
X66711017Y-139326363D01*
X67060698Y-139560012D01*
X67449244Y-139720953D01*
X67861721Y-139803000D01*
X68282279Y-139803000D01*
X68694756Y-139720953D01*
X69083302Y-139560012D01*
X69432983Y-139326363D01*
X69730363Y-139028983D01*
X69964012Y-138679302D01*
X70124953Y-138290756D01*
X70207000Y-137878279D01*
X70207000Y-137457721D01*
X70124953Y-137045244D01*
X69964012Y-136656698D01*
X69730363Y-136307017D01*
X69432983Y-136009637D01*
X69083302Y-135775988D01*
X68694756Y-135615047D01*
X68282279Y-135533000D01*
X67861721Y-135533000D01*
X67449244Y-135615047D01*
X67060698Y-135775988D01*
X66711017Y-136009637D01*
X66413637Y-136307017D01*
X66179988Y-136656698D01*
X66019047Y-137045244D01*
X65937000Y-137457721D01*
X51157000Y-137457721D01*
X51074953Y-137045244D01*
X50914012Y-136656698D01*
X50680363Y-136307017D01*
X50382983Y-136009637D01*
X50033302Y-135775988D01*
X49644756Y-135615047D01*
X49232279Y-135533000D01*
X48811721Y-135533000D01*
X48399244Y-135615047D01*
X48010698Y-135775988D01*
X47661017Y-136009637D01*
X47363637Y-136307017D01*
X47129988Y-136656698D01*
X46969047Y-137045244D01*
X46887000Y-137457721D01*
X42728750Y-137457721D01*
X42728750Y-132439278D01*
X44972000Y-132439278D01*
X44972000Y-132736722D01*
X45030029Y-133028451D01*
X45143856Y-133303253D01*
X45309107Y-133550569D01*
X45519431Y-133760893D01*
X45766747Y-133926144D01*
X46041549Y-134039971D01*
X46333278Y-134098000D01*
X46630722Y-134098000D01*
X46922451Y-134039971D01*
X47197253Y-133926144D01*
X47444569Y-133760893D01*
X47654893Y-133550569D01*
X47820144Y-133303253D01*
X47933971Y-133028451D01*
X47992000Y-132736722D01*
X47992000Y-132439278D01*
X47933971Y-132147549D01*
X47820144Y-131872747D01*
X47654893Y-131625431D01*
X47444569Y-131415107D01*
X47197253Y-131249856D01*
X46922451Y-131136029D01*
X46630722Y-131078000D01*
X46333278Y-131078000D01*
X46041549Y-131136029D01*
X45766747Y-131249856D01*
X45519431Y-131415107D01*
X45309107Y-131625431D01*
X45143856Y-131872747D01*
X45030029Y-132147549D01*
X44972000Y-132439278D01*
X42728750Y-132439278D01*
X42728750Y-126671061D01*
X46238000Y-126671061D01*
X46238000Y-126874939D01*
X46277774Y-127074898D01*
X46355795Y-127263256D01*
X46469063Y-127432774D01*
X46511001Y-127474712D01*
X46511000Y-128635576D01*
X46507314Y-128673000D01*
X46511000Y-128710423D01*
X46511000Y-128710425D01*
X46522026Y-128822377D01*
X46565598Y-128966014D01*
X46598535Y-129027635D01*
X46636355Y-129098392D01*
X46656042Y-129122380D01*
X46731578Y-129214422D01*
X46760654Y-129238284D01*
X48207721Y-130685352D01*
X48231578Y-130714422D01*
X48347608Y-130809645D01*
X48479985Y-130880402D01*
X48623622Y-130923974D01*
X48735574Y-130935000D01*
X48735576Y-130935000D01*
X48772999Y-130938686D01*
X48810422Y-130935000D01*
X49504748Y-130935000D01*
X49232299Y-131342749D01*
X49034127Y-131821178D01*
X48933100Y-132329076D01*
X48933100Y-132846924D01*
X49034127Y-133354822D01*
X49232299Y-133833251D01*
X49520000Y-134263826D01*
X49886174Y-134630000D01*
X50316749Y-134917701D01*
X50795178Y-135115873D01*
X51303076Y-135216900D01*
X51820924Y-135216900D01*
X52328822Y-135115873D01*
X52807251Y-134917701D01*
X53237826Y-134630000D01*
X53308237Y-134559589D01*
X53237000Y-134917721D01*
X53237000Y-135338279D01*
X53319047Y-135750756D01*
X53479988Y-136139302D01*
X53713637Y-136488983D01*
X54011017Y-136786363D01*
X54360698Y-137020012D01*
X54749244Y-137180953D01*
X55161721Y-137263000D01*
X55582279Y-137263000D01*
X55994756Y-137180953D01*
X56383302Y-137020012D01*
X56732983Y-136786363D01*
X57030363Y-136488983D01*
X57264012Y-136139302D01*
X57424953Y-135750756D01*
X57507000Y-135338279D01*
X57507000Y-134917721D01*
X57424953Y-134505244D01*
X57264012Y-134116698D01*
X57184501Y-133997701D01*
X57357253Y-133926144D01*
X57604569Y-133760893D01*
X57814893Y-133550569D01*
X57980144Y-133303253D01*
X58093971Y-133028451D01*
X58152000Y-132736722D01*
X58152000Y-132439278D01*
X58093971Y-132147549D01*
X57980144Y-131872747D01*
X57814893Y-131625431D01*
X57604569Y-131415107D01*
X57357253Y-131249856D01*
X57082451Y-131136029D01*
X56790722Y-131078000D01*
X56493278Y-131078000D01*
X56201549Y-131136029D01*
X55926747Y-131249856D01*
X55679431Y-131415107D01*
X55469107Y-131625431D01*
X55303856Y-131872747D01*
X55190029Y-132147549D01*
X55132000Y-132439278D01*
X55132000Y-132736722D01*
X55182977Y-132993000D01*
X55161721Y-132993000D01*
X54749244Y-133075047D01*
X54360698Y-133235988D01*
X54054292Y-133440721D01*
X54089873Y-133354822D01*
X54190900Y-132846924D01*
X54190900Y-132329076D01*
X54089873Y-131821178D01*
X53891701Y-131342749D01*
X53619252Y-130935000D01*
X59101262Y-130935000D01*
X59138685Y-130938686D01*
X59176108Y-130935000D01*
X59176111Y-130935000D01*
X59288063Y-130923974D01*
X59431700Y-130880402D01*
X59564077Y-130809645D01*
X59680107Y-130714422D01*
X59703969Y-130685346D01*
X64285352Y-126103964D01*
X64314422Y-126080107D01*
X64409645Y-125964077D01*
X64480402Y-125831700D01*
X64523974Y-125688063D01*
X64524228Y-125685483D01*
X64576937Y-125632774D01*
X64690205Y-125463256D01*
X64768226Y-125274898D01*
X64808000Y-125074939D01*
X64808000Y-124871061D01*
X64768226Y-124671102D01*
X64690205Y-124482744D01*
X64576937Y-124313226D01*
X64432774Y-124169063D01*
X64263256Y-124055795D01*
X64074898Y-123977774D01*
X63874939Y-123938000D01*
X63671061Y-123938000D01*
X63471102Y-123977774D01*
X63282744Y-124055795D01*
X63113226Y-124169063D01*
X62969063Y-124313226D01*
X62855795Y-124482744D01*
X62777774Y-124671102D01*
X62738000Y-124871061D01*
X62738000Y-125074939D01*
X62777774Y-125274898D01*
X62830900Y-125403154D01*
X62297281Y-125936773D01*
X62232034Y-125871526D01*
X62062516Y-125758258D01*
X61874158Y-125680237D01*
X61674199Y-125640463D01*
X61470321Y-125640463D01*
X61270362Y-125680237D01*
X61082004Y-125758258D01*
X60912486Y-125871526D01*
X60768323Y-126015689D01*
X60655055Y-126185207D01*
X60577034Y-126373565D01*
X60537260Y-126573524D01*
X60537260Y-126632832D01*
X58959091Y-128211002D01*
X58824711Y-128211002D01*
X58782774Y-128169065D01*
X58613256Y-128055797D01*
X58424898Y-127977776D01*
X58224939Y-127938002D01*
X58021061Y-127938002D01*
X57821102Y-127977776D01*
X57632744Y-128055797D01*
X57463226Y-128169065D01*
X57319063Y-128313228D01*
X57205795Y-128482746D01*
X57127774Y-128671104D01*
X57088000Y-128871063D01*
X57088000Y-129074941D01*
X57127774Y-129274900D01*
X57184149Y-129411000D01*
X49088631Y-129411000D01*
X48035000Y-128357370D01*
X48035000Y-127474711D01*
X48076937Y-127432774D01*
X48190205Y-127263256D01*
X48268226Y-127074898D01*
X48308000Y-126874939D01*
X48308000Y-126671061D01*
X48268226Y-126471102D01*
X48225090Y-126366964D01*
X48269063Y-126432774D01*
X48413226Y-126576937D01*
X48582744Y-126690205D01*
X48771102Y-126768226D01*
X48971061Y-126808000D01*
X49174939Y-126808000D01*
X49374898Y-126768226D01*
X49563256Y-126690205D01*
X49732774Y-126576937D01*
X49876937Y-126432774D01*
X49990205Y-126263256D01*
X50068226Y-126074898D01*
X50108000Y-125874939D01*
X50108000Y-125671061D01*
X53638000Y-125671061D01*
X53638000Y-125874939D01*
X53677774Y-126074898D01*
X53755795Y-126263256D01*
X53869063Y-126432774D01*
X54013226Y-126576937D01*
X54182744Y-126690205D01*
X54371102Y-126768226D01*
X54571061Y-126808000D01*
X54774939Y-126808000D01*
X54974898Y-126768226D01*
X55163256Y-126690205D01*
X55332774Y-126576937D01*
X55476937Y-126432774D01*
X55590205Y-126263256D01*
X55668226Y-126074898D01*
X55708000Y-125874939D01*
X55708000Y-125671061D01*
X55668226Y-125471102D01*
X55590205Y-125282744D01*
X55476937Y-125113226D01*
X55332774Y-124969063D01*
X55163256Y-124855795D01*
X54974898Y-124777774D01*
X54774939Y-124738000D01*
X54571061Y-124738000D01*
X54371102Y-124777774D01*
X54182744Y-124855795D01*
X54013226Y-124969063D01*
X53869063Y-125113226D01*
X53755795Y-125282744D01*
X53677774Y-125471102D01*
X53638000Y-125671061D01*
X50108000Y-125671061D01*
X50068226Y-125471102D01*
X49990205Y-125282744D01*
X49876937Y-125113226D01*
X49732774Y-124969063D01*
X49563256Y-124855795D01*
X49374898Y-124777774D01*
X49174939Y-124738000D01*
X48971061Y-124738000D01*
X48771102Y-124777774D01*
X48582744Y-124855795D01*
X48413226Y-124969063D01*
X48269063Y-125113226D01*
X48155795Y-125282744D01*
X48077774Y-125471102D01*
X48038000Y-125671061D01*
X48038000Y-125874939D01*
X48077774Y-126074898D01*
X48120910Y-126179036D01*
X48076937Y-126113226D01*
X47932774Y-125969063D01*
X47763256Y-125855795D01*
X47574898Y-125777774D01*
X47374939Y-125738000D01*
X47171061Y-125738000D01*
X46971102Y-125777774D01*
X46782744Y-125855795D01*
X46613226Y-125969063D01*
X46469063Y-126113226D01*
X46355795Y-126282744D01*
X46277774Y-126471102D01*
X46238000Y-126671061D01*
X42728750Y-126671061D01*
X42728750Y-122771061D01*
X53638000Y-122771061D01*
X53638000Y-122974939D01*
X53677774Y-123174898D01*
X53755795Y-123363256D01*
X53869063Y-123532774D01*
X54013226Y-123676937D01*
X54182744Y-123790205D01*
X54371102Y-123868226D01*
X54571061Y-123908000D01*
X54774939Y-123908000D01*
X54974898Y-123868226D01*
X55163256Y-123790205D01*
X55332774Y-123676937D01*
X55476937Y-123532774D01*
X55590205Y-123363256D01*
X55668226Y-123174898D01*
X55708000Y-122974939D01*
X55708000Y-122771061D01*
X55678164Y-122621061D01*
X63488000Y-122621061D01*
X63488000Y-122824939D01*
X63527774Y-123024898D01*
X63605795Y-123213256D01*
X63719063Y-123382774D01*
X63863226Y-123526937D01*
X64032744Y-123640205D01*
X64221102Y-123718226D01*
X64421061Y-123758000D01*
X64624939Y-123758000D01*
X64824898Y-123718226D01*
X65013256Y-123640205D01*
X65182774Y-123526937D01*
X65322074Y-123387637D01*
X65419681Y-123428067D01*
X65619640Y-123467841D01*
X65810994Y-123467841D01*
X65810995Y-129671294D01*
X65769063Y-129713226D01*
X65655795Y-129882744D01*
X65577774Y-130071102D01*
X65538000Y-130271061D01*
X65538000Y-130474939D01*
X65577774Y-130674898D01*
X65655795Y-130863256D01*
X65769063Y-131032774D01*
X65847454Y-131111165D01*
X65680722Y-131078000D01*
X65383278Y-131078000D01*
X65091549Y-131136029D01*
X64816747Y-131249856D01*
X64569431Y-131415107D01*
X64359107Y-131625431D01*
X64193856Y-131872747D01*
X64080029Y-132147549D01*
X64022000Y-132439278D01*
X64022000Y-132736722D01*
X64080029Y-133028451D01*
X64193856Y-133303253D01*
X64359107Y-133550569D01*
X64569431Y-133760893D01*
X64816747Y-133926144D01*
X65091549Y-134039971D01*
X65342063Y-134089802D01*
X65182742Y-134155795D01*
X65013224Y-134269063D01*
X64869061Y-134413226D01*
X64755793Y-134582744D01*
X64677772Y-134771102D01*
X64637998Y-134971061D01*
X64637998Y-135174939D01*
X64677772Y-135374898D01*
X64755793Y-135563256D01*
X64869061Y-135732774D01*
X65013224Y-135876937D01*
X65182742Y-135990205D01*
X65371100Y-136068226D01*
X65571059Y-136108000D01*
X65774937Y-136108000D01*
X65974896Y-136068226D01*
X66163254Y-135990205D01*
X66332772Y-135876937D01*
X66476935Y-135732774D01*
X66590203Y-135563256D01*
X66668224Y-135374898D01*
X66707998Y-135174939D01*
X66707998Y-135079709D01*
X68186276Y-133601431D01*
X68282299Y-133833251D01*
X68570000Y-134263826D01*
X68936174Y-134630000D01*
X69366749Y-134917701D01*
X69845178Y-135115873D01*
X70353076Y-135216900D01*
X70870924Y-135216900D01*
X71378822Y-135115873D01*
X71857251Y-134917701D01*
X72287826Y-134630000D01*
X72358237Y-134559589D01*
X72287000Y-134917721D01*
X72287000Y-135338279D01*
X72369047Y-135750756D01*
X72529988Y-136139302D01*
X72763637Y-136488983D01*
X73061017Y-136786363D01*
X73410698Y-137020012D01*
X73799244Y-137180953D01*
X74211721Y-137263000D01*
X74632279Y-137263000D01*
X75044756Y-137180953D01*
X75433302Y-137020012D01*
X75782983Y-136786363D01*
X76080363Y-136488983D01*
X76314012Y-136139302D01*
X76474953Y-135750756D01*
X76557000Y-135338279D01*
X76557000Y-134917721D01*
X76474953Y-134505244D01*
X76314012Y-134116698D01*
X76234501Y-133997701D01*
X76407253Y-133926144D01*
X76654569Y-133760893D01*
X76864893Y-133550569D01*
X77030144Y-133303253D01*
X77143971Y-133028451D01*
X77202000Y-132736722D01*
X77202000Y-132439278D01*
X77143971Y-132147549D01*
X77030144Y-131872747D01*
X76864893Y-131625431D01*
X76654569Y-131415107D01*
X76407253Y-131249856D01*
X76132451Y-131136029D01*
X75840722Y-131078000D01*
X75543278Y-131078000D01*
X75251549Y-131136029D01*
X74976747Y-131249856D01*
X74729431Y-131415107D01*
X74519107Y-131625431D01*
X74353856Y-131872747D01*
X74240029Y-132147549D01*
X74182000Y-132439278D01*
X74182000Y-132736722D01*
X74232977Y-132993000D01*
X74211721Y-132993000D01*
X73799244Y-133075047D01*
X73410698Y-133235988D01*
X73104292Y-133440721D01*
X73139873Y-133354822D01*
X73240900Y-132846924D01*
X73240900Y-132329076D01*
X73139873Y-131821178D01*
X72941701Y-131342749D01*
X72654000Y-130912174D01*
X72287826Y-130546000D01*
X71857251Y-130258299D01*
X71378822Y-130060127D01*
X70870924Y-129959100D01*
X70353076Y-129959100D01*
X69845178Y-130060127D01*
X69366749Y-130258299D01*
X68936174Y-130546000D01*
X68906951Y-130575223D01*
X68906951Y-126953406D01*
X68910514Y-126917230D01*
X68906951Y-126881054D01*
X68906951Y-126881045D01*
X68896293Y-126772832D01*
X68854173Y-126633982D01*
X68785775Y-126506018D01*
X68693726Y-126393856D01*
X68665620Y-126370790D01*
X68565891Y-126271061D01*
X72138000Y-126271061D01*
X72138000Y-126474939D01*
X72177774Y-126674898D01*
X72255795Y-126863256D01*
X72369063Y-127032774D01*
X72513226Y-127176937D01*
X72682744Y-127290205D01*
X72871102Y-127368226D01*
X73071061Y-127408000D01*
X73274939Y-127408000D01*
X73474898Y-127368226D01*
X73663256Y-127290205D01*
X73832774Y-127176937D01*
X73976937Y-127032774D01*
X74090205Y-126863256D01*
X74168226Y-126674898D01*
X74208000Y-126474939D01*
X74208000Y-126271061D01*
X74168226Y-126071102D01*
X74090205Y-125882744D01*
X73976937Y-125713226D01*
X73832774Y-125569063D01*
X73663256Y-125455795D01*
X73474898Y-125377774D01*
X73274939Y-125338000D01*
X73071061Y-125338000D01*
X72871102Y-125377774D01*
X72682744Y-125455795D01*
X72513226Y-125569063D01*
X72369063Y-125713226D01*
X72255795Y-125882744D01*
X72177774Y-126071102D01*
X72138000Y-126271061D01*
X68565891Y-126271061D01*
X68011195Y-125716366D01*
X68011195Y-124474906D01*
X68013226Y-124476937D01*
X68182744Y-124590205D01*
X68371102Y-124668226D01*
X68571061Y-124708000D01*
X68774939Y-124708000D01*
X68974898Y-124668226D01*
X69163256Y-124590205D01*
X69332774Y-124476937D01*
X69476937Y-124332774D01*
X69590205Y-124163256D01*
X69668226Y-123974898D01*
X69682162Y-123904836D01*
X69690628Y-123911784D01*
X69887804Y-124017176D01*
X70101752Y-124082077D01*
X70324250Y-124103991D01*
X70546749Y-124082077D01*
X70760697Y-124017176D01*
X70957873Y-123911784D01*
X71130699Y-123769949D01*
X71272534Y-123597123D01*
X71377926Y-123399947D01*
X71442827Y-123185999D01*
X71459250Y-123019252D01*
X71459250Y-122800404D01*
X71474228Y-122806608D01*
X71659698Y-122843500D01*
X71848802Y-122843500D01*
X72034272Y-122806608D01*
X72208981Y-122734241D01*
X72366214Y-122629181D01*
X72499931Y-122495464D01*
X72604991Y-122338231D01*
X72677358Y-122163522D01*
X72714250Y-121978052D01*
X72714250Y-121788948D01*
X72677358Y-121603478D01*
X72604991Y-121428769D01*
X72499931Y-121271536D01*
X72366214Y-121137819D01*
X72208981Y-121032759D01*
X72034272Y-120960392D01*
X71848802Y-120923500D01*
X71659698Y-120923500D01*
X71474228Y-120960392D01*
X71299519Y-121032759D01*
X71177612Y-121114215D01*
X71130699Y-121057051D01*
X70957873Y-120915216D01*
X70760696Y-120809824D01*
X70546748Y-120744923D01*
X70324250Y-120723009D01*
X70101751Y-120744923D01*
X69887803Y-120809824D01*
X69690627Y-120915216D01*
X69517801Y-121057051D01*
X69375966Y-121229877D01*
X69270574Y-121427054D01*
X69205673Y-121641002D01*
X69189250Y-121807749D01*
X69189250Y-122773164D01*
X69163256Y-122755795D01*
X68974898Y-122677774D01*
X68774939Y-122638000D01*
X68571061Y-122638000D01*
X68371102Y-122677774D01*
X68182744Y-122755795D01*
X68013226Y-122869063D01*
X68011195Y-122871094D01*
X68011195Y-121472406D01*
X68014758Y-121436230D01*
X68011195Y-121400054D01*
X68011195Y-121400045D01*
X68000537Y-121291832D01*
X67958417Y-121152982D01*
X67890019Y-121025018D01*
X67797970Y-120912856D01*
X67769854Y-120889781D01*
X67456209Y-120576136D01*
X67433138Y-120548024D01*
X67320976Y-120455975D01*
X67193012Y-120387577D01*
X67054162Y-120345457D01*
X66945949Y-120334799D01*
X66945946Y-120334799D01*
X66909763Y-120331235D01*
X66873580Y-120334799D01*
X66272400Y-120334799D01*
X66236224Y-120331236D01*
X66200048Y-120334799D01*
X66200039Y-120334799D01*
X66091826Y-120345457D01*
X65952976Y-120387577D01*
X65825012Y-120455975D01*
X65712850Y-120548024D01*
X65689779Y-120576136D01*
X65485000Y-120780915D01*
X65485000Y-120024711D01*
X65526937Y-119982774D01*
X65640205Y-119813256D01*
X65718226Y-119624898D01*
X65758000Y-119424939D01*
X65758000Y-119221061D01*
X65718226Y-119021102D01*
X65640205Y-118832744D01*
X65526937Y-118663226D01*
X65382774Y-118519063D01*
X65213256Y-118405795D01*
X65024898Y-118327774D01*
X64824939Y-118288000D01*
X64621061Y-118288000D01*
X64421102Y-118327774D01*
X64232744Y-118405795D01*
X64063226Y-118519063D01*
X63919063Y-118663226D01*
X63805795Y-118832744D01*
X63727774Y-119021102D01*
X63688000Y-119221061D01*
X63688000Y-119424939D01*
X63727774Y-119624898D01*
X63805795Y-119813256D01*
X63919063Y-119982774D01*
X63961001Y-120024712D01*
X63961000Y-121156653D01*
X63957722Y-121160648D01*
X63957721Y-121160649D01*
X63886355Y-121247608D01*
X63815599Y-121379985D01*
X63772027Y-121523622D01*
X63757314Y-121673000D01*
X63761001Y-121710433D01*
X63761001Y-122021288D01*
X63719063Y-122063226D01*
X63605795Y-122232744D01*
X63527774Y-122421102D01*
X63488000Y-122621061D01*
X55678164Y-122621061D01*
X55668226Y-122571102D01*
X55590205Y-122382744D01*
X55476937Y-122213226D01*
X55332774Y-122069063D01*
X55163256Y-121955795D01*
X54974898Y-121877774D01*
X54774939Y-121838000D01*
X54571061Y-121838000D01*
X54371102Y-121877774D01*
X54182744Y-121955795D01*
X54013226Y-122069063D01*
X53869063Y-122213226D01*
X53755795Y-122382744D01*
X53677774Y-122571102D01*
X53638000Y-122771061D01*
X42728750Y-122771061D01*
X42728750Y-118301029D01*
X42749519Y-118089212D01*
X42801660Y-117916513D01*
X42886352Y-117757232D01*
X43000369Y-117617431D01*
X43139367Y-117502442D01*
X43298055Y-117416640D01*
X43470385Y-117363295D01*
X43680130Y-117341250D01*
X58454722Y-117341250D01*
X58271102Y-117377774D01*
G36*
X67433751Y-132270538D02*
G01*
X67042000Y-132662289D01*
X67042000Y-132439278D01*
X66983971Y-132147549D01*
X66870144Y-131872747D01*
X66704893Y-131625431D01*
X66494569Y-131415107D01*
X66483933Y-131408000D01*
X66674939Y-131408000D01*
X66874898Y-131368226D01*
X67063256Y-131290205D01*
X67232774Y-131176937D01*
X67376937Y-131032774D01*
X67433751Y-130947745D01*
X67433751Y-132270538D01*
G37*
X67433751Y-132270538D02*
X67042000Y-132662289D01*
X67042000Y-132439278D01*
X66983971Y-132147549D01*
X66870144Y-131872747D01*
X66704893Y-131625431D01*
X66494569Y-131415107D01*
X66483933Y-131408000D01*
X66674939Y-131408000D01*
X66874898Y-131368226D01*
X67063256Y-131290205D01*
X67232774Y-131176937D01*
X67376937Y-131032774D01*
X67433751Y-130947745D01*
X67433751Y-132270538D01*
G36*
X67366811Y-128289000D02*
G01*
X67433752Y-128289000D01*
X67433751Y-129798255D01*
X67376937Y-129713226D01*
X67334994Y-129671283D01*
X67334994Y-128282671D01*
X67366811Y-128289000D01*
G37*
X67366811Y-128289000D02*
X67433752Y-128289000D01*
X67433751Y-129798255D01*
X67376937Y-129713226D01*
X67334994Y-129671283D01*
X67334994Y-128282671D01*
X67366811Y-128289000D01*
M02*
