M48
; DRILL file {KiCad (5.1.5)-3} date 4/16/2020 9:49:43 PM
; FORMAT={-:-/ absolute / inch / decimal}
; #@! TF.CreationDate,2020-04-16T21:49:43-04:00
; #@! TF.GenerationSoftware,Kicad,Pcbnew,(5.1.5)-3
; #@! TF.FileFunction,Plated,1,2,PTH
FMAT,2
INCH
T1C0.0157
T2C0.0236
%
G90
G05
T1
X1.8611Y-4.9911
X1.932Y-4.9517
X2.0462Y-4.7174
X2.1525Y-4.8375
X2.1525Y-4.9517
X2.2883Y-5.0777
X2.306Y-4.6604
X2.33Y-5.46
X2.4241Y-4.9872
X2.5107Y-4.9202
X2.5403Y-4.8316
X2.5481Y-4.6978
X2.5856Y-5.3178
X2.5875Y-4.8202
X2.621Y-4.7942
X2.621Y-5.1328
X2.6562Y-5.01
X2.7037Y-4.869
X2.8808Y-4.9753
X2.9699Y-4.9942
X3.11Y-5.08
T2
G00X2.7687Y-4.6431
M15
G01X2.7687Y-4.6667
M16
G05
G00X2.7687Y-4.7978
M15
G01X2.7687Y-4.8411
M16
G05
G00X3.1088Y-4.6431
M15
G01X3.1088Y-4.6667
M16
G05
G00X3.1088Y-4.7978
M15
G01X3.1088Y-4.8411
M16
G05
T0
M30
