G04 #@! TF.GenerationSoftware,KiCad,Pcbnew,(5.1.5)-3*
G04 #@! TF.CreationDate,2020-04-03T15:26:20-04:00*
G04 #@! TF.ProjectId,binarykb,62696e61-7279-46b6-922e-6b696361645f,rev?*
G04 #@! TF.SameCoordinates,Original*
G04 #@! TF.FileFunction,Soldermask,Bot*
G04 #@! TF.FilePolarity,Negative*
%FSLAX46Y46*%
G04 Gerber Fmt 4.6, Leading zero omitted, Abs format (unit mm)*
G04 Created by KiCad (PCBNEW (5.1.5)-3) date 2020-04-03 15:26:20*
%MOMM*%
%LPD*%
G04 APERTURE LIST*
%ADD10C,0.100000*%
G04 APERTURE END LIST*
D10*
G36*
X69993835Y-136280802D02*
G01*
X70143660Y-136310604D01*
X70425924Y-136427521D01*
X70679955Y-136597259D01*
X70895991Y-136813295D01*
X71065729Y-137067326D01*
X71182646Y-137349590D01*
X71242250Y-137649240D01*
X71242250Y-137954760D01*
X71182646Y-138254410D01*
X71065729Y-138536674D01*
X70895991Y-138790705D01*
X70679955Y-139006741D01*
X70425924Y-139176479D01*
X70143660Y-139293396D01*
X69993835Y-139323198D01*
X69844011Y-139353000D01*
X69538489Y-139353000D01*
X69388665Y-139323198D01*
X69238840Y-139293396D01*
X68956576Y-139176479D01*
X68702545Y-139006741D01*
X68486509Y-138790705D01*
X68316771Y-138536674D01*
X68199854Y-138254410D01*
X68140250Y-137954760D01*
X68140250Y-137649240D01*
X68199854Y-137349590D01*
X68316771Y-137067326D01*
X68486509Y-136813295D01*
X68702545Y-136597259D01*
X68956576Y-136427521D01*
X69238840Y-136310604D01*
X69388665Y-136280802D01*
X69538489Y-136251000D01*
X69844011Y-136251000D01*
X69993835Y-136280802D01*
G37*
G36*
X50943835Y-136280802D02*
G01*
X51093660Y-136310604D01*
X51375924Y-136427521D01*
X51629955Y-136597259D01*
X51845991Y-136813295D01*
X52015729Y-137067326D01*
X52132646Y-137349590D01*
X52192250Y-137649240D01*
X52192250Y-137954760D01*
X52132646Y-138254410D01*
X52015729Y-138536674D01*
X51845991Y-138790705D01*
X51629955Y-139006741D01*
X51375924Y-139176479D01*
X51093660Y-139293396D01*
X50943835Y-139323198D01*
X50794011Y-139353000D01*
X50488489Y-139353000D01*
X50338665Y-139323198D01*
X50188840Y-139293396D01*
X49906576Y-139176479D01*
X49652545Y-139006741D01*
X49436509Y-138790705D01*
X49266771Y-138536674D01*
X49149854Y-138254410D01*
X49090250Y-137954760D01*
X49090250Y-137649240D01*
X49149854Y-137349590D01*
X49266771Y-137067326D01*
X49436509Y-136813295D01*
X49652545Y-136597259D01*
X49906576Y-136427521D01*
X50188840Y-136310604D01*
X50338665Y-136280802D01*
X50488489Y-136251000D01*
X50794011Y-136251000D01*
X50943835Y-136280802D01*
G37*
G36*
X48665250Y-139103000D02*
G01*
X46013250Y-139103000D01*
X46013250Y-136501000D01*
X48665250Y-136501000D01*
X48665250Y-139103000D01*
G37*
G36*
X67715250Y-139103000D02*
G01*
X65063250Y-139103000D01*
X65063250Y-136501000D01*
X67715250Y-136501000D01*
X67715250Y-139103000D01*
G37*
G36*
X57293835Y-133740802D02*
G01*
X57443660Y-133770604D01*
X57725924Y-133887521D01*
X57979955Y-134057259D01*
X58195991Y-134273295D01*
X58365729Y-134527326D01*
X58482646Y-134809590D01*
X58542250Y-135109240D01*
X58542250Y-135414760D01*
X58482646Y-135714410D01*
X58365729Y-135996674D01*
X58195991Y-136250705D01*
X57979955Y-136466741D01*
X57725924Y-136636479D01*
X57443660Y-136753396D01*
X57293835Y-136783198D01*
X57144011Y-136813000D01*
X56838489Y-136813000D01*
X56688665Y-136783198D01*
X56538840Y-136753396D01*
X56256576Y-136636479D01*
X56002545Y-136466741D01*
X55786509Y-136250705D01*
X55616771Y-135996674D01*
X55499854Y-135714410D01*
X55440250Y-135414760D01*
X55440250Y-135109240D01*
X55499854Y-134809590D01*
X55616771Y-134527326D01*
X55786509Y-134273295D01*
X56002545Y-134057259D01*
X56256576Y-133887521D01*
X56538840Y-133770604D01*
X56688665Y-133740802D01*
X56838489Y-133711000D01*
X57144011Y-133711000D01*
X57293835Y-133740802D01*
G37*
G36*
X76343835Y-133740802D02*
G01*
X76493660Y-133770604D01*
X76775924Y-133887521D01*
X77029955Y-134057259D01*
X77245991Y-134273295D01*
X77415729Y-134527326D01*
X77532646Y-134809590D01*
X77592250Y-135109240D01*
X77592250Y-135414760D01*
X77532646Y-135714410D01*
X77415729Y-135996674D01*
X77245991Y-136250705D01*
X77029955Y-136466741D01*
X76775924Y-136636479D01*
X76493660Y-136753396D01*
X76343835Y-136783198D01*
X76194011Y-136813000D01*
X75888489Y-136813000D01*
X75738665Y-136783198D01*
X75588840Y-136753396D01*
X75306576Y-136636479D01*
X75052545Y-136466741D01*
X74836509Y-136250705D01*
X74666771Y-135996674D01*
X74549854Y-135714410D01*
X74490250Y-135414760D01*
X74490250Y-135109240D01*
X74549854Y-134809590D01*
X74666771Y-134527326D01*
X74836509Y-134273295D01*
X75052545Y-134057259D01*
X75306576Y-133887521D01*
X75588840Y-133770604D01*
X75738665Y-133740802D01*
X75888489Y-133711000D01*
X76194011Y-133711000D01*
X76343835Y-133740802D01*
G37*
G36*
X80642250Y-136563000D02*
G01*
X77990250Y-136563000D01*
X77990250Y-133961000D01*
X80642250Y-133961000D01*
X80642250Y-136563000D01*
G37*
G36*
X61592250Y-136563000D02*
G01*
X58940250Y-136563000D01*
X58940250Y-133961000D01*
X61592250Y-133961000D01*
X61592250Y-136563000D01*
G37*
G36*
X72827724Y-130755684D02*
G01*
X73045724Y-130845983D01*
X73199873Y-130909833D01*
X73534798Y-131133623D01*
X73819627Y-131418452D01*
X74043417Y-131753377D01*
X74075812Y-131831586D01*
X74197566Y-132125526D01*
X74276150Y-132520594D01*
X74276150Y-132923406D01*
X74197566Y-133318474D01*
X74146701Y-133441272D01*
X74043417Y-133690623D01*
X73819627Y-134025548D01*
X73534798Y-134310377D01*
X73199873Y-134534167D01*
X73045724Y-134598017D01*
X72827724Y-134688316D01*
X72432656Y-134766900D01*
X72029844Y-134766900D01*
X71634776Y-134688316D01*
X71416776Y-134598017D01*
X71262627Y-134534167D01*
X70927702Y-134310377D01*
X70642873Y-134025548D01*
X70419083Y-133690623D01*
X70315799Y-133441272D01*
X70264934Y-133318474D01*
X70186350Y-132923406D01*
X70186350Y-132520594D01*
X70264934Y-132125526D01*
X70386688Y-131831586D01*
X70419083Y-131753377D01*
X70642873Y-131418452D01*
X70927702Y-131133623D01*
X71262627Y-130909833D01*
X71416776Y-130845983D01*
X71634776Y-130755684D01*
X72029844Y-130677100D01*
X72432656Y-130677100D01*
X72827724Y-130755684D01*
G37*
G36*
X53777724Y-130755684D02*
G01*
X53995724Y-130845983D01*
X54149873Y-130909833D01*
X54484798Y-131133623D01*
X54769627Y-131418452D01*
X54993417Y-131753377D01*
X55025812Y-131831586D01*
X55147566Y-132125526D01*
X55226150Y-132520594D01*
X55226150Y-132923406D01*
X55147566Y-133318474D01*
X55096701Y-133441272D01*
X54993417Y-133690623D01*
X54769627Y-134025548D01*
X54484798Y-134310377D01*
X54149873Y-134534167D01*
X53995724Y-134598017D01*
X53777724Y-134688316D01*
X53382656Y-134766900D01*
X52979844Y-134766900D01*
X52584776Y-134688316D01*
X52366776Y-134598017D01*
X52212627Y-134534167D01*
X51877702Y-134310377D01*
X51592873Y-134025548D01*
X51369083Y-133690623D01*
X51265799Y-133441272D01*
X51214934Y-133318474D01*
X51136350Y-132923406D01*
X51136350Y-132520594D01*
X51214934Y-132125526D01*
X51336688Y-131831586D01*
X51369083Y-131753377D01*
X51592873Y-131418452D01*
X51877702Y-131133623D01*
X52212627Y-130909833D01*
X52366776Y-130845983D01*
X52584776Y-130755684D01*
X52979844Y-130677100D01*
X53382656Y-130677100D01*
X53777724Y-130755684D01*
G37*
G36*
X58531354Y-131831585D02*
G01*
X58699876Y-131901389D01*
X58851541Y-132002728D01*
X58980522Y-132131709D01*
X59081861Y-132283374D01*
X59151665Y-132451896D01*
X59187250Y-132630797D01*
X59187250Y-132813203D01*
X59151665Y-132992104D01*
X59081861Y-133160626D01*
X58980522Y-133312291D01*
X58851541Y-133441272D01*
X58699876Y-133542611D01*
X58531354Y-133612415D01*
X58352453Y-133648000D01*
X58170047Y-133648000D01*
X57991146Y-133612415D01*
X57822624Y-133542611D01*
X57670959Y-133441272D01*
X57541978Y-133312291D01*
X57440639Y-133160626D01*
X57370835Y-132992104D01*
X57335250Y-132813203D01*
X57335250Y-132630797D01*
X57370835Y-132451896D01*
X57440639Y-132283374D01*
X57541978Y-132131709D01*
X57670959Y-132002728D01*
X57822624Y-131901389D01*
X57991146Y-131831585D01*
X58170047Y-131796000D01*
X58352453Y-131796000D01*
X58531354Y-131831585D01*
G37*
G36*
X67421354Y-131831585D02*
G01*
X67589876Y-131901389D01*
X67741541Y-132002728D01*
X67870522Y-132131709D01*
X67971861Y-132283374D01*
X68041665Y-132451896D01*
X68077250Y-132630797D01*
X68077250Y-132813203D01*
X68041665Y-132992104D01*
X67971861Y-133160626D01*
X67870522Y-133312291D01*
X67741541Y-133441272D01*
X67589876Y-133542611D01*
X67421354Y-133612415D01*
X67242453Y-133648000D01*
X67060047Y-133648000D01*
X66881146Y-133612415D01*
X66712624Y-133542611D01*
X66560959Y-133441272D01*
X66431978Y-133312291D01*
X66330639Y-133160626D01*
X66260835Y-132992104D01*
X66225250Y-132813203D01*
X66225250Y-132630797D01*
X66260835Y-132451896D01*
X66330639Y-132283374D01*
X66431978Y-132131709D01*
X66560959Y-132002728D01*
X66712624Y-131901389D01*
X66881146Y-131831585D01*
X67060047Y-131796000D01*
X67242453Y-131796000D01*
X67421354Y-131831585D01*
G37*
G36*
X77581354Y-131831585D02*
G01*
X77749876Y-131901389D01*
X77901541Y-132002728D01*
X78030522Y-132131709D01*
X78131861Y-132283374D01*
X78201665Y-132451896D01*
X78237250Y-132630797D01*
X78237250Y-132813203D01*
X78201665Y-132992104D01*
X78131861Y-133160626D01*
X78030522Y-133312291D01*
X77901541Y-133441272D01*
X77749876Y-133542611D01*
X77581354Y-133612415D01*
X77402453Y-133648000D01*
X77220047Y-133648000D01*
X77041146Y-133612415D01*
X76872624Y-133542611D01*
X76720959Y-133441272D01*
X76591978Y-133312291D01*
X76490639Y-133160626D01*
X76420835Y-132992104D01*
X76385250Y-132813203D01*
X76385250Y-132630797D01*
X76420835Y-132451896D01*
X76490639Y-132283374D01*
X76591978Y-132131709D01*
X76720959Y-132002728D01*
X76872624Y-131901389D01*
X77041146Y-131831585D01*
X77220047Y-131796000D01*
X77402453Y-131796000D01*
X77581354Y-131831585D01*
G37*
G36*
X48371354Y-131831585D02*
G01*
X48539876Y-131901389D01*
X48691541Y-132002728D01*
X48820522Y-132131709D01*
X48921861Y-132283374D01*
X48991665Y-132451896D01*
X49027250Y-132630797D01*
X49027250Y-132813203D01*
X48991665Y-132992104D01*
X48921861Y-133160626D01*
X48820522Y-133312291D01*
X48691541Y-133441272D01*
X48539876Y-133542611D01*
X48371354Y-133612415D01*
X48192453Y-133648000D01*
X48010047Y-133648000D01*
X47831146Y-133612415D01*
X47662624Y-133542611D01*
X47510959Y-133441272D01*
X47381978Y-133312291D01*
X47280639Y-133160626D01*
X47210835Y-132992104D01*
X47175250Y-132813203D01*
X47175250Y-132630797D01*
X47210835Y-132451896D01*
X47280639Y-132283374D01*
X47381978Y-132131709D01*
X47510959Y-132002728D01*
X47662624Y-131901389D01*
X47831146Y-131831585D01*
X48010047Y-131796000D01*
X48192453Y-131796000D01*
X48371354Y-131831585D01*
G37*
G36*
X64309468Y-129853565D02*
G01*
X64348138Y-129865296D01*
X64383777Y-129884346D01*
X64415017Y-129909983D01*
X64440654Y-129941223D01*
X64459704Y-129976862D01*
X64471435Y-130015532D01*
X64476000Y-130061888D01*
X64476000Y-131138112D01*
X64471435Y-131184468D01*
X64459704Y-131223138D01*
X64440654Y-131258777D01*
X64415017Y-131290017D01*
X64383777Y-131315654D01*
X64348138Y-131334704D01*
X64309468Y-131346435D01*
X64263112Y-131351000D01*
X63611888Y-131351000D01*
X63565532Y-131346435D01*
X63526862Y-131334704D01*
X63491223Y-131315654D01*
X63459983Y-131290017D01*
X63434346Y-131258777D01*
X63415296Y-131223138D01*
X63403565Y-131184468D01*
X63399000Y-131138112D01*
X63399000Y-130061888D01*
X63403565Y-130015532D01*
X63415296Y-129976862D01*
X63434346Y-129941223D01*
X63459983Y-129909983D01*
X63491223Y-129884346D01*
X63526862Y-129865296D01*
X63565532Y-129853565D01*
X63611888Y-129849000D01*
X64263112Y-129849000D01*
X64309468Y-129853565D01*
G37*
G36*
X62434468Y-129853565D02*
G01*
X62473138Y-129865296D01*
X62508777Y-129884346D01*
X62540017Y-129909983D01*
X62565654Y-129941223D01*
X62584704Y-129976862D01*
X62596435Y-130015532D01*
X62601000Y-130061888D01*
X62601000Y-131138112D01*
X62596435Y-131184468D01*
X62584704Y-131223138D01*
X62565654Y-131258777D01*
X62540017Y-131290017D01*
X62508777Y-131315654D01*
X62473138Y-131334704D01*
X62434468Y-131346435D01*
X62388112Y-131351000D01*
X61736888Y-131351000D01*
X61690532Y-131346435D01*
X61651862Y-131334704D01*
X61616223Y-131315654D01*
X61584983Y-131290017D01*
X61559346Y-131258777D01*
X61540296Y-131223138D01*
X61528565Y-131184468D01*
X61524000Y-131138112D01*
X61524000Y-130061888D01*
X61528565Y-130015532D01*
X61540296Y-129976862D01*
X61559346Y-129941223D01*
X61584983Y-129909983D01*
X61616223Y-129884346D01*
X61651862Y-129865296D01*
X61690532Y-129853565D01*
X61736888Y-129849000D01*
X62388112Y-129849000D01*
X62434468Y-129853565D01*
G37*
G36*
X60147468Y-129435565D02*
G01*
X60186138Y-129447296D01*
X60221777Y-129466346D01*
X60253017Y-129491983D01*
X60278654Y-129523223D01*
X60297704Y-129558862D01*
X60309435Y-129597532D01*
X60314000Y-129643888D01*
X60314000Y-130295112D01*
X60309435Y-130341468D01*
X60297704Y-130380138D01*
X60278654Y-130415777D01*
X60253017Y-130447017D01*
X60221777Y-130472654D01*
X60186138Y-130491704D01*
X60147468Y-130503435D01*
X60101112Y-130508000D01*
X59024888Y-130508000D01*
X58978532Y-130503435D01*
X58939862Y-130491704D01*
X58904223Y-130472654D01*
X58872983Y-130447017D01*
X58847346Y-130415777D01*
X58828296Y-130380138D01*
X58816565Y-130341468D01*
X58812000Y-130295112D01*
X58812000Y-129643888D01*
X58816565Y-129597532D01*
X58828296Y-129558862D01*
X58847346Y-129523223D01*
X58872983Y-129491983D01*
X58904223Y-129466346D01*
X58939862Y-129447296D01*
X58978532Y-129435565D01*
X59024888Y-129431000D01*
X60101112Y-129431000D01*
X60147468Y-129435565D01*
G37*
G36*
X57484468Y-129435565D02*
G01*
X57523138Y-129447296D01*
X57558777Y-129466346D01*
X57590017Y-129491983D01*
X57615654Y-129523223D01*
X57634704Y-129558862D01*
X57646435Y-129597532D01*
X57651000Y-129643888D01*
X57651000Y-130295112D01*
X57646435Y-130341468D01*
X57634704Y-130380138D01*
X57615654Y-130415777D01*
X57590017Y-130447017D01*
X57558777Y-130472654D01*
X57523138Y-130491704D01*
X57484468Y-130503435D01*
X57438112Y-130508000D01*
X56361888Y-130508000D01*
X56315532Y-130503435D01*
X56276862Y-130491704D01*
X56241223Y-130472654D01*
X56209983Y-130447017D01*
X56184346Y-130415777D01*
X56165296Y-130380138D01*
X56153565Y-130341468D01*
X56149000Y-130295112D01*
X56149000Y-129643888D01*
X56153565Y-129597532D01*
X56165296Y-129558862D01*
X56184346Y-129523223D01*
X56209983Y-129491983D01*
X56241223Y-129466346D01*
X56276862Y-129447296D01*
X56315532Y-129435565D01*
X56361888Y-129431000D01*
X57438112Y-129431000D01*
X57484468Y-129435565D01*
G37*
G36*
X54051000Y-129151000D02*
G01*
X50149000Y-129151000D01*
X50149000Y-127649000D01*
X54051000Y-127649000D01*
X54051000Y-129151000D01*
G37*
G36*
X64301468Y-127650565D02*
G01*
X64340138Y-127662296D01*
X64375777Y-127681346D01*
X64407017Y-127706983D01*
X64432654Y-127738223D01*
X64451704Y-127773862D01*
X64463435Y-127812532D01*
X64468000Y-127858888D01*
X64468000Y-128935112D01*
X64463435Y-128981468D01*
X64451704Y-129020138D01*
X64432654Y-129055777D01*
X64407017Y-129087017D01*
X64375777Y-129112654D01*
X64340138Y-129131704D01*
X64301468Y-129143435D01*
X64255112Y-129148000D01*
X63603888Y-129148000D01*
X63557532Y-129143435D01*
X63518862Y-129131704D01*
X63483223Y-129112654D01*
X63451983Y-129087017D01*
X63426346Y-129055777D01*
X63407296Y-129020138D01*
X63395565Y-128981468D01*
X63391000Y-128935112D01*
X63391000Y-127858888D01*
X63395565Y-127812532D01*
X63407296Y-127773862D01*
X63426346Y-127738223D01*
X63451983Y-127706983D01*
X63483223Y-127681346D01*
X63518862Y-127662296D01*
X63557532Y-127650565D01*
X63603888Y-127646000D01*
X64255112Y-127646000D01*
X64301468Y-127650565D01*
G37*
G36*
X62426468Y-127650565D02*
G01*
X62465138Y-127662296D01*
X62500777Y-127681346D01*
X62532017Y-127706983D01*
X62557654Y-127738223D01*
X62576704Y-127773862D01*
X62588435Y-127812532D01*
X62593000Y-127858888D01*
X62593000Y-128935112D01*
X62588435Y-128981468D01*
X62576704Y-129020138D01*
X62557654Y-129055777D01*
X62532017Y-129087017D01*
X62500777Y-129112654D01*
X62465138Y-129131704D01*
X62426468Y-129143435D01*
X62380112Y-129148000D01*
X61728888Y-129148000D01*
X61682532Y-129143435D01*
X61643862Y-129131704D01*
X61608223Y-129112654D01*
X61576983Y-129087017D01*
X61551346Y-129055777D01*
X61532296Y-129020138D01*
X61520565Y-128981468D01*
X61516000Y-128935112D01*
X61516000Y-127858888D01*
X61520565Y-127812532D01*
X61532296Y-127773862D01*
X61551346Y-127738223D01*
X61576983Y-127706983D01*
X61608223Y-127681346D01*
X61643862Y-127662296D01*
X61682532Y-127650565D01*
X61728888Y-127646000D01*
X62380112Y-127646000D01*
X62426468Y-127650565D01*
G37*
G36*
X60147468Y-127560565D02*
G01*
X60186138Y-127572296D01*
X60221777Y-127591346D01*
X60253017Y-127616983D01*
X60278654Y-127648223D01*
X60297704Y-127683862D01*
X60309435Y-127722532D01*
X60314000Y-127768888D01*
X60314000Y-128420112D01*
X60309435Y-128466468D01*
X60297704Y-128505138D01*
X60278654Y-128540777D01*
X60253017Y-128572017D01*
X60221777Y-128597654D01*
X60186138Y-128616704D01*
X60147468Y-128628435D01*
X60101112Y-128633000D01*
X59024888Y-128633000D01*
X58978532Y-128628435D01*
X58939862Y-128616704D01*
X58904223Y-128597654D01*
X58872983Y-128572017D01*
X58847346Y-128540777D01*
X58828296Y-128505138D01*
X58816565Y-128466468D01*
X58812000Y-128420112D01*
X58812000Y-127768888D01*
X58816565Y-127722532D01*
X58828296Y-127683862D01*
X58847346Y-127648223D01*
X58872983Y-127616983D01*
X58904223Y-127591346D01*
X58939862Y-127572296D01*
X58978532Y-127560565D01*
X59024888Y-127556000D01*
X60101112Y-127556000D01*
X60147468Y-127560565D01*
G37*
G36*
X57484468Y-127560565D02*
G01*
X57523138Y-127572296D01*
X57558777Y-127591346D01*
X57590017Y-127616983D01*
X57615654Y-127648223D01*
X57634704Y-127683862D01*
X57646435Y-127722532D01*
X57651000Y-127768888D01*
X57651000Y-128420112D01*
X57646435Y-128466468D01*
X57634704Y-128505138D01*
X57615654Y-128540777D01*
X57590017Y-128572017D01*
X57558777Y-128597654D01*
X57523138Y-128616704D01*
X57484468Y-128628435D01*
X57438112Y-128633000D01*
X56361888Y-128633000D01*
X56315532Y-128628435D01*
X56276862Y-128616704D01*
X56241223Y-128597654D01*
X56209983Y-128572017D01*
X56184346Y-128540777D01*
X56165296Y-128505138D01*
X56153565Y-128466468D01*
X56149000Y-128420112D01*
X56149000Y-127768888D01*
X56153565Y-127722532D01*
X56165296Y-127683862D01*
X56184346Y-127648223D01*
X56209983Y-127616983D01*
X56241223Y-127591346D01*
X56276862Y-127572296D01*
X56315532Y-127560565D01*
X56361888Y-127556000D01*
X57438112Y-127556000D01*
X57484468Y-127560565D01*
G37*
G36*
X71784468Y-127503565D02*
G01*
X71823138Y-127515296D01*
X71858777Y-127534346D01*
X71890017Y-127559983D01*
X71915654Y-127591223D01*
X71934704Y-127626862D01*
X71946435Y-127665532D01*
X71951000Y-127711888D01*
X71951000Y-128363112D01*
X71946435Y-128409468D01*
X71934704Y-128448138D01*
X71915654Y-128483777D01*
X71890017Y-128515017D01*
X71858777Y-128540654D01*
X71823138Y-128559704D01*
X71784468Y-128571435D01*
X71738112Y-128576000D01*
X70661888Y-128576000D01*
X70615532Y-128571435D01*
X70576862Y-128559704D01*
X70541223Y-128540654D01*
X70509983Y-128515017D01*
X70484346Y-128483777D01*
X70465296Y-128448138D01*
X70453565Y-128409468D01*
X70449000Y-128363112D01*
X70449000Y-127711888D01*
X70453565Y-127665532D01*
X70465296Y-127626862D01*
X70484346Y-127591223D01*
X70509983Y-127559983D01*
X70541223Y-127534346D01*
X70576862Y-127515296D01*
X70615532Y-127503565D01*
X70661888Y-127499000D01*
X71738112Y-127499000D01*
X71784468Y-127503565D01*
G37*
G36*
X81684468Y-127503565D02*
G01*
X81723138Y-127515296D01*
X81758777Y-127534346D01*
X81790017Y-127559983D01*
X81815654Y-127591223D01*
X81834704Y-127626862D01*
X81846435Y-127665532D01*
X81851000Y-127711888D01*
X81851000Y-128363112D01*
X81846435Y-128409468D01*
X81834704Y-128448138D01*
X81815654Y-128483777D01*
X81790017Y-128515017D01*
X81758777Y-128540654D01*
X81723138Y-128559704D01*
X81684468Y-128571435D01*
X81638112Y-128576000D01*
X80561888Y-128576000D01*
X80515532Y-128571435D01*
X80476862Y-128559704D01*
X80441223Y-128540654D01*
X80409983Y-128515017D01*
X80384346Y-128483777D01*
X80365296Y-128448138D01*
X80353565Y-128409468D01*
X80349000Y-128363112D01*
X80349000Y-127711888D01*
X80353565Y-127665532D01*
X80365296Y-127626862D01*
X80384346Y-127591223D01*
X80409983Y-127559983D01*
X80441223Y-127534346D01*
X80476862Y-127515296D01*
X80515532Y-127503565D01*
X80561888Y-127499000D01*
X81638112Y-127499000D01*
X81684468Y-127503565D01*
G37*
G36*
X74839000Y-127920000D02*
G01*
X74037000Y-127920000D01*
X74037000Y-127218000D01*
X74839000Y-127218000D01*
X74839000Y-127920000D01*
G37*
G36*
X76839000Y-127920000D02*
G01*
X76037000Y-127920000D01*
X76037000Y-127218000D01*
X76839000Y-127218000D01*
X76839000Y-127920000D01*
G37*
G36*
X81684468Y-125628565D02*
G01*
X81723138Y-125640296D01*
X81758777Y-125659346D01*
X81790017Y-125684983D01*
X81815654Y-125716223D01*
X81834704Y-125751862D01*
X81846435Y-125790532D01*
X81851000Y-125836888D01*
X81851000Y-126488112D01*
X81846435Y-126534468D01*
X81834704Y-126573138D01*
X81815654Y-126608777D01*
X81790017Y-126640017D01*
X81758777Y-126665654D01*
X81723138Y-126684704D01*
X81684468Y-126696435D01*
X81638112Y-126701000D01*
X80561888Y-126701000D01*
X80515532Y-126696435D01*
X80476862Y-126684704D01*
X80441223Y-126665654D01*
X80409983Y-126640017D01*
X80384346Y-126608777D01*
X80365296Y-126573138D01*
X80353565Y-126534468D01*
X80349000Y-126488112D01*
X80349000Y-125836888D01*
X80353565Y-125790532D01*
X80365296Y-125751862D01*
X80384346Y-125716223D01*
X80409983Y-125684983D01*
X80441223Y-125659346D01*
X80476862Y-125640296D01*
X80515532Y-125628565D01*
X80561888Y-125624000D01*
X81638112Y-125624000D01*
X81684468Y-125628565D01*
G37*
G36*
X71784468Y-125628565D02*
G01*
X71823138Y-125640296D01*
X71858777Y-125659346D01*
X71890017Y-125684983D01*
X71915654Y-125716223D01*
X71934704Y-125751862D01*
X71946435Y-125790532D01*
X71951000Y-125836888D01*
X71951000Y-126488112D01*
X71946435Y-126534468D01*
X71934704Y-126573138D01*
X71915654Y-126608777D01*
X71890017Y-126640017D01*
X71858777Y-126665654D01*
X71823138Y-126684704D01*
X71784468Y-126696435D01*
X71738112Y-126701000D01*
X70661888Y-126701000D01*
X70615532Y-126696435D01*
X70576862Y-126684704D01*
X70541223Y-126665654D01*
X70509983Y-126640017D01*
X70484346Y-126608777D01*
X70465296Y-126573138D01*
X70453565Y-126534468D01*
X70449000Y-126488112D01*
X70449000Y-125836888D01*
X70453565Y-125790532D01*
X70465296Y-125751862D01*
X70484346Y-125716223D01*
X70509983Y-125684983D01*
X70541223Y-125659346D01*
X70576862Y-125640296D01*
X70615532Y-125628565D01*
X70661888Y-125624000D01*
X71738112Y-125624000D01*
X71784468Y-125628565D01*
G37*
G36*
X54051000Y-126651000D02*
G01*
X50149000Y-126651000D01*
X50149000Y-125149000D01*
X54051000Y-125149000D01*
X54051000Y-126651000D01*
G37*
G36*
X76839000Y-126420000D02*
G01*
X76037000Y-126420000D01*
X76037000Y-125318000D01*
X76839000Y-125318000D01*
X76839000Y-126420000D01*
G37*
G36*
X66116468Y-125117565D02*
G01*
X66155138Y-125129296D01*
X66190777Y-125148346D01*
X66222017Y-125173983D01*
X66247654Y-125205223D01*
X66266704Y-125240862D01*
X66278435Y-125279532D01*
X66283000Y-125325888D01*
X66283000Y-125977112D01*
X66278435Y-126023468D01*
X66266704Y-126062138D01*
X66247654Y-126097777D01*
X66222017Y-126129017D01*
X66190777Y-126154654D01*
X66155138Y-126173704D01*
X66116468Y-126185435D01*
X66070112Y-126190000D01*
X64993888Y-126190000D01*
X64947532Y-126185435D01*
X64908862Y-126173704D01*
X64873223Y-126154654D01*
X64841983Y-126129017D01*
X64816346Y-126097777D01*
X64797296Y-126062138D01*
X64785565Y-126023468D01*
X64781000Y-125977112D01*
X64781000Y-125325888D01*
X64785565Y-125279532D01*
X64797296Y-125240862D01*
X64816346Y-125205223D01*
X64841983Y-125173983D01*
X64873223Y-125148346D01*
X64908862Y-125129296D01*
X64947532Y-125117565D01*
X64993888Y-125113000D01*
X66070112Y-125113000D01*
X66116468Y-125117565D01*
G37*
G36*
X44251000Y-126051000D02*
G01*
X43049000Y-126051000D01*
X43049000Y-124149000D01*
X44251000Y-124149000D01*
X44251000Y-126051000D01*
G37*
G36*
X47951000Y-126051000D02*
G01*
X46749000Y-126051000D01*
X46749000Y-124149000D01*
X47951000Y-124149000D01*
X47951000Y-126051000D01*
G37*
G36*
X74839000Y-126020000D02*
G01*
X74037000Y-126020000D01*
X74037000Y-125318000D01*
X74839000Y-125318000D01*
X74839000Y-126020000D01*
G37*
G36*
X59287855Y-119979333D02*
G01*
X59292529Y-119980751D01*
X59296830Y-119983050D01*
X59303202Y-119988279D01*
X59323576Y-120001893D01*
X59346215Y-120011270D01*
X59370249Y-120016050D01*
X59394753Y-120016050D01*
X59418786Y-120011269D01*
X59441425Y-120001892D01*
X59461798Y-119988279D01*
X59468170Y-119983050D01*
X59472471Y-119980751D01*
X59477145Y-119979333D01*
X59488141Y-119978250D01*
X59776859Y-119978250D01*
X59787855Y-119979333D01*
X59792529Y-119980751D01*
X59796830Y-119983050D01*
X59803202Y-119988279D01*
X59823576Y-120001893D01*
X59846215Y-120011270D01*
X59870249Y-120016050D01*
X59894753Y-120016050D01*
X59918786Y-120011269D01*
X59941425Y-120001892D01*
X59961798Y-119988279D01*
X59968170Y-119983050D01*
X59972471Y-119980751D01*
X59977145Y-119979333D01*
X59988141Y-119978250D01*
X60276859Y-119978250D01*
X60287855Y-119979333D01*
X60292529Y-119980751D01*
X60296830Y-119983050D01*
X60303202Y-119988279D01*
X60323576Y-120001893D01*
X60346215Y-120011270D01*
X60370249Y-120016050D01*
X60394753Y-120016050D01*
X60418786Y-120011269D01*
X60441425Y-120001892D01*
X60461798Y-119988279D01*
X60468170Y-119983050D01*
X60472471Y-119980751D01*
X60477145Y-119979333D01*
X60488141Y-119978250D01*
X60776859Y-119978250D01*
X60787855Y-119979333D01*
X60792529Y-119980751D01*
X60796830Y-119983050D01*
X60803202Y-119988279D01*
X60823576Y-120001893D01*
X60846215Y-120011270D01*
X60870249Y-120016050D01*
X60894753Y-120016050D01*
X60918786Y-120011269D01*
X60941425Y-120001892D01*
X60961798Y-119988279D01*
X60968170Y-119983050D01*
X60972471Y-119980751D01*
X60977145Y-119979333D01*
X60988141Y-119978250D01*
X61276859Y-119978250D01*
X61287855Y-119979333D01*
X61292529Y-119980751D01*
X61296830Y-119983050D01*
X61303202Y-119988279D01*
X61323576Y-120001893D01*
X61346215Y-120011270D01*
X61370249Y-120016050D01*
X61394753Y-120016050D01*
X61418786Y-120011269D01*
X61441425Y-120001892D01*
X61461798Y-119988279D01*
X61468170Y-119983050D01*
X61472471Y-119980751D01*
X61477145Y-119979333D01*
X61488141Y-119978250D01*
X61776859Y-119978250D01*
X61787855Y-119979333D01*
X61792529Y-119980751D01*
X61796830Y-119983050D01*
X61803202Y-119988279D01*
X61823576Y-120001893D01*
X61846215Y-120011270D01*
X61870249Y-120016050D01*
X61894753Y-120016050D01*
X61918786Y-120011269D01*
X61941425Y-120001892D01*
X61961798Y-119988279D01*
X61968170Y-119983050D01*
X61972471Y-119980751D01*
X61977145Y-119979333D01*
X61988141Y-119978250D01*
X62276859Y-119978250D01*
X62287855Y-119979333D01*
X62292529Y-119980751D01*
X62296830Y-119983050D01*
X62303202Y-119988279D01*
X62323576Y-120001893D01*
X62346215Y-120011270D01*
X62370249Y-120016050D01*
X62394753Y-120016050D01*
X62418786Y-120011269D01*
X62441425Y-120001892D01*
X62461798Y-119988279D01*
X62468170Y-119983050D01*
X62472471Y-119980751D01*
X62477145Y-119979333D01*
X62488141Y-119978250D01*
X62776859Y-119978250D01*
X62787855Y-119979333D01*
X62792529Y-119980751D01*
X62796831Y-119983050D01*
X62800604Y-119986146D01*
X62803700Y-119989919D01*
X62805999Y-119994221D01*
X62807417Y-119998895D01*
X62808500Y-120009891D01*
X62808500Y-120853251D01*
X62810902Y-120877637D01*
X62818015Y-120901086D01*
X62829566Y-120922697D01*
X62845111Y-120941639D01*
X62864053Y-120957184D01*
X62885664Y-120968735D01*
X62909113Y-120975848D01*
X62933499Y-120978250D01*
X63776859Y-120978250D01*
X63787855Y-120979333D01*
X63792529Y-120980751D01*
X63796831Y-120983050D01*
X63800604Y-120986146D01*
X63803700Y-120989919D01*
X63805999Y-120994221D01*
X63807417Y-120998895D01*
X63808500Y-121009891D01*
X63808500Y-121298609D01*
X63807417Y-121309605D01*
X63805999Y-121314279D01*
X63803700Y-121318580D01*
X63798471Y-121324952D01*
X63784857Y-121345326D01*
X63775480Y-121367965D01*
X63770700Y-121391999D01*
X63770700Y-121416503D01*
X63775481Y-121440536D01*
X63784858Y-121463175D01*
X63798471Y-121483548D01*
X63803700Y-121489920D01*
X63805999Y-121494221D01*
X63807417Y-121498895D01*
X63808500Y-121509891D01*
X63808500Y-121798609D01*
X63807417Y-121809605D01*
X63805999Y-121814279D01*
X63803700Y-121818580D01*
X63798471Y-121824952D01*
X63784857Y-121845326D01*
X63775480Y-121867965D01*
X63770700Y-121891999D01*
X63770700Y-121916503D01*
X63775481Y-121940536D01*
X63784858Y-121963175D01*
X63798471Y-121983548D01*
X63803700Y-121989920D01*
X63805999Y-121994221D01*
X63807417Y-121998895D01*
X63808500Y-122009891D01*
X63808500Y-122298609D01*
X63807417Y-122309605D01*
X63805999Y-122314279D01*
X63803700Y-122318580D01*
X63798471Y-122324952D01*
X63784857Y-122345326D01*
X63775480Y-122367965D01*
X63770700Y-122391999D01*
X63770700Y-122416503D01*
X63775481Y-122440536D01*
X63784858Y-122463175D01*
X63798471Y-122483548D01*
X63803700Y-122489920D01*
X63805999Y-122494221D01*
X63807417Y-122498895D01*
X63808500Y-122509891D01*
X63808500Y-122798609D01*
X63807417Y-122809605D01*
X63805999Y-122814279D01*
X63803700Y-122818580D01*
X63798471Y-122824952D01*
X63784857Y-122845326D01*
X63775480Y-122867965D01*
X63770700Y-122891999D01*
X63770700Y-122916503D01*
X63775481Y-122940536D01*
X63784858Y-122963175D01*
X63798471Y-122983548D01*
X63803700Y-122989920D01*
X63805999Y-122994221D01*
X63807417Y-122998895D01*
X63808500Y-123009891D01*
X63808500Y-123298609D01*
X63807417Y-123309605D01*
X63805999Y-123314279D01*
X63803700Y-123318580D01*
X63798471Y-123324952D01*
X63784857Y-123345326D01*
X63775480Y-123367965D01*
X63770700Y-123391999D01*
X63770700Y-123416503D01*
X63775481Y-123440536D01*
X63784858Y-123463175D01*
X63798471Y-123483548D01*
X63803700Y-123489920D01*
X63805999Y-123494221D01*
X63807417Y-123498895D01*
X63808500Y-123509891D01*
X63808500Y-123798609D01*
X63807417Y-123809605D01*
X63805999Y-123814279D01*
X63803700Y-123818580D01*
X63798471Y-123824952D01*
X63784857Y-123845326D01*
X63775480Y-123867965D01*
X63770700Y-123891999D01*
X63770700Y-123916503D01*
X63775481Y-123940536D01*
X63784858Y-123963175D01*
X63798471Y-123983548D01*
X63803700Y-123989920D01*
X63805999Y-123994221D01*
X63807417Y-123998895D01*
X63808500Y-124009891D01*
X63808500Y-124298609D01*
X63807417Y-124309605D01*
X63805999Y-124314279D01*
X63803700Y-124318580D01*
X63798471Y-124324952D01*
X63784857Y-124345326D01*
X63775480Y-124367965D01*
X63770700Y-124391999D01*
X63770700Y-124416503D01*
X63775481Y-124440536D01*
X63784858Y-124463175D01*
X63798471Y-124483548D01*
X63803700Y-124489920D01*
X63805999Y-124494221D01*
X63807417Y-124498895D01*
X63808500Y-124509891D01*
X63808500Y-124798609D01*
X63807417Y-124809605D01*
X63805999Y-124814279D01*
X63803700Y-124818581D01*
X63800604Y-124822354D01*
X63796831Y-124825450D01*
X63792529Y-124827749D01*
X63787855Y-124829167D01*
X63776859Y-124830250D01*
X62933499Y-124830250D01*
X62909113Y-124832652D01*
X62885664Y-124839765D01*
X62864053Y-124851316D01*
X62845111Y-124866861D01*
X62829566Y-124885803D01*
X62818015Y-124907414D01*
X62810902Y-124930863D01*
X62808500Y-124955249D01*
X62808500Y-125798609D01*
X62807417Y-125809605D01*
X62805999Y-125814279D01*
X62803700Y-125818581D01*
X62800604Y-125822354D01*
X62796831Y-125825450D01*
X62792529Y-125827749D01*
X62787855Y-125829167D01*
X62776859Y-125830250D01*
X62488141Y-125830250D01*
X62477145Y-125829167D01*
X62472471Y-125827749D01*
X62468170Y-125825450D01*
X62461798Y-125820221D01*
X62441424Y-125806607D01*
X62418785Y-125797230D01*
X62394751Y-125792450D01*
X62370247Y-125792450D01*
X62346214Y-125797231D01*
X62323575Y-125806608D01*
X62303202Y-125820221D01*
X62296830Y-125825450D01*
X62292529Y-125827749D01*
X62287855Y-125829167D01*
X62276859Y-125830250D01*
X61988141Y-125830250D01*
X61977145Y-125829167D01*
X61972471Y-125827749D01*
X61968170Y-125825450D01*
X61961798Y-125820221D01*
X61941424Y-125806607D01*
X61918785Y-125797230D01*
X61894751Y-125792450D01*
X61870247Y-125792450D01*
X61846214Y-125797231D01*
X61823575Y-125806608D01*
X61803202Y-125820221D01*
X61796830Y-125825450D01*
X61792529Y-125827749D01*
X61787855Y-125829167D01*
X61776859Y-125830250D01*
X61488141Y-125830250D01*
X61477145Y-125829167D01*
X61472471Y-125827749D01*
X61468170Y-125825450D01*
X61461798Y-125820221D01*
X61441424Y-125806607D01*
X61418785Y-125797230D01*
X61394751Y-125792450D01*
X61370247Y-125792450D01*
X61346214Y-125797231D01*
X61323575Y-125806608D01*
X61303202Y-125820221D01*
X61296830Y-125825450D01*
X61292529Y-125827749D01*
X61287855Y-125829167D01*
X61276859Y-125830250D01*
X60988141Y-125830250D01*
X60977145Y-125829167D01*
X60972471Y-125827749D01*
X60968170Y-125825450D01*
X60961798Y-125820221D01*
X60941424Y-125806607D01*
X60918785Y-125797230D01*
X60894751Y-125792450D01*
X60870247Y-125792450D01*
X60846214Y-125797231D01*
X60823575Y-125806608D01*
X60803202Y-125820221D01*
X60796830Y-125825450D01*
X60792529Y-125827749D01*
X60787855Y-125829167D01*
X60776859Y-125830250D01*
X60488141Y-125830250D01*
X60477145Y-125829167D01*
X60472471Y-125827749D01*
X60468170Y-125825450D01*
X60461798Y-125820221D01*
X60441424Y-125806607D01*
X60418785Y-125797230D01*
X60394751Y-125792450D01*
X60370247Y-125792450D01*
X60346214Y-125797231D01*
X60323575Y-125806608D01*
X60303202Y-125820221D01*
X60296830Y-125825450D01*
X60292529Y-125827749D01*
X60287855Y-125829167D01*
X60276859Y-125830250D01*
X59988141Y-125830250D01*
X59977145Y-125829167D01*
X59972471Y-125827749D01*
X59968170Y-125825450D01*
X59961798Y-125820221D01*
X59941424Y-125806607D01*
X59918785Y-125797230D01*
X59894751Y-125792450D01*
X59870247Y-125792450D01*
X59846214Y-125797231D01*
X59823575Y-125806608D01*
X59803202Y-125820221D01*
X59796830Y-125825450D01*
X59792529Y-125827749D01*
X59787855Y-125829167D01*
X59776859Y-125830250D01*
X59488141Y-125830250D01*
X59477145Y-125829167D01*
X59472471Y-125827749D01*
X59468170Y-125825450D01*
X59461798Y-125820221D01*
X59441424Y-125806607D01*
X59418785Y-125797230D01*
X59394751Y-125792450D01*
X59370247Y-125792450D01*
X59346214Y-125797231D01*
X59323575Y-125806608D01*
X59303202Y-125820221D01*
X59296830Y-125825450D01*
X59292529Y-125827749D01*
X59287855Y-125829167D01*
X59276859Y-125830250D01*
X58988141Y-125830250D01*
X58977145Y-125829167D01*
X58972471Y-125827749D01*
X58968169Y-125825450D01*
X58964396Y-125822354D01*
X58961300Y-125818581D01*
X58959001Y-125814279D01*
X58957583Y-125809605D01*
X58956500Y-125798609D01*
X58956500Y-124955249D01*
X58954098Y-124930863D01*
X58946985Y-124907414D01*
X58935434Y-124885803D01*
X58919889Y-124866861D01*
X58900947Y-124851316D01*
X58879336Y-124839765D01*
X58855887Y-124832652D01*
X58831501Y-124830250D01*
X57988141Y-124830250D01*
X57977145Y-124829167D01*
X57972471Y-124827749D01*
X57968169Y-124825450D01*
X57964396Y-124822354D01*
X57961300Y-124818581D01*
X57959001Y-124814279D01*
X57957583Y-124809605D01*
X57956500Y-124798609D01*
X57956500Y-124509891D01*
X57957583Y-124498895D01*
X57959001Y-124494221D01*
X57961300Y-124489920D01*
X57966529Y-124483548D01*
X57980143Y-124463174D01*
X57989520Y-124440535D01*
X57994300Y-124416501D01*
X57994300Y-124391997D01*
X57989519Y-124367964D01*
X57980142Y-124345325D01*
X57966529Y-124324952D01*
X57961300Y-124318580D01*
X57959001Y-124314279D01*
X57957583Y-124309605D01*
X57956500Y-124298609D01*
X57956500Y-124009891D01*
X57957583Y-123998895D01*
X57959001Y-123994221D01*
X57961300Y-123989920D01*
X57966529Y-123983548D01*
X57980143Y-123963174D01*
X57989520Y-123940535D01*
X57994300Y-123916501D01*
X57994300Y-123891997D01*
X57989519Y-123867964D01*
X57980142Y-123845325D01*
X57966529Y-123824952D01*
X57961300Y-123818580D01*
X57959001Y-123814279D01*
X57957583Y-123809605D01*
X57956500Y-123798609D01*
X57956500Y-123509891D01*
X57957583Y-123498895D01*
X57959001Y-123494221D01*
X57961300Y-123489920D01*
X57966529Y-123483548D01*
X57980143Y-123463174D01*
X57989520Y-123440535D01*
X57994300Y-123416501D01*
X57994300Y-123391997D01*
X57989519Y-123367964D01*
X57980142Y-123345325D01*
X57966529Y-123324952D01*
X57961300Y-123318580D01*
X57959001Y-123314279D01*
X57957583Y-123309605D01*
X57956500Y-123298609D01*
X57956500Y-123009891D01*
X57957583Y-122998895D01*
X57959001Y-122994221D01*
X57961300Y-122989920D01*
X57966529Y-122983548D01*
X57980143Y-122963174D01*
X57989520Y-122940535D01*
X57994300Y-122916501D01*
X57994300Y-122891997D01*
X57989519Y-122867964D01*
X57980142Y-122845325D01*
X57966529Y-122824952D01*
X57961300Y-122818580D01*
X57959001Y-122814279D01*
X57957583Y-122809605D01*
X57956500Y-122798609D01*
X57956500Y-122509891D01*
X57957583Y-122498895D01*
X57959001Y-122494221D01*
X57961300Y-122489920D01*
X57966529Y-122483548D01*
X57980143Y-122463174D01*
X57989520Y-122440535D01*
X57994300Y-122416501D01*
X57994300Y-122391997D01*
X57989519Y-122367964D01*
X57980142Y-122345325D01*
X57966529Y-122324952D01*
X57961300Y-122318580D01*
X57959001Y-122314279D01*
X57957583Y-122309605D01*
X57956500Y-122298609D01*
X57956500Y-122009891D01*
X57957583Y-121998895D01*
X57959001Y-121994221D01*
X57961300Y-121989920D01*
X57966529Y-121983548D01*
X57980143Y-121963174D01*
X57989520Y-121940535D01*
X57994300Y-121916501D01*
X57994300Y-121891997D01*
X57989519Y-121867964D01*
X57980142Y-121845325D01*
X57966529Y-121824952D01*
X57961300Y-121818580D01*
X57959001Y-121814279D01*
X57957583Y-121809605D01*
X57956500Y-121798609D01*
X57956500Y-121509891D01*
X57957583Y-121498895D01*
X57959001Y-121494221D01*
X57961300Y-121489920D01*
X57966529Y-121483548D01*
X57980143Y-121463174D01*
X57989520Y-121440535D01*
X57994300Y-121416501D01*
X57994300Y-121391999D01*
X58895700Y-121391999D01*
X58895700Y-121416503D01*
X58900481Y-121440536D01*
X58909858Y-121463175D01*
X58923471Y-121483548D01*
X58928700Y-121489920D01*
X58930999Y-121494221D01*
X58932417Y-121498895D01*
X58933500Y-121509891D01*
X58933500Y-121798609D01*
X58932417Y-121809605D01*
X58930999Y-121814279D01*
X58928700Y-121818580D01*
X58923471Y-121824952D01*
X58909857Y-121845326D01*
X58900480Y-121867965D01*
X58895700Y-121891999D01*
X58895700Y-121916503D01*
X58900481Y-121940536D01*
X58909858Y-121963175D01*
X58923471Y-121983548D01*
X58928700Y-121989920D01*
X58930999Y-121994221D01*
X58932417Y-121998895D01*
X58933500Y-122009891D01*
X58933500Y-122298609D01*
X58932417Y-122309605D01*
X58930999Y-122314279D01*
X58928700Y-122318580D01*
X58923471Y-122324952D01*
X58909857Y-122345326D01*
X58900480Y-122367965D01*
X58895700Y-122391999D01*
X58895700Y-122416503D01*
X58900481Y-122440536D01*
X58909858Y-122463175D01*
X58923471Y-122483548D01*
X58928700Y-122489920D01*
X58930999Y-122494221D01*
X58932417Y-122498895D01*
X58933500Y-122509891D01*
X58933500Y-122798609D01*
X58932417Y-122809605D01*
X58930999Y-122814279D01*
X58928700Y-122818580D01*
X58923471Y-122824952D01*
X58909857Y-122845326D01*
X58900480Y-122867965D01*
X58895700Y-122891999D01*
X58895700Y-122916503D01*
X58900481Y-122940536D01*
X58909858Y-122963175D01*
X58923471Y-122983548D01*
X58928700Y-122989920D01*
X58930999Y-122994221D01*
X58932417Y-122998895D01*
X58933500Y-123009891D01*
X58933500Y-123298609D01*
X58932417Y-123309605D01*
X58930999Y-123314279D01*
X58928700Y-123318580D01*
X58923471Y-123324952D01*
X58909857Y-123345326D01*
X58900480Y-123367965D01*
X58895700Y-123391999D01*
X58895700Y-123416503D01*
X58900481Y-123440536D01*
X58909858Y-123463175D01*
X58923471Y-123483548D01*
X58928700Y-123489920D01*
X58930999Y-123494221D01*
X58932417Y-123498895D01*
X58933500Y-123509891D01*
X58933500Y-123798609D01*
X58932417Y-123809605D01*
X58930999Y-123814279D01*
X58928700Y-123818580D01*
X58923471Y-123824952D01*
X58909857Y-123845326D01*
X58900480Y-123867965D01*
X58895700Y-123891999D01*
X58895700Y-123916503D01*
X58900481Y-123940536D01*
X58909858Y-123963175D01*
X58923471Y-123983548D01*
X58928700Y-123989920D01*
X58930999Y-123994221D01*
X58932417Y-123998895D01*
X58933500Y-124009891D01*
X58933500Y-124298609D01*
X58932417Y-124309605D01*
X58930999Y-124314279D01*
X58928700Y-124318580D01*
X58923471Y-124324952D01*
X58909857Y-124345326D01*
X58900480Y-124367965D01*
X58895700Y-124391999D01*
X58895700Y-124416503D01*
X58900481Y-124440536D01*
X58909858Y-124463175D01*
X58923471Y-124483548D01*
X58928700Y-124489920D01*
X58930999Y-124494221D01*
X58932417Y-124498895D01*
X58933500Y-124509891D01*
X58933500Y-124728251D01*
X58935902Y-124752637D01*
X58943015Y-124776086D01*
X58954566Y-124797697D01*
X58970111Y-124816639D01*
X58989053Y-124832184D01*
X59010664Y-124843735D01*
X59034113Y-124850848D01*
X59058499Y-124853250D01*
X59276859Y-124853250D01*
X59287855Y-124854333D01*
X59292529Y-124855751D01*
X59296830Y-124858050D01*
X59303202Y-124863279D01*
X59323576Y-124876893D01*
X59346215Y-124886270D01*
X59370249Y-124891050D01*
X59394753Y-124891050D01*
X59418786Y-124886269D01*
X59441425Y-124876892D01*
X59461798Y-124863279D01*
X59468170Y-124858050D01*
X59472471Y-124855751D01*
X59477145Y-124854333D01*
X59488141Y-124853250D01*
X59776859Y-124853250D01*
X59787855Y-124854333D01*
X59792529Y-124855751D01*
X59796830Y-124858050D01*
X59803202Y-124863279D01*
X59823576Y-124876893D01*
X59846215Y-124886270D01*
X59870249Y-124891050D01*
X59894753Y-124891050D01*
X59918786Y-124886269D01*
X59941425Y-124876892D01*
X59961798Y-124863279D01*
X59968170Y-124858050D01*
X59972471Y-124855751D01*
X59977145Y-124854333D01*
X59988141Y-124853250D01*
X60276859Y-124853250D01*
X60287855Y-124854333D01*
X60292529Y-124855751D01*
X60296830Y-124858050D01*
X60303202Y-124863279D01*
X60323576Y-124876893D01*
X60346215Y-124886270D01*
X60370249Y-124891050D01*
X60394753Y-124891050D01*
X60418786Y-124886269D01*
X60441425Y-124876892D01*
X60461798Y-124863279D01*
X60468170Y-124858050D01*
X60472471Y-124855751D01*
X60477145Y-124854333D01*
X60488141Y-124853250D01*
X60776859Y-124853250D01*
X60787855Y-124854333D01*
X60792529Y-124855751D01*
X60796830Y-124858050D01*
X60803202Y-124863279D01*
X60823576Y-124876893D01*
X60846215Y-124886270D01*
X60870249Y-124891050D01*
X60894753Y-124891050D01*
X60918786Y-124886269D01*
X60941425Y-124876892D01*
X60961798Y-124863279D01*
X60968170Y-124858050D01*
X60972471Y-124855751D01*
X60977145Y-124854333D01*
X60988141Y-124853250D01*
X61276859Y-124853250D01*
X61287855Y-124854333D01*
X61292529Y-124855751D01*
X61296830Y-124858050D01*
X61303202Y-124863279D01*
X61323576Y-124876893D01*
X61346215Y-124886270D01*
X61370249Y-124891050D01*
X61394753Y-124891050D01*
X61418786Y-124886269D01*
X61441425Y-124876892D01*
X61461798Y-124863279D01*
X61468170Y-124858050D01*
X61472471Y-124855751D01*
X61477145Y-124854333D01*
X61488141Y-124853250D01*
X61776859Y-124853250D01*
X61787855Y-124854333D01*
X61792529Y-124855751D01*
X61796830Y-124858050D01*
X61803202Y-124863279D01*
X61823576Y-124876893D01*
X61846215Y-124886270D01*
X61870249Y-124891050D01*
X61894753Y-124891050D01*
X61918786Y-124886269D01*
X61941425Y-124876892D01*
X61961798Y-124863279D01*
X61968170Y-124858050D01*
X61972471Y-124855751D01*
X61977145Y-124854333D01*
X61988141Y-124853250D01*
X62276859Y-124853250D01*
X62287855Y-124854333D01*
X62292529Y-124855751D01*
X62296830Y-124858050D01*
X62303202Y-124863279D01*
X62323576Y-124876893D01*
X62346215Y-124886270D01*
X62370249Y-124891050D01*
X62394753Y-124891050D01*
X62418786Y-124886269D01*
X62441425Y-124876892D01*
X62461798Y-124863279D01*
X62468170Y-124858050D01*
X62472471Y-124855751D01*
X62477145Y-124854333D01*
X62488141Y-124853250D01*
X62706501Y-124853250D01*
X62730887Y-124850848D01*
X62754336Y-124843735D01*
X62775947Y-124832184D01*
X62794889Y-124816639D01*
X62810434Y-124797697D01*
X62821985Y-124776086D01*
X62829098Y-124752637D01*
X62831500Y-124728251D01*
X62831500Y-124509891D01*
X62832583Y-124498895D01*
X62834001Y-124494221D01*
X62836300Y-124489920D01*
X62841529Y-124483548D01*
X62855143Y-124463174D01*
X62864520Y-124440535D01*
X62869300Y-124416501D01*
X62869300Y-124391997D01*
X62864519Y-124367964D01*
X62855142Y-124345325D01*
X62841529Y-124324952D01*
X62836300Y-124318580D01*
X62834001Y-124314279D01*
X62832583Y-124309605D01*
X62831500Y-124298609D01*
X62831500Y-124009891D01*
X62832583Y-123998895D01*
X62834001Y-123994221D01*
X62836300Y-123989920D01*
X62841529Y-123983548D01*
X62855143Y-123963174D01*
X62864520Y-123940535D01*
X62869300Y-123916501D01*
X62869300Y-123891997D01*
X62864519Y-123867964D01*
X62855142Y-123845325D01*
X62841529Y-123824952D01*
X62836300Y-123818580D01*
X62834001Y-123814279D01*
X62832583Y-123809605D01*
X62831500Y-123798609D01*
X62831500Y-123509891D01*
X62832583Y-123498895D01*
X62834001Y-123494221D01*
X62836300Y-123489920D01*
X62841529Y-123483548D01*
X62855143Y-123463174D01*
X62864520Y-123440535D01*
X62869300Y-123416501D01*
X62869300Y-123391997D01*
X62864519Y-123367964D01*
X62855142Y-123345325D01*
X62841529Y-123324952D01*
X62836300Y-123318580D01*
X62834001Y-123314279D01*
X62832583Y-123309605D01*
X62831500Y-123298609D01*
X62831500Y-123009891D01*
X62832583Y-122998895D01*
X62834001Y-122994221D01*
X62836300Y-122989920D01*
X62841529Y-122983548D01*
X62855143Y-122963174D01*
X62864520Y-122940535D01*
X62869300Y-122916501D01*
X62869300Y-122891997D01*
X62864519Y-122867964D01*
X62855142Y-122845325D01*
X62841529Y-122824952D01*
X62836300Y-122818580D01*
X62834001Y-122814279D01*
X62832583Y-122809605D01*
X62831500Y-122798609D01*
X62831500Y-122509891D01*
X62832583Y-122498895D01*
X62834001Y-122494221D01*
X62836300Y-122489920D01*
X62841529Y-122483548D01*
X62855143Y-122463174D01*
X62864520Y-122440535D01*
X62869300Y-122416501D01*
X62869300Y-122391997D01*
X62864519Y-122367964D01*
X62855142Y-122345325D01*
X62841529Y-122324952D01*
X62836300Y-122318580D01*
X62834001Y-122314279D01*
X62832583Y-122309605D01*
X62831500Y-122298609D01*
X62831500Y-122009891D01*
X62832583Y-121998895D01*
X62834001Y-121994221D01*
X62836300Y-121989920D01*
X62841529Y-121983548D01*
X62855143Y-121963174D01*
X62864520Y-121940535D01*
X62869300Y-121916501D01*
X62869300Y-121891997D01*
X62864519Y-121867964D01*
X62855142Y-121845325D01*
X62841529Y-121824952D01*
X62836300Y-121818580D01*
X62834001Y-121814279D01*
X62832583Y-121809605D01*
X62831500Y-121798609D01*
X62831500Y-121509891D01*
X62832583Y-121498895D01*
X62834001Y-121494221D01*
X62836300Y-121489920D01*
X62841529Y-121483548D01*
X62855143Y-121463174D01*
X62864520Y-121440535D01*
X62869300Y-121416501D01*
X62869300Y-121391997D01*
X62864519Y-121367964D01*
X62855142Y-121345325D01*
X62841529Y-121324952D01*
X62836300Y-121318580D01*
X62834001Y-121314279D01*
X62832583Y-121309605D01*
X62831500Y-121298609D01*
X62831500Y-121080249D01*
X62829098Y-121055863D01*
X62821985Y-121032414D01*
X62810434Y-121010803D01*
X62794889Y-120991861D01*
X62775947Y-120976316D01*
X62754336Y-120964765D01*
X62730887Y-120957652D01*
X62706501Y-120955250D01*
X62488141Y-120955250D01*
X62477145Y-120954167D01*
X62472471Y-120952749D01*
X62468170Y-120950450D01*
X62461798Y-120945221D01*
X62441424Y-120931607D01*
X62418785Y-120922230D01*
X62394751Y-120917450D01*
X62370247Y-120917450D01*
X62346214Y-120922231D01*
X62323575Y-120931608D01*
X62303202Y-120945221D01*
X62296830Y-120950450D01*
X62292529Y-120952749D01*
X62287855Y-120954167D01*
X62276859Y-120955250D01*
X61988141Y-120955250D01*
X61977145Y-120954167D01*
X61972471Y-120952749D01*
X61968170Y-120950450D01*
X61961798Y-120945221D01*
X61941424Y-120931607D01*
X61918785Y-120922230D01*
X61894751Y-120917450D01*
X61870247Y-120917450D01*
X61846214Y-120922231D01*
X61823575Y-120931608D01*
X61803202Y-120945221D01*
X61796830Y-120950450D01*
X61792529Y-120952749D01*
X61787855Y-120954167D01*
X61776859Y-120955250D01*
X61488141Y-120955250D01*
X61477145Y-120954167D01*
X61472471Y-120952749D01*
X61468170Y-120950450D01*
X61461798Y-120945221D01*
X61441424Y-120931607D01*
X61418785Y-120922230D01*
X61394751Y-120917450D01*
X61370247Y-120917450D01*
X61346214Y-120922231D01*
X61323575Y-120931608D01*
X61303202Y-120945221D01*
X61296830Y-120950450D01*
X61292529Y-120952749D01*
X61287855Y-120954167D01*
X61276859Y-120955250D01*
X60988141Y-120955250D01*
X60977145Y-120954167D01*
X60972471Y-120952749D01*
X60968170Y-120950450D01*
X60961798Y-120945221D01*
X60941424Y-120931607D01*
X60918785Y-120922230D01*
X60894751Y-120917450D01*
X60870247Y-120917450D01*
X60846214Y-120922231D01*
X60823575Y-120931608D01*
X60803202Y-120945221D01*
X60796830Y-120950450D01*
X60792529Y-120952749D01*
X60787855Y-120954167D01*
X60776859Y-120955250D01*
X60488141Y-120955250D01*
X60477145Y-120954167D01*
X60472471Y-120952749D01*
X60468170Y-120950450D01*
X60461798Y-120945221D01*
X60441424Y-120931607D01*
X60418785Y-120922230D01*
X60394751Y-120917450D01*
X60370247Y-120917450D01*
X60346214Y-120922231D01*
X60323575Y-120931608D01*
X60303202Y-120945221D01*
X60296830Y-120950450D01*
X60292529Y-120952749D01*
X60287855Y-120954167D01*
X60276859Y-120955250D01*
X59988141Y-120955250D01*
X59977145Y-120954167D01*
X59972471Y-120952749D01*
X59968170Y-120950450D01*
X59961798Y-120945221D01*
X59941424Y-120931607D01*
X59918785Y-120922230D01*
X59894751Y-120917450D01*
X59870247Y-120917450D01*
X59846214Y-120922231D01*
X59823575Y-120931608D01*
X59803202Y-120945221D01*
X59796830Y-120950450D01*
X59792529Y-120952749D01*
X59787855Y-120954167D01*
X59776859Y-120955250D01*
X59488141Y-120955250D01*
X59477145Y-120954167D01*
X59472471Y-120952749D01*
X59468170Y-120950450D01*
X59461798Y-120945221D01*
X59441424Y-120931607D01*
X59418785Y-120922230D01*
X59394751Y-120917450D01*
X59370247Y-120917450D01*
X59346214Y-120922231D01*
X59323575Y-120931608D01*
X59303202Y-120945221D01*
X59296830Y-120950450D01*
X59292529Y-120952749D01*
X59287855Y-120954167D01*
X59276859Y-120955250D01*
X59058499Y-120955250D01*
X59034113Y-120957652D01*
X59010664Y-120964765D01*
X58989053Y-120976316D01*
X58970111Y-120991861D01*
X58954566Y-121010803D01*
X58943015Y-121032414D01*
X58935902Y-121055863D01*
X58933500Y-121080249D01*
X58933500Y-121298609D01*
X58932417Y-121309605D01*
X58930999Y-121314279D01*
X58928700Y-121318580D01*
X58923471Y-121324952D01*
X58909857Y-121345326D01*
X58900480Y-121367965D01*
X58895700Y-121391999D01*
X57994300Y-121391999D01*
X57994300Y-121391997D01*
X57989519Y-121367964D01*
X57980142Y-121345325D01*
X57966529Y-121324952D01*
X57961300Y-121318580D01*
X57959001Y-121314279D01*
X57957583Y-121309605D01*
X57956500Y-121298609D01*
X57956500Y-121009891D01*
X57957583Y-120998895D01*
X57959001Y-120994221D01*
X57961300Y-120989919D01*
X57964396Y-120986146D01*
X57968169Y-120983050D01*
X57972471Y-120980751D01*
X57977145Y-120979333D01*
X57988141Y-120978250D01*
X58831501Y-120978250D01*
X58855887Y-120975848D01*
X58879336Y-120968735D01*
X58900947Y-120957184D01*
X58919889Y-120941639D01*
X58935434Y-120922697D01*
X58946985Y-120901086D01*
X58954098Y-120877637D01*
X58956500Y-120853251D01*
X58956500Y-120009891D01*
X58957583Y-119998895D01*
X58959001Y-119994221D01*
X58961300Y-119989919D01*
X58964396Y-119986146D01*
X58968169Y-119983050D01*
X58972471Y-119980751D01*
X58977145Y-119979333D01*
X58988141Y-119978250D01*
X59276859Y-119978250D01*
X59287855Y-119979333D01*
G37*
G36*
X62359917Y-121306790D02*
G01*
X62388581Y-121315485D01*
X62414995Y-121329604D01*
X62438146Y-121348604D01*
X62457146Y-121371755D01*
X62471265Y-121398169D01*
X62479960Y-121426833D01*
X62483500Y-121462777D01*
X62483500Y-124345723D01*
X62479960Y-124381667D01*
X62471265Y-124410331D01*
X62457146Y-124436745D01*
X62438146Y-124459896D01*
X62414995Y-124478896D01*
X62388581Y-124493015D01*
X62359917Y-124501710D01*
X62323973Y-124505250D01*
X59441027Y-124505250D01*
X59405083Y-124501710D01*
X59376419Y-124493015D01*
X59350005Y-124478896D01*
X59326854Y-124459896D01*
X59307854Y-124436745D01*
X59293735Y-124410331D01*
X59285040Y-124381667D01*
X59281500Y-124345723D01*
X59281500Y-121462777D01*
X59285040Y-121426833D01*
X59293735Y-121398169D01*
X59307854Y-121371755D01*
X59326854Y-121348604D01*
X59350005Y-121329604D01*
X59376419Y-121315485D01*
X59405083Y-121306790D01*
X59441027Y-121303250D01*
X62323973Y-121303250D01*
X62359917Y-121306790D01*
G37*
G36*
X56591468Y-123466565D02*
G01*
X56630138Y-123478296D01*
X56665777Y-123497346D01*
X56697017Y-123522983D01*
X56722654Y-123554223D01*
X56741704Y-123589862D01*
X56753435Y-123628532D01*
X56758000Y-123674888D01*
X56758000Y-124326112D01*
X56753435Y-124372468D01*
X56741704Y-124411138D01*
X56722654Y-124446777D01*
X56697017Y-124478017D01*
X56665777Y-124503654D01*
X56630138Y-124522704D01*
X56591468Y-124534435D01*
X56545112Y-124539000D01*
X55468888Y-124539000D01*
X55422532Y-124534435D01*
X55383862Y-124522704D01*
X55348223Y-124503654D01*
X55316983Y-124478017D01*
X55291346Y-124446777D01*
X55272296Y-124411138D01*
X55260565Y-124372468D01*
X55256000Y-124326112D01*
X55256000Y-123674888D01*
X55260565Y-123628532D01*
X55272296Y-123589862D01*
X55291346Y-123554223D01*
X55316983Y-123522983D01*
X55348223Y-123497346D01*
X55383862Y-123478296D01*
X55422532Y-123466565D01*
X55468888Y-123462000D01*
X56545112Y-123462000D01*
X56591468Y-123466565D01*
G37*
G36*
X66116468Y-123242565D02*
G01*
X66155138Y-123254296D01*
X66190777Y-123273346D01*
X66222017Y-123298983D01*
X66247654Y-123330223D01*
X66266704Y-123365862D01*
X66278435Y-123404532D01*
X66283000Y-123450888D01*
X66283000Y-124102112D01*
X66278435Y-124148468D01*
X66266704Y-124187138D01*
X66247654Y-124222777D01*
X66222017Y-124254017D01*
X66190777Y-124279654D01*
X66155138Y-124298704D01*
X66116468Y-124310435D01*
X66070112Y-124315000D01*
X64993888Y-124315000D01*
X64947532Y-124310435D01*
X64908862Y-124298704D01*
X64873223Y-124279654D01*
X64841983Y-124254017D01*
X64816346Y-124222777D01*
X64797296Y-124187138D01*
X64785565Y-124148468D01*
X64781000Y-124102112D01*
X64781000Y-123450888D01*
X64785565Y-123404532D01*
X64797296Y-123365862D01*
X64816346Y-123330223D01*
X64841983Y-123298983D01*
X64873223Y-123273346D01*
X64908862Y-123254296D01*
X64947532Y-123242565D01*
X64993888Y-123238000D01*
X66070112Y-123238000D01*
X66116468Y-123242565D01*
G37*
G36*
X79744250Y-124231500D02*
G01*
X72592250Y-124231500D01*
X72592250Y-122679500D01*
X79744250Y-122679500D01*
X79744250Y-124231500D01*
G37*
G36*
X54051000Y-124151000D02*
G01*
X50149000Y-124151000D01*
X50149000Y-122649000D01*
X54051000Y-122649000D01*
X54051000Y-124151000D01*
G37*
G36*
X69568604Y-121728347D02*
G01*
X69605144Y-121739432D01*
X69638821Y-121757433D01*
X69668341Y-121781659D01*
X69692567Y-121811179D01*
X69710568Y-121844856D01*
X69721653Y-121881396D01*
X69726000Y-121925538D01*
X69726000Y-122874462D01*
X69721653Y-122918604D01*
X69710568Y-122955144D01*
X69692567Y-122988821D01*
X69668341Y-123018341D01*
X69638821Y-123042567D01*
X69605144Y-123060568D01*
X69568604Y-123071653D01*
X69524462Y-123076000D01*
X68075538Y-123076000D01*
X68031396Y-123071653D01*
X67994856Y-123060568D01*
X67961179Y-123042567D01*
X67931659Y-123018341D01*
X67907433Y-122988821D01*
X67889432Y-122955144D01*
X67878347Y-122918604D01*
X67874000Y-122874462D01*
X67874000Y-121925538D01*
X67878347Y-121881396D01*
X67889432Y-121844856D01*
X67907433Y-121811179D01*
X67931659Y-121781659D01*
X67961179Y-121757433D01*
X67994856Y-121739432D01*
X68031396Y-121728347D01*
X68075538Y-121724000D01*
X69524462Y-121724000D01*
X69568604Y-121728347D01*
G37*
G36*
X56591468Y-121591565D02*
G01*
X56630138Y-121603296D01*
X56665777Y-121622346D01*
X56697017Y-121647983D01*
X56722654Y-121679223D01*
X56741704Y-121714862D01*
X56753435Y-121753532D01*
X56758000Y-121799888D01*
X56758000Y-122451112D01*
X56753435Y-122497468D01*
X56741704Y-122536138D01*
X56722654Y-122571777D01*
X56697017Y-122603017D01*
X56665777Y-122628654D01*
X56630138Y-122647704D01*
X56591468Y-122659435D01*
X56545112Y-122664000D01*
X55468888Y-122664000D01*
X55422532Y-122659435D01*
X55383862Y-122647704D01*
X55348223Y-122628654D01*
X55316983Y-122603017D01*
X55291346Y-122571777D01*
X55272296Y-122536138D01*
X55260565Y-122497468D01*
X55256000Y-122451112D01*
X55256000Y-121799888D01*
X55260565Y-121753532D01*
X55272296Y-121714862D01*
X55291346Y-121679223D01*
X55316983Y-121647983D01*
X55348223Y-121622346D01*
X55383862Y-121603296D01*
X55422532Y-121591565D01*
X55468888Y-121587000D01*
X56545112Y-121587000D01*
X56591468Y-121591565D01*
G37*
G36*
X73387922Y-121648949D02*
G01*
X73387924Y-121648950D01*
X73387925Y-121648950D01*
X73456353Y-121677293D01*
X73517936Y-121718442D01*
X73570308Y-121770814D01*
X73611457Y-121832397D01*
X73626189Y-121867965D01*
X73639801Y-121900828D01*
X73647921Y-121941648D01*
X73654250Y-121973467D01*
X73654250Y-122047533D01*
X73639800Y-122120175D01*
X73611457Y-122188603D01*
X73570308Y-122250186D01*
X73517936Y-122302558D01*
X73456353Y-122343707D01*
X73387925Y-122372050D01*
X73387924Y-122372050D01*
X73387922Y-122372051D01*
X73315284Y-122386500D01*
X73241216Y-122386500D01*
X73168578Y-122372051D01*
X73168576Y-122372050D01*
X73168575Y-122372050D01*
X73100147Y-122343707D01*
X73038564Y-122302558D01*
X72986192Y-122250186D01*
X72945043Y-122188603D01*
X72916700Y-122120175D01*
X72902250Y-122047533D01*
X72902250Y-121973467D01*
X72908579Y-121941648D01*
X72916699Y-121900828D01*
X72930311Y-121867965D01*
X72945043Y-121832397D01*
X72986192Y-121770814D01*
X73038564Y-121718442D01*
X73100147Y-121677293D01*
X73168575Y-121648950D01*
X73168576Y-121648950D01*
X73168578Y-121648949D01*
X73241216Y-121634500D01*
X73315284Y-121634500D01*
X73387922Y-121648949D01*
G37*
G36*
X79167922Y-121648949D02*
G01*
X79167924Y-121648950D01*
X79167925Y-121648950D01*
X79236353Y-121677293D01*
X79297936Y-121718442D01*
X79350308Y-121770814D01*
X79391457Y-121832397D01*
X79406189Y-121867965D01*
X79419801Y-121900828D01*
X79427921Y-121941648D01*
X79434250Y-121973467D01*
X79434250Y-122047533D01*
X79419800Y-122120175D01*
X79391457Y-122188603D01*
X79350308Y-122250186D01*
X79297936Y-122302558D01*
X79236353Y-122343707D01*
X79167925Y-122372050D01*
X79167924Y-122372050D01*
X79167922Y-122372051D01*
X79095284Y-122386500D01*
X79021216Y-122386500D01*
X78948578Y-122372051D01*
X78948576Y-122372050D01*
X78948575Y-122372050D01*
X78880147Y-122343707D01*
X78818564Y-122302558D01*
X78766192Y-122250186D01*
X78725043Y-122188603D01*
X78696700Y-122120175D01*
X78682250Y-122047533D01*
X78682250Y-121973467D01*
X78688579Y-121941648D01*
X78696699Y-121900828D01*
X78710311Y-121867965D01*
X78725043Y-121832397D01*
X78766192Y-121770814D01*
X78818564Y-121718442D01*
X78880147Y-121677293D01*
X78948575Y-121648950D01*
X78948576Y-121648950D01*
X78948578Y-121648949D01*
X79021216Y-121634500D01*
X79095284Y-121634500D01*
X79167922Y-121648949D01*
G37*
G36*
X69568604Y-118928347D02*
G01*
X69605144Y-118939432D01*
X69638821Y-118957433D01*
X69668341Y-118981659D01*
X69692567Y-119011179D01*
X69710568Y-119044856D01*
X69721653Y-119081396D01*
X69726000Y-119125538D01*
X69726000Y-120074462D01*
X69721653Y-120118604D01*
X69710568Y-120155144D01*
X69692567Y-120188821D01*
X69668341Y-120218341D01*
X69638821Y-120242567D01*
X69605144Y-120260568D01*
X69568604Y-120271653D01*
X69524462Y-120276000D01*
X68075538Y-120276000D01*
X68031396Y-120271653D01*
X67994856Y-120260568D01*
X67961179Y-120242567D01*
X67931659Y-120218341D01*
X67907433Y-120188821D01*
X67889432Y-120155144D01*
X67878347Y-120118604D01*
X67874000Y-120074462D01*
X67874000Y-119125538D01*
X67878347Y-119081396D01*
X67889432Y-119044856D01*
X67907433Y-119011179D01*
X67931659Y-118981659D01*
X67961179Y-118957433D01*
X67994856Y-118939432D01*
X68031396Y-118928347D01*
X68075538Y-118924000D01*
X69524462Y-118924000D01*
X69568604Y-118928347D01*
G37*
G36*
X47951000Y-119851000D02*
G01*
X46749000Y-119851000D01*
X46749000Y-117949000D01*
X47951000Y-117949000D01*
X47951000Y-119851000D01*
G37*
G36*
X44251000Y-119851000D02*
G01*
X43049000Y-119851000D01*
X43049000Y-117949000D01*
X44251000Y-117949000D01*
X44251000Y-119851000D01*
G37*
G36*
X60140468Y-117744565D02*
G01*
X60179138Y-117756296D01*
X60214777Y-117775346D01*
X60246017Y-117800983D01*
X60271654Y-117832223D01*
X60290704Y-117867862D01*
X60302435Y-117906532D01*
X60307000Y-117952888D01*
X60307000Y-119029112D01*
X60302435Y-119075468D01*
X60290704Y-119114138D01*
X60271654Y-119149777D01*
X60246017Y-119181017D01*
X60214777Y-119206654D01*
X60179138Y-119225704D01*
X60140468Y-119237435D01*
X60094112Y-119242000D01*
X59442888Y-119242000D01*
X59396532Y-119237435D01*
X59357862Y-119225704D01*
X59322223Y-119206654D01*
X59290983Y-119181017D01*
X59265346Y-119149777D01*
X59246296Y-119114138D01*
X59234565Y-119075468D01*
X59230000Y-119029112D01*
X59230000Y-117952888D01*
X59234565Y-117906532D01*
X59246296Y-117867862D01*
X59265346Y-117832223D01*
X59290983Y-117800983D01*
X59322223Y-117775346D01*
X59357862Y-117756296D01*
X59396532Y-117744565D01*
X59442888Y-117740000D01*
X60094112Y-117740000D01*
X60140468Y-117744565D01*
G37*
G36*
X62015468Y-117744565D02*
G01*
X62054138Y-117756296D01*
X62089777Y-117775346D01*
X62121017Y-117800983D01*
X62146654Y-117832223D01*
X62165704Y-117867862D01*
X62177435Y-117906532D01*
X62182000Y-117952888D01*
X62182000Y-119029112D01*
X62177435Y-119075468D01*
X62165704Y-119114138D01*
X62146654Y-119149777D01*
X62121017Y-119181017D01*
X62089777Y-119206654D01*
X62054138Y-119225704D01*
X62015468Y-119237435D01*
X61969112Y-119242000D01*
X61317888Y-119242000D01*
X61271532Y-119237435D01*
X61232862Y-119225704D01*
X61197223Y-119206654D01*
X61165983Y-119181017D01*
X61140346Y-119149777D01*
X61121296Y-119114138D01*
X61109565Y-119075468D01*
X61105000Y-119029112D01*
X61105000Y-117952888D01*
X61109565Y-117906532D01*
X61121296Y-117867862D01*
X61140346Y-117832223D01*
X61165983Y-117800983D01*
X61197223Y-117775346D01*
X61232862Y-117756296D01*
X61271532Y-117744565D01*
X61317888Y-117740000D01*
X61969112Y-117740000D01*
X62015468Y-117744565D01*
G37*
M02*
