M48
; DRILL file {KiCad (5.1.5)-3} date 4/3/2020 3:26:27 PM
; FORMAT={-:-/ absolute / inch / decimal}
; #@! TF.CreationDate,2020-04-03T15:26:27-04:00
; #@! TF.GenerationSoftware,Kicad,Pcbnew,(5.1.5)-3
; #@! TF.FileFunction,Plated,1,2,PTH
FMAT,2
INCH
T1C0.0157
T2C0.0236
%
G90
G05
T1
X1.8661Y-4.9961
X1.937Y-4.9567
X2.0512Y-4.7224
X2.1575Y-4.8425
X2.1575Y-4.9567
X2.2933Y-5.0827
X2.311Y-4.6654
X2.4291Y-4.9922
X2.5157Y-4.9252
X2.5453Y-4.8366
X2.5531Y-4.7028
X2.5906Y-5.3228
X2.5925Y-4.8252
X2.626Y-4.7992
X2.626Y-5.1378
X2.65Y-5.015
X2.7087Y-4.874
X2.8858Y-4.9803
X2.9749Y-4.9992
X3.115Y-5.085
T2
G00X2.8287Y-4.6481
M15
G01X2.8287Y-4.6717
M16
G05
G00X2.8287Y-4.8028
M15
G01X2.8287Y-4.8461
M16
G05
G00X3.1688Y-4.6481
M15
G01X3.1688Y-4.6717
M16
G05
G00X3.1688Y-4.8028
M15
G01X3.1688Y-4.8461
M16
G05
T0
M30
