G04 #@! TF.GenerationSoftware,KiCad,Pcbnew,(5.1.5)-3*
G04 #@! TF.CreationDate,2020-04-03T15:26:20-04:00*
G04 #@! TF.ProjectId,binarykb,62696e61-7279-46b6-922e-6b696361645f,rev?*
G04 #@! TF.SameCoordinates,Original*
G04 #@! TF.FileFunction,Copper,L1,Top*
G04 #@! TF.FilePolarity,Positive*
%FSLAX46Y46*%
G04 Gerber Fmt 4.6, Leading zero omitted, Abs format (unit mm)*
G04 Created by KiCad (PCBNEW (5.1.5)-3) date 2020-04-03 15:26:20*
%MOMM*%
%LPD*%
G04 APERTURE LIST*
%ADD10O,1.000000X2.100000*%
%ADD11O,1.000000X1.600000*%
%ADD12C,0.800000*%
%ADD13C,0.254000*%
G04 APERTURE END LIST*
D10*
X71848250Y-122540500D03*
X80488250Y-122540500D03*
D11*
X71848250Y-118360500D03*
X80488250Y-118360500D03*
D12*
X54800000Y-125900000D03*
X49200000Y-125900000D03*
X61699260Y-126802463D03*
X58700000Y-118500000D03*
X75562542Y-126979352D03*
X54800000Y-123000000D03*
X58250000Y-129100002D03*
X64650000Y-122850000D03*
X67310000Y-127381000D03*
X79121000Y-129159000D03*
X52100000Y-119950000D03*
X64850000Y-119450000D03*
X73300000Y-126500000D03*
X68800000Y-123800000D03*
X65848579Y-122559841D03*
X65799998Y-135200000D03*
X66699994Y-121900000D03*
X66700000Y-130500000D03*
X63900000Y-125100000D03*
X47400000Y-126900000D03*
D13*
X65848579Y-135151419D02*
X65799998Y-135200000D01*
X65848579Y-122559841D02*
X65848579Y-135151419D01*
X66699994Y-130499994D02*
X66700000Y-130500000D01*
X66699994Y-121900000D02*
X66699994Y-130499994D01*
X47400000Y-128800000D02*
X47400000Y-126900000D01*
X59265685Y-130300000D02*
X48900000Y-130300000D01*
X63900000Y-125665685D02*
X59265685Y-130300000D01*
X63900000Y-125100000D02*
X63900000Y-125665685D01*
X48900000Y-130300000D02*
X47400000Y-128800000D01*
G36*
X70848247Y-117508822D02*
G01*
X70759835Y-117714513D01*
X70713250Y-117933500D01*
X70713250Y-118233500D01*
X71721250Y-118233500D01*
X71721250Y-118213500D01*
X71975250Y-118213500D01*
X71975250Y-118233500D01*
X72983250Y-118233500D01*
X72983250Y-117933500D01*
X72936665Y-117714513D01*
X72848253Y-117508822D01*
X72733043Y-117341250D01*
X79603457Y-117341250D01*
X79488247Y-117508822D01*
X79399835Y-117714513D01*
X79353250Y-117933500D01*
X79353250Y-118233500D01*
X80361250Y-118233500D01*
X80361250Y-118213500D01*
X80615250Y-118213500D01*
X80615250Y-118233500D01*
X81623250Y-118233500D01*
X81623250Y-117933500D01*
X81576665Y-117714513D01*
X81488253Y-117508822D01*
X81373043Y-117341250D01*
X81723971Y-117341250D01*
X81935788Y-117362019D01*
X82108487Y-117414160D01*
X82267768Y-117498852D01*
X82407569Y-117612869D01*
X82522558Y-117751867D01*
X82608360Y-117910555D01*
X82661705Y-118082885D01*
X82683751Y-118292640D01*
X82683750Y-143636470D01*
X82662981Y-143848288D01*
X82610841Y-144020986D01*
X82526149Y-144180268D01*
X82412128Y-144320071D01*
X82273135Y-144435056D01*
X82114445Y-144520860D01*
X81942115Y-144574205D01*
X81732369Y-144596250D01*
X42894780Y-144596250D01*
X42682962Y-144575481D01*
X42510264Y-144523341D01*
X42350982Y-144438649D01*
X42211179Y-144324628D01*
X42096194Y-144185635D01*
X42010390Y-144026945D01*
X41957045Y-143854615D01*
X41935000Y-143644869D01*
X41935000Y-137591721D01*
X48506250Y-137591721D01*
X48506250Y-138012279D01*
X48588297Y-138424756D01*
X48749238Y-138813302D01*
X48982887Y-139162983D01*
X49280267Y-139460363D01*
X49629948Y-139694012D01*
X50018494Y-139854953D01*
X50430971Y-139937000D01*
X50851529Y-139937000D01*
X51264006Y-139854953D01*
X51652552Y-139694012D01*
X52002233Y-139460363D01*
X52299613Y-139162983D01*
X52533262Y-138813302D01*
X52694203Y-138424756D01*
X52776250Y-138012279D01*
X52776250Y-137591721D01*
X67556250Y-137591721D01*
X67556250Y-138012279D01*
X67638297Y-138424756D01*
X67799238Y-138813302D01*
X68032887Y-139162983D01*
X68330267Y-139460363D01*
X68679948Y-139694012D01*
X69068494Y-139854953D01*
X69480971Y-139937000D01*
X69901529Y-139937000D01*
X70314006Y-139854953D01*
X70702552Y-139694012D01*
X71052233Y-139460363D01*
X71349613Y-139162983D01*
X71583262Y-138813302D01*
X71744203Y-138424756D01*
X71826250Y-138012279D01*
X71826250Y-137591721D01*
X71744203Y-137179244D01*
X71583262Y-136790698D01*
X71349613Y-136441017D01*
X71052233Y-136143637D01*
X70702552Y-135909988D01*
X70314006Y-135749047D01*
X69901529Y-135667000D01*
X69480971Y-135667000D01*
X69068494Y-135749047D01*
X68679948Y-135909988D01*
X68330267Y-136143637D01*
X68032887Y-136441017D01*
X67799238Y-136790698D01*
X67638297Y-137179244D01*
X67556250Y-137591721D01*
X52776250Y-137591721D01*
X52694203Y-137179244D01*
X52533262Y-136790698D01*
X52299613Y-136441017D01*
X52002233Y-136143637D01*
X51652552Y-135909988D01*
X51264006Y-135749047D01*
X50851529Y-135667000D01*
X50430971Y-135667000D01*
X50018494Y-135749047D01*
X49629948Y-135909988D01*
X49280267Y-136143637D01*
X48982887Y-136441017D01*
X48749238Y-136790698D01*
X48588297Y-137179244D01*
X48506250Y-137591721D01*
X41935000Y-137591721D01*
X41935000Y-132573278D01*
X46591250Y-132573278D01*
X46591250Y-132870722D01*
X46649279Y-133162451D01*
X46763106Y-133437253D01*
X46928357Y-133684569D01*
X47138681Y-133894893D01*
X47385997Y-134060144D01*
X47660799Y-134173971D01*
X47952528Y-134232000D01*
X48249972Y-134232000D01*
X48541701Y-134173971D01*
X48816503Y-134060144D01*
X49063819Y-133894893D01*
X49274143Y-133684569D01*
X49439394Y-133437253D01*
X49553221Y-133162451D01*
X49611250Y-132870722D01*
X49611250Y-132573278D01*
X49553221Y-132281549D01*
X49439394Y-132006747D01*
X49274143Y-131759431D01*
X49063819Y-131549107D01*
X48816503Y-131383856D01*
X48541701Y-131270029D01*
X48249972Y-131212000D01*
X47952528Y-131212000D01*
X47660799Y-131270029D01*
X47385997Y-131383856D01*
X47138681Y-131549107D01*
X46928357Y-131759431D01*
X46763106Y-132006747D01*
X46649279Y-132281549D01*
X46591250Y-132573278D01*
X41935000Y-132573278D01*
X41935000Y-126798061D01*
X46365000Y-126798061D01*
X46365000Y-127001939D01*
X46404774Y-127201898D01*
X46482795Y-127390256D01*
X46596063Y-127559774D01*
X46638001Y-127601712D01*
X46638000Y-128762576D01*
X46634314Y-128800000D01*
X46638000Y-128837423D01*
X46638000Y-128837425D01*
X46649026Y-128949377D01*
X46692598Y-129093014D01*
X46692599Y-129093015D01*
X46763355Y-129225392D01*
X46802983Y-129273678D01*
X46858578Y-129341422D01*
X46887654Y-129365284D01*
X48334721Y-130812352D01*
X48358578Y-130841422D01*
X48474608Y-130936645D01*
X48606985Y-131007402D01*
X48750622Y-131050974D01*
X48862574Y-131062000D01*
X48862576Y-131062000D01*
X48899999Y-131065686D01*
X48937422Y-131062000D01*
X51128675Y-131062000D01*
X50851549Y-131476749D01*
X50653377Y-131955178D01*
X50552350Y-132463076D01*
X50552350Y-132980924D01*
X50653377Y-133488822D01*
X50851549Y-133967251D01*
X51139250Y-134397826D01*
X51505424Y-134764000D01*
X51935999Y-135051701D01*
X52414428Y-135249873D01*
X52922326Y-135350900D01*
X53440174Y-135350900D01*
X53948072Y-135249873D01*
X54426501Y-135051701D01*
X54857076Y-134764000D01*
X54927487Y-134693589D01*
X54856250Y-135051721D01*
X54856250Y-135472279D01*
X54938297Y-135884756D01*
X55099238Y-136273302D01*
X55332887Y-136622983D01*
X55630267Y-136920363D01*
X55979948Y-137154012D01*
X56368494Y-137314953D01*
X56780971Y-137397000D01*
X57201529Y-137397000D01*
X57614006Y-137314953D01*
X58002552Y-137154012D01*
X58352233Y-136920363D01*
X58649613Y-136622983D01*
X58883262Y-136273302D01*
X59044203Y-135884756D01*
X59126250Y-135472279D01*
X59126250Y-135098061D01*
X64764998Y-135098061D01*
X64764998Y-135301939D01*
X64804772Y-135501898D01*
X64882793Y-135690256D01*
X64996061Y-135859774D01*
X65140224Y-136003937D01*
X65309742Y-136117205D01*
X65498100Y-136195226D01*
X65698059Y-136235000D01*
X65901937Y-136235000D01*
X66101896Y-136195226D01*
X66290254Y-136117205D01*
X66459772Y-136003937D01*
X66603935Y-135859774D01*
X66717203Y-135690256D01*
X66795224Y-135501898D01*
X66834998Y-135301939D01*
X66834998Y-135098061D01*
X66795224Y-134898102D01*
X66717203Y-134709744D01*
X66610579Y-134550169D01*
X66610579Y-134132458D01*
X66710799Y-134173971D01*
X67002528Y-134232000D01*
X67299972Y-134232000D01*
X67591701Y-134173971D01*
X67866503Y-134060144D01*
X68113819Y-133894893D01*
X68324143Y-133684569D01*
X68489394Y-133437253D01*
X68603221Y-133162451D01*
X68661250Y-132870722D01*
X68661250Y-132573278D01*
X68639330Y-132463076D01*
X69602350Y-132463076D01*
X69602350Y-132980924D01*
X69703377Y-133488822D01*
X69901549Y-133967251D01*
X70189250Y-134397826D01*
X70555424Y-134764000D01*
X70985999Y-135051701D01*
X71464428Y-135249873D01*
X71972326Y-135350900D01*
X72490174Y-135350900D01*
X72998072Y-135249873D01*
X73476501Y-135051701D01*
X73907076Y-134764000D01*
X73977487Y-134693589D01*
X73906250Y-135051721D01*
X73906250Y-135472279D01*
X73988297Y-135884756D01*
X74149238Y-136273302D01*
X74382887Y-136622983D01*
X74680267Y-136920363D01*
X75029948Y-137154012D01*
X75418494Y-137314953D01*
X75830971Y-137397000D01*
X76251529Y-137397000D01*
X76664006Y-137314953D01*
X77052552Y-137154012D01*
X77402233Y-136920363D01*
X77699613Y-136622983D01*
X77933262Y-136273302D01*
X78094203Y-135884756D01*
X78176250Y-135472279D01*
X78176250Y-135051721D01*
X78094203Y-134639244D01*
X77933262Y-134250698D01*
X77853751Y-134131701D01*
X78026503Y-134060144D01*
X78273819Y-133894893D01*
X78484143Y-133684569D01*
X78649394Y-133437253D01*
X78763221Y-133162451D01*
X78821250Y-132870722D01*
X78821250Y-132573278D01*
X78763221Y-132281549D01*
X78649394Y-132006747D01*
X78484143Y-131759431D01*
X78273819Y-131549107D01*
X78026503Y-131383856D01*
X77751701Y-131270029D01*
X77459972Y-131212000D01*
X77162528Y-131212000D01*
X76870799Y-131270029D01*
X76595997Y-131383856D01*
X76348681Y-131549107D01*
X76138357Y-131759431D01*
X75973106Y-132006747D01*
X75859279Y-132281549D01*
X75801250Y-132573278D01*
X75801250Y-132870722D01*
X75852227Y-133127000D01*
X75830971Y-133127000D01*
X75418494Y-133209047D01*
X75029948Y-133369988D01*
X74723542Y-133574721D01*
X74759123Y-133488822D01*
X74860150Y-132980924D01*
X74860150Y-132463076D01*
X74759123Y-131955178D01*
X74560951Y-131476749D01*
X74273250Y-131046174D01*
X73907076Y-130680000D01*
X73476501Y-130392299D01*
X72998072Y-130194127D01*
X72490174Y-130093100D01*
X71972326Y-130093100D01*
X71464428Y-130194127D01*
X70985999Y-130392299D01*
X70555424Y-130680000D01*
X70189250Y-131046174D01*
X69901549Y-131476749D01*
X69703377Y-131955178D01*
X69602350Y-132463076D01*
X68639330Y-132463076D01*
X68603221Y-132281549D01*
X68489394Y-132006747D01*
X68324143Y-131759431D01*
X68113819Y-131549107D01*
X67866503Y-131383856D01*
X67591701Y-131270029D01*
X67426536Y-131237175D01*
X67503937Y-131159774D01*
X67617205Y-130990256D01*
X67695226Y-130801898D01*
X67735000Y-130601939D01*
X67735000Y-130398061D01*
X67695226Y-130198102D01*
X67617205Y-130009744D01*
X67503937Y-129840226D01*
X67461994Y-129798283D01*
X67461994Y-126398061D01*
X72265000Y-126398061D01*
X72265000Y-126601939D01*
X72304774Y-126801898D01*
X72382795Y-126990256D01*
X72496063Y-127159774D01*
X72640226Y-127303937D01*
X72809744Y-127417205D01*
X72998102Y-127495226D01*
X73198061Y-127535000D01*
X73401939Y-127535000D01*
X73601898Y-127495226D01*
X73790256Y-127417205D01*
X73959774Y-127303937D01*
X74103937Y-127159774D01*
X74217205Y-126990256D01*
X74295226Y-126801898D01*
X74335000Y-126601939D01*
X74335000Y-126398061D01*
X74295226Y-126198102D01*
X74217205Y-126009744D01*
X74103937Y-125840226D01*
X73959774Y-125696063D01*
X73790256Y-125582795D01*
X73601898Y-125504774D01*
X73401939Y-125465000D01*
X73198061Y-125465000D01*
X72998102Y-125504774D01*
X72809744Y-125582795D01*
X72640226Y-125696063D01*
X72496063Y-125840226D01*
X72382795Y-126009744D01*
X72304774Y-126198102D01*
X72265000Y-126398061D01*
X67461994Y-126398061D01*
X67461994Y-123698061D01*
X67765000Y-123698061D01*
X67765000Y-123901939D01*
X67804774Y-124101898D01*
X67882795Y-124290256D01*
X67996063Y-124459774D01*
X68140226Y-124603937D01*
X68309744Y-124717205D01*
X68498102Y-124795226D01*
X68698061Y-124835000D01*
X68901939Y-124835000D01*
X69101898Y-124795226D01*
X69290256Y-124717205D01*
X69459774Y-124603937D01*
X69603937Y-124459774D01*
X69717205Y-124290256D01*
X69795226Y-124101898D01*
X69835000Y-123901939D01*
X69835000Y-123698061D01*
X69795226Y-123498102D01*
X69717205Y-123309744D01*
X69603937Y-123140226D01*
X69459774Y-122996063D01*
X69290256Y-122882795D01*
X69101898Y-122804774D01*
X68901939Y-122765000D01*
X68698061Y-122765000D01*
X68498102Y-122804774D01*
X68309744Y-122882795D01*
X68140226Y-122996063D01*
X67996063Y-123140226D01*
X67882795Y-123309744D01*
X67804774Y-123498102D01*
X67765000Y-123698061D01*
X67461994Y-123698061D01*
X67461994Y-122667500D01*
X70713250Y-122667500D01*
X70713250Y-123217500D01*
X70759835Y-123436487D01*
X70848247Y-123642178D01*
X70975089Y-123826669D01*
X71135486Y-123982869D01*
X71323274Y-124104776D01*
X71546376Y-124184619D01*
X71721250Y-124058454D01*
X71721250Y-122667500D01*
X70713250Y-122667500D01*
X67461994Y-122667500D01*
X67461994Y-122601711D01*
X67503931Y-122559774D01*
X67617199Y-122390256D01*
X67695220Y-122201898D01*
X67734994Y-122001939D01*
X67734994Y-121863500D01*
X70713250Y-121863500D01*
X70713250Y-122413500D01*
X71721250Y-122413500D01*
X71721250Y-121022546D01*
X71975250Y-121022546D01*
X71975250Y-122413500D01*
X71995250Y-122413500D01*
X71995250Y-122667500D01*
X71975250Y-122667500D01*
X71975250Y-124058454D01*
X72150124Y-124184619D01*
X72373226Y-124104776D01*
X72561014Y-123982869D01*
X72721411Y-123826669D01*
X72848253Y-123642178D01*
X72936665Y-123436487D01*
X72983250Y-123217500D01*
X72983250Y-122927404D01*
X72998228Y-122933608D01*
X73183698Y-122970500D01*
X73372802Y-122970500D01*
X73558272Y-122933608D01*
X73732981Y-122861241D01*
X73890214Y-122756181D01*
X74023931Y-122622464D01*
X74128991Y-122465231D01*
X74201358Y-122290522D01*
X74238250Y-122105052D01*
X74238250Y-121915948D01*
X78098250Y-121915948D01*
X78098250Y-122105052D01*
X78135142Y-122290522D01*
X78207509Y-122465231D01*
X78312569Y-122622464D01*
X78446286Y-122756181D01*
X78603519Y-122861241D01*
X78778228Y-122933608D01*
X78963698Y-122970500D01*
X79152802Y-122970500D01*
X79338272Y-122933608D01*
X79353250Y-122927404D01*
X79353250Y-123217500D01*
X79399835Y-123436487D01*
X79488247Y-123642178D01*
X79615089Y-123826669D01*
X79775486Y-123982869D01*
X79963274Y-124104776D01*
X80186376Y-124184619D01*
X80361250Y-124058454D01*
X80361250Y-122667500D01*
X80615250Y-122667500D01*
X80615250Y-124058454D01*
X80790124Y-124184619D01*
X81013226Y-124104776D01*
X81201014Y-123982869D01*
X81361411Y-123826669D01*
X81488253Y-123642178D01*
X81576665Y-123436487D01*
X81623250Y-123217500D01*
X81623250Y-122667500D01*
X80615250Y-122667500D01*
X80361250Y-122667500D01*
X80341250Y-122667500D01*
X80341250Y-122413500D01*
X80361250Y-122413500D01*
X80361250Y-121022546D01*
X80615250Y-121022546D01*
X80615250Y-122413500D01*
X81623250Y-122413500D01*
X81623250Y-121863500D01*
X81576665Y-121644513D01*
X81488253Y-121438822D01*
X81361411Y-121254331D01*
X81201014Y-121098131D01*
X81013226Y-120976224D01*
X80790124Y-120896381D01*
X80615250Y-121022546D01*
X80361250Y-121022546D01*
X80186376Y-120896381D01*
X79963274Y-120976224D01*
X79775486Y-121098131D01*
X79631134Y-121238706D01*
X79512981Y-121159759D01*
X79338272Y-121087392D01*
X79152802Y-121050500D01*
X78963698Y-121050500D01*
X78778228Y-121087392D01*
X78603519Y-121159759D01*
X78446286Y-121264819D01*
X78312569Y-121398536D01*
X78207509Y-121555769D01*
X78135142Y-121730478D01*
X78098250Y-121915948D01*
X74238250Y-121915948D01*
X74201358Y-121730478D01*
X74128991Y-121555769D01*
X74023931Y-121398536D01*
X73890214Y-121264819D01*
X73732981Y-121159759D01*
X73558272Y-121087392D01*
X73372802Y-121050500D01*
X73183698Y-121050500D01*
X72998228Y-121087392D01*
X72823519Y-121159759D01*
X72705366Y-121238706D01*
X72561014Y-121098131D01*
X72373226Y-120976224D01*
X72150124Y-120896381D01*
X71975250Y-121022546D01*
X71721250Y-121022546D01*
X71546376Y-120896381D01*
X71323274Y-120976224D01*
X71135486Y-121098131D01*
X70975089Y-121254331D01*
X70848247Y-121438822D01*
X70759835Y-121644513D01*
X70713250Y-121863500D01*
X67734994Y-121863500D01*
X67734994Y-121798061D01*
X67695220Y-121598102D01*
X67617199Y-121409744D01*
X67503931Y-121240226D01*
X67359768Y-121096063D01*
X67190250Y-120982795D01*
X67001892Y-120904774D01*
X66801933Y-120865000D01*
X66598055Y-120865000D01*
X66398096Y-120904774D01*
X66209738Y-120982795D01*
X66040220Y-121096063D01*
X65896057Y-121240226D01*
X65782789Y-121409744D01*
X65734079Y-121527340D01*
X65546681Y-121564615D01*
X65358323Y-121642636D01*
X65188805Y-121755904D01*
X65044642Y-121900067D01*
X64931374Y-122069585D01*
X64853353Y-122257943D01*
X64813579Y-122457902D01*
X64813579Y-122661780D01*
X64853353Y-122861739D01*
X64931374Y-123050097D01*
X65044642Y-123219615D01*
X65086579Y-123261552D01*
X65086580Y-134449707D01*
X64996061Y-134540226D01*
X64882793Y-134709744D01*
X64804772Y-134898102D01*
X64764998Y-135098061D01*
X59126250Y-135098061D01*
X59126250Y-135051721D01*
X59044203Y-134639244D01*
X58883262Y-134250698D01*
X58803751Y-134131701D01*
X58976503Y-134060144D01*
X59223819Y-133894893D01*
X59434143Y-133684569D01*
X59599394Y-133437253D01*
X59713221Y-133162451D01*
X59771250Y-132870722D01*
X59771250Y-132573278D01*
X59713221Y-132281549D01*
X59599394Y-132006747D01*
X59434143Y-131759431D01*
X59223819Y-131549107D01*
X58976503Y-131383856D01*
X58701701Y-131270029D01*
X58409972Y-131212000D01*
X58112528Y-131212000D01*
X57820799Y-131270029D01*
X57545997Y-131383856D01*
X57298681Y-131549107D01*
X57088357Y-131759431D01*
X56923106Y-132006747D01*
X56809279Y-132281549D01*
X56751250Y-132573278D01*
X56751250Y-132870722D01*
X56802227Y-133127000D01*
X56780971Y-133127000D01*
X56368494Y-133209047D01*
X55979948Y-133369988D01*
X55673542Y-133574721D01*
X55709123Y-133488822D01*
X55810150Y-132980924D01*
X55810150Y-132463076D01*
X55709123Y-131955178D01*
X55510951Y-131476749D01*
X55233825Y-131062000D01*
X59228262Y-131062000D01*
X59265685Y-131065686D01*
X59303108Y-131062000D01*
X59303111Y-131062000D01*
X59415063Y-131050974D01*
X59558700Y-131007402D01*
X59691077Y-130936645D01*
X59807107Y-130841422D01*
X59830969Y-130812346D01*
X64412352Y-126230964D01*
X64441422Y-126207107D01*
X64536645Y-126091077D01*
X64607402Y-125958700D01*
X64650974Y-125815063D01*
X64651228Y-125812483D01*
X64703937Y-125759774D01*
X64817205Y-125590256D01*
X64895226Y-125401898D01*
X64935000Y-125201939D01*
X64935000Y-124998061D01*
X64895226Y-124798102D01*
X64817205Y-124609744D01*
X64703937Y-124440226D01*
X64559774Y-124296063D01*
X64390256Y-124182795D01*
X64201898Y-124104774D01*
X64001939Y-124065000D01*
X63798061Y-124065000D01*
X63598102Y-124104774D01*
X63409744Y-124182795D01*
X63240226Y-124296063D01*
X63096063Y-124440226D01*
X62982795Y-124609744D01*
X62904774Y-124798102D01*
X62865000Y-124998061D01*
X62865000Y-125201939D01*
X62904774Y-125401898D01*
X62957900Y-125530154D01*
X58950055Y-129538000D01*
X49215631Y-129538000D01*
X48162000Y-128484370D01*
X48162000Y-127601711D01*
X48203937Y-127559774D01*
X48317205Y-127390256D01*
X48395226Y-127201898D01*
X48435000Y-127001939D01*
X48435000Y-126798061D01*
X48395226Y-126598102D01*
X48317205Y-126409744D01*
X48203937Y-126240226D01*
X48059774Y-126096063D01*
X47890256Y-125982795D01*
X47701898Y-125904774D01*
X47501939Y-125865000D01*
X47298061Y-125865000D01*
X47098102Y-125904774D01*
X46909744Y-125982795D01*
X46740226Y-126096063D01*
X46596063Y-126240226D01*
X46482795Y-126409744D01*
X46404774Y-126598102D01*
X46365000Y-126798061D01*
X41935000Y-126798061D01*
X41935000Y-118487500D01*
X70713250Y-118487500D01*
X70713250Y-118787500D01*
X70759835Y-119006487D01*
X70848247Y-119212178D01*
X70975089Y-119396669D01*
X71135486Y-119552869D01*
X71323274Y-119674776D01*
X71546376Y-119754619D01*
X71721250Y-119628454D01*
X71721250Y-118487500D01*
X71975250Y-118487500D01*
X71975250Y-119628454D01*
X72150124Y-119754619D01*
X72373226Y-119674776D01*
X72561014Y-119552869D01*
X72721411Y-119396669D01*
X72848253Y-119212178D01*
X72936665Y-119006487D01*
X72983250Y-118787500D01*
X72983250Y-118487500D01*
X79353250Y-118487500D01*
X79353250Y-118787500D01*
X79399835Y-119006487D01*
X79488247Y-119212178D01*
X79615089Y-119396669D01*
X79775486Y-119552869D01*
X79963274Y-119674776D01*
X80186376Y-119754619D01*
X80361250Y-119628454D01*
X80361250Y-118487500D01*
X80615250Y-118487500D01*
X80615250Y-119628454D01*
X80790124Y-119754619D01*
X81013226Y-119674776D01*
X81201014Y-119552869D01*
X81361411Y-119396669D01*
X81488253Y-119212178D01*
X81576665Y-119006487D01*
X81623250Y-118787500D01*
X81623250Y-118487500D01*
X80615250Y-118487500D01*
X80361250Y-118487500D01*
X79353250Y-118487500D01*
X72983250Y-118487500D01*
X71975250Y-118487500D01*
X71721250Y-118487500D01*
X70713250Y-118487500D01*
X41935000Y-118487500D01*
X41935000Y-118301029D01*
X41955769Y-118089212D01*
X42007910Y-117916513D01*
X42092602Y-117757232D01*
X42206619Y-117617431D01*
X42345617Y-117502442D01*
X42504305Y-117416640D01*
X42676635Y-117363295D01*
X42886380Y-117341250D01*
X70963457Y-117341250D01*
X70848247Y-117508822D01*
G37*
X70848247Y-117508822D02*
X70759835Y-117714513D01*
X70713250Y-117933500D01*
X70713250Y-118233500D01*
X71721250Y-118233500D01*
X71721250Y-118213500D01*
X71975250Y-118213500D01*
X71975250Y-118233500D01*
X72983250Y-118233500D01*
X72983250Y-117933500D01*
X72936665Y-117714513D01*
X72848253Y-117508822D01*
X72733043Y-117341250D01*
X79603457Y-117341250D01*
X79488247Y-117508822D01*
X79399835Y-117714513D01*
X79353250Y-117933500D01*
X79353250Y-118233500D01*
X80361250Y-118233500D01*
X80361250Y-118213500D01*
X80615250Y-118213500D01*
X80615250Y-118233500D01*
X81623250Y-118233500D01*
X81623250Y-117933500D01*
X81576665Y-117714513D01*
X81488253Y-117508822D01*
X81373043Y-117341250D01*
X81723971Y-117341250D01*
X81935788Y-117362019D01*
X82108487Y-117414160D01*
X82267768Y-117498852D01*
X82407569Y-117612869D01*
X82522558Y-117751867D01*
X82608360Y-117910555D01*
X82661705Y-118082885D01*
X82683751Y-118292640D01*
X82683750Y-143636470D01*
X82662981Y-143848288D01*
X82610841Y-144020986D01*
X82526149Y-144180268D01*
X82412128Y-144320071D01*
X82273135Y-144435056D01*
X82114445Y-144520860D01*
X81942115Y-144574205D01*
X81732369Y-144596250D01*
X42894780Y-144596250D01*
X42682962Y-144575481D01*
X42510264Y-144523341D01*
X42350982Y-144438649D01*
X42211179Y-144324628D01*
X42096194Y-144185635D01*
X42010390Y-144026945D01*
X41957045Y-143854615D01*
X41935000Y-143644869D01*
X41935000Y-137591721D01*
X48506250Y-137591721D01*
X48506250Y-138012279D01*
X48588297Y-138424756D01*
X48749238Y-138813302D01*
X48982887Y-139162983D01*
X49280267Y-139460363D01*
X49629948Y-139694012D01*
X50018494Y-139854953D01*
X50430971Y-139937000D01*
X50851529Y-139937000D01*
X51264006Y-139854953D01*
X51652552Y-139694012D01*
X52002233Y-139460363D01*
X52299613Y-139162983D01*
X52533262Y-138813302D01*
X52694203Y-138424756D01*
X52776250Y-138012279D01*
X52776250Y-137591721D01*
X67556250Y-137591721D01*
X67556250Y-138012279D01*
X67638297Y-138424756D01*
X67799238Y-138813302D01*
X68032887Y-139162983D01*
X68330267Y-139460363D01*
X68679948Y-139694012D01*
X69068494Y-139854953D01*
X69480971Y-139937000D01*
X69901529Y-139937000D01*
X70314006Y-139854953D01*
X70702552Y-139694012D01*
X71052233Y-139460363D01*
X71349613Y-139162983D01*
X71583262Y-138813302D01*
X71744203Y-138424756D01*
X71826250Y-138012279D01*
X71826250Y-137591721D01*
X71744203Y-137179244D01*
X71583262Y-136790698D01*
X71349613Y-136441017D01*
X71052233Y-136143637D01*
X70702552Y-135909988D01*
X70314006Y-135749047D01*
X69901529Y-135667000D01*
X69480971Y-135667000D01*
X69068494Y-135749047D01*
X68679948Y-135909988D01*
X68330267Y-136143637D01*
X68032887Y-136441017D01*
X67799238Y-136790698D01*
X67638297Y-137179244D01*
X67556250Y-137591721D01*
X52776250Y-137591721D01*
X52694203Y-137179244D01*
X52533262Y-136790698D01*
X52299613Y-136441017D01*
X52002233Y-136143637D01*
X51652552Y-135909988D01*
X51264006Y-135749047D01*
X50851529Y-135667000D01*
X50430971Y-135667000D01*
X50018494Y-135749047D01*
X49629948Y-135909988D01*
X49280267Y-136143637D01*
X48982887Y-136441017D01*
X48749238Y-136790698D01*
X48588297Y-137179244D01*
X48506250Y-137591721D01*
X41935000Y-137591721D01*
X41935000Y-132573278D01*
X46591250Y-132573278D01*
X46591250Y-132870722D01*
X46649279Y-133162451D01*
X46763106Y-133437253D01*
X46928357Y-133684569D01*
X47138681Y-133894893D01*
X47385997Y-134060144D01*
X47660799Y-134173971D01*
X47952528Y-134232000D01*
X48249972Y-134232000D01*
X48541701Y-134173971D01*
X48816503Y-134060144D01*
X49063819Y-133894893D01*
X49274143Y-133684569D01*
X49439394Y-133437253D01*
X49553221Y-133162451D01*
X49611250Y-132870722D01*
X49611250Y-132573278D01*
X49553221Y-132281549D01*
X49439394Y-132006747D01*
X49274143Y-131759431D01*
X49063819Y-131549107D01*
X48816503Y-131383856D01*
X48541701Y-131270029D01*
X48249972Y-131212000D01*
X47952528Y-131212000D01*
X47660799Y-131270029D01*
X47385997Y-131383856D01*
X47138681Y-131549107D01*
X46928357Y-131759431D01*
X46763106Y-132006747D01*
X46649279Y-132281549D01*
X46591250Y-132573278D01*
X41935000Y-132573278D01*
X41935000Y-126798061D01*
X46365000Y-126798061D01*
X46365000Y-127001939D01*
X46404774Y-127201898D01*
X46482795Y-127390256D01*
X46596063Y-127559774D01*
X46638001Y-127601712D01*
X46638000Y-128762576D01*
X46634314Y-128800000D01*
X46638000Y-128837423D01*
X46638000Y-128837425D01*
X46649026Y-128949377D01*
X46692598Y-129093014D01*
X46692599Y-129093015D01*
X46763355Y-129225392D01*
X46802983Y-129273678D01*
X46858578Y-129341422D01*
X46887654Y-129365284D01*
X48334721Y-130812352D01*
X48358578Y-130841422D01*
X48474608Y-130936645D01*
X48606985Y-131007402D01*
X48750622Y-131050974D01*
X48862574Y-131062000D01*
X48862576Y-131062000D01*
X48899999Y-131065686D01*
X48937422Y-131062000D01*
X51128675Y-131062000D01*
X50851549Y-131476749D01*
X50653377Y-131955178D01*
X50552350Y-132463076D01*
X50552350Y-132980924D01*
X50653377Y-133488822D01*
X50851549Y-133967251D01*
X51139250Y-134397826D01*
X51505424Y-134764000D01*
X51935999Y-135051701D01*
X52414428Y-135249873D01*
X52922326Y-135350900D01*
X53440174Y-135350900D01*
X53948072Y-135249873D01*
X54426501Y-135051701D01*
X54857076Y-134764000D01*
X54927487Y-134693589D01*
X54856250Y-135051721D01*
X54856250Y-135472279D01*
X54938297Y-135884756D01*
X55099238Y-136273302D01*
X55332887Y-136622983D01*
X55630267Y-136920363D01*
X55979948Y-137154012D01*
X56368494Y-137314953D01*
X56780971Y-137397000D01*
X57201529Y-137397000D01*
X57614006Y-137314953D01*
X58002552Y-137154012D01*
X58352233Y-136920363D01*
X58649613Y-136622983D01*
X58883262Y-136273302D01*
X59044203Y-135884756D01*
X59126250Y-135472279D01*
X59126250Y-135098061D01*
X64764998Y-135098061D01*
X64764998Y-135301939D01*
X64804772Y-135501898D01*
X64882793Y-135690256D01*
X64996061Y-135859774D01*
X65140224Y-136003937D01*
X65309742Y-136117205D01*
X65498100Y-136195226D01*
X65698059Y-136235000D01*
X65901937Y-136235000D01*
X66101896Y-136195226D01*
X66290254Y-136117205D01*
X66459772Y-136003937D01*
X66603935Y-135859774D01*
X66717203Y-135690256D01*
X66795224Y-135501898D01*
X66834998Y-135301939D01*
X66834998Y-135098061D01*
X66795224Y-134898102D01*
X66717203Y-134709744D01*
X66610579Y-134550169D01*
X66610579Y-134132458D01*
X66710799Y-134173971D01*
X67002528Y-134232000D01*
X67299972Y-134232000D01*
X67591701Y-134173971D01*
X67866503Y-134060144D01*
X68113819Y-133894893D01*
X68324143Y-133684569D01*
X68489394Y-133437253D01*
X68603221Y-133162451D01*
X68661250Y-132870722D01*
X68661250Y-132573278D01*
X68639330Y-132463076D01*
X69602350Y-132463076D01*
X69602350Y-132980924D01*
X69703377Y-133488822D01*
X69901549Y-133967251D01*
X70189250Y-134397826D01*
X70555424Y-134764000D01*
X70985999Y-135051701D01*
X71464428Y-135249873D01*
X71972326Y-135350900D01*
X72490174Y-135350900D01*
X72998072Y-135249873D01*
X73476501Y-135051701D01*
X73907076Y-134764000D01*
X73977487Y-134693589D01*
X73906250Y-135051721D01*
X73906250Y-135472279D01*
X73988297Y-135884756D01*
X74149238Y-136273302D01*
X74382887Y-136622983D01*
X74680267Y-136920363D01*
X75029948Y-137154012D01*
X75418494Y-137314953D01*
X75830971Y-137397000D01*
X76251529Y-137397000D01*
X76664006Y-137314953D01*
X77052552Y-137154012D01*
X77402233Y-136920363D01*
X77699613Y-136622983D01*
X77933262Y-136273302D01*
X78094203Y-135884756D01*
X78176250Y-135472279D01*
X78176250Y-135051721D01*
X78094203Y-134639244D01*
X77933262Y-134250698D01*
X77853751Y-134131701D01*
X78026503Y-134060144D01*
X78273819Y-133894893D01*
X78484143Y-133684569D01*
X78649394Y-133437253D01*
X78763221Y-133162451D01*
X78821250Y-132870722D01*
X78821250Y-132573278D01*
X78763221Y-132281549D01*
X78649394Y-132006747D01*
X78484143Y-131759431D01*
X78273819Y-131549107D01*
X78026503Y-131383856D01*
X77751701Y-131270029D01*
X77459972Y-131212000D01*
X77162528Y-131212000D01*
X76870799Y-131270029D01*
X76595997Y-131383856D01*
X76348681Y-131549107D01*
X76138357Y-131759431D01*
X75973106Y-132006747D01*
X75859279Y-132281549D01*
X75801250Y-132573278D01*
X75801250Y-132870722D01*
X75852227Y-133127000D01*
X75830971Y-133127000D01*
X75418494Y-133209047D01*
X75029948Y-133369988D01*
X74723542Y-133574721D01*
X74759123Y-133488822D01*
X74860150Y-132980924D01*
X74860150Y-132463076D01*
X74759123Y-131955178D01*
X74560951Y-131476749D01*
X74273250Y-131046174D01*
X73907076Y-130680000D01*
X73476501Y-130392299D01*
X72998072Y-130194127D01*
X72490174Y-130093100D01*
X71972326Y-130093100D01*
X71464428Y-130194127D01*
X70985999Y-130392299D01*
X70555424Y-130680000D01*
X70189250Y-131046174D01*
X69901549Y-131476749D01*
X69703377Y-131955178D01*
X69602350Y-132463076D01*
X68639330Y-132463076D01*
X68603221Y-132281549D01*
X68489394Y-132006747D01*
X68324143Y-131759431D01*
X68113819Y-131549107D01*
X67866503Y-131383856D01*
X67591701Y-131270029D01*
X67426536Y-131237175D01*
X67503937Y-131159774D01*
X67617205Y-130990256D01*
X67695226Y-130801898D01*
X67735000Y-130601939D01*
X67735000Y-130398061D01*
X67695226Y-130198102D01*
X67617205Y-130009744D01*
X67503937Y-129840226D01*
X67461994Y-129798283D01*
X67461994Y-126398061D01*
X72265000Y-126398061D01*
X72265000Y-126601939D01*
X72304774Y-126801898D01*
X72382795Y-126990256D01*
X72496063Y-127159774D01*
X72640226Y-127303937D01*
X72809744Y-127417205D01*
X72998102Y-127495226D01*
X73198061Y-127535000D01*
X73401939Y-127535000D01*
X73601898Y-127495226D01*
X73790256Y-127417205D01*
X73959774Y-127303937D01*
X74103937Y-127159774D01*
X74217205Y-126990256D01*
X74295226Y-126801898D01*
X74335000Y-126601939D01*
X74335000Y-126398061D01*
X74295226Y-126198102D01*
X74217205Y-126009744D01*
X74103937Y-125840226D01*
X73959774Y-125696063D01*
X73790256Y-125582795D01*
X73601898Y-125504774D01*
X73401939Y-125465000D01*
X73198061Y-125465000D01*
X72998102Y-125504774D01*
X72809744Y-125582795D01*
X72640226Y-125696063D01*
X72496063Y-125840226D01*
X72382795Y-126009744D01*
X72304774Y-126198102D01*
X72265000Y-126398061D01*
X67461994Y-126398061D01*
X67461994Y-123698061D01*
X67765000Y-123698061D01*
X67765000Y-123901939D01*
X67804774Y-124101898D01*
X67882795Y-124290256D01*
X67996063Y-124459774D01*
X68140226Y-124603937D01*
X68309744Y-124717205D01*
X68498102Y-124795226D01*
X68698061Y-124835000D01*
X68901939Y-124835000D01*
X69101898Y-124795226D01*
X69290256Y-124717205D01*
X69459774Y-124603937D01*
X69603937Y-124459774D01*
X69717205Y-124290256D01*
X69795226Y-124101898D01*
X69835000Y-123901939D01*
X69835000Y-123698061D01*
X69795226Y-123498102D01*
X69717205Y-123309744D01*
X69603937Y-123140226D01*
X69459774Y-122996063D01*
X69290256Y-122882795D01*
X69101898Y-122804774D01*
X68901939Y-122765000D01*
X68698061Y-122765000D01*
X68498102Y-122804774D01*
X68309744Y-122882795D01*
X68140226Y-122996063D01*
X67996063Y-123140226D01*
X67882795Y-123309744D01*
X67804774Y-123498102D01*
X67765000Y-123698061D01*
X67461994Y-123698061D01*
X67461994Y-122667500D01*
X70713250Y-122667500D01*
X70713250Y-123217500D01*
X70759835Y-123436487D01*
X70848247Y-123642178D01*
X70975089Y-123826669D01*
X71135486Y-123982869D01*
X71323274Y-124104776D01*
X71546376Y-124184619D01*
X71721250Y-124058454D01*
X71721250Y-122667500D01*
X70713250Y-122667500D01*
X67461994Y-122667500D01*
X67461994Y-122601711D01*
X67503931Y-122559774D01*
X67617199Y-122390256D01*
X67695220Y-122201898D01*
X67734994Y-122001939D01*
X67734994Y-121863500D01*
X70713250Y-121863500D01*
X70713250Y-122413500D01*
X71721250Y-122413500D01*
X71721250Y-121022546D01*
X71975250Y-121022546D01*
X71975250Y-122413500D01*
X71995250Y-122413500D01*
X71995250Y-122667500D01*
X71975250Y-122667500D01*
X71975250Y-124058454D01*
X72150124Y-124184619D01*
X72373226Y-124104776D01*
X72561014Y-123982869D01*
X72721411Y-123826669D01*
X72848253Y-123642178D01*
X72936665Y-123436487D01*
X72983250Y-123217500D01*
X72983250Y-122927404D01*
X72998228Y-122933608D01*
X73183698Y-122970500D01*
X73372802Y-122970500D01*
X73558272Y-122933608D01*
X73732981Y-122861241D01*
X73890214Y-122756181D01*
X74023931Y-122622464D01*
X74128991Y-122465231D01*
X74201358Y-122290522D01*
X74238250Y-122105052D01*
X74238250Y-121915948D01*
X78098250Y-121915948D01*
X78098250Y-122105052D01*
X78135142Y-122290522D01*
X78207509Y-122465231D01*
X78312569Y-122622464D01*
X78446286Y-122756181D01*
X78603519Y-122861241D01*
X78778228Y-122933608D01*
X78963698Y-122970500D01*
X79152802Y-122970500D01*
X79338272Y-122933608D01*
X79353250Y-122927404D01*
X79353250Y-123217500D01*
X79399835Y-123436487D01*
X79488247Y-123642178D01*
X79615089Y-123826669D01*
X79775486Y-123982869D01*
X79963274Y-124104776D01*
X80186376Y-124184619D01*
X80361250Y-124058454D01*
X80361250Y-122667500D01*
X80615250Y-122667500D01*
X80615250Y-124058454D01*
X80790124Y-124184619D01*
X81013226Y-124104776D01*
X81201014Y-123982869D01*
X81361411Y-123826669D01*
X81488253Y-123642178D01*
X81576665Y-123436487D01*
X81623250Y-123217500D01*
X81623250Y-122667500D01*
X80615250Y-122667500D01*
X80361250Y-122667500D01*
X80341250Y-122667500D01*
X80341250Y-122413500D01*
X80361250Y-122413500D01*
X80361250Y-121022546D01*
X80615250Y-121022546D01*
X80615250Y-122413500D01*
X81623250Y-122413500D01*
X81623250Y-121863500D01*
X81576665Y-121644513D01*
X81488253Y-121438822D01*
X81361411Y-121254331D01*
X81201014Y-121098131D01*
X81013226Y-120976224D01*
X80790124Y-120896381D01*
X80615250Y-121022546D01*
X80361250Y-121022546D01*
X80186376Y-120896381D01*
X79963274Y-120976224D01*
X79775486Y-121098131D01*
X79631134Y-121238706D01*
X79512981Y-121159759D01*
X79338272Y-121087392D01*
X79152802Y-121050500D01*
X78963698Y-121050500D01*
X78778228Y-121087392D01*
X78603519Y-121159759D01*
X78446286Y-121264819D01*
X78312569Y-121398536D01*
X78207509Y-121555769D01*
X78135142Y-121730478D01*
X78098250Y-121915948D01*
X74238250Y-121915948D01*
X74201358Y-121730478D01*
X74128991Y-121555769D01*
X74023931Y-121398536D01*
X73890214Y-121264819D01*
X73732981Y-121159759D01*
X73558272Y-121087392D01*
X73372802Y-121050500D01*
X73183698Y-121050500D01*
X72998228Y-121087392D01*
X72823519Y-121159759D01*
X72705366Y-121238706D01*
X72561014Y-121098131D01*
X72373226Y-120976224D01*
X72150124Y-120896381D01*
X71975250Y-121022546D01*
X71721250Y-121022546D01*
X71546376Y-120896381D01*
X71323274Y-120976224D01*
X71135486Y-121098131D01*
X70975089Y-121254331D01*
X70848247Y-121438822D01*
X70759835Y-121644513D01*
X70713250Y-121863500D01*
X67734994Y-121863500D01*
X67734994Y-121798061D01*
X67695220Y-121598102D01*
X67617199Y-121409744D01*
X67503931Y-121240226D01*
X67359768Y-121096063D01*
X67190250Y-120982795D01*
X67001892Y-120904774D01*
X66801933Y-120865000D01*
X66598055Y-120865000D01*
X66398096Y-120904774D01*
X66209738Y-120982795D01*
X66040220Y-121096063D01*
X65896057Y-121240226D01*
X65782789Y-121409744D01*
X65734079Y-121527340D01*
X65546681Y-121564615D01*
X65358323Y-121642636D01*
X65188805Y-121755904D01*
X65044642Y-121900067D01*
X64931374Y-122069585D01*
X64853353Y-122257943D01*
X64813579Y-122457902D01*
X64813579Y-122661780D01*
X64853353Y-122861739D01*
X64931374Y-123050097D01*
X65044642Y-123219615D01*
X65086579Y-123261552D01*
X65086580Y-134449707D01*
X64996061Y-134540226D01*
X64882793Y-134709744D01*
X64804772Y-134898102D01*
X64764998Y-135098061D01*
X59126250Y-135098061D01*
X59126250Y-135051721D01*
X59044203Y-134639244D01*
X58883262Y-134250698D01*
X58803751Y-134131701D01*
X58976503Y-134060144D01*
X59223819Y-133894893D01*
X59434143Y-133684569D01*
X59599394Y-133437253D01*
X59713221Y-133162451D01*
X59771250Y-132870722D01*
X59771250Y-132573278D01*
X59713221Y-132281549D01*
X59599394Y-132006747D01*
X59434143Y-131759431D01*
X59223819Y-131549107D01*
X58976503Y-131383856D01*
X58701701Y-131270029D01*
X58409972Y-131212000D01*
X58112528Y-131212000D01*
X57820799Y-131270029D01*
X57545997Y-131383856D01*
X57298681Y-131549107D01*
X57088357Y-131759431D01*
X56923106Y-132006747D01*
X56809279Y-132281549D01*
X56751250Y-132573278D01*
X56751250Y-132870722D01*
X56802227Y-133127000D01*
X56780971Y-133127000D01*
X56368494Y-133209047D01*
X55979948Y-133369988D01*
X55673542Y-133574721D01*
X55709123Y-133488822D01*
X55810150Y-132980924D01*
X55810150Y-132463076D01*
X55709123Y-131955178D01*
X55510951Y-131476749D01*
X55233825Y-131062000D01*
X59228262Y-131062000D01*
X59265685Y-131065686D01*
X59303108Y-131062000D01*
X59303111Y-131062000D01*
X59415063Y-131050974D01*
X59558700Y-131007402D01*
X59691077Y-130936645D01*
X59807107Y-130841422D01*
X59830969Y-130812346D01*
X64412352Y-126230964D01*
X64441422Y-126207107D01*
X64536645Y-126091077D01*
X64607402Y-125958700D01*
X64650974Y-125815063D01*
X64651228Y-125812483D01*
X64703937Y-125759774D01*
X64817205Y-125590256D01*
X64895226Y-125401898D01*
X64935000Y-125201939D01*
X64935000Y-124998061D01*
X64895226Y-124798102D01*
X64817205Y-124609744D01*
X64703937Y-124440226D01*
X64559774Y-124296063D01*
X64390256Y-124182795D01*
X64201898Y-124104774D01*
X64001939Y-124065000D01*
X63798061Y-124065000D01*
X63598102Y-124104774D01*
X63409744Y-124182795D01*
X63240226Y-124296063D01*
X63096063Y-124440226D01*
X62982795Y-124609744D01*
X62904774Y-124798102D01*
X62865000Y-124998061D01*
X62865000Y-125201939D01*
X62904774Y-125401898D01*
X62957900Y-125530154D01*
X58950055Y-129538000D01*
X49215631Y-129538000D01*
X48162000Y-128484370D01*
X48162000Y-127601711D01*
X48203937Y-127559774D01*
X48317205Y-127390256D01*
X48395226Y-127201898D01*
X48435000Y-127001939D01*
X48435000Y-126798061D01*
X48395226Y-126598102D01*
X48317205Y-126409744D01*
X48203937Y-126240226D01*
X48059774Y-126096063D01*
X47890256Y-125982795D01*
X47701898Y-125904774D01*
X47501939Y-125865000D01*
X47298061Y-125865000D01*
X47098102Y-125904774D01*
X46909744Y-125982795D01*
X46740226Y-126096063D01*
X46596063Y-126240226D01*
X46482795Y-126409744D01*
X46404774Y-126598102D01*
X46365000Y-126798061D01*
X41935000Y-126798061D01*
X41935000Y-118487500D01*
X70713250Y-118487500D01*
X70713250Y-118787500D01*
X70759835Y-119006487D01*
X70848247Y-119212178D01*
X70975089Y-119396669D01*
X71135486Y-119552869D01*
X71323274Y-119674776D01*
X71546376Y-119754619D01*
X71721250Y-119628454D01*
X71721250Y-118487500D01*
X71975250Y-118487500D01*
X71975250Y-119628454D01*
X72150124Y-119754619D01*
X72373226Y-119674776D01*
X72561014Y-119552869D01*
X72721411Y-119396669D01*
X72848253Y-119212178D01*
X72936665Y-119006487D01*
X72983250Y-118787500D01*
X72983250Y-118487500D01*
X79353250Y-118487500D01*
X79353250Y-118787500D01*
X79399835Y-119006487D01*
X79488247Y-119212178D01*
X79615089Y-119396669D01*
X79775486Y-119552869D01*
X79963274Y-119674776D01*
X80186376Y-119754619D01*
X80361250Y-119628454D01*
X80361250Y-118487500D01*
X80615250Y-118487500D01*
X80615250Y-119628454D01*
X80790124Y-119754619D01*
X81013226Y-119674776D01*
X81201014Y-119552869D01*
X81361411Y-119396669D01*
X81488253Y-119212178D01*
X81576665Y-119006487D01*
X81623250Y-118787500D01*
X81623250Y-118487500D01*
X80615250Y-118487500D01*
X80361250Y-118487500D01*
X79353250Y-118487500D01*
X72983250Y-118487500D01*
X71975250Y-118487500D01*
X71721250Y-118487500D01*
X70713250Y-118487500D01*
X41935000Y-118487500D01*
X41935000Y-118301029D01*
X41955769Y-118089212D01*
X42007910Y-117916513D01*
X42092602Y-117757232D01*
X42206619Y-117617431D01*
X42345617Y-117502442D01*
X42504305Y-117416640D01*
X42676635Y-117363295D01*
X42886380Y-117341250D01*
X70963457Y-117341250D01*
X70848247Y-117508822D01*
M02*
