G04 #@! TF.GenerationSoftware,KiCad,Pcbnew,(5.1.5)-3*
G04 #@! TF.CreationDate,2020-04-16T21:49:39-04:00*
G04 #@! TF.ProjectId,binarykb,62696e61-7279-46b6-922e-6b696361645f,rev?*
G04 #@! TF.SameCoordinates,Original*
G04 #@! TF.FileFunction,Copper,L2,Bot*
G04 #@! TF.FilePolarity,Positive*
%FSLAX46Y46*%
G04 Gerber Fmt 4.6, Leading zero omitted, Abs format (unit mm)*
G04 Created by KiCad (PCBNEW (5.1.5)-3) date 2020-04-16 21:49:39*
%MOMM*%
%LPD*%
G04 APERTURE LIST*
%ADD10R,1.900000X0.400000*%
%ADD11C,0.100000*%
%ADD12R,2.550000X2.500000*%
%ADD13R,0.600000X1.450000*%
%ADD14R,0.300000X1.450000*%
%ADD15O,1.000000X2.100000*%
%ADD16O,1.000000X1.600000*%
%ADD17R,1.100000X1.800000*%
%ADD18R,0.700000X1.000000*%
%ADD19R,0.700000X0.600000*%
%ADD20C,0.800000*%
%ADD21C,0.254000*%
%ADD22C,0.381000*%
%ADD23C,0.203200*%
G04 APERTURE END LIST*
D10*
X51973000Y-124573000D03*
X51973000Y-125773000D03*
X51973000Y-126973000D03*
G04 #@! TA.AperFunction,SMDPad,CuDef*
D11*
G36*
X71350691Y-125749053D02*
G01*
X71371926Y-125752203D01*
X71392750Y-125757419D01*
X71412962Y-125764651D01*
X71432368Y-125773830D01*
X71450781Y-125784866D01*
X71468024Y-125797654D01*
X71483930Y-125812070D01*
X71498346Y-125827976D01*
X71511134Y-125845219D01*
X71522170Y-125863632D01*
X71531349Y-125883038D01*
X71538581Y-125903250D01*
X71543797Y-125924074D01*
X71546947Y-125945309D01*
X71548000Y-125966750D01*
X71548000Y-126404250D01*
X71546947Y-126425691D01*
X71543797Y-126446926D01*
X71538581Y-126467750D01*
X71531349Y-126487962D01*
X71522170Y-126507368D01*
X71511134Y-126525781D01*
X71498346Y-126543024D01*
X71483930Y-126558930D01*
X71468024Y-126573346D01*
X71450781Y-126586134D01*
X71432368Y-126597170D01*
X71412962Y-126606349D01*
X71392750Y-126613581D01*
X71371926Y-126618797D01*
X71350691Y-126621947D01*
X71329250Y-126623000D01*
X70816750Y-126623000D01*
X70795309Y-126621947D01*
X70774074Y-126618797D01*
X70753250Y-126613581D01*
X70733038Y-126606349D01*
X70713632Y-126597170D01*
X70695219Y-126586134D01*
X70677976Y-126573346D01*
X70662070Y-126558930D01*
X70647654Y-126543024D01*
X70634866Y-126525781D01*
X70623830Y-126507368D01*
X70614651Y-126487962D01*
X70607419Y-126467750D01*
X70602203Y-126446926D01*
X70599053Y-126425691D01*
X70598000Y-126404250D01*
X70598000Y-125966750D01*
X70599053Y-125945309D01*
X70602203Y-125924074D01*
X70607419Y-125903250D01*
X70614651Y-125883038D01*
X70623830Y-125863632D01*
X70634866Y-125845219D01*
X70647654Y-125827976D01*
X70662070Y-125812070D01*
X70677976Y-125797654D01*
X70695219Y-125784866D01*
X70713632Y-125773830D01*
X70733038Y-125764651D01*
X70753250Y-125757419D01*
X70774074Y-125752203D01*
X70795309Y-125749053D01*
X70816750Y-125748000D01*
X71329250Y-125748000D01*
X71350691Y-125749053D01*
G37*
G04 #@! TD.AperFunction*
G04 #@! TA.AperFunction,SMDPad,CuDef*
G36*
X71350691Y-127324053D02*
G01*
X71371926Y-127327203D01*
X71392750Y-127332419D01*
X71412962Y-127339651D01*
X71432368Y-127348830D01*
X71450781Y-127359866D01*
X71468024Y-127372654D01*
X71483930Y-127387070D01*
X71498346Y-127402976D01*
X71511134Y-127420219D01*
X71522170Y-127438632D01*
X71531349Y-127458038D01*
X71538581Y-127478250D01*
X71543797Y-127499074D01*
X71546947Y-127520309D01*
X71548000Y-127541750D01*
X71548000Y-127979250D01*
X71546947Y-128000691D01*
X71543797Y-128021926D01*
X71538581Y-128042750D01*
X71531349Y-128062962D01*
X71522170Y-128082368D01*
X71511134Y-128100781D01*
X71498346Y-128118024D01*
X71483930Y-128133930D01*
X71468024Y-128148346D01*
X71450781Y-128161134D01*
X71432368Y-128172170D01*
X71412962Y-128181349D01*
X71392750Y-128188581D01*
X71371926Y-128193797D01*
X71350691Y-128196947D01*
X71329250Y-128198000D01*
X70816750Y-128198000D01*
X70795309Y-128196947D01*
X70774074Y-128193797D01*
X70753250Y-128188581D01*
X70733038Y-128181349D01*
X70713632Y-128172170D01*
X70695219Y-128161134D01*
X70677976Y-128148346D01*
X70662070Y-128133930D01*
X70647654Y-128118024D01*
X70634866Y-128100781D01*
X70623830Y-128082368D01*
X70614651Y-128062962D01*
X70607419Y-128042750D01*
X70602203Y-128021926D01*
X70599053Y-128000691D01*
X70598000Y-127979250D01*
X70598000Y-127541750D01*
X70599053Y-127520309D01*
X70602203Y-127499074D01*
X70607419Y-127478250D01*
X70614651Y-127458038D01*
X70623830Y-127438632D01*
X70634866Y-127420219D01*
X70647654Y-127402976D01*
X70662070Y-127387070D01*
X70677976Y-127372654D01*
X70695219Y-127359866D01*
X70713632Y-127348830D01*
X70733038Y-127339651D01*
X70753250Y-127332419D01*
X70774074Y-127327203D01*
X70795309Y-127324053D01*
X70816750Y-127323000D01*
X71329250Y-127323000D01*
X71350691Y-127324053D01*
G37*
G04 #@! TD.AperFunction*
G04 #@! TA.AperFunction,SMDPad,CuDef*
G36*
X78382691Y-125395053D02*
G01*
X78403926Y-125398203D01*
X78424750Y-125403419D01*
X78444962Y-125410651D01*
X78464368Y-125419830D01*
X78482781Y-125430866D01*
X78500024Y-125443654D01*
X78515930Y-125458070D01*
X78530346Y-125473976D01*
X78543134Y-125491219D01*
X78554170Y-125509632D01*
X78563349Y-125529038D01*
X78570581Y-125549250D01*
X78575797Y-125570074D01*
X78578947Y-125591309D01*
X78580000Y-125612750D01*
X78580000Y-126050250D01*
X78578947Y-126071691D01*
X78575797Y-126092926D01*
X78570581Y-126113750D01*
X78563349Y-126133962D01*
X78554170Y-126153368D01*
X78543134Y-126171781D01*
X78530346Y-126189024D01*
X78515930Y-126204930D01*
X78500024Y-126219346D01*
X78482781Y-126232134D01*
X78464368Y-126243170D01*
X78444962Y-126252349D01*
X78424750Y-126259581D01*
X78403926Y-126264797D01*
X78382691Y-126267947D01*
X78361250Y-126269000D01*
X77848750Y-126269000D01*
X77827309Y-126267947D01*
X77806074Y-126264797D01*
X77785250Y-126259581D01*
X77765038Y-126252349D01*
X77745632Y-126243170D01*
X77727219Y-126232134D01*
X77709976Y-126219346D01*
X77694070Y-126204930D01*
X77679654Y-126189024D01*
X77666866Y-126171781D01*
X77655830Y-126153368D01*
X77646651Y-126133962D01*
X77639419Y-126113750D01*
X77634203Y-126092926D01*
X77631053Y-126071691D01*
X77630000Y-126050250D01*
X77630000Y-125612750D01*
X77631053Y-125591309D01*
X77634203Y-125570074D01*
X77639419Y-125549250D01*
X77646651Y-125529038D01*
X77655830Y-125509632D01*
X77666866Y-125491219D01*
X77679654Y-125473976D01*
X77694070Y-125458070D01*
X77709976Y-125443654D01*
X77727219Y-125430866D01*
X77745632Y-125419830D01*
X77765038Y-125410651D01*
X77785250Y-125403419D01*
X77806074Y-125398203D01*
X77827309Y-125395053D01*
X77848750Y-125394000D01*
X78361250Y-125394000D01*
X78382691Y-125395053D01*
G37*
G04 #@! TD.AperFunction*
G04 #@! TA.AperFunction,SMDPad,CuDef*
G36*
X78382691Y-126970053D02*
G01*
X78403926Y-126973203D01*
X78424750Y-126978419D01*
X78444962Y-126985651D01*
X78464368Y-126994830D01*
X78482781Y-127005866D01*
X78500024Y-127018654D01*
X78515930Y-127033070D01*
X78530346Y-127048976D01*
X78543134Y-127066219D01*
X78554170Y-127084632D01*
X78563349Y-127104038D01*
X78570581Y-127124250D01*
X78575797Y-127145074D01*
X78578947Y-127166309D01*
X78580000Y-127187750D01*
X78580000Y-127625250D01*
X78578947Y-127646691D01*
X78575797Y-127667926D01*
X78570581Y-127688750D01*
X78563349Y-127708962D01*
X78554170Y-127728368D01*
X78543134Y-127746781D01*
X78530346Y-127764024D01*
X78515930Y-127779930D01*
X78500024Y-127794346D01*
X78482781Y-127807134D01*
X78464368Y-127818170D01*
X78444962Y-127827349D01*
X78424750Y-127834581D01*
X78403926Y-127839797D01*
X78382691Y-127842947D01*
X78361250Y-127844000D01*
X77848750Y-127844000D01*
X77827309Y-127842947D01*
X77806074Y-127839797D01*
X77785250Y-127834581D01*
X77765038Y-127827349D01*
X77745632Y-127818170D01*
X77727219Y-127807134D01*
X77709976Y-127794346D01*
X77694070Y-127779930D01*
X77679654Y-127764024D01*
X77666866Y-127746781D01*
X77655830Y-127728368D01*
X77646651Y-127708962D01*
X77639419Y-127688750D01*
X77634203Y-127667926D01*
X77631053Y-127646691D01*
X77630000Y-127625250D01*
X77630000Y-127187750D01*
X77631053Y-127166309D01*
X77634203Y-127145074D01*
X77639419Y-127124250D01*
X77646651Y-127104038D01*
X77655830Y-127084632D01*
X77666866Y-127066219D01*
X77679654Y-127048976D01*
X77694070Y-127033070D01*
X77709976Y-127018654D01*
X77727219Y-127005866D01*
X77745632Y-126994830D01*
X77765038Y-126985651D01*
X77785250Y-126978419D01*
X77806074Y-126973203D01*
X77827309Y-126970053D01*
X77848750Y-126969000D01*
X78361250Y-126969000D01*
X78382691Y-126970053D01*
G37*
G04 #@! TD.AperFunction*
G04 #@! TA.AperFunction,SMDPad,CuDef*
G36*
X61606691Y-117890053D02*
G01*
X61627926Y-117893203D01*
X61648750Y-117898419D01*
X61668962Y-117905651D01*
X61688368Y-117914830D01*
X61706781Y-117925866D01*
X61724024Y-117938654D01*
X61739930Y-117953070D01*
X61754346Y-117968976D01*
X61767134Y-117986219D01*
X61778170Y-118004632D01*
X61787349Y-118024038D01*
X61794581Y-118044250D01*
X61799797Y-118065074D01*
X61802947Y-118086309D01*
X61804000Y-118107750D01*
X61804000Y-118620250D01*
X61802947Y-118641691D01*
X61799797Y-118662926D01*
X61794581Y-118683750D01*
X61787349Y-118703962D01*
X61778170Y-118723368D01*
X61767134Y-118741781D01*
X61754346Y-118759024D01*
X61739930Y-118774930D01*
X61724024Y-118789346D01*
X61706781Y-118802134D01*
X61688368Y-118813170D01*
X61668962Y-118822349D01*
X61648750Y-118829581D01*
X61627926Y-118834797D01*
X61606691Y-118837947D01*
X61585250Y-118839000D01*
X61147750Y-118839000D01*
X61126309Y-118837947D01*
X61105074Y-118834797D01*
X61084250Y-118829581D01*
X61064038Y-118822349D01*
X61044632Y-118813170D01*
X61026219Y-118802134D01*
X61008976Y-118789346D01*
X60993070Y-118774930D01*
X60978654Y-118759024D01*
X60965866Y-118741781D01*
X60954830Y-118723368D01*
X60945651Y-118703962D01*
X60938419Y-118683750D01*
X60933203Y-118662926D01*
X60930053Y-118641691D01*
X60929000Y-118620250D01*
X60929000Y-118107750D01*
X60930053Y-118086309D01*
X60933203Y-118065074D01*
X60938419Y-118044250D01*
X60945651Y-118024038D01*
X60954830Y-118004632D01*
X60965866Y-117986219D01*
X60978654Y-117968976D01*
X60993070Y-117953070D01*
X61008976Y-117938654D01*
X61026219Y-117925866D01*
X61044632Y-117914830D01*
X61064038Y-117905651D01*
X61084250Y-117898419D01*
X61105074Y-117893203D01*
X61126309Y-117890053D01*
X61147750Y-117889000D01*
X61585250Y-117889000D01*
X61606691Y-117890053D01*
G37*
G04 #@! TD.AperFunction*
G04 #@! TA.AperFunction,SMDPad,CuDef*
G36*
X60031691Y-117890053D02*
G01*
X60052926Y-117893203D01*
X60073750Y-117898419D01*
X60093962Y-117905651D01*
X60113368Y-117914830D01*
X60131781Y-117925866D01*
X60149024Y-117938654D01*
X60164930Y-117953070D01*
X60179346Y-117968976D01*
X60192134Y-117986219D01*
X60203170Y-118004632D01*
X60212349Y-118024038D01*
X60219581Y-118044250D01*
X60224797Y-118065074D01*
X60227947Y-118086309D01*
X60229000Y-118107750D01*
X60229000Y-118620250D01*
X60227947Y-118641691D01*
X60224797Y-118662926D01*
X60219581Y-118683750D01*
X60212349Y-118703962D01*
X60203170Y-118723368D01*
X60192134Y-118741781D01*
X60179346Y-118759024D01*
X60164930Y-118774930D01*
X60149024Y-118789346D01*
X60131781Y-118802134D01*
X60113368Y-118813170D01*
X60093962Y-118822349D01*
X60073750Y-118829581D01*
X60052926Y-118834797D01*
X60031691Y-118837947D01*
X60010250Y-118839000D01*
X59572750Y-118839000D01*
X59551309Y-118837947D01*
X59530074Y-118834797D01*
X59509250Y-118829581D01*
X59489038Y-118822349D01*
X59469632Y-118813170D01*
X59451219Y-118802134D01*
X59433976Y-118789346D01*
X59418070Y-118774930D01*
X59403654Y-118759024D01*
X59390866Y-118741781D01*
X59379830Y-118723368D01*
X59370651Y-118703962D01*
X59363419Y-118683750D01*
X59358203Y-118662926D01*
X59355053Y-118641691D01*
X59354000Y-118620250D01*
X59354000Y-118107750D01*
X59355053Y-118086309D01*
X59358203Y-118065074D01*
X59363419Y-118044250D01*
X59370651Y-118024038D01*
X59379830Y-118004632D01*
X59390866Y-117986219D01*
X59403654Y-117968976D01*
X59418070Y-117953070D01*
X59433976Y-117938654D01*
X59451219Y-117925866D01*
X59469632Y-117914830D01*
X59489038Y-117905651D01*
X59509250Y-117898419D01*
X59530074Y-117893203D01*
X59551309Y-117890053D01*
X59572750Y-117889000D01*
X60010250Y-117889000D01*
X60031691Y-117890053D01*
G37*
G04 #@! TD.AperFunction*
G04 #@! TA.AperFunction,SMDPad,CuDef*
G36*
X63892691Y-127796053D02*
G01*
X63913926Y-127799203D01*
X63934750Y-127804419D01*
X63954962Y-127811651D01*
X63974368Y-127820830D01*
X63992781Y-127831866D01*
X64010024Y-127844654D01*
X64025930Y-127859070D01*
X64040346Y-127874976D01*
X64053134Y-127892219D01*
X64064170Y-127910632D01*
X64073349Y-127930038D01*
X64080581Y-127950250D01*
X64085797Y-127971074D01*
X64088947Y-127992309D01*
X64090000Y-128013750D01*
X64090000Y-128526250D01*
X64088947Y-128547691D01*
X64085797Y-128568926D01*
X64080581Y-128589750D01*
X64073349Y-128609962D01*
X64064170Y-128629368D01*
X64053134Y-128647781D01*
X64040346Y-128665024D01*
X64025930Y-128680930D01*
X64010024Y-128695346D01*
X63992781Y-128708134D01*
X63974368Y-128719170D01*
X63954962Y-128728349D01*
X63934750Y-128735581D01*
X63913926Y-128740797D01*
X63892691Y-128743947D01*
X63871250Y-128745000D01*
X63433750Y-128745000D01*
X63412309Y-128743947D01*
X63391074Y-128740797D01*
X63370250Y-128735581D01*
X63350038Y-128728349D01*
X63330632Y-128719170D01*
X63312219Y-128708134D01*
X63294976Y-128695346D01*
X63279070Y-128680930D01*
X63264654Y-128665024D01*
X63251866Y-128647781D01*
X63240830Y-128629368D01*
X63231651Y-128609962D01*
X63224419Y-128589750D01*
X63219203Y-128568926D01*
X63216053Y-128547691D01*
X63215000Y-128526250D01*
X63215000Y-128013750D01*
X63216053Y-127992309D01*
X63219203Y-127971074D01*
X63224419Y-127950250D01*
X63231651Y-127930038D01*
X63240830Y-127910632D01*
X63251866Y-127892219D01*
X63264654Y-127874976D01*
X63279070Y-127859070D01*
X63294976Y-127844654D01*
X63312219Y-127831866D01*
X63330632Y-127820830D01*
X63350038Y-127811651D01*
X63370250Y-127804419D01*
X63391074Y-127799203D01*
X63412309Y-127796053D01*
X63433750Y-127795000D01*
X63871250Y-127795000D01*
X63892691Y-127796053D01*
G37*
G04 #@! TD.AperFunction*
G04 #@! TA.AperFunction,SMDPad,CuDef*
G36*
X62317691Y-127796053D02*
G01*
X62338926Y-127799203D01*
X62359750Y-127804419D01*
X62379962Y-127811651D01*
X62399368Y-127820830D01*
X62417781Y-127831866D01*
X62435024Y-127844654D01*
X62450930Y-127859070D01*
X62465346Y-127874976D01*
X62478134Y-127892219D01*
X62489170Y-127910632D01*
X62498349Y-127930038D01*
X62505581Y-127950250D01*
X62510797Y-127971074D01*
X62513947Y-127992309D01*
X62515000Y-128013750D01*
X62515000Y-128526250D01*
X62513947Y-128547691D01*
X62510797Y-128568926D01*
X62505581Y-128589750D01*
X62498349Y-128609962D01*
X62489170Y-128629368D01*
X62478134Y-128647781D01*
X62465346Y-128665024D01*
X62450930Y-128680930D01*
X62435024Y-128695346D01*
X62417781Y-128708134D01*
X62399368Y-128719170D01*
X62379962Y-128728349D01*
X62359750Y-128735581D01*
X62338926Y-128740797D01*
X62317691Y-128743947D01*
X62296250Y-128745000D01*
X61858750Y-128745000D01*
X61837309Y-128743947D01*
X61816074Y-128740797D01*
X61795250Y-128735581D01*
X61775038Y-128728349D01*
X61755632Y-128719170D01*
X61737219Y-128708134D01*
X61719976Y-128695346D01*
X61704070Y-128680930D01*
X61689654Y-128665024D01*
X61676866Y-128647781D01*
X61665830Y-128629368D01*
X61656651Y-128609962D01*
X61649419Y-128589750D01*
X61644203Y-128568926D01*
X61641053Y-128547691D01*
X61640000Y-128526250D01*
X61640000Y-128013750D01*
X61641053Y-127992309D01*
X61644203Y-127971074D01*
X61649419Y-127950250D01*
X61656651Y-127930038D01*
X61665830Y-127910632D01*
X61676866Y-127892219D01*
X61689654Y-127874976D01*
X61704070Y-127859070D01*
X61719976Y-127844654D01*
X61737219Y-127831866D01*
X61755632Y-127820830D01*
X61775038Y-127811651D01*
X61795250Y-127804419D01*
X61816074Y-127799203D01*
X61837309Y-127796053D01*
X61858750Y-127795000D01*
X62296250Y-127795000D01*
X62317691Y-127796053D01*
G37*
G04 #@! TD.AperFunction*
G04 #@! TA.AperFunction,SMDPad,CuDef*
G36*
X63900691Y-129999053D02*
G01*
X63921926Y-130002203D01*
X63942750Y-130007419D01*
X63962962Y-130014651D01*
X63982368Y-130023830D01*
X64000781Y-130034866D01*
X64018024Y-130047654D01*
X64033930Y-130062070D01*
X64048346Y-130077976D01*
X64061134Y-130095219D01*
X64072170Y-130113632D01*
X64081349Y-130133038D01*
X64088581Y-130153250D01*
X64093797Y-130174074D01*
X64096947Y-130195309D01*
X64098000Y-130216750D01*
X64098000Y-130729250D01*
X64096947Y-130750691D01*
X64093797Y-130771926D01*
X64088581Y-130792750D01*
X64081349Y-130812962D01*
X64072170Y-130832368D01*
X64061134Y-130850781D01*
X64048346Y-130868024D01*
X64033930Y-130883930D01*
X64018024Y-130898346D01*
X64000781Y-130911134D01*
X63982368Y-130922170D01*
X63962962Y-130931349D01*
X63942750Y-130938581D01*
X63921926Y-130943797D01*
X63900691Y-130946947D01*
X63879250Y-130948000D01*
X63441750Y-130948000D01*
X63420309Y-130946947D01*
X63399074Y-130943797D01*
X63378250Y-130938581D01*
X63358038Y-130931349D01*
X63338632Y-130922170D01*
X63320219Y-130911134D01*
X63302976Y-130898346D01*
X63287070Y-130883930D01*
X63272654Y-130868024D01*
X63259866Y-130850781D01*
X63248830Y-130832368D01*
X63239651Y-130812962D01*
X63232419Y-130792750D01*
X63227203Y-130771926D01*
X63224053Y-130750691D01*
X63223000Y-130729250D01*
X63223000Y-130216750D01*
X63224053Y-130195309D01*
X63227203Y-130174074D01*
X63232419Y-130153250D01*
X63239651Y-130133038D01*
X63248830Y-130113632D01*
X63259866Y-130095219D01*
X63272654Y-130077976D01*
X63287070Y-130062070D01*
X63302976Y-130047654D01*
X63320219Y-130034866D01*
X63338632Y-130023830D01*
X63358038Y-130014651D01*
X63378250Y-130007419D01*
X63399074Y-130002203D01*
X63420309Y-129999053D01*
X63441750Y-129998000D01*
X63879250Y-129998000D01*
X63900691Y-129999053D01*
G37*
G04 #@! TD.AperFunction*
G04 #@! TA.AperFunction,SMDPad,CuDef*
G36*
X62325691Y-129999053D02*
G01*
X62346926Y-130002203D01*
X62367750Y-130007419D01*
X62387962Y-130014651D01*
X62407368Y-130023830D01*
X62425781Y-130034866D01*
X62443024Y-130047654D01*
X62458930Y-130062070D01*
X62473346Y-130077976D01*
X62486134Y-130095219D01*
X62497170Y-130113632D01*
X62506349Y-130133038D01*
X62513581Y-130153250D01*
X62518797Y-130174074D01*
X62521947Y-130195309D01*
X62523000Y-130216750D01*
X62523000Y-130729250D01*
X62521947Y-130750691D01*
X62518797Y-130771926D01*
X62513581Y-130792750D01*
X62506349Y-130812962D01*
X62497170Y-130832368D01*
X62486134Y-130850781D01*
X62473346Y-130868024D01*
X62458930Y-130883930D01*
X62443024Y-130898346D01*
X62425781Y-130911134D01*
X62407368Y-130922170D01*
X62387962Y-130931349D01*
X62367750Y-130938581D01*
X62346926Y-130943797D01*
X62325691Y-130946947D01*
X62304250Y-130948000D01*
X61866750Y-130948000D01*
X61845309Y-130946947D01*
X61824074Y-130943797D01*
X61803250Y-130938581D01*
X61783038Y-130931349D01*
X61763632Y-130922170D01*
X61745219Y-130911134D01*
X61727976Y-130898346D01*
X61712070Y-130883930D01*
X61697654Y-130868024D01*
X61684866Y-130850781D01*
X61673830Y-130832368D01*
X61664651Y-130812962D01*
X61657419Y-130792750D01*
X61652203Y-130771926D01*
X61649053Y-130750691D01*
X61648000Y-130729250D01*
X61648000Y-130216750D01*
X61649053Y-130195309D01*
X61652203Y-130174074D01*
X61657419Y-130153250D01*
X61664651Y-130133038D01*
X61673830Y-130113632D01*
X61684866Y-130095219D01*
X61697654Y-130077976D01*
X61712070Y-130062070D01*
X61727976Y-130047654D01*
X61745219Y-130034866D01*
X61763632Y-130023830D01*
X61783038Y-130014651D01*
X61803250Y-130007419D01*
X61824074Y-130002203D01*
X61845309Y-129999053D01*
X61866750Y-129998000D01*
X62304250Y-129998000D01*
X62325691Y-129999053D01*
G37*
G04 #@! TD.AperFunction*
G04 #@! TA.AperFunction,SMDPad,CuDef*
G36*
X68095691Y-121224053D02*
G01*
X68116926Y-121227203D01*
X68137750Y-121232419D01*
X68157962Y-121239651D01*
X68177368Y-121248830D01*
X68195781Y-121259866D01*
X68213024Y-121272654D01*
X68228930Y-121287070D01*
X68243346Y-121302976D01*
X68256134Y-121320219D01*
X68267170Y-121338632D01*
X68276349Y-121358038D01*
X68283581Y-121378250D01*
X68288797Y-121399074D01*
X68291947Y-121420309D01*
X68293000Y-121441750D01*
X68293000Y-121879250D01*
X68291947Y-121900691D01*
X68288797Y-121921926D01*
X68283581Y-121942750D01*
X68276349Y-121962962D01*
X68267170Y-121982368D01*
X68256134Y-122000781D01*
X68243346Y-122018024D01*
X68228930Y-122033930D01*
X68213024Y-122048346D01*
X68195781Y-122061134D01*
X68177368Y-122072170D01*
X68157962Y-122081349D01*
X68137750Y-122088581D01*
X68116926Y-122093797D01*
X68095691Y-122096947D01*
X68074250Y-122098000D01*
X67561750Y-122098000D01*
X67540309Y-122096947D01*
X67519074Y-122093797D01*
X67498250Y-122088581D01*
X67478038Y-122081349D01*
X67458632Y-122072170D01*
X67440219Y-122061134D01*
X67422976Y-122048346D01*
X67407070Y-122033930D01*
X67392654Y-122018024D01*
X67379866Y-122000781D01*
X67368830Y-121982368D01*
X67359651Y-121962962D01*
X67352419Y-121942750D01*
X67347203Y-121921926D01*
X67344053Y-121900691D01*
X67343000Y-121879250D01*
X67343000Y-121441750D01*
X67344053Y-121420309D01*
X67347203Y-121399074D01*
X67352419Y-121378250D01*
X67359651Y-121358038D01*
X67368830Y-121338632D01*
X67379866Y-121320219D01*
X67392654Y-121302976D01*
X67407070Y-121287070D01*
X67422976Y-121272654D01*
X67440219Y-121259866D01*
X67458632Y-121248830D01*
X67478038Y-121239651D01*
X67498250Y-121232419D01*
X67519074Y-121227203D01*
X67540309Y-121224053D01*
X67561750Y-121223000D01*
X68074250Y-121223000D01*
X68095691Y-121224053D01*
G37*
G04 #@! TD.AperFunction*
G04 #@! TA.AperFunction,SMDPad,CuDef*
G36*
X68095691Y-119649053D02*
G01*
X68116926Y-119652203D01*
X68137750Y-119657419D01*
X68157962Y-119664651D01*
X68177368Y-119673830D01*
X68195781Y-119684866D01*
X68213024Y-119697654D01*
X68228930Y-119712070D01*
X68243346Y-119727976D01*
X68256134Y-119745219D01*
X68267170Y-119763632D01*
X68276349Y-119783038D01*
X68283581Y-119803250D01*
X68288797Y-119824074D01*
X68291947Y-119845309D01*
X68293000Y-119866750D01*
X68293000Y-120304250D01*
X68291947Y-120325691D01*
X68288797Y-120346926D01*
X68283581Y-120367750D01*
X68276349Y-120387962D01*
X68267170Y-120407368D01*
X68256134Y-120425781D01*
X68243346Y-120443024D01*
X68228930Y-120458930D01*
X68213024Y-120473346D01*
X68195781Y-120486134D01*
X68177368Y-120497170D01*
X68157962Y-120506349D01*
X68137750Y-120513581D01*
X68116926Y-120518797D01*
X68095691Y-120521947D01*
X68074250Y-120523000D01*
X67561750Y-120523000D01*
X67540309Y-120521947D01*
X67519074Y-120518797D01*
X67498250Y-120513581D01*
X67478038Y-120506349D01*
X67458632Y-120497170D01*
X67440219Y-120486134D01*
X67422976Y-120473346D01*
X67407070Y-120458930D01*
X67392654Y-120443024D01*
X67379866Y-120425781D01*
X67368830Y-120407368D01*
X67359651Y-120387962D01*
X67352419Y-120367750D01*
X67347203Y-120346926D01*
X67344053Y-120325691D01*
X67343000Y-120304250D01*
X67343000Y-119866750D01*
X67344053Y-119845309D01*
X67347203Y-119824074D01*
X67352419Y-119803250D01*
X67359651Y-119783038D01*
X67368830Y-119763632D01*
X67379866Y-119745219D01*
X67392654Y-119727976D01*
X67407070Y-119712070D01*
X67422976Y-119697654D01*
X67440219Y-119684866D01*
X67458632Y-119673830D01*
X67478038Y-119664651D01*
X67498250Y-119657419D01*
X67519074Y-119652203D01*
X67540309Y-119649053D01*
X67561750Y-119648000D01*
X68074250Y-119648000D01*
X68095691Y-119649053D01*
G37*
G04 #@! TD.AperFunction*
G04 #@! TA.AperFunction,SMDPad,CuDef*
G36*
X59713691Y-129256053D02*
G01*
X59734926Y-129259203D01*
X59755750Y-129264419D01*
X59775962Y-129271651D01*
X59795368Y-129280830D01*
X59813781Y-129291866D01*
X59831024Y-129304654D01*
X59846930Y-129319070D01*
X59861346Y-129334976D01*
X59874134Y-129352219D01*
X59885170Y-129370632D01*
X59894349Y-129390038D01*
X59901581Y-129410250D01*
X59906797Y-129431074D01*
X59909947Y-129452309D01*
X59911000Y-129473750D01*
X59911000Y-129911250D01*
X59909947Y-129932691D01*
X59906797Y-129953926D01*
X59901581Y-129974750D01*
X59894349Y-129994962D01*
X59885170Y-130014368D01*
X59874134Y-130032781D01*
X59861346Y-130050024D01*
X59846930Y-130065930D01*
X59831024Y-130080346D01*
X59813781Y-130093134D01*
X59795368Y-130104170D01*
X59775962Y-130113349D01*
X59755750Y-130120581D01*
X59734926Y-130125797D01*
X59713691Y-130128947D01*
X59692250Y-130130000D01*
X59179750Y-130130000D01*
X59158309Y-130128947D01*
X59137074Y-130125797D01*
X59116250Y-130120581D01*
X59096038Y-130113349D01*
X59076632Y-130104170D01*
X59058219Y-130093134D01*
X59040976Y-130080346D01*
X59025070Y-130065930D01*
X59010654Y-130050024D01*
X58997866Y-130032781D01*
X58986830Y-130014368D01*
X58977651Y-129994962D01*
X58970419Y-129974750D01*
X58965203Y-129953926D01*
X58962053Y-129932691D01*
X58961000Y-129911250D01*
X58961000Y-129473750D01*
X58962053Y-129452309D01*
X58965203Y-129431074D01*
X58970419Y-129410250D01*
X58977651Y-129390038D01*
X58986830Y-129370632D01*
X58997866Y-129352219D01*
X59010654Y-129334976D01*
X59025070Y-129319070D01*
X59040976Y-129304654D01*
X59058219Y-129291866D01*
X59076632Y-129280830D01*
X59096038Y-129271651D01*
X59116250Y-129264419D01*
X59137074Y-129259203D01*
X59158309Y-129256053D01*
X59179750Y-129255000D01*
X59692250Y-129255000D01*
X59713691Y-129256053D01*
G37*
G04 #@! TD.AperFunction*
G04 #@! TA.AperFunction,SMDPad,CuDef*
G36*
X59713691Y-127681053D02*
G01*
X59734926Y-127684203D01*
X59755750Y-127689419D01*
X59775962Y-127696651D01*
X59795368Y-127705830D01*
X59813781Y-127716866D01*
X59831024Y-127729654D01*
X59846930Y-127744070D01*
X59861346Y-127759976D01*
X59874134Y-127777219D01*
X59885170Y-127795632D01*
X59894349Y-127815038D01*
X59901581Y-127835250D01*
X59906797Y-127856074D01*
X59909947Y-127877309D01*
X59911000Y-127898750D01*
X59911000Y-128336250D01*
X59909947Y-128357691D01*
X59906797Y-128378926D01*
X59901581Y-128399750D01*
X59894349Y-128419962D01*
X59885170Y-128439368D01*
X59874134Y-128457781D01*
X59861346Y-128475024D01*
X59846930Y-128490930D01*
X59831024Y-128505346D01*
X59813781Y-128518134D01*
X59795368Y-128529170D01*
X59775962Y-128538349D01*
X59755750Y-128545581D01*
X59734926Y-128550797D01*
X59713691Y-128553947D01*
X59692250Y-128555000D01*
X59179750Y-128555000D01*
X59158309Y-128553947D01*
X59137074Y-128550797D01*
X59116250Y-128545581D01*
X59096038Y-128538349D01*
X59076632Y-128529170D01*
X59058219Y-128518134D01*
X59040976Y-128505346D01*
X59025070Y-128490930D01*
X59010654Y-128475024D01*
X58997866Y-128457781D01*
X58986830Y-128439368D01*
X58977651Y-128419962D01*
X58970419Y-128399750D01*
X58965203Y-128378926D01*
X58962053Y-128357691D01*
X58961000Y-128336250D01*
X58961000Y-127898750D01*
X58962053Y-127877309D01*
X58965203Y-127856074D01*
X58970419Y-127835250D01*
X58977651Y-127815038D01*
X58986830Y-127795632D01*
X58997866Y-127777219D01*
X59010654Y-127759976D01*
X59025070Y-127744070D01*
X59040976Y-127729654D01*
X59058219Y-127716866D01*
X59076632Y-127705830D01*
X59096038Y-127696651D01*
X59116250Y-127689419D01*
X59137074Y-127684203D01*
X59158309Y-127681053D01*
X59179750Y-127680000D01*
X59692250Y-127680000D01*
X59713691Y-127681053D01*
G37*
G04 #@! TD.AperFunction*
G04 #@! TA.AperFunction,SMDPad,CuDef*
G36*
X57050691Y-129256053D02*
G01*
X57071926Y-129259203D01*
X57092750Y-129264419D01*
X57112962Y-129271651D01*
X57132368Y-129280830D01*
X57150781Y-129291866D01*
X57168024Y-129304654D01*
X57183930Y-129319070D01*
X57198346Y-129334976D01*
X57211134Y-129352219D01*
X57222170Y-129370632D01*
X57231349Y-129390038D01*
X57238581Y-129410250D01*
X57243797Y-129431074D01*
X57246947Y-129452309D01*
X57248000Y-129473750D01*
X57248000Y-129911250D01*
X57246947Y-129932691D01*
X57243797Y-129953926D01*
X57238581Y-129974750D01*
X57231349Y-129994962D01*
X57222170Y-130014368D01*
X57211134Y-130032781D01*
X57198346Y-130050024D01*
X57183930Y-130065930D01*
X57168024Y-130080346D01*
X57150781Y-130093134D01*
X57132368Y-130104170D01*
X57112962Y-130113349D01*
X57092750Y-130120581D01*
X57071926Y-130125797D01*
X57050691Y-130128947D01*
X57029250Y-130130000D01*
X56516750Y-130130000D01*
X56495309Y-130128947D01*
X56474074Y-130125797D01*
X56453250Y-130120581D01*
X56433038Y-130113349D01*
X56413632Y-130104170D01*
X56395219Y-130093134D01*
X56377976Y-130080346D01*
X56362070Y-130065930D01*
X56347654Y-130050024D01*
X56334866Y-130032781D01*
X56323830Y-130014368D01*
X56314651Y-129994962D01*
X56307419Y-129974750D01*
X56302203Y-129953926D01*
X56299053Y-129932691D01*
X56298000Y-129911250D01*
X56298000Y-129473750D01*
X56299053Y-129452309D01*
X56302203Y-129431074D01*
X56307419Y-129410250D01*
X56314651Y-129390038D01*
X56323830Y-129370632D01*
X56334866Y-129352219D01*
X56347654Y-129334976D01*
X56362070Y-129319070D01*
X56377976Y-129304654D01*
X56395219Y-129291866D01*
X56413632Y-129280830D01*
X56433038Y-129271651D01*
X56453250Y-129264419D01*
X56474074Y-129259203D01*
X56495309Y-129256053D01*
X56516750Y-129255000D01*
X57029250Y-129255000D01*
X57050691Y-129256053D01*
G37*
G04 #@! TD.AperFunction*
G04 #@! TA.AperFunction,SMDPad,CuDef*
G36*
X57050691Y-127681053D02*
G01*
X57071926Y-127684203D01*
X57092750Y-127689419D01*
X57112962Y-127696651D01*
X57132368Y-127705830D01*
X57150781Y-127716866D01*
X57168024Y-127729654D01*
X57183930Y-127744070D01*
X57198346Y-127759976D01*
X57211134Y-127777219D01*
X57222170Y-127795632D01*
X57231349Y-127815038D01*
X57238581Y-127835250D01*
X57243797Y-127856074D01*
X57246947Y-127877309D01*
X57248000Y-127898750D01*
X57248000Y-128336250D01*
X57246947Y-128357691D01*
X57243797Y-128378926D01*
X57238581Y-128399750D01*
X57231349Y-128419962D01*
X57222170Y-128439368D01*
X57211134Y-128457781D01*
X57198346Y-128475024D01*
X57183930Y-128490930D01*
X57168024Y-128505346D01*
X57150781Y-128518134D01*
X57132368Y-128529170D01*
X57112962Y-128538349D01*
X57092750Y-128545581D01*
X57071926Y-128550797D01*
X57050691Y-128553947D01*
X57029250Y-128555000D01*
X56516750Y-128555000D01*
X56495309Y-128553947D01*
X56474074Y-128550797D01*
X56453250Y-128545581D01*
X56433038Y-128538349D01*
X56413632Y-128529170D01*
X56395219Y-128518134D01*
X56377976Y-128505346D01*
X56362070Y-128490930D01*
X56347654Y-128475024D01*
X56334866Y-128457781D01*
X56323830Y-128439368D01*
X56314651Y-128419962D01*
X56307419Y-128399750D01*
X56302203Y-128378926D01*
X56299053Y-128357691D01*
X56298000Y-128336250D01*
X56298000Y-127898750D01*
X56299053Y-127877309D01*
X56302203Y-127856074D01*
X56307419Y-127835250D01*
X56314651Y-127815038D01*
X56323830Y-127795632D01*
X56334866Y-127777219D01*
X56347654Y-127759976D01*
X56362070Y-127744070D01*
X56377976Y-127729654D01*
X56395219Y-127716866D01*
X56413632Y-127705830D01*
X56433038Y-127696651D01*
X56453250Y-127689419D01*
X56474074Y-127684203D01*
X56495309Y-127681053D01*
X56516750Y-127680000D01*
X57029250Y-127680000D01*
X57050691Y-127681053D01*
G37*
G04 #@! TD.AperFunction*
G04 #@! TA.AperFunction,SMDPad,CuDef*
G36*
X56157691Y-123287053D02*
G01*
X56178926Y-123290203D01*
X56199750Y-123295419D01*
X56219962Y-123302651D01*
X56239368Y-123311830D01*
X56257781Y-123322866D01*
X56275024Y-123335654D01*
X56290930Y-123350070D01*
X56305346Y-123365976D01*
X56318134Y-123383219D01*
X56329170Y-123401632D01*
X56338349Y-123421038D01*
X56345581Y-123441250D01*
X56350797Y-123462074D01*
X56353947Y-123483309D01*
X56355000Y-123504750D01*
X56355000Y-123942250D01*
X56353947Y-123963691D01*
X56350797Y-123984926D01*
X56345581Y-124005750D01*
X56338349Y-124025962D01*
X56329170Y-124045368D01*
X56318134Y-124063781D01*
X56305346Y-124081024D01*
X56290930Y-124096930D01*
X56275024Y-124111346D01*
X56257781Y-124124134D01*
X56239368Y-124135170D01*
X56219962Y-124144349D01*
X56199750Y-124151581D01*
X56178926Y-124156797D01*
X56157691Y-124159947D01*
X56136250Y-124161000D01*
X55623750Y-124161000D01*
X55602309Y-124159947D01*
X55581074Y-124156797D01*
X55560250Y-124151581D01*
X55540038Y-124144349D01*
X55520632Y-124135170D01*
X55502219Y-124124134D01*
X55484976Y-124111346D01*
X55469070Y-124096930D01*
X55454654Y-124081024D01*
X55441866Y-124063781D01*
X55430830Y-124045368D01*
X55421651Y-124025962D01*
X55414419Y-124005750D01*
X55409203Y-123984926D01*
X55406053Y-123963691D01*
X55405000Y-123942250D01*
X55405000Y-123504750D01*
X55406053Y-123483309D01*
X55409203Y-123462074D01*
X55414419Y-123441250D01*
X55421651Y-123421038D01*
X55430830Y-123401632D01*
X55441866Y-123383219D01*
X55454654Y-123365976D01*
X55469070Y-123350070D01*
X55484976Y-123335654D01*
X55502219Y-123322866D01*
X55520632Y-123311830D01*
X55540038Y-123302651D01*
X55560250Y-123295419D01*
X55581074Y-123290203D01*
X55602309Y-123287053D01*
X55623750Y-123286000D01*
X56136250Y-123286000D01*
X56157691Y-123287053D01*
G37*
G04 #@! TD.AperFunction*
G04 #@! TA.AperFunction,SMDPad,CuDef*
G36*
X56157691Y-121712053D02*
G01*
X56178926Y-121715203D01*
X56199750Y-121720419D01*
X56219962Y-121727651D01*
X56239368Y-121736830D01*
X56257781Y-121747866D01*
X56275024Y-121760654D01*
X56290930Y-121775070D01*
X56305346Y-121790976D01*
X56318134Y-121808219D01*
X56329170Y-121826632D01*
X56338349Y-121846038D01*
X56345581Y-121866250D01*
X56350797Y-121887074D01*
X56353947Y-121908309D01*
X56355000Y-121929750D01*
X56355000Y-122367250D01*
X56353947Y-122388691D01*
X56350797Y-122409926D01*
X56345581Y-122430750D01*
X56338349Y-122450962D01*
X56329170Y-122470368D01*
X56318134Y-122488781D01*
X56305346Y-122506024D01*
X56290930Y-122521930D01*
X56275024Y-122536346D01*
X56257781Y-122549134D01*
X56239368Y-122560170D01*
X56219962Y-122569349D01*
X56199750Y-122576581D01*
X56178926Y-122581797D01*
X56157691Y-122584947D01*
X56136250Y-122586000D01*
X55623750Y-122586000D01*
X55602309Y-122584947D01*
X55581074Y-122581797D01*
X55560250Y-122576581D01*
X55540038Y-122569349D01*
X55520632Y-122560170D01*
X55502219Y-122549134D01*
X55484976Y-122536346D01*
X55469070Y-122521930D01*
X55454654Y-122506024D01*
X55441866Y-122488781D01*
X55430830Y-122470368D01*
X55421651Y-122450962D01*
X55414419Y-122430750D01*
X55409203Y-122409926D01*
X55406053Y-122388691D01*
X55405000Y-122367250D01*
X55405000Y-121929750D01*
X55406053Y-121908309D01*
X55409203Y-121887074D01*
X55414419Y-121866250D01*
X55421651Y-121846038D01*
X55430830Y-121826632D01*
X55441866Y-121808219D01*
X55454654Y-121790976D01*
X55469070Y-121775070D01*
X55484976Y-121760654D01*
X55502219Y-121747866D01*
X55520632Y-121736830D01*
X55540038Y-121727651D01*
X55560250Y-121720419D01*
X55581074Y-121715203D01*
X55602309Y-121712053D01*
X55623750Y-121711000D01*
X56136250Y-121711000D01*
X56157691Y-121712053D01*
G37*
G04 #@! TD.AperFunction*
G04 #@! TA.AperFunction,SMDPad,CuDef*
G36*
X65682691Y-123363053D02*
G01*
X65703926Y-123366203D01*
X65724750Y-123371419D01*
X65744962Y-123378651D01*
X65764368Y-123387830D01*
X65782781Y-123398866D01*
X65800024Y-123411654D01*
X65815930Y-123426070D01*
X65830346Y-123441976D01*
X65843134Y-123459219D01*
X65854170Y-123477632D01*
X65863349Y-123497038D01*
X65870581Y-123517250D01*
X65875797Y-123538074D01*
X65878947Y-123559309D01*
X65880000Y-123580750D01*
X65880000Y-124018250D01*
X65878947Y-124039691D01*
X65875797Y-124060926D01*
X65870581Y-124081750D01*
X65863349Y-124101962D01*
X65854170Y-124121368D01*
X65843134Y-124139781D01*
X65830346Y-124157024D01*
X65815930Y-124172930D01*
X65800024Y-124187346D01*
X65782781Y-124200134D01*
X65764368Y-124211170D01*
X65744962Y-124220349D01*
X65724750Y-124227581D01*
X65703926Y-124232797D01*
X65682691Y-124235947D01*
X65661250Y-124237000D01*
X65148750Y-124237000D01*
X65127309Y-124235947D01*
X65106074Y-124232797D01*
X65085250Y-124227581D01*
X65065038Y-124220349D01*
X65045632Y-124211170D01*
X65027219Y-124200134D01*
X65009976Y-124187346D01*
X64994070Y-124172930D01*
X64979654Y-124157024D01*
X64966866Y-124139781D01*
X64955830Y-124121368D01*
X64946651Y-124101962D01*
X64939419Y-124081750D01*
X64934203Y-124060926D01*
X64931053Y-124039691D01*
X64930000Y-124018250D01*
X64930000Y-123580750D01*
X64931053Y-123559309D01*
X64934203Y-123538074D01*
X64939419Y-123517250D01*
X64946651Y-123497038D01*
X64955830Y-123477632D01*
X64966866Y-123459219D01*
X64979654Y-123441976D01*
X64994070Y-123426070D01*
X65009976Y-123411654D01*
X65027219Y-123398866D01*
X65045632Y-123387830D01*
X65065038Y-123378651D01*
X65085250Y-123371419D01*
X65106074Y-123366203D01*
X65127309Y-123363053D01*
X65148750Y-123362000D01*
X65661250Y-123362000D01*
X65682691Y-123363053D01*
G37*
G04 #@! TD.AperFunction*
G04 #@! TA.AperFunction,SMDPad,CuDef*
G36*
X65682691Y-124938053D02*
G01*
X65703926Y-124941203D01*
X65724750Y-124946419D01*
X65744962Y-124953651D01*
X65764368Y-124962830D01*
X65782781Y-124973866D01*
X65800024Y-124986654D01*
X65815930Y-125001070D01*
X65830346Y-125016976D01*
X65843134Y-125034219D01*
X65854170Y-125052632D01*
X65863349Y-125072038D01*
X65870581Y-125092250D01*
X65875797Y-125113074D01*
X65878947Y-125134309D01*
X65880000Y-125155750D01*
X65880000Y-125593250D01*
X65878947Y-125614691D01*
X65875797Y-125635926D01*
X65870581Y-125656750D01*
X65863349Y-125676962D01*
X65854170Y-125696368D01*
X65843134Y-125714781D01*
X65830346Y-125732024D01*
X65815930Y-125747930D01*
X65800024Y-125762346D01*
X65782781Y-125775134D01*
X65764368Y-125786170D01*
X65744962Y-125795349D01*
X65724750Y-125802581D01*
X65703926Y-125807797D01*
X65682691Y-125810947D01*
X65661250Y-125812000D01*
X65148750Y-125812000D01*
X65127309Y-125810947D01*
X65106074Y-125807797D01*
X65085250Y-125802581D01*
X65065038Y-125795349D01*
X65045632Y-125786170D01*
X65027219Y-125775134D01*
X65009976Y-125762346D01*
X64994070Y-125747930D01*
X64979654Y-125732024D01*
X64966866Y-125714781D01*
X64955830Y-125696368D01*
X64946651Y-125676962D01*
X64939419Y-125656750D01*
X64934203Y-125635926D01*
X64931053Y-125614691D01*
X64930000Y-125593250D01*
X64930000Y-125155750D01*
X64931053Y-125134309D01*
X64934203Y-125113074D01*
X64939419Y-125092250D01*
X64946651Y-125072038D01*
X64955830Y-125052632D01*
X64966866Y-125034219D01*
X64979654Y-125016976D01*
X64994070Y-125001070D01*
X65009976Y-124986654D01*
X65027219Y-124973866D01*
X65045632Y-124962830D01*
X65065038Y-124953651D01*
X65085250Y-124946419D01*
X65106074Y-124941203D01*
X65127309Y-124938053D01*
X65148750Y-124937000D01*
X65661250Y-124937000D01*
X65682691Y-124938053D01*
G37*
G04 #@! TD.AperFunction*
D12*
X45720000Y-137668000D03*
X58647000Y-135128000D03*
X64770000Y-137668000D03*
X77697000Y-135128000D03*
D13*
X77869250Y-123328500D03*
X71419250Y-123328500D03*
X77094250Y-123328500D03*
X72194250Y-123328500D03*
D14*
X72894250Y-123328500D03*
X76394250Y-123328500D03*
X73394250Y-123328500D03*
X75894250Y-123328500D03*
X73894250Y-123328500D03*
X75394250Y-123328500D03*
X74894250Y-123328500D03*
X74394250Y-123328500D03*
D15*
X70324250Y-122413500D03*
X78964250Y-122413500D03*
D16*
X70324250Y-118233500D03*
X78964250Y-118233500D03*
D17*
X43523000Y-124973000D03*
X47223000Y-118773000D03*
X47223000Y-124973000D03*
X43523000Y-118773000D03*
D18*
X76311000Y-125742000D03*
D19*
X74311000Y-125542000D03*
X76311000Y-127442000D03*
X74311000Y-127442000D03*
G04 #@! TA.AperFunction,SMDPad,CuDef*
D11*
G36*
X59074126Y-124777551D02*
G01*
X59080193Y-124778451D01*
X59086143Y-124779941D01*
X59091918Y-124782008D01*
X59097462Y-124784630D01*
X59102723Y-124787783D01*
X59107650Y-124791437D01*
X59112194Y-124795556D01*
X59116313Y-124800100D01*
X59119967Y-124805027D01*
X59123120Y-124810288D01*
X59125742Y-124815832D01*
X59127809Y-124821607D01*
X59129299Y-124827557D01*
X59130199Y-124833624D01*
X59130500Y-124839750D01*
X59130500Y-125589750D01*
X59130199Y-125595876D01*
X59129299Y-125601943D01*
X59127809Y-125607893D01*
X59125742Y-125613668D01*
X59123120Y-125619212D01*
X59119967Y-125624473D01*
X59116313Y-125629400D01*
X59112194Y-125633944D01*
X59107650Y-125638063D01*
X59102723Y-125641717D01*
X59097462Y-125644870D01*
X59091918Y-125647492D01*
X59086143Y-125649559D01*
X59080193Y-125651049D01*
X59074126Y-125651949D01*
X59068000Y-125652250D01*
X58943000Y-125652250D01*
X58936874Y-125651949D01*
X58930807Y-125651049D01*
X58924857Y-125649559D01*
X58919082Y-125647492D01*
X58913538Y-125644870D01*
X58908277Y-125641717D01*
X58903350Y-125638063D01*
X58898806Y-125633944D01*
X58894687Y-125629400D01*
X58891033Y-125624473D01*
X58887880Y-125619212D01*
X58885258Y-125613668D01*
X58883191Y-125607893D01*
X58881701Y-125601943D01*
X58880801Y-125595876D01*
X58880500Y-125589750D01*
X58880500Y-124839750D01*
X58880801Y-124833624D01*
X58881701Y-124827557D01*
X58883191Y-124821607D01*
X58885258Y-124815832D01*
X58887880Y-124810288D01*
X58891033Y-124805027D01*
X58894687Y-124800100D01*
X58898806Y-124795556D01*
X58903350Y-124791437D01*
X58908277Y-124787783D01*
X58913538Y-124784630D01*
X58919082Y-124782008D01*
X58924857Y-124779941D01*
X58930807Y-124778451D01*
X58936874Y-124777551D01*
X58943000Y-124777250D01*
X59068000Y-124777250D01*
X59074126Y-124777551D01*
G37*
G04 #@! TD.AperFunction*
G04 #@! TA.AperFunction,SMDPad,CuDef*
G36*
X59574126Y-124777551D02*
G01*
X59580193Y-124778451D01*
X59586143Y-124779941D01*
X59591918Y-124782008D01*
X59597462Y-124784630D01*
X59602723Y-124787783D01*
X59607650Y-124791437D01*
X59612194Y-124795556D01*
X59616313Y-124800100D01*
X59619967Y-124805027D01*
X59623120Y-124810288D01*
X59625742Y-124815832D01*
X59627809Y-124821607D01*
X59629299Y-124827557D01*
X59630199Y-124833624D01*
X59630500Y-124839750D01*
X59630500Y-125589750D01*
X59630199Y-125595876D01*
X59629299Y-125601943D01*
X59627809Y-125607893D01*
X59625742Y-125613668D01*
X59623120Y-125619212D01*
X59619967Y-125624473D01*
X59616313Y-125629400D01*
X59612194Y-125633944D01*
X59607650Y-125638063D01*
X59602723Y-125641717D01*
X59597462Y-125644870D01*
X59591918Y-125647492D01*
X59586143Y-125649559D01*
X59580193Y-125651049D01*
X59574126Y-125651949D01*
X59568000Y-125652250D01*
X59443000Y-125652250D01*
X59436874Y-125651949D01*
X59430807Y-125651049D01*
X59424857Y-125649559D01*
X59419082Y-125647492D01*
X59413538Y-125644870D01*
X59408277Y-125641717D01*
X59403350Y-125638063D01*
X59398806Y-125633944D01*
X59394687Y-125629400D01*
X59391033Y-125624473D01*
X59387880Y-125619212D01*
X59385258Y-125613668D01*
X59383191Y-125607893D01*
X59381701Y-125601943D01*
X59380801Y-125595876D01*
X59380500Y-125589750D01*
X59380500Y-124839750D01*
X59380801Y-124833624D01*
X59381701Y-124827557D01*
X59383191Y-124821607D01*
X59385258Y-124815832D01*
X59387880Y-124810288D01*
X59391033Y-124805027D01*
X59394687Y-124800100D01*
X59398806Y-124795556D01*
X59403350Y-124791437D01*
X59408277Y-124787783D01*
X59413538Y-124784630D01*
X59419082Y-124782008D01*
X59424857Y-124779941D01*
X59430807Y-124778451D01*
X59436874Y-124777551D01*
X59443000Y-124777250D01*
X59568000Y-124777250D01*
X59574126Y-124777551D01*
G37*
G04 #@! TD.AperFunction*
G04 #@! TA.AperFunction,SMDPad,CuDef*
G36*
X60074126Y-124777551D02*
G01*
X60080193Y-124778451D01*
X60086143Y-124779941D01*
X60091918Y-124782008D01*
X60097462Y-124784630D01*
X60102723Y-124787783D01*
X60107650Y-124791437D01*
X60112194Y-124795556D01*
X60116313Y-124800100D01*
X60119967Y-124805027D01*
X60123120Y-124810288D01*
X60125742Y-124815832D01*
X60127809Y-124821607D01*
X60129299Y-124827557D01*
X60130199Y-124833624D01*
X60130500Y-124839750D01*
X60130500Y-125589750D01*
X60130199Y-125595876D01*
X60129299Y-125601943D01*
X60127809Y-125607893D01*
X60125742Y-125613668D01*
X60123120Y-125619212D01*
X60119967Y-125624473D01*
X60116313Y-125629400D01*
X60112194Y-125633944D01*
X60107650Y-125638063D01*
X60102723Y-125641717D01*
X60097462Y-125644870D01*
X60091918Y-125647492D01*
X60086143Y-125649559D01*
X60080193Y-125651049D01*
X60074126Y-125651949D01*
X60068000Y-125652250D01*
X59943000Y-125652250D01*
X59936874Y-125651949D01*
X59930807Y-125651049D01*
X59924857Y-125649559D01*
X59919082Y-125647492D01*
X59913538Y-125644870D01*
X59908277Y-125641717D01*
X59903350Y-125638063D01*
X59898806Y-125633944D01*
X59894687Y-125629400D01*
X59891033Y-125624473D01*
X59887880Y-125619212D01*
X59885258Y-125613668D01*
X59883191Y-125607893D01*
X59881701Y-125601943D01*
X59880801Y-125595876D01*
X59880500Y-125589750D01*
X59880500Y-124839750D01*
X59880801Y-124833624D01*
X59881701Y-124827557D01*
X59883191Y-124821607D01*
X59885258Y-124815832D01*
X59887880Y-124810288D01*
X59891033Y-124805027D01*
X59894687Y-124800100D01*
X59898806Y-124795556D01*
X59903350Y-124791437D01*
X59908277Y-124787783D01*
X59913538Y-124784630D01*
X59919082Y-124782008D01*
X59924857Y-124779941D01*
X59930807Y-124778451D01*
X59936874Y-124777551D01*
X59943000Y-124777250D01*
X60068000Y-124777250D01*
X60074126Y-124777551D01*
G37*
G04 #@! TD.AperFunction*
G04 #@! TA.AperFunction,SMDPad,CuDef*
G36*
X60574126Y-124777551D02*
G01*
X60580193Y-124778451D01*
X60586143Y-124779941D01*
X60591918Y-124782008D01*
X60597462Y-124784630D01*
X60602723Y-124787783D01*
X60607650Y-124791437D01*
X60612194Y-124795556D01*
X60616313Y-124800100D01*
X60619967Y-124805027D01*
X60623120Y-124810288D01*
X60625742Y-124815832D01*
X60627809Y-124821607D01*
X60629299Y-124827557D01*
X60630199Y-124833624D01*
X60630500Y-124839750D01*
X60630500Y-125589750D01*
X60630199Y-125595876D01*
X60629299Y-125601943D01*
X60627809Y-125607893D01*
X60625742Y-125613668D01*
X60623120Y-125619212D01*
X60619967Y-125624473D01*
X60616313Y-125629400D01*
X60612194Y-125633944D01*
X60607650Y-125638063D01*
X60602723Y-125641717D01*
X60597462Y-125644870D01*
X60591918Y-125647492D01*
X60586143Y-125649559D01*
X60580193Y-125651049D01*
X60574126Y-125651949D01*
X60568000Y-125652250D01*
X60443000Y-125652250D01*
X60436874Y-125651949D01*
X60430807Y-125651049D01*
X60424857Y-125649559D01*
X60419082Y-125647492D01*
X60413538Y-125644870D01*
X60408277Y-125641717D01*
X60403350Y-125638063D01*
X60398806Y-125633944D01*
X60394687Y-125629400D01*
X60391033Y-125624473D01*
X60387880Y-125619212D01*
X60385258Y-125613668D01*
X60383191Y-125607893D01*
X60381701Y-125601943D01*
X60380801Y-125595876D01*
X60380500Y-125589750D01*
X60380500Y-124839750D01*
X60380801Y-124833624D01*
X60381701Y-124827557D01*
X60383191Y-124821607D01*
X60385258Y-124815832D01*
X60387880Y-124810288D01*
X60391033Y-124805027D01*
X60394687Y-124800100D01*
X60398806Y-124795556D01*
X60403350Y-124791437D01*
X60408277Y-124787783D01*
X60413538Y-124784630D01*
X60419082Y-124782008D01*
X60424857Y-124779941D01*
X60430807Y-124778451D01*
X60436874Y-124777551D01*
X60443000Y-124777250D01*
X60568000Y-124777250D01*
X60574126Y-124777551D01*
G37*
G04 #@! TD.AperFunction*
G04 #@! TA.AperFunction,SMDPad,CuDef*
G36*
X61074126Y-124777551D02*
G01*
X61080193Y-124778451D01*
X61086143Y-124779941D01*
X61091918Y-124782008D01*
X61097462Y-124784630D01*
X61102723Y-124787783D01*
X61107650Y-124791437D01*
X61112194Y-124795556D01*
X61116313Y-124800100D01*
X61119967Y-124805027D01*
X61123120Y-124810288D01*
X61125742Y-124815832D01*
X61127809Y-124821607D01*
X61129299Y-124827557D01*
X61130199Y-124833624D01*
X61130500Y-124839750D01*
X61130500Y-125589750D01*
X61130199Y-125595876D01*
X61129299Y-125601943D01*
X61127809Y-125607893D01*
X61125742Y-125613668D01*
X61123120Y-125619212D01*
X61119967Y-125624473D01*
X61116313Y-125629400D01*
X61112194Y-125633944D01*
X61107650Y-125638063D01*
X61102723Y-125641717D01*
X61097462Y-125644870D01*
X61091918Y-125647492D01*
X61086143Y-125649559D01*
X61080193Y-125651049D01*
X61074126Y-125651949D01*
X61068000Y-125652250D01*
X60943000Y-125652250D01*
X60936874Y-125651949D01*
X60930807Y-125651049D01*
X60924857Y-125649559D01*
X60919082Y-125647492D01*
X60913538Y-125644870D01*
X60908277Y-125641717D01*
X60903350Y-125638063D01*
X60898806Y-125633944D01*
X60894687Y-125629400D01*
X60891033Y-125624473D01*
X60887880Y-125619212D01*
X60885258Y-125613668D01*
X60883191Y-125607893D01*
X60881701Y-125601943D01*
X60880801Y-125595876D01*
X60880500Y-125589750D01*
X60880500Y-124839750D01*
X60880801Y-124833624D01*
X60881701Y-124827557D01*
X60883191Y-124821607D01*
X60885258Y-124815832D01*
X60887880Y-124810288D01*
X60891033Y-124805027D01*
X60894687Y-124800100D01*
X60898806Y-124795556D01*
X60903350Y-124791437D01*
X60908277Y-124787783D01*
X60913538Y-124784630D01*
X60919082Y-124782008D01*
X60924857Y-124779941D01*
X60930807Y-124778451D01*
X60936874Y-124777551D01*
X60943000Y-124777250D01*
X61068000Y-124777250D01*
X61074126Y-124777551D01*
G37*
G04 #@! TD.AperFunction*
G04 #@! TA.AperFunction,SMDPad,CuDef*
G36*
X61574126Y-124777551D02*
G01*
X61580193Y-124778451D01*
X61586143Y-124779941D01*
X61591918Y-124782008D01*
X61597462Y-124784630D01*
X61602723Y-124787783D01*
X61607650Y-124791437D01*
X61612194Y-124795556D01*
X61616313Y-124800100D01*
X61619967Y-124805027D01*
X61623120Y-124810288D01*
X61625742Y-124815832D01*
X61627809Y-124821607D01*
X61629299Y-124827557D01*
X61630199Y-124833624D01*
X61630500Y-124839750D01*
X61630500Y-125589750D01*
X61630199Y-125595876D01*
X61629299Y-125601943D01*
X61627809Y-125607893D01*
X61625742Y-125613668D01*
X61623120Y-125619212D01*
X61619967Y-125624473D01*
X61616313Y-125629400D01*
X61612194Y-125633944D01*
X61607650Y-125638063D01*
X61602723Y-125641717D01*
X61597462Y-125644870D01*
X61591918Y-125647492D01*
X61586143Y-125649559D01*
X61580193Y-125651049D01*
X61574126Y-125651949D01*
X61568000Y-125652250D01*
X61443000Y-125652250D01*
X61436874Y-125651949D01*
X61430807Y-125651049D01*
X61424857Y-125649559D01*
X61419082Y-125647492D01*
X61413538Y-125644870D01*
X61408277Y-125641717D01*
X61403350Y-125638063D01*
X61398806Y-125633944D01*
X61394687Y-125629400D01*
X61391033Y-125624473D01*
X61387880Y-125619212D01*
X61385258Y-125613668D01*
X61383191Y-125607893D01*
X61381701Y-125601943D01*
X61380801Y-125595876D01*
X61380500Y-125589750D01*
X61380500Y-124839750D01*
X61380801Y-124833624D01*
X61381701Y-124827557D01*
X61383191Y-124821607D01*
X61385258Y-124815832D01*
X61387880Y-124810288D01*
X61391033Y-124805027D01*
X61394687Y-124800100D01*
X61398806Y-124795556D01*
X61403350Y-124791437D01*
X61408277Y-124787783D01*
X61413538Y-124784630D01*
X61419082Y-124782008D01*
X61424857Y-124779941D01*
X61430807Y-124778451D01*
X61436874Y-124777551D01*
X61443000Y-124777250D01*
X61568000Y-124777250D01*
X61574126Y-124777551D01*
G37*
G04 #@! TD.AperFunction*
G04 #@! TA.AperFunction,SMDPad,CuDef*
G36*
X62074126Y-124777551D02*
G01*
X62080193Y-124778451D01*
X62086143Y-124779941D01*
X62091918Y-124782008D01*
X62097462Y-124784630D01*
X62102723Y-124787783D01*
X62107650Y-124791437D01*
X62112194Y-124795556D01*
X62116313Y-124800100D01*
X62119967Y-124805027D01*
X62123120Y-124810288D01*
X62125742Y-124815832D01*
X62127809Y-124821607D01*
X62129299Y-124827557D01*
X62130199Y-124833624D01*
X62130500Y-124839750D01*
X62130500Y-125589750D01*
X62130199Y-125595876D01*
X62129299Y-125601943D01*
X62127809Y-125607893D01*
X62125742Y-125613668D01*
X62123120Y-125619212D01*
X62119967Y-125624473D01*
X62116313Y-125629400D01*
X62112194Y-125633944D01*
X62107650Y-125638063D01*
X62102723Y-125641717D01*
X62097462Y-125644870D01*
X62091918Y-125647492D01*
X62086143Y-125649559D01*
X62080193Y-125651049D01*
X62074126Y-125651949D01*
X62068000Y-125652250D01*
X61943000Y-125652250D01*
X61936874Y-125651949D01*
X61930807Y-125651049D01*
X61924857Y-125649559D01*
X61919082Y-125647492D01*
X61913538Y-125644870D01*
X61908277Y-125641717D01*
X61903350Y-125638063D01*
X61898806Y-125633944D01*
X61894687Y-125629400D01*
X61891033Y-125624473D01*
X61887880Y-125619212D01*
X61885258Y-125613668D01*
X61883191Y-125607893D01*
X61881701Y-125601943D01*
X61880801Y-125595876D01*
X61880500Y-125589750D01*
X61880500Y-124839750D01*
X61880801Y-124833624D01*
X61881701Y-124827557D01*
X61883191Y-124821607D01*
X61885258Y-124815832D01*
X61887880Y-124810288D01*
X61891033Y-124805027D01*
X61894687Y-124800100D01*
X61898806Y-124795556D01*
X61903350Y-124791437D01*
X61908277Y-124787783D01*
X61913538Y-124784630D01*
X61919082Y-124782008D01*
X61924857Y-124779941D01*
X61930807Y-124778451D01*
X61936874Y-124777551D01*
X61943000Y-124777250D01*
X62068000Y-124777250D01*
X62074126Y-124777551D01*
G37*
G04 #@! TD.AperFunction*
G04 #@! TA.AperFunction,SMDPad,CuDef*
G36*
X62574126Y-124777551D02*
G01*
X62580193Y-124778451D01*
X62586143Y-124779941D01*
X62591918Y-124782008D01*
X62597462Y-124784630D01*
X62602723Y-124787783D01*
X62607650Y-124791437D01*
X62612194Y-124795556D01*
X62616313Y-124800100D01*
X62619967Y-124805027D01*
X62623120Y-124810288D01*
X62625742Y-124815832D01*
X62627809Y-124821607D01*
X62629299Y-124827557D01*
X62630199Y-124833624D01*
X62630500Y-124839750D01*
X62630500Y-125589750D01*
X62630199Y-125595876D01*
X62629299Y-125601943D01*
X62627809Y-125607893D01*
X62625742Y-125613668D01*
X62623120Y-125619212D01*
X62619967Y-125624473D01*
X62616313Y-125629400D01*
X62612194Y-125633944D01*
X62607650Y-125638063D01*
X62602723Y-125641717D01*
X62597462Y-125644870D01*
X62591918Y-125647492D01*
X62586143Y-125649559D01*
X62580193Y-125651049D01*
X62574126Y-125651949D01*
X62568000Y-125652250D01*
X62443000Y-125652250D01*
X62436874Y-125651949D01*
X62430807Y-125651049D01*
X62424857Y-125649559D01*
X62419082Y-125647492D01*
X62413538Y-125644870D01*
X62408277Y-125641717D01*
X62403350Y-125638063D01*
X62398806Y-125633944D01*
X62394687Y-125629400D01*
X62391033Y-125624473D01*
X62387880Y-125619212D01*
X62385258Y-125613668D01*
X62383191Y-125607893D01*
X62381701Y-125601943D01*
X62380801Y-125595876D01*
X62380500Y-125589750D01*
X62380500Y-124839750D01*
X62380801Y-124833624D01*
X62381701Y-124827557D01*
X62383191Y-124821607D01*
X62385258Y-124815832D01*
X62387880Y-124810288D01*
X62391033Y-124805027D01*
X62394687Y-124800100D01*
X62398806Y-124795556D01*
X62403350Y-124791437D01*
X62408277Y-124787783D01*
X62413538Y-124784630D01*
X62419082Y-124782008D01*
X62424857Y-124779941D01*
X62430807Y-124778451D01*
X62436874Y-124777551D01*
X62443000Y-124777250D01*
X62568000Y-124777250D01*
X62574126Y-124777551D01*
G37*
G04 #@! TD.AperFunction*
G04 #@! TA.AperFunction,SMDPad,CuDef*
G36*
X63574126Y-124402551D02*
G01*
X63580193Y-124403451D01*
X63586143Y-124404941D01*
X63591918Y-124407008D01*
X63597462Y-124409630D01*
X63602723Y-124412783D01*
X63607650Y-124416437D01*
X63612194Y-124420556D01*
X63616313Y-124425100D01*
X63619967Y-124430027D01*
X63623120Y-124435288D01*
X63625742Y-124440832D01*
X63627809Y-124446607D01*
X63629299Y-124452557D01*
X63630199Y-124458624D01*
X63630500Y-124464750D01*
X63630500Y-124589750D01*
X63630199Y-124595876D01*
X63629299Y-124601943D01*
X63627809Y-124607893D01*
X63625742Y-124613668D01*
X63623120Y-124619212D01*
X63619967Y-124624473D01*
X63616313Y-124629400D01*
X63612194Y-124633944D01*
X63607650Y-124638063D01*
X63602723Y-124641717D01*
X63597462Y-124644870D01*
X63591918Y-124647492D01*
X63586143Y-124649559D01*
X63580193Y-124651049D01*
X63574126Y-124651949D01*
X63568000Y-124652250D01*
X62818000Y-124652250D01*
X62811874Y-124651949D01*
X62805807Y-124651049D01*
X62799857Y-124649559D01*
X62794082Y-124647492D01*
X62788538Y-124644870D01*
X62783277Y-124641717D01*
X62778350Y-124638063D01*
X62773806Y-124633944D01*
X62769687Y-124629400D01*
X62766033Y-124624473D01*
X62762880Y-124619212D01*
X62760258Y-124613668D01*
X62758191Y-124607893D01*
X62756701Y-124601943D01*
X62755801Y-124595876D01*
X62755500Y-124589750D01*
X62755500Y-124464750D01*
X62755801Y-124458624D01*
X62756701Y-124452557D01*
X62758191Y-124446607D01*
X62760258Y-124440832D01*
X62762880Y-124435288D01*
X62766033Y-124430027D01*
X62769687Y-124425100D01*
X62773806Y-124420556D01*
X62778350Y-124416437D01*
X62783277Y-124412783D01*
X62788538Y-124409630D01*
X62794082Y-124407008D01*
X62799857Y-124404941D01*
X62805807Y-124403451D01*
X62811874Y-124402551D01*
X62818000Y-124402250D01*
X63568000Y-124402250D01*
X63574126Y-124402551D01*
G37*
G04 #@! TD.AperFunction*
G04 #@! TA.AperFunction,SMDPad,CuDef*
G36*
X63574126Y-123902551D02*
G01*
X63580193Y-123903451D01*
X63586143Y-123904941D01*
X63591918Y-123907008D01*
X63597462Y-123909630D01*
X63602723Y-123912783D01*
X63607650Y-123916437D01*
X63612194Y-123920556D01*
X63616313Y-123925100D01*
X63619967Y-123930027D01*
X63623120Y-123935288D01*
X63625742Y-123940832D01*
X63627809Y-123946607D01*
X63629299Y-123952557D01*
X63630199Y-123958624D01*
X63630500Y-123964750D01*
X63630500Y-124089750D01*
X63630199Y-124095876D01*
X63629299Y-124101943D01*
X63627809Y-124107893D01*
X63625742Y-124113668D01*
X63623120Y-124119212D01*
X63619967Y-124124473D01*
X63616313Y-124129400D01*
X63612194Y-124133944D01*
X63607650Y-124138063D01*
X63602723Y-124141717D01*
X63597462Y-124144870D01*
X63591918Y-124147492D01*
X63586143Y-124149559D01*
X63580193Y-124151049D01*
X63574126Y-124151949D01*
X63568000Y-124152250D01*
X62818000Y-124152250D01*
X62811874Y-124151949D01*
X62805807Y-124151049D01*
X62799857Y-124149559D01*
X62794082Y-124147492D01*
X62788538Y-124144870D01*
X62783277Y-124141717D01*
X62778350Y-124138063D01*
X62773806Y-124133944D01*
X62769687Y-124129400D01*
X62766033Y-124124473D01*
X62762880Y-124119212D01*
X62760258Y-124113668D01*
X62758191Y-124107893D01*
X62756701Y-124101943D01*
X62755801Y-124095876D01*
X62755500Y-124089750D01*
X62755500Y-123964750D01*
X62755801Y-123958624D01*
X62756701Y-123952557D01*
X62758191Y-123946607D01*
X62760258Y-123940832D01*
X62762880Y-123935288D01*
X62766033Y-123930027D01*
X62769687Y-123925100D01*
X62773806Y-123920556D01*
X62778350Y-123916437D01*
X62783277Y-123912783D01*
X62788538Y-123909630D01*
X62794082Y-123907008D01*
X62799857Y-123904941D01*
X62805807Y-123903451D01*
X62811874Y-123902551D01*
X62818000Y-123902250D01*
X63568000Y-123902250D01*
X63574126Y-123902551D01*
G37*
G04 #@! TD.AperFunction*
G04 #@! TA.AperFunction,SMDPad,CuDef*
G36*
X63574126Y-123402551D02*
G01*
X63580193Y-123403451D01*
X63586143Y-123404941D01*
X63591918Y-123407008D01*
X63597462Y-123409630D01*
X63602723Y-123412783D01*
X63607650Y-123416437D01*
X63612194Y-123420556D01*
X63616313Y-123425100D01*
X63619967Y-123430027D01*
X63623120Y-123435288D01*
X63625742Y-123440832D01*
X63627809Y-123446607D01*
X63629299Y-123452557D01*
X63630199Y-123458624D01*
X63630500Y-123464750D01*
X63630500Y-123589750D01*
X63630199Y-123595876D01*
X63629299Y-123601943D01*
X63627809Y-123607893D01*
X63625742Y-123613668D01*
X63623120Y-123619212D01*
X63619967Y-123624473D01*
X63616313Y-123629400D01*
X63612194Y-123633944D01*
X63607650Y-123638063D01*
X63602723Y-123641717D01*
X63597462Y-123644870D01*
X63591918Y-123647492D01*
X63586143Y-123649559D01*
X63580193Y-123651049D01*
X63574126Y-123651949D01*
X63568000Y-123652250D01*
X62818000Y-123652250D01*
X62811874Y-123651949D01*
X62805807Y-123651049D01*
X62799857Y-123649559D01*
X62794082Y-123647492D01*
X62788538Y-123644870D01*
X62783277Y-123641717D01*
X62778350Y-123638063D01*
X62773806Y-123633944D01*
X62769687Y-123629400D01*
X62766033Y-123624473D01*
X62762880Y-123619212D01*
X62760258Y-123613668D01*
X62758191Y-123607893D01*
X62756701Y-123601943D01*
X62755801Y-123595876D01*
X62755500Y-123589750D01*
X62755500Y-123464750D01*
X62755801Y-123458624D01*
X62756701Y-123452557D01*
X62758191Y-123446607D01*
X62760258Y-123440832D01*
X62762880Y-123435288D01*
X62766033Y-123430027D01*
X62769687Y-123425100D01*
X62773806Y-123420556D01*
X62778350Y-123416437D01*
X62783277Y-123412783D01*
X62788538Y-123409630D01*
X62794082Y-123407008D01*
X62799857Y-123404941D01*
X62805807Y-123403451D01*
X62811874Y-123402551D01*
X62818000Y-123402250D01*
X63568000Y-123402250D01*
X63574126Y-123402551D01*
G37*
G04 #@! TD.AperFunction*
G04 #@! TA.AperFunction,SMDPad,CuDef*
G36*
X63574126Y-122902551D02*
G01*
X63580193Y-122903451D01*
X63586143Y-122904941D01*
X63591918Y-122907008D01*
X63597462Y-122909630D01*
X63602723Y-122912783D01*
X63607650Y-122916437D01*
X63612194Y-122920556D01*
X63616313Y-122925100D01*
X63619967Y-122930027D01*
X63623120Y-122935288D01*
X63625742Y-122940832D01*
X63627809Y-122946607D01*
X63629299Y-122952557D01*
X63630199Y-122958624D01*
X63630500Y-122964750D01*
X63630500Y-123089750D01*
X63630199Y-123095876D01*
X63629299Y-123101943D01*
X63627809Y-123107893D01*
X63625742Y-123113668D01*
X63623120Y-123119212D01*
X63619967Y-123124473D01*
X63616313Y-123129400D01*
X63612194Y-123133944D01*
X63607650Y-123138063D01*
X63602723Y-123141717D01*
X63597462Y-123144870D01*
X63591918Y-123147492D01*
X63586143Y-123149559D01*
X63580193Y-123151049D01*
X63574126Y-123151949D01*
X63568000Y-123152250D01*
X62818000Y-123152250D01*
X62811874Y-123151949D01*
X62805807Y-123151049D01*
X62799857Y-123149559D01*
X62794082Y-123147492D01*
X62788538Y-123144870D01*
X62783277Y-123141717D01*
X62778350Y-123138063D01*
X62773806Y-123133944D01*
X62769687Y-123129400D01*
X62766033Y-123124473D01*
X62762880Y-123119212D01*
X62760258Y-123113668D01*
X62758191Y-123107893D01*
X62756701Y-123101943D01*
X62755801Y-123095876D01*
X62755500Y-123089750D01*
X62755500Y-122964750D01*
X62755801Y-122958624D01*
X62756701Y-122952557D01*
X62758191Y-122946607D01*
X62760258Y-122940832D01*
X62762880Y-122935288D01*
X62766033Y-122930027D01*
X62769687Y-122925100D01*
X62773806Y-122920556D01*
X62778350Y-122916437D01*
X62783277Y-122912783D01*
X62788538Y-122909630D01*
X62794082Y-122907008D01*
X62799857Y-122904941D01*
X62805807Y-122903451D01*
X62811874Y-122902551D01*
X62818000Y-122902250D01*
X63568000Y-122902250D01*
X63574126Y-122902551D01*
G37*
G04 #@! TD.AperFunction*
G04 #@! TA.AperFunction,SMDPad,CuDef*
G36*
X63574126Y-122402551D02*
G01*
X63580193Y-122403451D01*
X63586143Y-122404941D01*
X63591918Y-122407008D01*
X63597462Y-122409630D01*
X63602723Y-122412783D01*
X63607650Y-122416437D01*
X63612194Y-122420556D01*
X63616313Y-122425100D01*
X63619967Y-122430027D01*
X63623120Y-122435288D01*
X63625742Y-122440832D01*
X63627809Y-122446607D01*
X63629299Y-122452557D01*
X63630199Y-122458624D01*
X63630500Y-122464750D01*
X63630500Y-122589750D01*
X63630199Y-122595876D01*
X63629299Y-122601943D01*
X63627809Y-122607893D01*
X63625742Y-122613668D01*
X63623120Y-122619212D01*
X63619967Y-122624473D01*
X63616313Y-122629400D01*
X63612194Y-122633944D01*
X63607650Y-122638063D01*
X63602723Y-122641717D01*
X63597462Y-122644870D01*
X63591918Y-122647492D01*
X63586143Y-122649559D01*
X63580193Y-122651049D01*
X63574126Y-122651949D01*
X63568000Y-122652250D01*
X62818000Y-122652250D01*
X62811874Y-122651949D01*
X62805807Y-122651049D01*
X62799857Y-122649559D01*
X62794082Y-122647492D01*
X62788538Y-122644870D01*
X62783277Y-122641717D01*
X62778350Y-122638063D01*
X62773806Y-122633944D01*
X62769687Y-122629400D01*
X62766033Y-122624473D01*
X62762880Y-122619212D01*
X62760258Y-122613668D01*
X62758191Y-122607893D01*
X62756701Y-122601943D01*
X62755801Y-122595876D01*
X62755500Y-122589750D01*
X62755500Y-122464750D01*
X62755801Y-122458624D01*
X62756701Y-122452557D01*
X62758191Y-122446607D01*
X62760258Y-122440832D01*
X62762880Y-122435288D01*
X62766033Y-122430027D01*
X62769687Y-122425100D01*
X62773806Y-122420556D01*
X62778350Y-122416437D01*
X62783277Y-122412783D01*
X62788538Y-122409630D01*
X62794082Y-122407008D01*
X62799857Y-122404941D01*
X62805807Y-122403451D01*
X62811874Y-122402551D01*
X62818000Y-122402250D01*
X63568000Y-122402250D01*
X63574126Y-122402551D01*
G37*
G04 #@! TD.AperFunction*
G04 #@! TA.AperFunction,SMDPad,CuDef*
G36*
X63574126Y-121902551D02*
G01*
X63580193Y-121903451D01*
X63586143Y-121904941D01*
X63591918Y-121907008D01*
X63597462Y-121909630D01*
X63602723Y-121912783D01*
X63607650Y-121916437D01*
X63612194Y-121920556D01*
X63616313Y-121925100D01*
X63619967Y-121930027D01*
X63623120Y-121935288D01*
X63625742Y-121940832D01*
X63627809Y-121946607D01*
X63629299Y-121952557D01*
X63630199Y-121958624D01*
X63630500Y-121964750D01*
X63630500Y-122089750D01*
X63630199Y-122095876D01*
X63629299Y-122101943D01*
X63627809Y-122107893D01*
X63625742Y-122113668D01*
X63623120Y-122119212D01*
X63619967Y-122124473D01*
X63616313Y-122129400D01*
X63612194Y-122133944D01*
X63607650Y-122138063D01*
X63602723Y-122141717D01*
X63597462Y-122144870D01*
X63591918Y-122147492D01*
X63586143Y-122149559D01*
X63580193Y-122151049D01*
X63574126Y-122151949D01*
X63568000Y-122152250D01*
X62818000Y-122152250D01*
X62811874Y-122151949D01*
X62805807Y-122151049D01*
X62799857Y-122149559D01*
X62794082Y-122147492D01*
X62788538Y-122144870D01*
X62783277Y-122141717D01*
X62778350Y-122138063D01*
X62773806Y-122133944D01*
X62769687Y-122129400D01*
X62766033Y-122124473D01*
X62762880Y-122119212D01*
X62760258Y-122113668D01*
X62758191Y-122107893D01*
X62756701Y-122101943D01*
X62755801Y-122095876D01*
X62755500Y-122089750D01*
X62755500Y-121964750D01*
X62755801Y-121958624D01*
X62756701Y-121952557D01*
X62758191Y-121946607D01*
X62760258Y-121940832D01*
X62762880Y-121935288D01*
X62766033Y-121930027D01*
X62769687Y-121925100D01*
X62773806Y-121920556D01*
X62778350Y-121916437D01*
X62783277Y-121912783D01*
X62788538Y-121909630D01*
X62794082Y-121907008D01*
X62799857Y-121904941D01*
X62805807Y-121903451D01*
X62811874Y-121902551D01*
X62818000Y-121902250D01*
X63568000Y-121902250D01*
X63574126Y-121902551D01*
G37*
G04 #@! TD.AperFunction*
G04 #@! TA.AperFunction,SMDPad,CuDef*
G36*
X63574126Y-121402551D02*
G01*
X63580193Y-121403451D01*
X63586143Y-121404941D01*
X63591918Y-121407008D01*
X63597462Y-121409630D01*
X63602723Y-121412783D01*
X63607650Y-121416437D01*
X63612194Y-121420556D01*
X63616313Y-121425100D01*
X63619967Y-121430027D01*
X63623120Y-121435288D01*
X63625742Y-121440832D01*
X63627809Y-121446607D01*
X63629299Y-121452557D01*
X63630199Y-121458624D01*
X63630500Y-121464750D01*
X63630500Y-121589750D01*
X63630199Y-121595876D01*
X63629299Y-121601943D01*
X63627809Y-121607893D01*
X63625742Y-121613668D01*
X63623120Y-121619212D01*
X63619967Y-121624473D01*
X63616313Y-121629400D01*
X63612194Y-121633944D01*
X63607650Y-121638063D01*
X63602723Y-121641717D01*
X63597462Y-121644870D01*
X63591918Y-121647492D01*
X63586143Y-121649559D01*
X63580193Y-121651049D01*
X63574126Y-121651949D01*
X63568000Y-121652250D01*
X62818000Y-121652250D01*
X62811874Y-121651949D01*
X62805807Y-121651049D01*
X62799857Y-121649559D01*
X62794082Y-121647492D01*
X62788538Y-121644870D01*
X62783277Y-121641717D01*
X62778350Y-121638063D01*
X62773806Y-121633944D01*
X62769687Y-121629400D01*
X62766033Y-121624473D01*
X62762880Y-121619212D01*
X62760258Y-121613668D01*
X62758191Y-121607893D01*
X62756701Y-121601943D01*
X62755801Y-121595876D01*
X62755500Y-121589750D01*
X62755500Y-121464750D01*
X62755801Y-121458624D01*
X62756701Y-121452557D01*
X62758191Y-121446607D01*
X62760258Y-121440832D01*
X62762880Y-121435288D01*
X62766033Y-121430027D01*
X62769687Y-121425100D01*
X62773806Y-121420556D01*
X62778350Y-121416437D01*
X62783277Y-121412783D01*
X62788538Y-121409630D01*
X62794082Y-121407008D01*
X62799857Y-121404941D01*
X62805807Y-121403451D01*
X62811874Y-121402551D01*
X62818000Y-121402250D01*
X63568000Y-121402250D01*
X63574126Y-121402551D01*
G37*
G04 #@! TD.AperFunction*
G04 #@! TA.AperFunction,SMDPad,CuDef*
G36*
X63574126Y-120902551D02*
G01*
X63580193Y-120903451D01*
X63586143Y-120904941D01*
X63591918Y-120907008D01*
X63597462Y-120909630D01*
X63602723Y-120912783D01*
X63607650Y-120916437D01*
X63612194Y-120920556D01*
X63616313Y-120925100D01*
X63619967Y-120930027D01*
X63623120Y-120935288D01*
X63625742Y-120940832D01*
X63627809Y-120946607D01*
X63629299Y-120952557D01*
X63630199Y-120958624D01*
X63630500Y-120964750D01*
X63630500Y-121089750D01*
X63630199Y-121095876D01*
X63629299Y-121101943D01*
X63627809Y-121107893D01*
X63625742Y-121113668D01*
X63623120Y-121119212D01*
X63619967Y-121124473D01*
X63616313Y-121129400D01*
X63612194Y-121133944D01*
X63607650Y-121138063D01*
X63602723Y-121141717D01*
X63597462Y-121144870D01*
X63591918Y-121147492D01*
X63586143Y-121149559D01*
X63580193Y-121151049D01*
X63574126Y-121151949D01*
X63568000Y-121152250D01*
X62818000Y-121152250D01*
X62811874Y-121151949D01*
X62805807Y-121151049D01*
X62799857Y-121149559D01*
X62794082Y-121147492D01*
X62788538Y-121144870D01*
X62783277Y-121141717D01*
X62778350Y-121138063D01*
X62773806Y-121133944D01*
X62769687Y-121129400D01*
X62766033Y-121124473D01*
X62762880Y-121119212D01*
X62760258Y-121113668D01*
X62758191Y-121107893D01*
X62756701Y-121101943D01*
X62755801Y-121095876D01*
X62755500Y-121089750D01*
X62755500Y-120964750D01*
X62755801Y-120958624D01*
X62756701Y-120952557D01*
X62758191Y-120946607D01*
X62760258Y-120940832D01*
X62762880Y-120935288D01*
X62766033Y-120930027D01*
X62769687Y-120925100D01*
X62773806Y-120920556D01*
X62778350Y-120916437D01*
X62783277Y-120912783D01*
X62788538Y-120909630D01*
X62794082Y-120907008D01*
X62799857Y-120904941D01*
X62805807Y-120903451D01*
X62811874Y-120902551D01*
X62818000Y-120902250D01*
X63568000Y-120902250D01*
X63574126Y-120902551D01*
G37*
G04 #@! TD.AperFunction*
G04 #@! TA.AperFunction,SMDPad,CuDef*
G36*
X62574126Y-119902551D02*
G01*
X62580193Y-119903451D01*
X62586143Y-119904941D01*
X62591918Y-119907008D01*
X62597462Y-119909630D01*
X62602723Y-119912783D01*
X62607650Y-119916437D01*
X62612194Y-119920556D01*
X62616313Y-119925100D01*
X62619967Y-119930027D01*
X62623120Y-119935288D01*
X62625742Y-119940832D01*
X62627809Y-119946607D01*
X62629299Y-119952557D01*
X62630199Y-119958624D01*
X62630500Y-119964750D01*
X62630500Y-120714750D01*
X62630199Y-120720876D01*
X62629299Y-120726943D01*
X62627809Y-120732893D01*
X62625742Y-120738668D01*
X62623120Y-120744212D01*
X62619967Y-120749473D01*
X62616313Y-120754400D01*
X62612194Y-120758944D01*
X62607650Y-120763063D01*
X62602723Y-120766717D01*
X62597462Y-120769870D01*
X62591918Y-120772492D01*
X62586143Y-120774559D01*
X62580193Y-120776049D01*
X62574126Y-120776949D01*
X62568000Y-120777250D01*
X62443000Y-120777250D01*
X62436874Y-120776949D01*
X62430807Y-120776049D01*
X62424857Y-120774559D01*
X62419082Y-120772492D01*
X62413538Y-120769870D01*
X62408277Y-120766717D01*
X62403350Y-120763063D01*
X62398806Y-120758944D01*
X62394687Y-120754400D01*
X62391033Y-120749473D01*
X62387880Y-120744212D01*
X62385258Y-120738668D01*
X62383191Y-120732893D01*
X62381701Y-120726943D01*
X62380801Y-120720876D01*
X62380500Y-120714750D01*
X62380500Y-119964750D01*
X62380801Y-119958624D01*
X62381701Y-119952557D01*
X62383191Y-119946607D01*
X62385258Y-119940832D01*
X62387880Y-119935288D01*
X62391033Y-119930027D01*
X62394687Y-119925100D01*
X62398806Y-119920556D01*
X62403350Y-119916437D01*
X62408277Y-119912783D01*
X62413538Y-119909630D01*
X62419082Y-119907008D01*
X62424857Y-119904941D01*
X62430807Y-119903451D01*
X62436874Y-119902551D01*
X62443000Y-119902250D01*
X62568000Y-119902250D01*
X62574126Y-119902551D01*
G37*
G04 #@! TD.AperFunction*
G04 #@! TA.AperFunction,SMDPad,CuDef*
G36*
X62074126Y-119902551D02*
G01*
X62080193Y-119903451D01*
X62086143Y-119904941D01*
X62091918Y-119907008D01*
X62097462Y-119909630D01*
X62102723Y-119912783D01*
X62107650Y-119916437D01*
X62112194Y-119920556D01*
X62116313Y-119925100D01*
X62119967Y-119930027D01*
X62123120Y-119935288D01*
X62125742Y-119940832D01*
X62127809Y-119946607D01*
X62129299Y-119952557D01*
X62130199Y-119958624D01*
X62130500Y-119964750D01*
X62130500Y-120714750D01*
X62130199Y-120720876D01*
X62129299Y-120726943D01*
X62127809Y-120732893D01*
X62125742Y-120738668D01*
X62123120Y-120744212D01*
X62119967Y-120749473D01*
X62116313Y-120754400D01*
X62112194Y-120758944D01*
X62107650Y-120763063D01*
X62102723Y-120766717D01*
X62097462Y-120769870D01*
X62091918Y-120772492D01*
X62086143Y-120774559D01*
X62080193Y-120776049D01*
X62074126Y-120776949D01*
X62068000Y-120777250D01*
X61943000Y-120777250D01*
X61936874Y-120776949D01*
X61930807Y-120776049D01*
X61924857Y-120774559D01*
X61919082Y-120772492D01*
X61913538Y-120769870D01*
X61908277Y-120766717D01*
X61903350Y-120763063D01*
X61898806Y-120758944D01*
X61894687Y-120754400D01*
X61891033Y-120749473D01*
X61887880Y-120744212D01*
X61885258Y-120738668D01*
X61883191Y-120732893D01*
X61881701Y-120726943D01*
X61880801Y-120720876D01*
X61880500Y-120714750D01*
X61880500Y-119964750D01*
X61880801Y-119958624D01*
X61881701Y-119952557D01*
X61883191Y-119946607D01*
X61885258Y-119940832D01*
X61887880Y-119935288D01*
X61891033Y-119930027D01*
X61894687Y-119925100D01*
X61898806Y-119920556D01*
X61903350Y-119916437D01*
X61908277Y-119912783D01*
X61913538Y-119909630D01*
X61919082Y-119907008D01*
X61924857Y-119904941D01*
X61930807Y-119903451D01*
X61936874Y-119902551D01*
X61943000Y-119902250D01*
X62068000Y-119902250D01*
X62074126Y-119902551D01*
G37*
G04 #@! TD.AperFunction*
G04 #@! TA.AperFunction,SMDPad,CuDef*
G36*
X61574126Y-119902551D02*
G01*
X61580193Y-119903451D01*
X61586143Y-119904941D01*
X61591918Y-119907008D01*
X61597462Y-119909630D01*
X61602723Y-119912783D01*
X61607650Y-119916437D01*
X61612194Y-119920556D01*
X61616313Y-119925100D01*
X61619967Y-119930027D01*
X61623120Y-119935288D01*
X61625742Y-119940832D01*
X61627809Y-119946607D01*
X61629299Y-119952557D01*
X61630199Y-119958624D01*
X61630500Y-119964750D01*
X61630500Y-120714750D01*
X61630199Y-120720876D01*
X61629299Y-120726943D01*
X61627809Y-120732893D01*
X61625742Y-120738668D01*
X61623120Y-120744212D01*
X61619967Y-120749473D01*
X61616313Y-120754400D01*
X61612194Y-120758944D01*
X61607650Y-120763063D01*
X61602723Y-120766717D01*
X61597462Y-120769870D01*
X61591918Y-120772492D01*
X61586143Y-120774559D01*
X61580193Y-120776049D01*
X61574126Y-120776949D01*
X61568000Y-120777250D01*
X61443000Y-120777250D01*
X61436874Y-120776949D01*
X61430807Y-120776049D01*
X61424857Y-120774559D01*
X61419082Y-120772492D01*
X61413538Y-120769870D01*
X61408277Y-120766717D01*
X61403350Y-120763063D01*
X61398806Y-120758944D01*
X61394687Y-120754400D01*
X61391033Y-120749473D01*
X61387880Y-120744212D01*
X61385258Y-120738668D01*
X61383191Y-120732893D01*
X61381701Y-120726943D01*
X61380801Y-120720876D01*
X61380500Y-120714750D01*
X61380500Y-119964750D01*
X61380801Y-119958624D01*
X61381701Y-119952557D01*
X61383191Y-119946607D01*
X61385258Y-119940832D01*
X61387880Y-119935288D01*
X61391033Y-119930027D01*
X61394687Y-119925100D01*
X61398806Y-119920556D01*
X61403350Y-119916437D01*
X61408277Y-119912783D01*
X61413538Y-119909630D01*
X61419082Y-119907008D01*
X61424857Y-119904941D01*
X61430807Y-119903451D01*
X61436874Y-119902551D01*
X61443000Y-119902250D01*
X61568000Y-119902250D01*
X61574126Y-119902551D01*
G37*
G04 #@! TD.AperFunction*
G04 #@! TA.AperFunction,SMDPad,CuDef*
G36*
X61074126Y-119902551D02*
G01*
X61080193Y-119903451D01*
X61086143Y-119904941D01*
X61091918Y-119907008D01*
X61097462Y-119909630D01*
X61102723Y-119912783D01*
X61107650Y-119916437D01*
X61112194Y-119920556D01*
X61116313Y-119925100D01*
X61119967Y-119930027D01*
X61123120Y-119935288D01*
X61125742Y-119940832D01*
X61127809Y-119946607D01*
X61129299Y-119952557D01*
X61130199Y-119958624D01*
X61130500Y-119964750D01*
X61130500Y-120714750D01*
X61130199Y-120720876D01*
X61129299Y-120726943D01*
X61127809Y-120732893D01*
X61125742Y-120738668D01*
X61123120Y-120744212D01*
X61119967Y-120749473D01*
X61116313Y-120754400D01*
X61112194Y-120758944D01*
X61107650Y-120763063D01*
X61102723Y-120766717D01*
X61097462Y-120769870D01*
X61091918Y-120772492D01*
X61086143Y-120774559D01*
X61080193Y-120776049D01*
X61074126Y-120776949D01*
X61068000Y-120777250D01*
X60943000Y-120777250D01*
X60936874Y-120776949D01*
X60930807Y-120776049D01*
X60924857Y-120774559D01*
X60919082Y-120772492D01*
X60913538Y-120769870D01*
X60908277Y-120766717D01*
X60903350Y-120763063D01*
X60898806Y-120758944D01*
X60894687Y-120754400D01*
X60891033Y-120749473D01*
X60887880Y-120744212D01*
X60885258Y-120738668D01*
X60883191Y-120732893D01*
X60881701Y-120726943D01*
X60880801Y-120720876D01*
X60880500Y-120714750D01*
X60880500Y-119964750D01*
X60880801Y-119958624D01*
X60881701Y-119952557D01*
X60883191Y-119946607D01*
X60885258Y-119940832D01*
X60887880Y-119935288D01*
X60891033Y-119930027D01*
X60894687Y-119925100D01*
X60898806Y-119920556D01*
X60903350Y-119916437D01*
X60908277Y-119912783D01*
X60913538Y-119909630D01*
X60919082Y-119907008D01*
X60924857Y-119904941D01*
X60930807Y-119903451D01*
X60936874Y-119902551D01*
X60943000Y-119902250D01*
X61068000Y-119902250D01*
X61074126Y-119902551D01*
G37*
G04 #@! TD.AperFunction*
G04 #@! TA.AperFunction,SMDPad,CuDef*
G36*
X60574126Y-119902551D02*
G01*
X60580193Y-119903451D01*
X60586143Y-119904941D01*
X60591918Y-119907008D01*
X60597462Y-119909630D01*
X60602723Y-119912783D01*
X60607650Y-119916437D01*
X60612194Y-119920556D01*
X60616313Y-119925100D01*
X60619967Y-119930027D01*
X60623120Y-119935288D01*
X60625742Y-119940832D01*
X60627809Y-119946607D01*
X60629299Y-119952557D01*
X60630199Y-119958624D01*
X60630500Y-119964750D01*
X60630500Y-120714750D01*
X60630199Y-120720876D01*
X60629299Y-120726943D01*
X60627809Y-120732893D01*
X60625742Y-120738668D01*
X60623120Y-120744212D01*
X60619967Y-120749473D01*
X60616313Y-120754400D01*
X60612194Y-120758944D01*
X60607650Y-120763063D01*
X60602723Y-120766717D01*
X60597462Y-120769870D01*
X60591918Y-120772492D01*
X60586143Y-120774559D01*
X60580193Y-120776049D01*
X60574126Y-120776949D01*
X60568000Y-120777250D01*
X60443000Y-120777250D01*
X60436874Y-120776949D01*
X60430807Y-120776049D01*
X60424857Y-120774559D01*
X60419082Y-120772492D01*
X60413538Y-120769870D01*
X60408277Y-120766717D01*
X60403350Y-120763063D01*
X60398806Y-120758944D01*
X60394687Y-120754400D01*
X60391033Y-120749473D01*
X60387880Y-120744212D01*
X60385258Y-120738668D01*
X60383191Y-120732893D01*
X60381701Y-120726943D01*
X60380801Y-120720876D01*
X60380500Y-120714750D01*
X60380500Y-119964750D01*
X60380801Y-119958624D01*
X60381701Y-119952557D01*
X60383191Y-119946607D01*
X60385258Y-119940832D01*
X60387880Y-119935288D01*
X60391033Y-119930027D01*
X60394687Y-119925100D01*
X60398806Y-119920556D01*
X60403350Y-119916437D01*
X60408277Y-119912783D01*
X60413538Y-119909630D01*
X60419082Y-119907008D01*
X60424857Y-119904941D01*
X60430807Y-119903451D01*
X60436874Y-119902551D01*
X60443000Y-119902250D01*
X60568000Y-119902250D01*
X60574126Y-119902551D01*
G37*
G04 #@! TD.AperFunction*
G04 #@! TA.AperFunction,SMDPad,CuDef*
G36*
X60074126Y-119902551D02*
G01*
X60080193Y-119903451D01*
X60086143Y-119904941D01*
X60091918Y-119907008D01*
X60097462Y-119909630D01*
X60102723Y-119912783D01*
X60107650Y-119916437D01*
X60112194Y-119920556D01*
X60116313Y-119925100D01*
X60119967Y-119930027D01*
X60123120Y-119935288D01*
X60125742Y-119940832D01*
X60127809Y-119946607D01*
X60129299Y-119952557D01*
X60130199Y-119958624D01*
X60130500Y-119964750D01*
X60130500Y-120714750D01*
X60130199Y-120720876D01*
X60129299Y-120726943D01*
X60127809Y-120732893D01*
X60125742Y-120738668D01*
X60123120Y-120744212D01*
X60119967Y-120749473D01*
X60116313Y-120754400D01*
X60112194Y-120758944D01*
X60107650Y-120763063D01*
X60102723Y-120766717D01*
X60097462Y-120769870D01*
X60091918Y-120772492D01*
X60086143Y-120774559D01*
X60080193Y-120776049D01*
X60074126Y-120776949D01*
X60068000Y-120777250D01*
X59943000Y-120777250D01*
X59936874Y-120776949D01*
X59930807Y-120776049D01*
X59924857Y-120774559D01*
X59919082Y-120772492D01*
X59913538Y-120769870D01*
X59908277Y-120766717D01*
X59903350Y-120763063D01*
X59898806Y-120758944D01*
X59894687Y-120754400D01*
X59891033Y-120749473D01*
X59887880Y-120744212D01*
X59885258Y-120738668D01*
X59883191Y-120732893D01*
X59881701Y-120726943D01*
X59880801Y-120720876D01*
X59880500Y-120714750D01*
X59880500Y-119964750D01*
X59880801Y-119958624D01*
X59881701Y-119952557D01*
X59883191Y-119946607D01*
X59885258Y-119940832D01*
X59887880Y-119935288D01*
X59891033Y-119930027D01*
X59894687Y-119925100D01*
X59898806Y-119920556D01*
X59903350Y-119916437D01*
X59908277Y-119912783D01*
X59913538Y-119909630D01*
X59919082Y-119907008D01*
X59924857Y-119904941D01*
X59930807Y-119903451D01*
X59936874Y-119902551D01*
X59943000Y-119902250D01*
X60068000Y-119902250D01*
X60074126Y-119902551D01*
G37*
G04 #@! TD.AperFunction*
G04 #@! TA.AperFunction,SMDPad,CuDef*
G36*
X59574126Y-119902551D02*
G01*
X59580193Y-119903451D01*
X59586143Y-119904941D01*
X59591918Y-119907008D01*
X59597462Y-119909630D01*
X59602723Y-119912783D01*
X59607650Y-119916437D01*
X59612194Y-119920556D01*
X59616313Y-119925100D01*
X59619967Y-119930027D01*
X59623120Y-119935288D01*
X59625742Y-119940832D01*
X59627809Y-119946607D01*
X59629299Y-119952557D01*
X59630199Y-119958624D01*
X59630500Y-119964750D01*
X59630500Y-120714750D01*
X59630199Y-120720876D01*
X59629299Y-120726943D01*
X59627809Y-120732893D01*
X59625742Y-120738668D01*
X59623120Y-120744212D01*
X59619967Y-120749473D01*
X59616313Y-120754400D01*
X59612194Y-120758944D01*
X59607650Y-120763063D01*
X59602723Y-120766717D01*
X59597462Y-120769870D01*
X59591918Y-120772492D01*
X59586143Y-120774559D01*
X59580193Y-120776049D01*
X59574126Y-120776949D01*
X59568000Y-120777250D01*
X59443000Y-120777250D01*
X59436874Y-120776949D01*
X59430807Y-120776049D01*
X59424857Y-120774559D01*
X59419082Y-120772492D01*
X59413538Y-120769870D01*
X59408277Y-120766717D01*
X59403350Y-120763063D01*
X59398806Y-120758944D01*
X59394687Y-120754400D01*
X59391033Y-120749473D01*
X59387880Y-120744212D01*
X59385258Y-120738668D01*
X59383191Y-120732893D01*
X59381701Y-120726943D01*
X59380801Y-120720876D01*
X59380500Y-120714750D01*
X59380500Y-119964750D01*
X59380801Y-119958624D01*
X59381701Y-119952557D01*
X59383191Y-119946607D01*
X59385258Y-119940832D01*
X59387880Y-119935288D01*
X59391033Y-119930027D01*
X59394687Y-119925100D01*
X59398806Y-119920556D01*
X59403350Y-119916437D01*
X59408277Y-119912783D01*
X59413538Y-119909630D01*
X59419082Y-119907008D01*
X59424857Y-119904941D01*
X59430807Y-119903451D01*
X59436874Y-119902551D01*
X59443000Y-119902250D01*
X59568000Y-119902250D01*
X59574126Y-119902551D01*
G37*
G04 #@! TD.AperFunction*
G04 #@! TA.AperFunction,SMDPad,CuDef*
G36*
X59074126Y-119902551D02*
G01*
X59080193Y-119903451D01*
X59086143Y-119904941D01*
X59091918Y-119907008D01*
X59097462Y-119909630D01*
X59102723Y-119912783D01*
X59107650Y-119916437D01*
X59112194Y-119920556D01*
X59116313Y-119925100D01*
X59119967Y-119930027D01*
X59123120Y-119935288D01*
X59125742Y-119940832D01*
X59127809Y-119946607D01*
X59129299Y-119952557D01*
X59130199Y-119958624D01*
X59130500Y-119964750D01*
X59130500Y-120714750D01*
X59130199Y-120720876D01*
X59129299Y-120726943D01*
X59127809Y-120732893D01*
X59125742Y-120738668D01*
X59123120Y-120744212D01*
X59119967Y-120749473D01*
X59116313Y-120754400D01*
X59112194Y-120758944D01*
X59107650Y-120763063D01*
X59102723Y-120766717D01*
X59097462Y-120769870D01*
X59091918Y-120772492D01*
X59086143Y-120774559D01*
X59080193Y-120776049D01*
X59074126Y-120776949D01*
X59068000Y-120777250D01*
X58943000Y-120777250D01*
X58936874Y-120776949D01*
X58930807Y-120776049D01*
X58924857Y-120774559D01*
X58919082Y-120772492D01*
X58913538Y-120769870D01*
X58908277Y-120766717D01*
X58903350Y-120763063D01*
X58898806Y-120758944D01*
X58894687Y-120754400D01*
X58891033Y-120749473D01*
X58887880Y-120744212D01*
X58885258Y-120738668D01*
X58883191Y-120732893D01*
X58881701Y-120726943D01*
X58880801Y-120720876D01*
X58880500Y-120714750D01*
X58880500Y-119964750D01*
X58880801Y-119958624D01*
X58881701Y-119952557D01*
X58883191Y-119946607D01*
X58885258Y-119940832D01*
X58887880Y-119935288D01*
X58891033Y-119930027D01*
X58894687Y-119925100D01*
X58898806Y-119920556D01*
X58903350Y-119916437D01*
X58908277Y-119912783D01*
X58913538Y-119909630D01*
X58919082Y-119907008D01*
X58924857Y-119904941D01*
X58930807Y-119903451D01*
X58936874Y-119902551D01*
X58943000Y-119902250D01*
X59068000Y-119902250D01*
X59074126Y-119902551D01*
G37*
G04 #@! TD.AperFunction*
G04 #@! TA.AperFunction,SMDPad,CuDef*
G36*
X58699126Y-120902551D02*
G01*
X58705193Y-120903451D01*
X58711143Y-120904941D01*
X58716918Y-120907008D01*
X58722462Y-120909630D01*
X58727723Y-120912783D01*
X58732650Y-120916437D01*
X58737194Y-120920556D01*
X58741313Y-120925100D01*
X58744967Y-120930027D01*
X58748120Y-120935288D01*
X58750742Y-120940832D01*
X58752809Y-120946607D01*
X58754299Y-120952557D01*
X58755199Y-120958624D01*
X58755500Y-120964750D01*
X58755500Y-121089750D01*
X58755199Y-121095876D01*
X58754299Y-121101943D01*
X58752809Y-121107893D01*
X58750742Y-121113668D01*
X58748120Y-121119212D01*
X58744967Y-121124473D01*
X58741313Y-121129400D01*
X58737194Y-121133944D01*
X58732650Y-121138063D01*
X58727723Y-121141717D01*
X58722462Y-121144870D01*
X58716918Y-121147492D01*
X58711143Y-121149559D01*
X58705193Y-121151049D01*
X58699126Y-121151949D01*
X58693000Y-121152250D01*
X57943000Y-121152250D01*
X57936874Y-121151949D01*
X57930807Y-121151049D01*
X57924857Y-121149559D01*
X57919082Y-121147492D01*
X57913538Y-121144870D01*
X57908277Y-121141717D01*
X57903350Y-121138063D01*
X57898806Y-121133944D01*
X57894687Y-121129400D01*
X57891033Y-121124473D01*
X57887880Y-121119212D01*
X57885258Y-121113668D01*
X57883191Y-121107893D01*
X57881701Y-121101943D01*
X57880801Y-121095876D01*
X57880500Y-121089750D01*
X57880500Y-120964750D01*
X57880801Y-120958624D01*
X57881701Y-120952557D01*
X57883191Y-120946607D01*
X57885258Y-120940832D01*
X57887880Y-120935288D01*
X57891033Y-120930027D01*
X57894687Y-120925100D01*
X57898806Y-120920556D01*
X57903350Y-120916437D01*
X57908277Y-120912783D01*
X57913538Y-120909630D01*
X57919082Y-120907008D01*
X57924857Y-120904941D01*
X57930807Y-120903451D01*
X57936874Y-120902551D01*
X57943000Y-120902250D01*
X58693000Y-120902250D01*
X58699126Y-120902551D01*
G37*
G04 #@! TD.AperFunction*
G04 #@! TA.AperFunction,SMDPad,CuDef*
G36*
X58699126Y-121402551D02*
G01*
X58705193Y-121403451D01*
X58711143Y-121404941D01*
X58716918Y-121407008D01*
X58722462Y-121409630D01*
X58727723Y-121412783D01*
X58732650Y-121416437D01*
X58737194Y-121420556D01*
X58741313Y-121425100D01*
X58744967Y-121430027D01*
X58748120Y-121435288D01*
X58750742Y-121440832D01*
X58752809Y-121446607D01*
X58754299Y-121452557D01*
X58755199Y-121458624D01*
X58755500Y-121464750D01*
X58755500Y-121589750D01*
X58755199Y-121595876D01*
X58754299Y-121601943D01*
X58752809Y-121607893D01*
X58750742Y-121613668D01*
X58748120Y-121619212D01*
X58744967Y-121624473D01*
X58741313Y-121629400D01*
X58737194Y-121633944D01*
X58732650Y-121638063D01*
X58727723Y-121641717D01*
X58722462Y-121644870D01*
X58716918Y-121647492D01*
X58711143Y-121649559D01*
X58705193Y-121651049D01*
X58699126Y-121651949D01*
X58693000Y-121652250D01*
X57943000Y-121652250D01*
X57936874Y-121651949D01*
X57930807Y-121651049D01*
X57924857Y-121649559D01*
X57919082Y-121647492D01*
X57913538Y-121644870D01*
X57908277Y-121641717D01*
X57903350Y-121638063D01*
X57898806Y-121633944D01*
X57894687Y-121629400D01*
X57891033Y-121624473D01*
X57887880Y-121619212D01*
X57885258Y-121613668D01*
X57883191Y-121607893D01*
X57881701Y-121601943D01*
X57880801Y-121595876D01*
X57880500Y-121589750D01*
X57880500Y-121464750D01*
X57880801Y-121458624D01*
X57881701Y-121452557D01*
X57883191Y-121446607D01*
X57885258Y-121440832D01*
X57887880Y-121435288D01*
X57891033Y-121430027D01*
X57894687Y-121425100D01*
X57898806Y-121420556D01*
X57903350Y-121416437D01*
X57908277Y-121412783D01*
X57913538Y-121409630D01*
X57919082Y-121407008D01*
X57924857Y-121404941D01*
X57930807Y-121403451D01*
X57936874Y-121402551D01*
X57943000Y-121402250D01*
X58693000Y-121402250D01*
X58699126Y-121402551D01*
G37*
G04 #@! TD.AperFunction*
G04 #@! TA.AperFunction,SMDPad,CuDef*
G36*
X58699126Y-121902551D02*
G01*
X58705193Y-121903451D01*
X58711143Y-121904941D01*
X58716918Y-121907008D01*
X58722462Y-121909630D01*
X58727723Y-121912783D01*
X58732650Y-121916437D01*
X58737194Y-121920556D01*
X58741313Y-121925100D01*
X58744967Y-121930027D01*
X58748120Y-121935288D01*
X58750742Y-121940832D01*
X58752809Y-121946607D01*
X58754299Y-121952557D01*
X58755199Y-121958624D01*
X58755500Y-121964750D01*
X58755500Y-122089750D01*
X58755199Y-122095876D01*
X58754299Y-122101943D01*
X58752809Y-122107893D01*
X58750742Y-122113668D01*
X58748120Y-122119212D01*
X58744967Y-122124473D01*
X58741313Y-122129400D01*
X58737194Y-122133944D01*
X58732650Y-122138063D01*
X58727723Y-122141717D01*
X58722462Y-122144870D01*
X58716918Y-122147492D01*
X58711143Y-122149559D01*
X58705193Y-122151049D01*
X58699126Y-122151949D01*
X58693000Y-122152250D01*
X57943000Y-122152250D01*
X57936874Y-122151949D01*
X57930807Y-122151049D01*
X57924857Y-122149559D01*
X57919082Y-122147492D01*
X57913538Y-122144870D01*
X57908277Y-122141717D01*
X57903350Y-122138063D01*
X57898806Y-122133944D01*
X57894687Y-122129400D01*
X57891033Y-122124473D01*
X57887880Y-122119212D01*
X57885258Y-122113668D01*
X57883191Y-122107893D01*
X57881701Y-122101943D01*
X57880801Y-122095876D01*
X57880500Y-122089750D01*
X57880500Y-121964750D01*
X57880801Y-121958624D01*
X57881701Y-121952557D01*
X57883191Y-121946607D01*
X57885258Y-121940832D01*
X57887880Y-121935288D01*
X57891033Y-121930027D01*
X57894687Y-121925100D01*
X57898806Y-121920556D01*
X57903350Y-121916437D01*
X57908277Y-121912783D01*
X57913538Y-121909630D01*
X57919082Y-121907008D01*
X57924857Y-121904941D01*
X57930807Y-121903451D01*
X57936874Y-121902551D01*
X57943000Y-121902250D01*
X58693000Y-121902250D01*
X58699126Y-121902551D01*
G37*
G04 #@! TD.AperFunction*
G04 #@! TA.AperFunction,SMDPad,CuDef*
G36*
X58699126Y-122402551D02*
G01*
X58705193Y-122403451D01*
X58711143Y-122404941D01*
X58716918Y-122407008D01*
X58722462Y-122409630D01*
X58727723Y-122412783D01*
X58732650Y-122416437D01*
X58737194Y-122420556D01*
X58741313Y-122425100D01*
X58744967Y-122430027D01*
X58748120Y-122435288D01*
X58750742Y-122440832D01*
X58752809Y-122446607D01*
X58754299Y-122452557D01*
X58755199Y-122458624D01*
X58755500Y-122464750D01*
X58755500Y-122589750D01*
X58755199Y-122595876D01*
X58754299Y-122601943D01*
X58752809Y-122607893D01*
X58750742Y-122613668D01*
X58748120Y-122619212D01*
X58744967Y-122624473D01*
X58741313Y-122629400D01*
X58737194Y-122633944D01*
X58732650Y-122638063D01*
X58727723Y-122641717D01*
X58722462Y-122644870D01*
X58716918Y-122647492D01*
X58711143Y-122649559D01*
X58705193Y-122651049D01*
X58699126Y-122651949D01*
X58693000Y-122652250D01*
X57943000Y-122652250D01*
X57936874Y-122651949D01*
X57930807Y-122651049D01*
X57924857Y-122649559D01*
X57919082Y-122647492D01*
X57913538Y-122644870D01*
X57908277Y-122641717D01*
X57903350Y-122638063D01*
X57898806Y-122633944D01*
X57894687Y-122629400D01*
X57891033Y-122624473D01*
X57887880Y-122619212D01*
X57885258Y-122613668D01*
X57883191Y-122607893D01*
X57881701Y-122601943D01*
X57880801Y-122595876D01*
X57880500Y-122589750D01*
X57880500Y-122464750D01*
X57880801Y-122458624D01*
X57881701Y-122452557D01*
X57883191Y-122446607D01*
X57885258Y-122440832D01*
X57887880Y-122435288D01*
X57891033Y-122430027D01*
X57894687Y-122425100D01*
X57898806Y-122420556D01*
X57903350Y-122416437D01*
X57908277Y-122412783D01*
X57913538Y-122409630D01*
X57919082Y-122407008D01*
X57924857Y-122404941D01*
X57930807Y-122403451D01*
X57936874Y-122402551D01*
X57943000Y-122402250D01*
X58693000Y-122402250D01*
X58699126Y-122402551D01*
G37*
G04 #@! TD.AperFunction*
G04 #@! TA.AperFunction,SMDPad,CuDef*
G36*
X58699126Y-122902551D02*
G01*
X58705193Y-122903451D01*
X58711143Y-122904941D01*
X58716918Y-122907008D01*
X58722462Y-122909630D01*
X58727723Y-122912783D01*
X58732650Y-122916437D01*
X58737194Y-122920556D01*
X58741313Y-122925100D01*
X58744967Y-122930027D01*
X58748120Y-122935288D01*
X58750742Y-122940832D01*
X58752809Y-122946607D01*
X58754299Y-122952557D01*
X58755199Y-122958624D01*
X58755500Y-122964750D01*
X58755500Y-123089750D01*
X58755199Y-123095876D01*
X58754299Y-123101943D01*
X58752809Y-123107893D01*
X58750742Y-123113668D01*
X58748120Y-123119212D01*
X58744967Y-123124473D01*
X58741313Y-123129400D01*
X58737194Y-123133944D01*
X58732650Y-123138063D01*
X58727723Y-123141717D01*
X58722462Y-123144870D01*
X58716918Y-123147492D01*
X58711143Y-123149559D01*
X58705193Y-123151049D01*
X58699126Y-123151949D01*
X58693000Y-123152250D01*
X57943000Y-123152250D01*
X57936874Y-123151949D01*
X57930807Y-123151049D01*
X57924857Y-123149559D01*
X57919082Y-123147492D01*
X57913538Y-123144870D01*
X57908277Y-123141717D01*
X57903350Y-123138063D01*
X57898806Y-123133944D01*
X57894687Y-123129400D01*
X57891033Y-123124473D01*
X57887880Y-123119212D01*
X57885258Y-123113668D01*
X57883191Y-123107893D01*
X57881701Y-123101943D01*
X57880801Y-123095876D01*
X57880500Y-123089750D01*
X57880500Y-122964750D01*
X57880801Y-122958624D01*
X57881701Y-122952557D01*
X57883191Y-122946607D01*
X57885258Y-122940832D01*
X57887880Y-122935288D01*
X57891033Y-122930027D01*
X57894687Y-122925100D01*
X57898806Y-122920556D01*
X57903350Y-122916437D01*
X57908277Y-122912783D01*
X57913538Y-122909630D01*
X57919082Y-122907008D01*
X57924857Y-122904941D01*
X57930807Y-122903451D01*
X57936874Y-122902551D01*
X57943000Y-122902250D01*
X58693000Y-122902250D01*
X58699126Y-122902551D01*
G37*
G04 #@! TD.AperFunction*
G04 #@! TA.AperFunction,SMDPad,CuDef*
G36*
X58699126Y-123402551D02*
G01*
X58705193Y-123403451D01*
X58711143Y-123404941D01*
X58716918Y-123407008D01*
X58722462Y-123409630D01*
X58727723Y-123412783D01*
X58732650Y-123416437D01*
X58737194Y-123420556D01*
X58741313Y-123425100D01*
X58744967Y-123430027D01*
X58748120Y-123435288D01*
X58750742Y-123440832D01*
X58752809Y-123446607D01*
X58754299Y-123452557D01*
X58755199Y-123458624D01*
X58755500Y-123464750D01*
X58755500Y-123589750D01*
X58755199Y-123595876D01*
X58754299Y-123601943D01*
X58752809Y-123607893D01*
X58750742Y-123613668D01*
X58748120Y-123619212D01*
X58744967Y-123624473D01*
X58741313Y-123629400D01*
X58737194Y-123633944D01*
X58732650Y-123638063D01*
X58727723Y-123641717D01*
X58722462Y-123644870D01*
X58716918Y-123647492D01*
X58711143Y-123649559D01*
X58705193Y-123651049D01*
X58699126Y-123651949D01*
X58693000Y-123652250D01*
X57943000Y-123652250D01*
X57936874Y-123651949D01*
X57930807Y-123651049D01*
X57924857Y-123649559D01*
X57919082Y-123647492D01*
X57913538Y-123644870D01*
X57908277Y-123641717D01*
X57903350Y-123638063D01*
X57898806Y-123633944D01*
X57894687Y-123629400D01*
X57891033Y-123624473D01*
X57887880Y-123619212D01*
X57885258Y-123613668D01*
X57883191Y-123607893D01*
X57881701Y-123601943D01*
X57880801Y-123595876D01*
X57880500Y-123589750D01*
X57880500Y-123464750D01*
X57880801Y-123458624D01*
X57881701Y-123452557D01*
X57883191Y-123446607D01*
X57885258Y-123440832D01*
X57887880Y-123435288D01*
X57891033Y-123430027D01*
X57894687Y-123425100D01*
X57898806Y-123420556D01*
X57903350Y-123416437D01*
X57908277Y-123412783D01*
X57913538Y-123409630D01*
X57919082Y-123407008D01*
X57924857Y-123404941D01*
X57930807Y-123403451D01*
X57936874Y-123402551D01*
X57943000Y-123402250D01*
X58693000Y-123402250D01*
X58699126Y-123402551D01*
G37*
G04 #@! TD.AperFunction*
G04 #@! TA.AperFunction,SMDPad,CuDef*
G36*
X58699126Y-123902551D02*
G01*
X58705193Y-123903451D01*
X58711143Y-123904941D01*
X58716918Y-123907008D01*
X58722462Y-123909630D01*
X58727723Y-123912783D01*
X58732650Y-123916437D01*
X58737194Y-123920556D01*
X58741313Y-123925100D01*
X58744967Y-123930027D01*
X58748120Y-123935288D01*
X58750742Y-123940832D01*
X58752809Y-123946607D01*
X58754299Y-123952557D01*
X58755199Y-123958624D01*
X58755500Y-123964750D01*
X58755500Y-124089750D01*
X58755199Y-124095876D01*
X58754299Y-124101943D01*
X58752809Y-124107893D01*
X58750742Y-124113668D01*
X58748120Y-124119212D01*
X58744967Y-124124473D01*
X58741313Y-124129400D01*
X58737194Y-124133944D01*
X58732650Y-124138063D01*
X58727723Y-124141717D01*
X58722462Y-124144870D01*
X58716918Y-124147492D01*
X58711143Y-124149559D01*
X58705193Y-124151049D01*
X58699126Y-124151949D01*
X58693000Y-124152250D01*
X57943000Y-124152250D01*
X57936874Y-124151949D01*
X57930807Y-124151049D01*
X57924857Y-124149559D01*
X57919082Y-124147492D01*
X57913538Y-124144870D01*
X57908277Y-124141717D01*
X57903350Y-124138063D01*
X57898806Y-124133944D01*
X57894687Y-124129400D01*
X57891033Y-124124473D01*
X57887880Y-124119212D01*
X57885258Y-124113668D01*
X57883191Y-124107893D01*
X57881701Y-124101943D01*
X57880801Y-124095876D01*
X57880500Y-124089750D01*
X57880500Y-123964750D01*
X57880801Y-123958624D01*
X57881701Y-123952557D01*
X57883191Y-123946607D01*
X57885258Y-123940832D01*
X57887880Y-123935288D01*
X57891033Y-123930027D01*
X57894687Y-123925100D01*
X57898806Y-123920556D01*
X57903350Y-123916437D01*
X57908277Y-123912783D01*
X57913538Y-123909630D01*
X57919082Y-123907008D01*
X57924857Y-123904941D01*
X57930807Y-123903451D01*
X57936874Y-123902551D01*
X57943000Y-123902250D01*
X58693000Y-123902250D01*
X58699126Y-123902551D01*
G37*
G04 #@! TD.AperFunction*
G04 #@! TA.AperFunction,SMDPad,CuDef*
G36*
X58699126Y-124402551D02*
G01*
X58705193Y-124403451D01*
X58711143Y-124404941D01*
X58716918Y-124407008D01*
X58722462Y-124409630D01*
X58727723Y-124412783D01*
X58732650Y-124416437D01*
X58737194Y-124420556D01*
X58741313Y-124425100D01*
X58744967Y-124430027D01*
X58748120Y-124435288D01*
X58750742Y-124440832D01*
X58752809Y-124446607D01*
X58754299Y-124452557D01*
X58755199Y-124458624D01*
X58755500Y-124464750D01*
X58755500Y-124589750D01*
X58755199Y-124595876D01*
X58754299Y-124601943D01*
X58752809Y-124607893D01*
X58750742Y-124613668D01*
X58748120Y-124619212D01*
X58744967Y-124624473D01*
X58741313Y-124629400D01*
X58737194Y-124633944D01*
X58732650Y-124638063D01*
X58727723Y-124641717D01*
X58722462Y-124644870D01*
X58716918Y-124647492D01*
X58711143Y-124649559D01*
X58705193Y-124651049D01*
X58699126Y-124651949D01*
X58693000Y-124652250D01*
X57943000Y-124652250D01*
X57936874Y-124651949D01*
X57930807Y-124651049D01*
X57924857Y-124649559D01*
X57919082Y-124647492D01*
X57913538Y-124644870D01*
X57908277Y-124641717D01*
X57903350Y-124638063D01*
X57898806Y-124633944D01*
X57894687Y-124629400D01*
X57891033Y-124624473D01*
X57887880Y-124619212D01*
X57885258Y-124613668D01*
X57883191Y-124607893D01*
X57881701Y-124601943D01*
X57880801Y-124595876D01*
X57880500Y-124589750D01*
X57880500Y-124464750D01*
X57880801Y-124458624D01*
X57881701Y-124452557D01*
X57883191Y-124446607D01*
X57885258Y-124440832D01*
X57887880Y-124435288D01*
X57891033Y-124430027D01*
X57894687Y-124425100D01*
X57898806Y-124420556D01*
X57903350Y-124416437D01*
X57908277Y-124412783D01*
X57913538Y-124409630D01*
X57919082Y-124407008D01*
X57924857Y-124404941D01*
X57930807Y-124403451D01*
X57936874Y-124402551D01*
X57943000Y-124402250D01*
X58693000Y-124402250D01*
X58699126Y-124402551D01*
G37*
G04 #@! TD.AperFunction*
G04 #@! TA.AperFunction,SMDPad,CuDef*
G36*
X62080005Y-121228454D02*
G01*
X62104273Y-121232054D01*
X62128072Y-121238015D01*
X62151171Y-121246280D01*
X62173350Y-121256770D01*
X62194393Y-121269382D01*
X62214099Y-121283997D01*
X62232277Y-121300473D01*
X62248753Y-121318651D01*
X62263368Y-121338357D01*
X62275980Y-121359400D01*
X62286470Y-121381579D01*
X62294735Y-121404678D01*
X62300696Y-121428477D01*
X62304296Y-121452745D01*
X62305500Y-121477249D01*
X62305500Y-124077251D01*
X62304296Y-124101755D01*
X62300696Y-124126023D01*
X62294735Y-124149822D01*
X62286470Y-124172921D01*
X62275980Y-124195100D01*
X62263368Y-124216143D01*
X62248753Y-124235849D01*
X62232277Y-124254027D01*
X62214099Y-124270503D01*
X62194393Y-124285118D01*
X62173350Y-124297730D01*
X62151171Y-124308220D01*
X62128072Y-124316485D01*
X62104273Y-124322446D01*
X62080005Y-124326046D01*
X62055501Y-124327250D01*
X59455499Y-124327250D01*
X59430995Y-124326046D01*
X59406727Y-124322446D01*
X59382928Y-124316485D01*
X59359829Y-124308220D01*
X59337650Y-124297730D01*
X59316607Y-124285118D01*
X59296901Y-124270503D01*
X59278723Y-124254027D01*
X59262247Y-124235849D01*
X59247632Y-124216143D01*
X59235020Y-124195100D01*
X59224530Y-124172921D01*
X59216265Y-124149822D01*
X59210304Y-124126023D01*
X59206704Y-124101755D01*
X59205500Y-124077251D01*
X59205500Y-121477249D01*
X59206704Y-121452745D01*
X59210304Y-121428477D01*
X59216265Y-121404678D01*
X59224530Y-121381579D01*
X59235020Y-121359400D01*
X59247632Y-121338357D01*
X59262247Y-121318651D01*
X59278723Y-121300473D01*
X59296901Y-121283997D01*
X59316607Y-121269382D01*
X59337650Y-121256770D01*
X59359829Y-121246280D01*
X59382928Y-121238015D01*
X59406727Y-121232054D01*
X59430995Y-121228454D01*
X59455499Y-121227250D01*
X62055501Y-121227250D01*
X62080005Y-121228454D01*
G37*
G04 #@! TD.AperFunction*
D20*
X59182000Y-138684000D03*
X54673000Y-125773000D03*
X49073000Y-125773000D03*
X61572260Y-126675463D03*
X58573000Y-118373000D03*
X75435542Y-126852352D03*
X54673000Y-122873000D03*
X58123000Y-128973002D03*
X64523000Y-122723000D03*
X67468750Y-127254000D03*
X78994000Y-129032000D03*
X51973000Y-119823000D03*
X64723000Y-119323000D03*
X73173000Y-126373000D03*
X68673000Y-123673000D03*
X65721579Y-122432841D03*
X65672998Y-135073000D03*
X66572994Y-121773000D03*
X66573000Y-130373000D03*
X63773000Y-124973000D03*
X47273000Y-126773000D03*
D21*
X59055000Y-138430000D02*
X59055000Y-138557000D01*
X59055000Y-138557000D02*
X59182000Y-138684000D01*
D22*
X65405000Y-123649500D02*
X65405000Y-123793840D01*
D23*
X60005500Y-123527250D02*
X60755500Y-122777250D01*
X58318000Y-123527250D02*
X60005500Y-123527250D01*
X56226250Y-123527250D02*
X55880000Y-123873500D01*
X58318000Y-123527250D02*
X56226250Y-123527250D01*
D21*
X61005500Y-123027250D02*
X60755500Y-122777250D01*
X61005500Y-125214750D02*
X61005500Y-123027250D01*
X61005500Y-126108703D02*
X61572260Y-126675463D01*
X61005500Y-125214750D02*
X61005500Y-126108703D01*
X58582000Y-118364000D02*
X58573000Y-118373000D01*
X59641500Y-118364000D02*
X58582000Y-118364000D01*
D22*
X71239250Y-123328500D02*
X70324250Y-122413500D01*
X71419250Y-123328500D02*
X71239250Y-123328500D01*
X78049250Y-123328500D02*
X78964250Y-122413500D01*
X77869250Y-123328500D02*
X78049250Y-123328500D01*
X76311000Y-125976894D02*
X75435542Y-126852352D01*
X76311000Y-125742000D02*
X76311000Y-125976894D01*
D21*
X55673500Y-123873500D02*
X54673000Y-122873000D01*
X55880000Y-123873500D02*
X55673500Y-123873500D01*
D22*
X56773000Y-129842500D02*
X57642498Y-128973002D01*
X57642498Y-128973002D02*
X58123000Y-128973002D01*
X58566502Y-128973002D02*
X58123000Y-128973002D01*
X59436000Y-129842500D02*
X58566502Y-128973002D01*
D21*
X65405000Y-123605000D02*
X64523000Y-122723000D01*
X65405000Y-123649500D02*
X65405000Y-123605000D01*
X69510500Y-127910500D02*
X69473000Y-127873000D01*
X71073000Y-127910500D02*
X69510500Y-127910500D01*
X65122999Y-119722999D02*
X64723000Y-119323000D01*
X66250010Y-120850010D02*
X65122999Y-119722999D01*
X70064760Y-120850010D02*
X66250010Y-120850010D01*
X70324250Y-121109500D02*
X70064760Y-120850010D01*
X70324250Y-122413500D02*
X70324250Y-121109500D01*
X63421676Y-127254000D02*
X66617315Y-127254000D01*
X62887990Y-127787686D02*
X63421676Y-127254000D01*
X62887990Y-130947314D02*
X62887990Y-127787686D01*
X63215686Y-131275010D02*
X62887990Y-130947314D01*
X66399048Y-131275010D02*
X63215686Y-131275010D01*
X67691000Y-132566962D02*
X66399048Y-131275010D01*
X67691000Y-134772000D02*
X67691000Y-132566962D01*
X64795000Y-137668000D02*
X67691000Y-134772000D01*
X64770000Y-137668000D02*
X64795000Y-137668000D01*
D22*
X49073000Y-125773000D02*
X51973000Y-125773000D01*
X54673000Y-125773000D02*
X51973000Y-125773000D01*
D21*
X61505500Y-125703102D02*
X61505500Y-125652250D01*
X64250240Y-125979260D02*
X61781658Y-125979260D01*
X65405000Y-125524500D02*
X64705000Y-125524500D01*
X61505500Y-125652250D02*
X61505500Y-125214750D01*
X61781658Y-125979260D02*
X61505500Y-125703102D01*
X64705000Y-125524500D02*
X64250240Y-125979260D01*
D22*
X55880000Y-121511000D02*
X55880000Y-121998500D01*
X55880000Y-121973000D02*
X55880000Y-121998500D01*
X55899510Y-121953490D02*
X55880000Y-121973000D01*
X55899510Y-117146490D02*
X55899510Y-121953490D01*
D21*
X56908750Y-123027250D02*
X55880000Y-121998500D01*
X58318000Y-123027250D02*
X56908750Y-123027250D01*
D22*
X56773000Y-127967500D02*
X59436000Y-127967500D01*
X43523000Y-117492000D02*
X43523000Y-118773000D01*
X43868510Y-117146490D02*
X43523000Y-117492000D01*
X55899510Y-117146490D02*
X43868510Y-117146490D01*
X43523000Y-119823000D02*
X43523000Y-118773000D01*
X46973000Y-120673000D02*
X44373000Y-120673000D01*
X48273000Y-121973000D02*
X46973000Y-120673000D01*
X56773000Y-127967500D02*
X55167500Y-129573000D01*
X44373000Y-120673000D02*
X43523000Y-119823000D01*
X55167500Y-129573000D02*
X49573000Y-129573000D01*
X49573000Y-129573000D02*
X48273000Y-128273000D01*
X48273000Y-128273000D02*
X48273000Y-121973000D01*
D21*
X59505500Y-127898000D02*
X59436000Y-127967500D01*
X59005500Y-125214750D02*
X59005500Y-125415500D01*
X59005500Y-125415500D02*
X59003000Y-125418000D01*
X59003000Y-125418000D02*
X59003000Y-125923000D01*
X59003000Y-125923000D02*
X59103000Y-126023000D01*
X59103000Y-126023000D02*
X59503000Y-126023000D01*
X59503000Y-126023000D02*
X59505500Y-127898000D01*
X59505500Y-125214750D02*
X59503000Y-126023000D01*
D22*
X67818000Y-119493000D02*
X67818000Y-120085500D01*
X55899510Y-117146490D02*
X65471490Y-117146490D01*
X65471490Y-117146490D02*
X67818000Y-119493000D01*
X74004000Y-125542000D02*
X73173000Y-126373000D01*
X74311000Y-125542000D02*
X74004000Y-125542000D01*
X72194250Y-123328500D02*
X72176000Y-123346750D01*
X73173000Y-126373000D02*
X72632490Y-126913510D01*
X69413510Y-126913510D02*
X68673000Y-126173000D01*
X68673000Y-126173000D02*
X68673000Y-123673000D01*
X77076000Y-122484192D02*
X77076000Y-123310250D01*
X76164808Y-121573000D02*
X77076000Y-122484192D01*
X72194250Y-123328500D02*
X72176000Y-123310250D01*
X72176000Y-122520692D02*
X73123692Y-121573000D01*
X77076000Y-123310250D02*
X77094250Y-123328500D01*
X72176000Y-123310250D02*
X72176000Y-122520692D01*
X73123692Y-121573000D02*
X76164808Y-121573000D01*
X72194250Y-124281402D02*
X71702652Y-124773000D01*
X72194250Y-123328500D02*
X72194250Y-124281402D01*
X68673000Y-122515500D02*
X67818000Y-121660500D01*
X68673000Y-123673000D02*
X68673000Y-122515500D01*
X69773000Y-124773000D02*
X68673000Y-123673000D01*
X71702652Y-124773000D02*
X69773000Y-124773000D01*
D23*
X72621390Y-126924610D02*
X72632490Y-126913510D01*
X69424610Y-126924610D02*
X72621390Y-126924610D01*
X69413510Y-126913510D02*
X69424610Y-126924610D01*
X74311000Y-127442000D02*
X74311000Y-128805603D01*
X74311000Y-128805603D02*
X73966103Y-129150500D01*
X64683000Y-129150500D02*
X63802500Y-128270000D01*
X73966103Y-129150500D02*
X64683000Y-129150500D01*
X73894250Y-124307500D02*
X73894250Y-123328500D01*
X74894250Y-124307500D02*
X74628750Y-124573000D01*
X74894250Y-123328500D02*
X74894250Y-124307500D01*
X74628750Y-124573000D02*
X74175148Y-124573000D01*
D21*
X74988001Y-124980399D02*
X74580602Y-124573000D01*
X74988001Y-126210999D02*
X74988001Y-124980399D01*
X74311000Y-126888000D02*
X74988001Y-126210999D01*
X74580602Y-124573000D02*
X74175148Y-124573000D01*
X74311000Y-127442000D02*
X74311000Y-126888000D01*
X74159750Y-124573000D02*
X73894250Y-124307500D01*
X74175148Y-124573000D02*
X74159750Y-124573000D01*
X60505500Y-125214750D02*
X60505500Y-125275500D01*
X61441973Y-127784473D02*
X61927500Y-128270000D01*
X60505500Y-125214750D02*
X60505500Y-126848000D01*
X60505500Y-126848000D02*
X61441973Y-127784473D01*
D23*
X64683000Y-129600500D02*
X63810500Y-130473000D01*
X76311000Y-127442000D02*
X74152500Y-129600500D01*
X74152500Y-129600500D02*
X64683000Y-129600500D01*
X74394250Y-122328750D02*
X74394250Y-122349500D01*
X75394250Y-123328500D02*
X75394250Y-122364898D01*
X74394250Y-122349500D02*
X74394250Y-123328500D01*
X75394250Y-122364898D02*
X75202352Y-122173000D01*
X75202352Y-122173000D02*
X74550000Y-122173000D01*
X74550000Y-122173000D02*
X74394250Y-122328750D01*
X75394250Y-124256700D02*
X75394250Y-123328500D01*
D21*
X75394250Y-124307500D02*
X75394250Y-123328500D01*
X75921261Y-124834511D02*
X75394250Y-124307500D01*
X76842113Y-124834511D02*
X75921261Y-124834511D01*
X76988001Y-124980399D02*
X76842113Y-124834511D01*
X76988001Y-127368999D02*
X76988001Y-124980399D01*
X76915000Y-127442000D02*
X76988001Y-127368999D01*
X76311000Y-127442000D02*
X76915000Y-127442000D01*
X57618750Y-124527250D02*
X58318000Y-124527250D01*
X51973000Y-128273000D02*
X51973000Y-126973000D01*
X53873000Y-128273000D02*
X57618750Y-124527250D01*
X51973000Y-128273000D02*
X53873000Y-128273000D01*
D23*
X76394250Y-123376750D02*
X76345851Y-123425149D01*
X76394250Y-123328500D02*
X76394250Y-123376750D01*
D21*
X78105000Y-125831500D02*
X78105000Y-125730000D01*
X78105000Y-125567079D02*
X78105000Y-125730000D01*
X76394250Y-124307500D02*
X76394250Y-123328500D01*
X78025501Y-124380501D02*
X76467251Y-124380501D01*
X78105000Y-124460000D02*
X78025501Y-124380501D01*
X76467251Y-124380501D02*
X76394250Y-124307500D01*
X78105000Y-125831500D02*
X78105000Y-124460000D01*
X65610998Y-135135000D02*
X65672998Y-135073000D01*
X60139250Y-135135000D02*
X65610998Y-135135000D01*
X63193000Y-122027250D02*
X63630500Y-122027250D01*
X65321580Y-122032842D02*
X65721579Y-122432841D01*
X63661752Y-121995998D02*
X65284736Y-121995998D01*
X65284736Y-121995998D02*
X65321580Y-122032842D01*
X63630500Y-122027250D02*
X63661752Y-121995998D01*
X60139250Y-135135000D02*
X58551750Y-135135000D01*
X66327244Y-121527250D02*
X66572994Y-121773000D01*
X63193000Y-121527250D02*
X66327244Y-121527250D01*
X67138685Y-130373000D02*
X66573000Y-130373000D01*
X67438684Y-130073001D02*
X67138685Y-130373000D01*
X77473001Y-130073001D02*
X67438684Y-130073001D01*
X77697000Y-130297000D02*
X77697000Y-135128000D01*
X77473001Y-130073001D02*
X77697000Y-130297000D01*
X60007498Y-127025530D02*
X60007498Y-125214750D01*
X61935500Y-130556000D02*
X61927500Y-130556000D01*
X60987963Y-128005995D02*
X60007498Y-127025530D01*
X61927500Y-130556000D02*
X60987963Y-129616463D01*
X60987963Y-129616463D02*
X60987963Y-128005995D01*
X61005500Y-118875000D02*
X61516500Y-118364000D01*
X61005500Y-120339750D02*
X61005500Y-118875000D01*
X73417824Y-124315676D02*
X73417249Y-124315101D01*
X71073000Y-126185500D02*
X71548000Y-126185500D01*
X71548000Y-126185500D02*
X73417824Y-124315676D01*
X73394250Y-124307500D02*
X73394250Y-123328500D01*
X73401851Y-124315101D02*
X73394250Y-124307500D01*
X73417249Y-124315101D02*
X73401851Y-124315101D01*
X58318000Y-124027250D02*
X57433760Y-124027250D01*
X53173000Y-123273000D02*
X51973000Y-123273000D01*
X57433760Y-124027250D02*
X56488010Y-124973000D01*
X54873000Y-124973000D02*
X53173000Y-123273000D01*
X56488010Y-124973000D02*
X54873000Y-124973000D01*
X51973000Y-123273000D02*
X51973000Y-124573000D01*
X63193000Y-124527250D02*
X63327250Y-124527250D01*
X63327250Y-124527250D02*
X63773000Y-124973000D01*
X47273000Y-125023000D02*
X47223000Y-124973000D01*
X47273000Y-126773000D02*
X47273000Y-125023000D01*
G36*
X65532000Y-131078000D02*
G01*
X65383278Y-131078000D01*
X65091549Y-131136029D01*
X64816747Y-131249856D01*
X64569431Y-131415107D01*
X64412538Y-131572000D01*
X64022122Y-131572000D01*
X64046408Y-131569608D01*
X64207142Y-131520850D01*
X64355275Y-131441671D01*
X64485115Y-131335115D01*
X64591671Y-131205275D01*
X64670850Y-131057142D01*
X64719608Y-130896408D01*
X64736072Y-130729250D01*
X64736072Y-130589137D01*
X64988109Y-130337100D01*
X65532000Y-130337100D01*
X65532000Y-131078000D01*
G37*
X65532000Y-131078000D02*
X65383278Y-131078000D01*
X65091549Y-131136029D01*
X64816747Y-131249856D01*
X64569431Y-131415107D01*
X64412538Y-131572000D01*
X64022122Y-131572000D01*
X64046408Y-131569608D01*
X64207142Y-131520850D01*
X64355275Y-131441671D01*
X64485115Y-131335115D01*
X64591671Y-131205275D01*
X64670850Y-131057142D01*
X64719608Y-130896408D01*
X64736072Y-130729250D01*
X64736072Y-130589137D01*
X64988109Y-130337100D01*
X65532000Y-130337100D01*
X65532000Y-131078000D01*
G36*
X58467329Y-128812275D02*
G01*
X58485100Y-128833930D01*
X58430463Y-128900506D01*
X58371498Y-129010820D01*
X58335188Y-129130518D01*
X58322928Y-129255000D01*
X58326000Y-129406750D01*
X58484750Y-129565500D01*
X59309000Y-129565500D01*
X59309000Y-129545500D01*
X59563000Y-129545500D01*
X59563000Y-129565500D01*
X59583000Y-129565500D01*
X59583000Y-129819500D01*
X59563000Y-129819500D01*
X59563000Y-130606250D01*
X59721750Y-130765000D01*
X59911000Y-130768072D01*
X60035482Y-130755812D01*
X60155180Y-130719502D01*
X60265494Y-130660537D01*
X60362185Y-130581185D01*
X60441537Y-130484494D01*
X60500502Y-130374180D01*
X60536812Y-130254482D01*
X60537847Y-130243977D01*
X61009928Y-130716059D01*
X61009928Y-130729250D01*
X61026392Y-130896408D01*
X61075150Y-131057142D01*
X61154329Y-131205275D01*
X61260885Y-131335115D01*
X61390725Y-131441671D01*
X61538858Y-131520850D01*
X61699592Y-131569608D01*
X61723878Y-131572000D01*
X57761462Y-131572000D01*
X57604569Y-131415107D01*
X57357253Y-131249856D01*
X57082451Y-131136029D01*
X56790722Y-131078000D01*
X56493278Y-131078000D01*
X56201549Y-131136029D01*
X55926747Y-131249856D01*
X55753000Y-131365950D01*
X55753000Y-130457436D01*
X55767463Y-130484494D01*
X55846815Y-130581185D01*
X55943506Y-130660537D01*
X56053820Y-130719502D01*
X56173518Y-130755812D01*
X56298000Y-130768072D01*
X56487250Y-130765000D01*
X56646000Y-130606250D01*
X56646000Y-129819500D01*
X56900000Y-129819500D01*
X56900000Y-130606250D01*
X57058750Y-130765000D01*
X57248000Y-130768072D01*
X57372482Y-130755812D01*
X57492180Y-130719502D01*
X57602494Y-130660537D01*
X57699185Y-130581185D01*
X57778537Y-130484494D01*
X57837502Y-130374180D01*
X57873812Y-130254482D01*
X57886072Y-130130000D01*
X58322928Y-130130000D01*
X58335188Y-130254482D01*
X58371498Y-130374180D01*
X58430463Y-130484494D01*
X58509815Y-130581185D01*
X58606506Y-130660537D01*
X58716820Y-130719502D01*
X58836518Y-130755812D01*
X58961000Y-130768072D01*
X59150250Y-130765000D01*
X59309000Y-130606250D01*
X59309000Y-129819500D01*
X58484750Y-129819500D01*
X58326000Y-129978250D01*
X58322928Y-130130000D01*
X57886072Y-130130000D01*
X57883000Y-129978250D01*
X57724250Y-129819500D01*
X56900000Y-129819500D01*
X56646000Y-129819500D01*
X56626000Y-129819500D01*
X56626000Y-129565500D01*
X56646000Y-129565500D01*
X56646000Y-129545500D01*
X56900000Y-129545500D01*
X56900000Y-129565500D01*
X57724250Y-129565500D01*
X57883000Y-129406750D01*
X57886072Y-129255000D01*
X57873812Y-129130518D01*
X57837502Y-129010820D01*
X57778537Y-128900506D01*
X57723900Y-128833930D01*
X57741671Y-128812275D01*
X57751974Y-128793000D01*
X58457026Y-128793000D01*
X58467329Y-128812275D01*
G37*
X58467329Y-128812275D02*
X58485100Y-128833930D01*
X58430463Y-128900506D01*
X58371498Y-129010820D01*
X58335188Y-129130518D01*
X58322928Y-129255000D01*
X58326000Y-129406750D01*
X58484750Y-129565500D01*
X59309000Y-129565500D01*
X59309000Y-129545500D01*
X59563000Y-129545500D01*
X59563000Y-129565500D01*
X59583000Y-129565500D01*
X59583000Y-129819500D01*
X59563000Y-129819500D01*
X59563000Y-130606250D01*
X59721750Y-130765000D01*
X59911000Y-130768072D01*
X60035482Y-130755812D01*
X60155180Y-130719502D01*
X60265494Y-130660537D01*
X60362185Y-130581185D01*
X60441537Y-130484494D01*
X60500502Y-130374180D01*
X60536812Y-130254482D01*
X60537847Y-130243977D01*
X61009928Y-130716059D01*
X61009928Y-130729250D01*
X61026392Y-130896408D01*
X61075150Y-131057142D01*
X61154329Y-131205275D01*
X61260885Y-131335115D01*
X61390725Y-131441671D01*
X61538858Y-131520850D01*
X61699592Y-131569608D01*
X61723878Y-131572000D01*
X57761462Y-131572000D01*
X57604569Y-131415107D01*
X57357253Y-131249856D01*
X57082451Y-131136029D01*
X56790722Y-131078000D01*
X56493278Y-131078000D01*
X56201549Y-131136029D01*
X55926747Y-131249856D01*
X55753000Y-131365950D01*
X55753000Y-130457436D01*
X55767463Y-130484494D01*
X55846815Y-130581185D01*
X55943506Y-130660537D01*
X56053820Y-130719502D01*
X56173518Y-130755812D01*
X56298000Y-130768072D01*
X56487250Y-130765000D01*
X56646000Y-130606250D01*
X56646000Y-129819500D01*
X56900000Y-129819500D01*
X56900000Y-130606250D01*
X57058750Y-130765000D01*
X57248000Y-130768072D01*
X57372482Y-130755812D01*
X57492180Y-130719502D01*
X57602494Y-130660537D01*
X57699185Y-130581185D01*
X57778537Y-130484494D01*
X57837502Y-130374180D01*
X57873812Y-130254482D01*
X57886072Y-130130000D01*
X58322928Y-130130000D01*
X58335188Y-130254482D01*
X58371498Y-130374180D01*
X58430463Y-130484494D01*
X58509815Y-130581185D01*
X58606506Y-130660537D01*
X58716820Y-130719502D01*
X58836518Y-130755812D01*
X58961000Y-130768072D01*
X59150250Y-130765000D01*
X59309000Y-130606250D01*
X59309000Y-129819500D01*
X58484750Y-129819500D01*
X58326000Y-129978250D01*
X58322928Y-130130000D01*
X57886072Y-130130000D01*
X57883000Y-129978250D01*
X57724250Y-129819500D01*
X56900000Y-129819500D01*
X56646000Y-129819500D01*
X56626000Y-129819500D01*
X56626000Y-129565500D01*
X56646000Y-129565500D01*
X56646000Y-129545500D01*
X56900000Y-129545500D01*
X56900000Y-129565500D01*
X57724250Y-129565500D01*
X57883000Y-129406750D01*
X57886072Y-129255000D01*
X57873812Y-129130518D01*
X57837502Y-129010820D01*
X57778537Y-128900506D01*
X57723900Y-128833930D01*
X57741671Y-128812275D01*
X57751974Y-128793000D01*
X58457026Y-128793000D01*
X58467329Y-128812275D01*
G36*
X62965725Y-131441671D02*
G01*
X63113858Y-131520850D01*
X63274592Y-131569608D01*
X63298878Y-131572000D01*
X62447122Y-131572000D01*
X62471408Y-131569608D01*
X62632142Y-131520850D01*
X62780275Y-131441671D01*
X62873000Y-131365574D01*
X62965725Y-131441671D01*
G37*
X62965725Y-131441671D02*
X63113858Y-131520850D01*
X63274592Y-131569608D01*
X63298878Y-131572000D01*
X62447122Y-131572000D01*
X62471408Y-131569608D01*
X62632142Y-131520850D01*
X62780275Y-131441671D01*
X62873000Y-131365574D01*
X62965725Y-131441671D01*
G36*
X64981592Y-126433608D02*
G01*
X65148750Y-126450072D01*
X65532000Y-126450072D01*
X65532000Y-128413900D01*
X64988110Y-128413900D01*
X64728072Y-128153863D01*
X64728072Y-128013750D01*
X64711608Y-127846592D01*
X64662850Y-127685858D01*
X64583671Y-127537725D01*
X64477115Y-127407885D01*
X64347275Y-127301329D01*
X64199142Y-127222150D01*
X64038408Y-127173392D01*
X63871250Y-127156928D01*
X63433750Y-127156928D01*
X63266592Y-127173392D01*
X63105858Y-127222150D01*
X62957725Y-127301329D01*
X62865000Y-127377426D01*
X62772275Y-127301329D01*
X62624142Y-127222150D01*
X62463408Y-127173392D01*
X62296250Y-127156928D01*
X61892059Y-127156928D01*
X61327097Y-126591967D01*
X61356266Y-126615905D01*
X61488643Y-126686662D01*
X61632280Y-126730234D01*
X61744232Y-126741260D01*
X61744234Y-126741260D01*
X61781657Y-126744946D01*
X61819080Y-126741260D01*
X64212817Y-126741260D01*
X64250240Y-126744946D01*
X64287663Y-126741260D01*
X64287666Y-126741260D01*
X64399618Y-126730234D01*
X64543255Y-126686662D01*
X64675632Y-126615905D01*
X64791662Y-126520682D01*
X64815524Y-126491606D01*
X64898675Y-126408455D01*
X64981592Y-126433608D01*
G37*
X64981592Y-126433608D02*
X65148750Y-126450072D01*
X65532000Y-126450072D01*
X65532000Y-128413900D01*
X64988110Y-128413900D01*
X64728072Y-128153863D01*
X64728072Y-128013750D01*
X64711608Y-127846592D01*
X64662850Y-127685858D01*
X64583671Y-127537725D01*
X64477115Y-127407885D01*
X64347275Y-127301329D01*
X64199142Y-127222150D01*
X64038408Y-127173392D01*
X63871250Y-127156928D01*
X63433750Y-127156928D01*
X63266592Y-127173392D01*
X63105858Y-127222150D01*
X62957725Y-127301329D01*
X62865000Y-127377426D01*
X62772275Y-127301329D01*
X62624142Y-127222150D01*
X62463408Y-127173392D01*
X62296250Y-127156928D01*
X61892059Y-127156928D01*
X61327097Y-126591967D01*
X61356266Y-126615905D01*
X61488643Y-126686662D01*
X61632280Y-126730234D01*
X61744232Y-126741260D01*
X61744234Y-126741260D01*
X61781657Y-126744946D01*
X61819080Y-126741260D01*
X64212817Y-126741260D01*
X64250240Y-126744946D01*
X64287663Y-126741260D01*
X64287666Y-126741260D01*
X64399618Y-126730234D01*
X64543255Y-126686662D01*
X64675632Y-126615905D01*
X64791662Y-126520682D01*
X64815524Y-126491606D01*
X64898675Y-126408455D01*
X64981592Y-126433608D01*
G36*
X64685820Y-122772498D02*
G01*
X64575506Y-122831463D01*
X64478815Y-122910815D01*
X64399463Y-123007506D01*
X64340498Y-123117820D01*
X64304188Y-123237518D01*
X64291928Y-123362000D01*
X64295000Y-123513750D01*
X64453750Y-123672500D01*
X65278000Y-123672500D01*
X65278000Y-123652500D01*
X65532000Y-123652500D01*
X65532000Y-123946500D01*
X65278000Y-123946500D01*
X65278000Y-123926500D01*
X64453750Y-123926500D01*
X64299942Y-124080308D01*
X64268572Y-124059347D01*
X64268572Y-123964750D01*
X64255111Y-123828075D01*
X64239693Y-123777250D01*
X64255111Y-123726425D01*
X64268572Y-123589750D01*
X64268572Y-123464750D01*
X64255111Y-123328075D01*
X64239693Y-123277250D01*
X64255111Y-123226425D01*
X64268572Y-123089750D01*
X64268572Y-122964750D01*
X64255111Y-122828075D01*
X64239693Y-122777250D01*
X64245533Y-122757998D01*
X64733620Y-122757998D01*
X64685820Y-122772498D01*
G37*
X64685820Y-122772498D02*
X64575506Y-122831463D01*
X64478815Y-122910815D01*
X64399463Y-123007506D01*
X64340498Y-123117820D01*
X64304188Y-123237518D01*
X64291928Y-123362000D01*
X64295000Y-123513750D01*
X64453750Y-123672500D01*
X65278000Y-123672500D01*
X65278000Y-123652500D01*
X65532000Y-123652500D01*
X65532000Y-123946500D01*
X65278000Y-123946500D01*
X65278000Y-123926500D01*
X64453750Y-123926500D01*
X64299942Y-124080308D01*
X64268572Y-124059347D01*
X64268572Y-123964750D01*
X64255111Y-123828075D01*
X64239693Y-123777250D01*
X64255111Y-123726425D01*
X64268572Y-123589750D01*
X64268572Y-123464750D01*
X64255111Y-123328075D01*
X64239693Y-123277250D01*
X64255111Y-123226425D01*
X64268572Y-123089750D01*
X64268572Y-122964750D01*
X64255111Y-122828075D01*
X64239693Y-122777250D01*
X64245533Y-122757998D01*
X64733620Y-122757998D01*
X64685820Y-122772498D01*
G36*
X56007000Y-123596500D02*
G01*
X56027000Y-123596500D01*
X56027000Y-123850500D01*
X56007000Y-123850500D01*
X56007000Y-123870500D01*
X55753000Y-123870500D01*
X55753000Y-123576500D01*
X56007000Y-123576500D01*
X56007000Y-123596500D01*
G37*
X56007000Y-123596500D02*
X56027000Y-123596500D01*
X56027000Y-123850500D01*
X56007000Y-123850500D01*
X56007000Y-123870500D01*
X55753000Y-123870500D01*
X55753000Y-123576500D01*
X56007000Y-123576500D01*
X56007000Y-123596500D01*
G36*
X60882500Y-122650250D02*
G01*
X60902500Y-122650250D01*
X60902500Y-122904250D01*
X60882500Y-122904250D01*
X60882500Y-122924250D01*
X60628500Y-122924250D01*
X60628500Y-122904250D01*
X60608500Y-122904250D01*
X60608500Y-122650250D01*
X60628500Y-122650250D01*
X60628500Y-122630250D01*
X60882500Y-122630250D01*
X60882500Y-122650250D01*
G37*
X60882500Y-122650250D02*
X60902500Y-122650250D01*
X60902500Y-122904250D01*
X60882500Y-122904250D01*
X60882500Y-122924250D01*
X60628500Y-122924250D01*
X60628500Y-122904250D01*
X60608500Y-122904250D01*
X60608500Y-122650250D01*
X60628500Y-122650250D01*
X60628500Y-122630250D01*
X60882500Y-122630250D01*
X60882500Y-122650250D01*
G36*
X58719000Y-118078250D02*
G01*
X58877750Y-118237000D01*
X59664500Y-118237000D01*
X59664500Y-118217000D01*
X59918500Y-118217000D01*
X59918500Y-118237000D01*
X59938500Y-118237000D01*
X59938500Y-118491000D01*
X59918500Y-118491000D01*
X59918500Y-118511000D01*
X59664500Y-118511000D01*
X59664500Y-118491000D01*
X58877750Y-118491000D01*
X58719000Y-118649750D01*
X58715928Y-118839000D01*
X58728188Y-118963482D01*
X58764498Y-119083180D01*
X58823463Y-119193494D01*
X58886073Y-119269785D01*
X58806325Y-119277639D01*
X58674903Y-119317506D01*
X58553783Y-119382246D01*
X58447621Y-119469371D01*
X58360496Y-119575533D01*
X58295756Y-119696653D01*
X58255889Y-119828075D01*
X58242428Y-119964750D01*
X58242428Y-120264178D01*
X57943000Y-120264178D01*
X57806325Y-120277639D01*
X57674903Y-120317506D01*
X57553783Y-120382246D01*
X57447621Y-120469371D01*
X57360496Y-120575533D01*
X57295756Y-120696653D01*
X57255889Y-120828075D01*
X57242428Y-120964750D01*
X57242428Y-121089750D01*
X57255889Y-121226425D01*
X57271307Y-121277250D01*
X57255889Y-121328075D01*
X57242428Y-121464750D01*
X57242428Y-121589750D01*
X57255889Y-121726425D01*
X57271307Y-121777250D01*
X57255889Y-121828075D01*
X57242428Y-121964750D01*
X57242428Y-122089750D01*
X57255889Y-122226425D01*
X57267667Y-122265250D01*
X57224381Y-122265250D01*
X56993072Y-122033941D01*
X56993072Y-121929750D01*
X56976608Y-121762592D01*
X56927850Y-121601858D01*
X56848671Y-121453725D01*
X56742115Y-121323885D01*
X56725010Y-121309847D01*
X56725010Y-117971990D01*
X58717275Y-117971990D01*
X58719000Y-118078250D01*
G37*
X58719000Y-118078250D02*
X58877750Y-118237000D01*
X59664500Y-118237000D01*
X59664500Y-118217000D01*
X59918500Y-118217000D01*
X59918500Y-118237000D01*
X59938500Y-118237000D01*
X59938500Y-118491000D01*
X59918500Y-118491000D01*
X59918500Y-118511000D01*
X59664500Y-118511000D01*
X59664500Y-118491000D01*
X58877750Y-118491000D01*
X58719000Y-118649750D01*
X58715928Y-118839000D01*
X58728188Y-118963482D01*
X58764498Y-119083180D01*
X58823463Y-119193494D01*
X58886073Y-119269785D01*
X58806325Y-119277639D01*
X58674903Y-119317506D01*
X58553783Y-119382246D01*
X58447621Y-119469371D01*
X58360496Y-119575533D01*
X58295756Y-119696653D01*
X58255889Y-119828075D01*
X58242428Y-119964750D01*
X58242428Y-120264178D01*
X57943000Y-120264178D01*
X57806325Y-120277639D01*
X57674903Y-120317506D01*
X57553783Y-120382246D01*
X57447621Y-120469371D01*
X57360496Y-120575533D01*
X57295756Y-120696653D01*
X57255889Y-120828075D01*
X57242428Y-120964750D01*
X57242428Y-121089750D01*
X57255889Y-121226425D01*
X57271307Y-121277250D01*
X57255889Y-121328075D01*
X57242428Y-121464750D01*
X57242428Y-121589750D01*
X57255889Y-121726425D01*
X57271307Y-121777250D01*
X57255889Y-121828075D01*
X57242428Y-121964750D01*
X57242428Y-122089750D01*
X57255889Y-122226425D01*
X57267667Y-122265250D01*
X57224381Y-122265250D01*
X56993072Y-122033941D01*
X56993072Y-121929750D01*
X56976608Y-121762592D01*
X56927850Y-121601858D01*
X56848671Y-121453725D01*
X56742115Y-121323885D01*
X56725010Y-121309847D01*
X56725010Y-117971990D01*
X58717275Y-117971990D01*
X58719000Y-118078250D01*
G36*
X65532000Y-118374432D02*
G01*
X65532000Y-120765250D01*
X64236053Y-120765250D01*
X64215244Y-120696653D01*
X64150504Y-120575533D01*
X64063379Y-120469371D01*
X63957217Y-120382246D01*
X63836097Y-120317506D01*
X63704675Y-120277639D01*
X63568000Y-120264178D01*
X63268572Y-120264178D01*
X63268572Y-119964750D01*
X63255111Y-119828075D01*
X63215244Y-119696653D01*
X63150504Y-119575533D01*
X63063379Y-119469371D01*
X62957217Y-119382246D01*
X62836097Y-119317506D01*
X62704675Y-119277639D01*
X62568000Y-119264178D01*
X62443000Y-119264178D01*
X62306325Y-119277639D01*
X62255500Y-119293057D01*
X62204675Y-119277639D01*
X62136512Y-119270926D01*
X62191115Y-119226115D01*
X62297671Y-119096275D01*
X62376850Y-118948142D01*
X62425608Y-118787408D01*
X62442072Y-118620250D01*
X62442072Y-118107750D01*
X62428701Y-117971990D01*
X65129558Y-117971990D01*
X65532000Y-118374432D01*
G37*
X65532000Y-118374432D02*
X65532000Y-120765250D01*
X64236053Y-120765250D01*
X64215244Y-120696653D01*
X64150504Y-120575533D01*
X64063379Y-120469371D01*
X63957217Y-120382246D01*
X63836097Y-120317506D01*
X63704675Y-120277639D01*
X63568000Y-120264178D01*
X63268572Y-120264178D01*
X63268572Y-119964750D01*
X63255111Y-119828075D01*
X63215244Y-119696653D01*
X63150504Y-119575533D01*
X63063379Y-119469371D01*
X62957217Y-119382246D01*
X62836097Y-119317506D01*
X62704675Y-119277639D01*
X62568000Y-119264178D01*
X62443000Y-119264178D01*
X62306325Y-119277639D01*
X62255500Y-119293057D01*
X62204675Y-119277639D01*
X62136512Y-119270926D01*
X62191115Y-119226115D01*
X62297671Y-119096275D01*
X62376850Y-118948142D01*
X62425608Y-118787408D01*
X62442072Y-118620250D01*
X62442072Y-118107750D01*
X62428701Y-117971990D01*
X65129558Y-117971990D01*
X65532000Y-118374432D01*
G36*
X42728820Y-120262502D02*
G01*
X42844615Y-120297628D01*
X42860929Y-120317506D01*
X42936459Y-120409541D01*
X42967965Y-120435397D01*
X43760611Y-121228044D01*
X43786459Y-121259541D01*
X43817955Y-121285389D01*
X43817958Y-121285392D01*
X43912157Y-121362699D01*
X44015539Y-121417958D01*
X44055566Y-121439353D01*
X44211174Y-121486556D01*
X44332447Y-121498500D01*
X44332449Y-121498500D01*
X44373000Y-121502494D01*
X44413550Y-121498500D01*
X46631068Y-121498500D01*
X47447501Y-122314935D01*
X47447501Y-123434928D01*
X46673000Y-123434928D01*
X46548518Y-123447188D01*
X46428820Y-123483498D01*
X46318506Y-123542463D01*
X46221815Y-123621815D01*
X46142463Y-123718506D01*
X46083498Y-123828820D01*
X46047188Y-123948518D01*
X46034928Y-124073000D01*
X46034928Y-125873000D01*
X46047188Y-125997482D01*
X46083498Y-126117180D01*
X46142463Y-126227494D01*
X46221815Y-126324185D01*
X46308994Y-126395731D01*
X46277774Y-126471102D01*
X46238000Y-126671061D01*
X46238000Y-126874939D01*
X46277774Y-127074898D01*
X46355795Y-127263256D01*
X46469063Y-127432774D01*
X46613226Y-127576937D01*
X46782744Y-127690205D01*
X46971102Y-127768226D01*
X47171061Y-127808000D01*
X47374939Y-127808000D01*
X47447500Y-127793567D01*
X47447500Y-128232449D01*
X47443506Y-128273000D01*
X47447500Y-128313550D01*
X47447500Y-128313552D01*
X47459444Y-128434825D01*
X47495367Y-128553247D01*
X47506647Y-128590433D01*
X47583301Y-128733842D01*
X47609091Y-128765267D01*
X47686459Y-128859541D01*
X47717966Y-128885398D01*
X48960611Y-130128045D01*
X48986459Y-130159541D01*
X49017955Y-130185389D01*
X49017958Y-130185392D01*
X49112157Y-130262699D01*
X49251351Y-130337100D01*
X49255566Y-130339353D01*
X49411174Y-130386556D01*
X49532447Y-130398500D01*
X49532449Y-130398500D01*
X49573000Y-130402494D01*
X49613550Y-130398500D01*
X50106923Y-130398500D01*
X49886174Y-130546000D01*
X49520000Y-130912174D01*
X49232299Y-131342749D01*
X49034127Y-131821178D01*
X48933100Y-132329076D01*
X48933100Y-132846924D01*
X49034127Y-133354822D01*
X49232299Y-133833251D01*
X49520000Y-134263826D01*
X49886174Y-134630000D01*
X50316749Y-134917701D01*
X50795178Y-135115873D01*
X51303076Y-135216900D01*
X51820924Y-135216900D01*
X52328822Y-135115873D01*
X52807251Y-134917701D01*
X53237826Y-134630000D01*
X53308237Y-134559589D01*
X53237000Y-134917721D01*
X53237000Y-135338279D01*
X53319047Y-135750756D01*
X53479988Y-136139302D01*
X53713637Y-136488983D01*
X54011017Y-136786363D01*
X54360698Y-137020012D01*
X54749244Y-137180953D01*
X55161721Y-137263000D01*
X55582279Y-137263000D01*
X55994756Y-137180953D01*
X56383302Y-137020012D01*
X56732983Y-136786363D01*
X56822440Y-136696906D01*
X56841463Y-136732494D01*
X56920815Y-136829185D01*
X57017506Y-136908537D01*
X57127820Y-136967502D01*
X57247518Y-137003812D01*
X57372000Y-137016072D01*
X59922000Y-137016072D01*
X60046482Y-137003812D01*
X60166180Y-136967502D01*
X60276494Y-136908537D01*
X60373185Y-136829185D01*
X60452537Y-136732494D01*
X60511502Y-136622180D01*
X60547812Y-136502482D01*
X60560072Y-136378000D01*
X60560072Y-135897000D01*
X63128885Y-135897000D01*
X63043815Y-135966815D01*
X62964463Y-136063506D01*
X62905498Y-136173820D01*
X62869188Y-136293518D01*
X62856928Y-136418000D01*
X62860000Y-137382250D01*
X63018750Y-137541000D01*
X64643000Y-137541000D01*
X64643000Y-137521000D01*
X64897000Y-137521000D01*
X64897000Y-137541000D01*
X64917000Y-137541000D01*
X64917000Y-137795000D01*
X64897000Y-137795000D01*
X64897000Y-139394250D01*
X65055750Y-139553000D01*
X66045000Y-139556072D01*
X66169482Y-139543812D01*
X66289180Y-139507502D01*
X66399494Y-139448537D01*
X66496185Y-139369185D01*
X66575537Y-139272494D01*
X66603965Y-139219311D01*
X66711017Y-139326363D01*
X67060698Y-139560012D01*
X67449244Y-139720953D01*
X67861721Y-139803000D01*
X68282279Y-139803000D01*
X68694756Y-139720953D01*
X69083302Y-139560012D01*
X69432983Y-139326363D01*
X69730363Y-139028983D01*
X69964012Y-138679302D01*
X70124953Y-138290756D01*
X70207000Y-137878279D01*
X70207000Y-137457721D01*
X70124953Y-137045244D01*
X69964012Y-136656698D01*
X69730363Y-136307017D01*
X69432983Y-136009637D01*
X69083302Y-135775988D01*
X68694756Y-135615047D01*
X68282279Y-135533000D01*
X67861721Y-135533000D01*
X67449244Y-135615047D01*
X67060698Y-135775988D01*
X66711017Y-136009637D01*
X66603965Y-136116689D01*
X66575537Y-136063506D01*
X66496185Y-135966815D01*
X66399494Y-135887463D01*
X66349154Y-135860555D01*
X66476935Y-135732774D01*
X66590203Y-135563256D01*
X66668224Y-135374898D01*
X66707998Y-135174939D01*
X66707998Y-134971061D01*
X66668224Y-134771102D01*
X66590203Y-134582744D01*
X66476935Y-134413226D01*
X66332772Y-134269063D01*
X66163254Y-134155795D01*
X65974896Y-134077774D01*
X65878649Y-134058629D01*
X65972451Y-134039971D01*
X66247253Y-133926144D01*
X66494569Y-133760893D01*
X66704893Y-133550569D01*
X66870144Y-133303253D01*
X66983971Y-133028451D01*
X67042000Y-132736722D01*
X67042000Y-132439278D01*
X66983971Y-132147549D01*
X66870144Y-131872747D01*
X66704893Y-131625431D01*
X66494569Y-131415107D01*
X66483933Y-131408000D01*
X66674939Y-131408000D01*
X66874898Y-131368226D01*
X67063256Y-131290205D01*
X67232774Y-131176937D01*
X67285483Y-131124228D01*
X67288063Y-131123974D01*
X67431700Y-131080402D01*
X67564077Y-131009645D01*
X67680107Y-130914422D01*
X67703969Y-130885345D01*
X67754314Y-130835001D01*
X68647173Y-130835001D01*
X68570000Y-130912174D01*
X68282299Y-131342749D01*
X68084127Y-131821178D01*
X67983100Y-132329076D01*
X67983100Y-132846924D01*
X68084127Y-133354822D01*
X68282299Y-133833251D01*
X68570000Y-134263826D01*
X68936174Y-134630000D01*
X69366749Y-134917701D01*
X69845178Y-135115873D01*
X70353076Y-135216900D01*
X70870924Y-135216900D01*
X71378822Y-135115873D01*
X71857251Y-134917701D01*
X72287826Y-134630000D01*
X72358237Y-134559589D01*
X72287000Y-134917721D01*
X72287000Y-135338279D01*
X72369047Y-135750756D01*
X72529988Y-136139302D01*
X72763637Y-136488983D01*
X73061017Y-136786363D01*
X73410698Y-137020012D01*
X73799244Y-137180953D01*
X74211721Y-137263000D01*
X74632279Y-137263000D01*
X75044756Y-137180953D01*
X75433302Y-137020012D01*
X75782983Y-136786363D01*
X75872440Y-136696906D01*
X75891463Y-136732494D01*
X75970815Y-136829185D01*
X76067506Y-136908537D01*
X76177820Y-136967502D01*
X76297518Y-137003812D01*
X76422000Y-137016072D01*
X78972000Y-137016072D01*
X79096482Y-137003812D01*
X79216180Y-136967502D01*
X79326494Y-136908537D01*
X79423185Y-136829185D01*
X79502537Y-136732494D01*
X79508751Y-136720869D01*
X79508751Y-140461460D01*
X79487981Y-140673288D01*
X79435841Y-140845986D01*
X79351149Y-141005268D01*
X79237128Y-141145071D01*
X79098135Y-141260056D01*
X78939445Y-141345860D01*
X78767115Y-141399205D01*
X78557369Y-141421250D01*
X43688530Y-141421250D01*
X43476712Y-141400481D01*
X43304014Y-141348341D01*
X43144732Y-141263649D01*
X43004929Y-141149628D01*
X42889944Y-141010635D01*
X42804140Y-140851945D01*
X42750795Y-140679615D01*
X42728750Y-140469869D01*
X42728750Y-138918000D01*
X43806928Y-138918000D01*
X43819188Y-139042482D01*
X43855498Y-139162180D01*
X43914463Y-139272494D01*
X43993815Y-139369185D01*
X44090506Y-139448537D01*
X44200820Y-139507502D01*
X44320518Y-139543812D01*
X44445000Y-139556072D01*
X45434250Y-139553000D01*
X45593000Y-139394250D01*
X45593000Y-137795000D01*
X43968750Y-137795000D01*
X43810000Y-137953750D01*
X43806928Y-138918000D01*
X42728750Y-138918000D01*
X42728750Y-136418000D01*
X43806928Y-136418000D01*
X43810000Y-137382250D01*
X43968750Y-137541000D01*
X45593000Y-137541000D01*
X45593000Y-135941750D01*
X45847000Y-135941750D01*
X45847000Y-137541000D01*
X45867000Y-137541000D01*
X45867000Y-137795000D01*
X45847000Y-137795000D01*
X45847000Y-139394250D01*
X46005750Y-139553000D01*
X46995000Y-139556072D01*
X47119482Y-139543812D01*
X47239180Y-139507502D01*
X47349494Y-139448537D01*
X47446185Y-139369185D01*
X47525537Y-139272494D01*
X47553965Y-139219311D01*
X47661017Y-139326363D01*
X48010698Y-139560012D01*
X48399244Y-139720953D01*
X48811721Y-139803000D01*
X49232279Y-139803000D01*
X49644756Y-139720953D01*
X50033302Y-139560012D01*
X50382983Y-139326363D01*
X50680363Y-139028983D01*
X50754519Y-138918000D01*
X62856928Y-138918000D01*
X62869188Y-139042482D01*
X62905498Y-139162180D01*
X62964463Y-139272494D01*
X63043815Y-139369185D01*
X63140506Y-139448537D01*
X63250820Y-139507502D01*
X63370518Y-139543812D01*
X63495000Y-139556072D01*
X64484250Y-139553000D01*
X64643000Y-139394250D01*
X64643000Y-137795000D01*
X63018750Y-137795000D01*
X62860000Y-137953750D01*
X62856928Y-138918000D01*
X50754519Y-138918000D01*
X50914012Y-138679302D01*
X51074953Y-138290756D01*
X51157000Y-137878279D01*
X51157000Y-137457721D01*
X51074953Y-137045244D01*
X50914012Y-136656698D01*
X50680363Y-136307017D01*
X50382983Y-136009637D01*
X50033302Y-135775988D01*
X49644756Y-135615047D01*
X49232279Y-135533000D01*
X48811721Y-135533000D01*
X48399244Y-135615047D01*
X48010698Y-135775988D01*
X47661017Y-136009637D01*
X47553965Y-136116689D01*
X47525537Y-136063506D01*
X47446185Y-135966815D01*
X47349494Y-135887463D01*
X47239180Y-135828498D01*
X47119482Y-135792188D01*
X46995000Y-135779928D01*
X46005750Y-135783000D01*
X45847000Y-135941750D01*
X45593000Y-135941750D01*
X45434250Y-135783000D01*
X44445000Y-135779928D01*
X44320518Y-135792188D01*
X44200820Y-135828498D01*
X44090506Y-135887463D01*
X43993815Y-135966815D01*
X43914463Y-136063506D01*
X43855498Y-136173820D01*
X43819188Y-136293518D01*
X43806928Y-136418000D01*
X42728750Y-136418000D01*
X42728750Y-132439278D01*
X44972000Y-132439278D01*
X44972000Y-132736722D01*
X45030029Y-133028451D01*
X45143856Y-133303253D01*
X45309107Y-133550569D01*
X45519431Y-133760893D01*
X45766747Y-133926144D01*
X46041549Y-134039971D01*
X46333278Y-134098000D01*
X46630722Y-134098000D01*
X46922451Y-134039971D01*
X47197253Y-133926144D01*
X47444569Y-133760893D01*
X47654893Y-133550569D01*
X47820144Y-133303253D01*
X47933971Y-133028451D01*
X47992000Y-132736722D01*
X47992000Y-132439278D01*
X47933971Y-132147549D01*
X47820144Y-131872747D01*
X47654893Y-131625431D01*
X47444569Y-131415107D01*
X47197253Y-131249856D01*
X46922451Y-131136029D01*
X46630722Y-131078000D01*
X46333278Y-131078000D01*
X46041549Y-131136029D01*
X45766747Y-131249856D01*
X45519431Y-131415107D01*
X45309107Y-131625431D01*
X45143856Y-131872747D01*
X45030029Y-132147549D01*
X44972000Y-132439278D01*
X42728750Y-132439278D01*
X42728750Y-126462465D01*
X42728820Y-126462502D01*
X42848518Y-126498812D01*
X42973000Y-126511072D01*
X44073000Y-126511072D01*
X44197482Y-126498812D01*
X44317180Y-126462502D01*
X44427494Y-126403537D01*
X44524185Y-126324185D01*
X44603537Y-126227494D01*
X44662502Y-126117180D01*
X44698812Y-125997482D01*
X44711072Y-125873000D01*
X44711072Y-124073000D01*
X44698812Y-123948518D01*
X44662502Y-123828820D01*
X44603537Y-123718506D01*
X44524185Y-123621815D01*
X44427494Y-123542463D01*
X44317180Y-123483498D01*
X44197482Y-123447188D01*
X44073000Y-123434928D01*
X42973000Y-123434928D01*
X42848518Y-123447188D01*
X42728820Y-123483498D01*
X42728750Y-123483535D01*
X42728750Y-120262465D01*
X42728820Y-120262502D01*
G37*
X42728820Y-120262502D02*
X42844615Y-120297628D01*
X42860929Y-120317506D01*
X42936459Y-120409541D01*
X42967965Y-120435397D01*
X43760611Y-121228044D01*
X43786459Y-121259541D01*
X43817955Y-121285389D01*
X43817958Y-121285392D01*
X43912157Y-121362699D01*
X44015539Y-121417958D01*
X44055566Y-121439353D01*
X44211174Y-121486556D01*
X44332447Y-121498500D01*
X44332449Y-121498500D01*
X44373000Y-121502494D01*
X44413550Y-121498500D01*
X46631068Y-121498500D01*
X47447501Y-122314935D01*
X47447501Y-123434928D01*
X46673000Y-123434928D01*
X46548518Y-123447188D01*
X46428820Y-123483498D01*
X46318506Y-123542463D01*
X46221815Y-123621815D01*
X46142463Y-123718506D01*
X46083498Y-123828820D01*
X46047188Y-123948518D01*
X46034928Y-124073000D01*
X46034928Y-125873000D01*
X46047188Y-125997482D01*
X46083498Y-126117180D01*
X46142463Y-126227494D01*
X46221815Y-126324185D01*
X46308994Y-126395731D01*
X46277774Y-126471102D01*
X46238000Y-126671061D01*
X46238000Y-126874939D01*
X46277774Y-127074898D01*
X46355795Y-127263256D01*
X46469063Y-127432774D01*
X46613226Y-127576937D01*
X46782744Y-127690205D01*
X46971102Y-127768226D01*
X47171061Y-127808000D01*
X47374939Y-127808000D01*
X47447500Y-127793567D01*
X47447500Y-128232449D01*
X47443506Y-128273000D01*
X47447500Y-128313550D01*
X47447500Y-128313552D01*
X47459444Y-128434825D01*
X47495367Y-128553247D01*
X47506647Y-128590433D01*
X47583301Y-128733842D01*
X47609091Y-128765267D01*
X47686459Y-128859541D01*
X47717966Y-128885398D01*
X48960611Y-130128045D01*
X48986459Y-130159541D01*
X49017955Y-130185389D01*
X49017958Y-130185392D01*
X49112157Y-130262699D01*
X49251351Y-130337100D01*
X49255566Y-130339353D01*
X49411174Y-130386556D01*
X49532447Y-130398500D01*
X49532449Y-130398500D01*
X49573000Y-130402494D01*
X49613550Y-130398500D01*
X50106923Y-130398500D01*
X49886174Y-130546000D01*
X49520000Y-130912174D01*
X49232299Y-131342749D01*
X49034127Y-131821178D01*
X48933100Y-132329076D01*
X48933100Y-132846924D01*
X49034127Y-133354822D01*
X49232299Y-133833251D01*
X49520000Y-134263826D01*
X49886174Y-134630000D01*
X50316749Y-134917701D01*
X50795178Y-135115873D01*
X51303076Y-135216900D01*
X51820924Y-135216900D01*
X52328822Y-135115873D01*
X52807251Y-134917701D01*
X53237826Y-134630000D01*
X53308237Y-134559589D01*
X53237000Y-134917721D01*
X53237000Y-135338279D01*
X53319047Y-135750756D01*
X53479988Y-136139302D01*
X53713637Y-136488983D01*
X54011017Y-136786363D01*
X54360698Y-137020012D01*
X54749244Y-137180953D01*
X55161721Y-137263000D01*
X55582279Y-137263000D01*
X55994756Y-137180953D01*
X56383302Y-137020012D01*
X56732983Y-136786363D01*
X56822440Y-136696906D01*
X56841463Y-136732494D01*
X56920815Y-136829185D01*
X57017506Y-136908537D01*
X57127820Y-136967502D01*
X57247518Y-137003812D01*
X57372000Y-137016072D01*
X59922000Y-137016072D01*
X60046482Y-137003812D01*
X60166180Y-136967502D01*
X60276494Y-136908537D01*
X60373185Y-136829185D01*
X60452537Y-136732494D01*
X60511502Y-136622180D01*
X60547812Y-136502482D01*
X60560072Y-136378000D01*
X60560072Y-135897000D01*
X63128885Y-135897000D01*
X63043815Y-135966815D01*
X62964463Y-136063506D01*
X62905498Y-136173820D01*
X62869188Y-136293518D01*
X62856928Y-136418000D01*
X62860000Y-137382250D01*
X63018750Y-137541000D01*
X64643000Y-137541000D01*
X64643000Y-137521000D01*
X64897000Y-137521000D01*
X64897000Y-137541000D01*
X64917000Y-137541000D01*
X64917000Y-137795000D01*
X64897000Y-137795000D01*
X64897000Y-139394250D01*
X65055750Y-139553000D01*
X66045000Y-139556072D01*
X66169482Y-139543812D01*
X66289180Y-139507502D01*
X66399494Y-139448537D01*
X66496185Y-139369185D01*
X66575537Y-139272494D01*
X66603965Y-139219311D01*
X66711017Y-139326363D01*
X67060698Y-139560012D01*
X67449244Y-139720953D01*
X67861721Y-139803000D01*
X68282279Y-139803000D01*
X68694756Y-139720953D01*
X69083302Y-139560012D01*
X69432983Y-139326363D01*
X69730363Y-139028983D01*
X69964012Y-138679302D01*
X70124953Y-138290756D01*
X70207000Y-137878279D01*
X70207000Y-137457721D01*
X70124953Y-137045244D01*
X69964012Y-136656698D01*
X69730363Y-136307017D01*
X69432983Y-136009637D01*
X69083302Y-135775988D01*
X68694756Y-135615047D01*
X68282279Y-135533000D01*
X67861721Y-135533000D01*
X67449244Y-135615047D01*
X67060698Y-135775988D01*
X66711017Y-136009637D01*
X66603965Y-136116689D01*
X66575537Y-136063506D01*
X66496185Y-135966815D01*
X66399494Y-135887463D01*
X66349154Y-135860555D01*
X66476935Y-135732774D01*
X66590203Y-135563256D01*
X66668224Y-135374898D01*
X66707998Y-135174939D01*
X66707998Y-134971061D01*
X66668224Y-134771102D01*
X66590203Y-134582744D01*
X66476935Y-134413226D01*
X66332772Y-134269063D01*
X66163254Y-134155795D01*
X65974896Y-134077774D01*
X65878649Y-134058629D01*
X65972451Y-134039971D01*
X66247253Y-133926144D01*
X66494569Y-133760893D01*
X66704893Y-133550569D01*
X66870144Y-133303253D01*
X66983971Y-133028451D01*
X67042000Y-132736722D01*
X67042000Y-132439278D01*
X66983971Y-132147549D01*
X66870144Y-131872747D01*
X66704893Y-131625431D01*
X66494569Y-131415107D01*
X66483933Y-131408000D01*
X66674939Y-131408000D01*
X66874898Y-131368226D01*
X67063256Y-131290205D01*
X67232774Y-131176937D01*
X67285483Y-131124228D01*
X67288063Y-131123974D01*
X67431700Y-131080402D01*
X67564077Y-131009645D01*
X67680107Y-130914422D01*
X67703969Y-130885345D01*
X67754314Y-130835001D01*
X68647173Y-130835001D01*
X68570000Y-130912174D01*
X68282299Y-131342749D01*
X68084127Y-131821178D01*
X67983100Y-132329076D01*
X67983100Y-132846924D01*
X68084127Y-133354822D01*
X68282299Y-133833251D01*
X68570000Y-134263826D01*
X68936174Y-134630000D01*
X69366749Y-134917701D01*
X69845178Y-135115873D01*
X70353076Y-135216900D01*
X70870924Y-135216900D01*
X71378822Y-135115873D01*
X71857251Y-134917701D01*
X72287826Y-134630000D01*
X72358237Y-134559589D01*
X72287000Y-134917721D01*
X72287000Y-135338279D01*
X72369047Y-135750756D01*
X72529988Y-136139302D01*
X72763637Y-136488983D01*
X73061017Y-136786363D01*
X73410698Y-137020012D01*
X73799244Y-137180953D01*
X74211721Y-137263000D01*
X74632279Y-137263000D01*
X75044756Y-137180953D01*
X75433302Y-137020012D01*
X75782983Y-136786363D01*
X75872440Y-136696906D01*
X75891463Y-136732494D01*
X75970815Y-136829185D01*
X76067506Y-136908537D01*
X76177820Y-136967502D01*
X76297518Y-137003812D01*
X76422000Y-137016072D01*
X78972000Y-137016072D01*
X79096482Y-137003812D01*
X79216180Y-136967502D01*
X79326494Y-136908537D01*
X79423185Y-136829185D01*
X79502537Y-136732494D01*
X79508751Y-136720869D01*
X79508751Y-140461460D01*
X79487981Y-140673288D01*
X79435841Y-140845986D01*
X79351149Y-141005268D01*
X79237128Y-141145071D01*
X79098135Y-141260056D01*
X78939445Y-141345860D01*
X78767115Y-141399205D01*
X78557369Y-141421250D01*
X43688530Y-141421250D01*
X43476712Y-141400481D01*
X43304014Y-141348341D01*
X43144732Y-141263649D01*
X43004929Y-141149628D01*
X42889944Y-141010635D01*
X42804140Y-140851945D01*
X42750795Y-140679615D01*
X42728750Y-140469869D01*
X42728750Y-138918000D01*
X43806928Y-138918000D01*
X43819188Y-139042482D01*
X43855498Y-139162180D01*
X43914463Y-139272494D01*
X43993815Y-139369185D01*
X44090506Y-139448537D01*
X44200820Y-139507502D01*
X44320518Y-139543812D01*
X44445000Y-139556072D01*
X45434250Y-139553000D01*
X45593000Y-139394250D01*
X45593000Y-137795000D01*
X43968750Y-137795000D01*
X43810000Y-137953750D01*
X43806928Y-138918000D01*
X42728750Y-138918000D01*
X42728750Y-136418000D01*
X43806928Y-136418000D01*
X43810000Y-137382250D01*
X43968750Y-137541000D01*
X45593000Y-137541000D01*
X45593000Y-135941750D01*
X45847000Y-135941750D01*
X45847000Y-137541000D01*
X45867000Y-137541000D01*
X45867000Y-137795000D01*
X45847000Y-137795000D01*
X45847000Y-139394250D01*
X46005750Y-139553000D01*
X46995000Y-139556072D01*
X47119482Y-139543812D01*
X47239180Y-139507502D01*
X47349494Y-139448537D01*
X47446185Y-139369185D01*
X47525537Y-139272494D01*
X47553965Y-139219311D01*
X47661017Y-139326363D01*
X48010698Y-139560012D01*
X48399244Y-139720953D01*
X48811721Y-139803000D01*
X49232279Y-139803000D01*
X49644756Y-139720953D01*
X50033302Y-139560012D01*
X50382983Y-139326363D01*
X50680363Y-139028983D01*
X50754519Y-138918000D01*
X62856928Y-138918000D01*
X62869188Y-139042482D01*
X62905498Y-139162180D01*
X62964463Y-139272494D01*
X63043815Y-139369185D01*
X63140506Y-139448537D01*
X63250820Y-139507502D01*
X63370518Y-139543812D01*
X63495000Y-139556072D01*
X64484250Y-139553000D01*
X64643000Y-139394250D01*
X64643000Y-137795000D01*
X63018750Y-137795000D01*
X62860000Y-137953750D01*
X62856928Y-138918000D01*
X50754519Y-138918000D01*
X50914012Y-138679302D01*
X51074953Y-138290756D01*
X51157000Y-137878279D01*
X51157000Y-137457721D01*
X51074953Y-137045244D01*
X50914012Y-136656698D01*
X50680363Y-136307017D01*
X50382983Y-136009637D01*
X50033302Y-135775988D01*
X49644756Y-135615047D01*
X49232279Y-135533000D01*
X48811721Y-135533000D01*
X48399244Y-135615047D01*
X48010698Y-135775988D01*
X47661017Y-136009637D01*
X47553965Y-136116689D01*
X47525537Y-136063506D01*
X47446185Y-135966815D01*
X47349494Y-135887463D01*
X47239180Y-135828498D01*
X47119482Y-135792188D01*
X46995000Y-135779928D01*
X46005750Y-135783000D01*
X45847000Y-135941750D01*
X45593000Y-135941750D01*
X45434250Y-135783000D01*
X44445000Y-135779928D01*
X44320518Y-135792188D01*
X44200820Y-135828498D01*
X44090506Y-135887463D01*
X43993815Y-135966815D01*
X43914463Y-136063506D01*
X43855498Y-136173820D01*
X43819188Y-136293518D01*
X43806928Y-136418000D01*
X42728750Y-136418000D01*
X42728750Y-132439278D01*
X44972000Y-132439278D01*
X44972000Y-132736722D01*
X45030029Y-133028451D01*
X45143856Y-133303253D01*
X45309107Y-133550569D01*
X45519431Y-133760893D01*
X45766747Y-133926144D01*
X46041549Y-134039971D01*
X46333278Y-134098000D01*
X46630722Y-134098000D01*
X46922451Y-134039971D01*
X47197253Y-133926144D01*
X47444569Y-133760893D01*
X47654893Y-133550569D01*
X47820144Y-133303253D01*
X47933971Y-133028451D01*
X47992000Y-132736722D01*
X47992000Y-132439278D01*
X47933971Y-132147549D01*
X47820144Y-131872747D01*
X47654893Y-131625431D01*
X47444569Y-131415107D01*
X47197253Y-131249856D01*
X46922451Y-131136029D01*
X46630722Y-131078000D01*
X46333278Y-131078000D01*
X46041549Y-131136029D01*
X45766747Y-131249856D01*
X45519431Y-131415107D01*
X45309107Y-131625431D01*
X45143856Y-131872747D01*
X45030029Y-132147549D01*
X44972000Y-132439278D01*
X42728750Y-132439278D01*
X42728750Y-126462465D01*
X42728820Y-126462502D01*
X42848518Y-126498812D01*
X42973000Y-126511072D01*
X44073000Y-126511072D01*
X44197482Y-126498812D01*
X44317180Y-126462502D01*
X44427494Y-126403537D01*
X44524185Y-126324185D01*
X44603537Y-126227494D01*
X44662502Y-126117180D01*
X44698812Y-125997482D01*
X44711072Y-125873000D01*
X44711072Y-124073000D01*
X44698812Y-123948518D01*
X44662502Y-123828820D01*
X44603537Y-123718506D01*
X44524185Y-123621815D01*
X44427494Y-123542463D01*
X44317180Y-123483498D01*
X44197482Y-123447188D01*
X44073000Y-123434928D01*
X42973000Y-123434928D01*
X42848518Y-123447188D01*
X42728820Y-123483498D01*
X42728750Y-123483535D01*
X42728750Y-120262465D01*
X42728820Y-120262502D01*
G36*
X58467329Y-128812275D02*
G01*
X58485100Y-128833930D01*
X58430463Y-128900506D01*
X58371498Y-129010820D01*
X58335188Y-129130518D01*
X58322928Y-129255000D01*
X58326000Y-129406750D01*
X58484750Y-129565500D01*
X59309000Y-129565500D01*
X59309000Y-129545500D01*
X59563000Y-129545500D01*
X59563000Y-129565500D01*
X59583000Y-129565500D01*
X59583000Y-129819500D01*
X59563000Y-129819500D01*
X59563000Y-130606250D01*
X59721750Y-130765000D01*
X59911000Y-130768072D01*
X60035482Y-130755812D01*
X60155180Y-130719502D01*
X60265494Y-130660537D01*
X60362185Y-130581185D01*
X60441537Y-130484494D01*
X60500502Y-130374180D01*
X60536812Y-130254482D01*
X60537847Y-130243977D01*
X61009928Y-130716059D01*
X61009928Y-130729250D01*
X61026392Y-130896408D01*
X61075150Y-131057142D01*
X61154329Y-131205275D01*
X61260885Y-131335115D01*
X61390725Y-131441671D01*
X61538858Y-131520850D01*
X61699592Y-131569608D01*
X61866750Y-131586072D01*
X62304250Y-131586072D01*
X62471408Y-131569608D01*
X62632142Y-131520850D01*
X62780275Y-131441671D01*
X62873000Y-131365574D01*
X62965725Y-131441671D01*
X63113858Y-131520850D01*
X63274592Y-131569608D01*
X63441750Y-131586072D01*
X63879250Y-131586072D01*
X64046408Y-131569608D01*
X64207142Y-131520850D01*
X64355275Y-131441671D01*
X64485115Y-131335115D01*
X64591671Y-131205275D01*
X64670850Y-131057142D01*
X64719608Y-130896408D01*
X64736072Y-130729250D01*
X64736072Y-130589137D01*
X64988109Y-130337100D01*
X65538000Y-130337100D01*
X65538000Y-130474939D01*
X65577774Y-130674898D01*
X65655795Y-130863256D01*
X65769063Y-131032774D01*
X65847454Y-131111165D01*
X65680722Y-131078000D01*
X65383278Y-131078000D01*
X65091549Y-131136029D01*
X64816747Y-131249856D01*
X64569431Y-131415107D01*
X64359107Y-131625431D01*
X64193856Y-131872747D01*
X64080029Y-132147549D01*
X64022000Y-132439278D01*
X64022000Y-132736722D01*
X64080029Y-133028451D01*
X64193856Y-133303253D01*
X64359107Y-133550569D01*
X64569431Y-133760893D01*
X64816747Y-133926144D01*
X65091549Y-134039971D01*
X65342063Y-134089802D01*
X65182742Y-134155795D01*
X65013224Y-134269063D01*
X64909287Y-134373000D01*
X60560072Y-134373000D01*
X60560072Y-133878000D01*
X60547812Y-133753518D01*
X60511502Y-133633820D01*
X60452537Y-133523506D01*
X60373185Y-133426815D01*
X60276494Y-133347463D01*
X60166180Y-133288498D01*
X60046482Y-133252188D01*
X59922000Y-133239928D01*
X58006374Y-133239928D01*
X58093971Y-133028451D01*
X58152000Y-132736722D01*
X58152000Y-132439278D01*
X58093971Y-132147549D01*
X57980144Y-131872747D01*
X57814893Y-131625431D01*
X57604569Y-131415107D01*
X57357253Y-131249856D01*
X57082451Y-131136029D01*
X56790722Y-131078000D01*
X56493278Y-131078000D01*
X56201549Y-131136029D01*
X55926747Y-131249856D01*
X55679431Y-131415107D01*
X55469107Y-131625431D01*
X55303856Y-131872747D01*
X55190029Y-132147549D01*
X55132000Y-132439278D01*
X55132000Y-132736722D01*
X55182977Y-132993000D01*
X55161721Y-132993000D01*
X54749244Y-133075047D01*
X54360698Y-133235988D01*
X54054292Y-133440721D01*
X54089873Y-133354822D01*
X54190900Y-132846924D01*
X54190900Y-132329076D01*
X54089873Y-131821178D01*
X53891701Y-131342749D01*
X53604000Y-130912174D01*
X53237826Y-130546000D01*
X53017077Y-130398500D01*
X55126950Y-130398500D01*
X55167500Y-130402494D01*
X55208050Y-130398500D01*
X55208053Y-130398500D01*
X55329326Y-130386556D01*
X55484934Y-130339353D01*
X55628342Y-130262699D01*
X55669658Y-130228792D01*
X55672188Y-130254482D01*
X55708498Y-130374180D01*
X55767463Y-130484494D01*
X55846815Y-130581185D01*
X55943506Y-130660537D01*
X56053820Y-130719502D01*
X56173518Y-130755812D01*
X56298000Y-130768072D01*
X56487250Y-130765000D01*
X56646000Y-130606250D01*
X56646000Y-129819500D01*
X56900000Y-129819500D01*
X56900000Y-130606250D01*
X57058750Y-130765000D01*
X57248000Y-130768072D01*
X57372482Y-130755812D01*
X57492180Y-130719502D01*
X57602494Y-130660537D01*
X57699185Y-130581185D01*
X57778537Y-130484494D01*
X57837502Y-130374180D01*
X57873812Y-130254482D01*
X57886072Y-130130000D01*
X58322928Y-130130000D01*
X58335188Y-130254482D01*
X58371498Y-130374180D01*
X58430463Y-130484494D01*
X58509815Y-130581185D01*
X58606506Y-130660537D01*
X58716820Y-130719502D01*
X58836518Y-130755812D01*
X58961000Y-130768072D01*
X59150250Y-130765000D01*
X59309000Y-130606250D01*
X59309000Y-129819500D01*
X58484750Y-129819500D01*
X58326000Y-129978250D01*
X58322928Y-130130000D01*
X57886072Y-130130000D01*
X57883000Y-129978250D01*
X57724250Y-129819500D01*
X56900000Y-129819500D01*
X56646000Y-129819500D01*
X56626000Y-129819500D01*
X56626000Y-129565500D01*
X56646000Y-129565500D01*
X56646000Y-129545500D01*
X56900000Y-129545500D01*
X56900000Y-129565500D01*
X57724250Y-129565500D01*
X57883000Y-129406750D01*
X57886072Y-129255000D01*
X57873812Y-129130518D01*
X57837502Y-129010820D01*
X57778537Y-128900506D01*
X57723900Y-128833930D01*
X57741671Y-128812275D01*
X57751974Y-128793000D01*
X58457026Y-128793000D01*
X58467329Y-128812275D01*
G37*
X58467329Y-128812275D02*
X58485100Y-128833930D01*
X58430463Y-128900506D01*
X58371498Y-129010820D01*
X58335188Y-129130518D01*
X58322928Y-129255000D01*
X58326000Y-129406750D01*
X58484750Y-129565500D01*
X59309000Y-129565500D01*
X59309000Y-129545500D01*
X59563000Y-129545500D01*
X59563000Y-129565500D01*
X59583000Y-129565500D01*
X59583000Y-129819500D01*
X59563000Y-129819500D01*
X59563000Y-130606250D01*
X59721750Y-130765000D01*
X59911000Y-130768072D01*
X60035482Y-130755812D01*
X60155180Y-130719502D01*
X60265494Y-130660537D01*
X60362185Y-130581185D01*
X60441537Y-130484494D01*
X60500502Y-130374180D01*
X60536812Y-130254482D01*
X60537847Y-130243977D01*
X61009928Y-130716059D01*
X61009928Y-130729250D01*
X61026392Y-130896408D01*
X61075150Y-131057142D01*
X61154329Y-131205275D01*
X61260885Y-131335115D01*
X61390725Y-131441671D01*
X61538858Y-131520850D01*
X61699592Y-131569608D01*
X61866750Y-131586072D01*
X62304250Y-131586072D01*
X62471408Y-131569608D01*
X62632142Y-131520850D01*
X62780275Y-131441671D01*
X62873000Y-131365574D01*
X62965725Y-131441671D01*
X63113858Y-131520850D01*
X63274592Y-131569608D01*
X63441750Y-131586072D01*
X63879250Y-131586072D01*
X64046408Y-131569608D01*
X64207142Y-131520850D01*
X64355275Y-131441671D01*
X64485115Y-131335115D01*
X64591671Y-131205275D01*
X64670850Y-131057142D01*
X64719608Y-130896408D01*
X64736072Y-130729250D01*
X64736072Y-130589137D01*
X64988109Y-130337100D01*
X65538000Y-130337100D01*
X65538000Y-130474939D01*
X65577774Y-130674898D01*
X65655795Y-130863256D01*
X65769063Y-131032774D01*
X65847454Y-131111165D01*
X65680722Y-131078000D01*
X65383278Y-131078000D01*
X65091549Y-131136029D01*
X64816747Y-131249856D01*
X64569431Y-131415107D01*
X64359107Y-131625431D01*
X64193856Y-131872747D01*
X64080029Y-132147549D01*
X64022000Y-132439278D01*
X64022000Y-132736722D01*
X64080029Y-133028451D01*
X64193856Y-133303253D01*
X64359107Y-133550569D01*
X64569431Y-133760893D01*
X64816747Y-133926144D01*
X65091549Y-134039971D01*
X65342063Y-134089802D01*
X65182742Y-134155795D01*
X65013224Y-134269063D01*
X64909287Y-134373000D01*
X60560072Y-134373000D01*
X60560072Y-133878000D01*
X60547812Y-133753518D01*
X60511502Y-133633820D01*
X60452537Y-133523506D01*
X60373185Y-133426815D01*
X60276494Y-133347463D01*
X60166180Y-133288498D01*
X60046482Y-133252188D01*
X59922000Y-133239928D01*
X58006374Y-133239928D01*
X58093971Y-133028451D01*
X58152000Y-132736722D01*
X58152000Y-132439278D01*
X58093971Y-132147549D01*
X57980144Y-131872747D01*
X57814893Y-131625431D01*
X57604569Y-131415107D01*
X57357253Y-131249856D01*
X57082451Y-131136029D01*
X56790722Y-131078000D01*
X56493278Y-131078000D01*
X56201549Y-131136029D01*
X55926747Y-131249856D01*
X55679431Y-131415107D01*
X55469107Y-131625431D01*
X55303856Y-131872747D01*
X55190029Y-132147549D01*
X55132000Y-132439278D01*
X55132000Y-132736722D01*
X55182977Y-132993000D01*
X55161721Y-132993000D01*
X54749244Y-133075047D01*
X54360698Y-133235988D01*
X54054292Y-133440721D01*
X54089873Y-133354822D01*
X54190900Y-132846924D01*
X54190900Y-132329076D01*
X54089873Y-131821178D01*
X53891701Y-131342749D01*
X53604000Y-130912174D01*
X53237826Y-130546000D01*
X53017077Y-130398500D01*
X55126950Y-130398500D01*
X55167500Y-130402494D01*
X55208050Y-130398500D01*
X55208053Y-130398500D01*
X55329326Y-130386556D01*
X55484934Y-130339353D01*
X55628342Y-130262699D01*
X55669658Y-130228792D01*
X55672188Y-130254482D01*
X55708498Y-130374180D01*
X55767463Y-130484494D01*
X55846815Y-130581185D01*
X55943506Y-130660537D01*
X56053820Y-130719502D01*
X56173518Y-130755812D01*
X56298000Y-130768072D01*
X56487250Y-130765000D01*
X56646000Y-130606250D01*
X56646000Y-129819500D01*
X56900000Y-129819500D01*
X56900000Y-130606250D01*
X57058750Y-130765000D01*
X57248000Y-130768072D01*
X57372482Y-130755812D01*
X57492180Y-130719502D01*
X57602494Y-130660537D01*
X57699185Y-130581185D01*
X57778537Y-130484494D01*
X57837502Y-130374180D01*
X57873812Y-130254482D01*
X57886072Y-130130000D01*
X58322928Y-130130000D01*
X58335188Y-130254482D01*
X58371498Y-130374180D01*
X58430463Y-130484494D01*
X58509815Y-130581185D01*
X58606506Y-130660537D01*
X58716820Y-130719502D01*
X58836518Y-130755812D01*
X58961000Y-130768072D01*
X59150250Y-130765000D01*
X59309000Y-130606250D01*
X59309000Y-129819500D01*
X58484750Y-129819500D01*
X58326000Y-129978250D01*
X58322928Y-130130000D01*
X57886072Y-130130000D01*
X57883000Y-129978250D01*
X57724250Y-129819500D01*
X56900000Y-129819500D01*
X56646000Y-129819500D01*
X56626000Y-129819500D01*
X56626000Y-129565500D01*
X56646000Y-129565500D01*
X56646000Y-129545500D01*
X56900000Y-129545500D01*
X56900000Y-129565500D01*
X57724250Y-129565500D01*
X57883000Y-129406750D01*
X57886072Y-129255000D01*
X57873812Y-129130518D01*
X57837502Y-129010820D01*
X57778537Y-128900506D01*
X57723900Y-128833930D01*
X57741671Y-128812275D01*
X57751974Y-128793000D01*
X58457026Y-128793000D01*
X58467329Y-128812275D01*
G36*
X69324247Y-117381822D02*
G01*
X69235835Y-117587513D01*
X69189250Y-117806500D01*
X69189250Y-118106500D01*
X70197250Y-118106500D01*
X70197250Y-118086500D01*
X70451250Y-118086500D01*
X70451250Y-118106500D01*
X71459250Y-118106500D01*
X71459250Y-117806500D01*
X71412665Y-117587513D01*
X71324253Y-117381822D01*
X71296359Y-117341250D01*
X77992141Y-117341250D01*
X77964247Y-117381822D01*
X77875835Y-117587513D01*
X77829250Y-117806500D01*
X77829250Y-118106500D01*
X78837250Y-118106500D01*
X78837250Y-118086500D01*
X79091250Y-118086500D01*
X79091250Y-118106500D01*
X79111250Y-118106500D01*
X79111250Y-118360500D01*
X79091250Y-118360500D01*
X79091250Y-119501454D01*
X79266124Y-119627619D01*
X79489226Y-119547776D01*
X79508750Y-119535101D01*
X79508750Y-120861899D01*
X79489226Y-120849224D01*
X79266124Y-120769381D01*
X79091250Y-120895546D01*
X79091250Y-122286500D01*
X79111250Y-122286500D01*
X79111250Y-122540500D01*
X79091250Y-122540500D01*
X79091250Y-123931454D01*
X79266124Y-124057619D01*
X79489226Y-123977776D01*
X79508750Y-123965101D01*
X79508751Y-133535131D01*
X79502537Y-133523506D01*
X79423185Y-133426815D01*
X79326494Y-133347463D01*
X79216180Y-133288498D01*
X79096482Y-133252188D01*
X78972000Y-133239928D01*
X78459000Y-133239928D01*
X78459000Y-130334422D01*
X78462686Y-130296999D01*
X78455459Y-130223622D01*
X78447974Y-130147622D01*
X78404402Y-130003985D01*
X78333645Y-129871608D01*
X78238422Y-129755578D01*
X78209347Y-129731717D01*
X78038285Y-129560655D01*
X78014423Y-129531579D01*
X77898393Y-129436356D01*
X77766016Y-129365599D01*
X77622379Y-129322027D01*
X77510427Y-129311001D01*
X77510424Y-129311001D01*
X77473001Y-129307315D01*
X77435578Y-129311001D01*
X75483708Y-129311001D01*
X76414638Y-128380072D01*
X76661000Y-128380072D01*
X76785482Y-128367812D01*
X76905180Y-128331502D01*
X77015494Y-128272537D01*
X77101980Y-128201560D01*
X77178815Y-128295185D01*
X77275506Y-128374537D01*
X77385820Y-128433502D01*
X77505518Y-128469812D01*
X77630000Y-128482072D01*
X77819250Y-128479000D01*
X77978000Y-128320250D01*
X77978000Y-127533500D01*
X78232000Y-127533500D01*
X78232000Y-128320250D01*
X78390750Y-128479000D01*
X78580000Y-128482072D01*
X78704482Y-128469812D01*
X78824180Y-128433502D01*
X78934494Y-128374537D01*
X79031185Y-128295185D01*
X79110537Y-128198494D01*
X79169502Y-128088180D01*
X79205812Y-127968482D01*
X79218072Y-127844000D01*
X79215000Y-127692250D01*
X79056250Y-127533500D01*
X78232000Y-127533500D01*
X77978000Y-127533500D01*
X77958000Y-127533500D01*
X77958000Y-127279500D01*
X77978000Y-127279500D01*
X77978000Y-127259500D01*
X78232000Y-127259500D01*
X78232000Y-127279500D01*
X79056250Y-127279500D01*
X79215000Y-127120750D01*
X79218072Y-126969000D01*
X79205812Y-126844518D01*
X79169502Y-126724820D01*
X79110537Y-126614506D01*
X79055900Y-126547930D01*
X79073671Y-126526275D01*
X79152850Y-126378142D01*
X79201608Y-126217408D01*
X79218072Y-126050250D01*
X79218072Y-125612750D01*
X79201608Y-125445592D01*
X79152850Y-125284858D01*
X79073671Y-125136725D01*
X78967115Y-125006885D01*
X78867000Y-124924723D01*
X78867000Y-124497423D01*
X78870686Y-124460000D01*
X78867000Y-124422574D01*
X78855974Y-124310622D01*
X78812402Y-124166985D01*
X78798674Y-124141303D01*
X78807322Y-124053500D01*
X78806623Y-123953550D01*
X78837250Y-123931454D01*
X78837250Y-122540500D01*
X78817250Y-122540500D01*
X78817250Y-122286500D01*
X78837250Y-122286500D01*
X78837250Y-120895546D01*
X78662376Y-120769381D01*
X78439274Y-120849224D01*
X78251486Y-120971131D01*
X78107134Y-121111706D01*
X77988981Y-121032759D01*
X77814272Y-120960392D01*
X77628802Y-120923500D01*
X77439698Y-120923500D01*
X77254228Y-120960392D01*
X77079519Y-121032759D01*
X76922286Y-121137819D01*
X76909673Y-121150432D01*
X76777206Y-121017966D01*
X76751349Y-120986459D01*
X76625650Y-120883301D01*
X76482242Y-120806647D01*
X76326634Y-120759444D01*
X76205361Y-120747500D01*
X76205358Y-120747500D01*
X76164808Y-120743506D01*
X76124258Y-120747500D01*
X73164242Y-120747500D01*
X73123692Y-120743506D01*
X73083141Y-120747500D01*
X73083139Y-120747500D01*
X72961866Y-120759444D01*
X72806258Y-120806647D01*
X72662849Y-120883301D01*
X72568650Y-120960608D01*
X72568649Y-120960609D01*
X72537151Y-120986459D01*
X72511303Y-121017955D01*
X72378827Y-121150432D01*
X72366214Y-121137819D01*
X72208981Y-121032759D01*
X72034272Y-120960392D01*
X71848802Y-120923500D01*
X71659698Y-120923500D01*
X71474228Y-120960392D01*
X71299519Y-121032759D01*
X71181366Y-121111706D01*
X71037014Y-120971131D01*
X70849226Y-120849224D01*
X70626124Y-120769381D01*
X70451250Y-120895546D01*
X70451250Y-122286500D01*
X70471250Y-122286500D01*
X70471250Y-122540500D01*
X70451250Y-122540500D01*
X70451250Y-122560500D01*
X70197250Y-122560500D01*
X70197250Y-122540500D01*
X70177250Y-122540500D01*
X70177250Y-122286500D01*
X70197250Y-122286500D01*
X70197250Y-120895546D01*
X70022376Y-120769381D01*
X69799274Y-120849224D01*
X69611486Y-120971131D01*
X69451089Y-121127331D01*
X69324247Y-121311822D01*
X69235835Y-121517513D01*
X69189250Y-121736500D01*
X69189250Y-121864316D01*
X68931072Y-121606139D01*
X68931072Y-121441750D01*
X68914608Y-121274592D01*
X68865850Y-121113858D01*
X68786671Y-120965725D01*
X68710574Y-120873000D01*
X68786671Y-120780275D01*
X68865850Y-120632142D01*
X68914608Y-120471408D01*
X68931072Y-120304250D01*
X68931072Y-119866750D01*
X68914608Y-119699592D01*
X68865850Y-119538858D01*
X68786671Y-119390725D01*
X68680115Y-119260885D01*
X68587071Y-119184527D01*
X68584353Y-119175566D01*
X68507700Y-119032159D01*
X68507699Y-119032157D01*
X68430391Y-118937958D01*
X68404541Y-118906459D01*
X68373041Y-118880608D01*
X67852933Y-118360500D01*
X69189250Y-118360500D01*
X69189250Y-118660500D01*
X69235835Y-118879487D01*
X69324247Y-119085178D01*
X69451089Y-119269669D01*
X69611486Y-119425869D01*
X69799274Y-119547776D01*
X70022376Y-119627619D01*
X70197250Y-119501454D01*
X70197250Y-118360500D01*
X70451250Y-118360500D01*
X70451250Y-119501454D01*
X70626124Y-119627619D01*
X70849226Y-119547776D01*
X71037014Y-119425869D01*
X71197411Y-119269669D01*
X71324253Y-119085178D01*
X71412665Y-118879487D01*
X71459250Y-118660500D01*
X71459250Y-118360500D01*
X77829250Y-118360500D01*
X77829250Y-118660500D01*
X77875835Y-118879487D01*
X77964247Y-119085178D01*
X78091089Y-119269669D01*
X78251486Y-119425869D01*
X78439274Y-119547776D01*
X78662376Y-119627619D01*
X78837250Y-119501454D01*
X78837250Y-118360500D01*
X77829250Y-118360500D01*
X71459250Y-118360500D01*
X70451250Y-118360500D01*
X70197250Y-118360500D01*
X69189250Y-118360500D01*
X67852933Y-118360500D01*
X66833682Y-117341250D01*
X69352141Y-117341250D01*
X69324247Y-117381822D01*
G37*
X69324247Y-117381822D02*
X69235835Y-117587513D01*
X69189250Y-117806500D01*
X69189250Y-118106500D01*
X70197250Y-118106500D01*
X70197250Y-118086500D01*
X70451250Y-118086500D01*
X70451250Y-118106500D01*
X71459250Y-118106500D01*
X71459250Y-117806500D01*
X71412665Y-117587513D01*
X71324253Y-117381822D01*
X71296359Y-117341250D01*
X77992141Y-117341250D01*
X77964247Y-117381822D01*
X77875835Y-117587513D01*
X77829250Y-117806500D01*
X77829250Y-118106500D01*
X78837250Y-118106500D01*
X78837250Y-118086500D01*
X79091250Y-118086500D01*
X79091250Y-118106500D01*
X79111250Y-118106500D01*
X79111250Y-118360500D01*
X79091250Y-118360500D01*
X79091250Y-119501454D01*
X79266124Y-119627619D01*
X79489226Y-119547776D01*
X79508750Y-119535101D01*
X79508750Y-120861899D01*
X79489226Y-120849224D01*
X79266124Y-120769381D01*
X79091250Y-120895546D01*
X79091250Y-122286500D01*
X79111250Y-122286500D01*
X79111250Y-122540500D01*
X79091250Y-122540500D01*
X79091250Y-123931454D01*
X79266124Y-124057619D01*
X79489226Y-123977776D01*
X79508750Y-123965101D01*
X79508751Y-133535131D01*
X79502537Y-133523506D01*
X79423185Y-133426815D01*
X79326494Y-133347463D01*
X79216180Y-133288498D01*
X79096482Y-133252188D01*
X78972000Y-133239928D01*
X78459000Y-133239928D01*
X78459000Y-130334422D01*
X78462686Y-130296999D01*
X78455459Y-130223622D01*
X78447974Y-130147622D01*
X78404402Y-130003985D01*
X78333645Y-129871608D01*
X78238422Y-129755578D01*
X78209347Y-129731717D01*
X78038285Y-129560655D01*
X78014423Y-129531579D01*
X77898393Y-129436356D01*
X77766016Y-129365599D01*
X77622379Y-129322027D01*
X77510427Y-129311001D01*
X77510424Y-129311001D01*
X77473001Y-129307315D01*
X77435578Y-129311001D01*
X75483708Y-129311001D01*
X76414638Y-128380072D01*
X76661000Y-128380072D01*
X76785482Y-128367812D01*
X76905180Y-128331502D01*
X77015494Y-128272537D01*
X77101980Y-128201560D01*
X77178815Y-128295185D01*
X77275506Y-128374537D01*
X77385820Y-128433502D01*
X77505518Y-128469812D01*
X77630000Y-128482072D01*
X77819250Y-128479000D01*
X77978000Y-128320250D01*
X77978000Y-127533500D01*
X78232000Y-127533500D01*
X78232000Y-128320250D01*
X78390750Y-128479000D01*
X78580000Y-128482072D01*
X78704482Y-128469812D01*
X78824180Y-128433502D01*
X78934494Y-128374537D01*
X79031185Y-128295185D01*
X79110537Y-128198494D01*
X79169502Y-128088180D01*
X79205812Y-127968482D01*
X79218072Y-127844000D01*
X79215000Y-127692250D01*
X79056250Y-127533500D01*
X78232000Y-127533500D01*
X77978000Y-127533500D01*
X77958000Y-127533500D01*
X77958000Y-127279500D01*
X77978000Y-127279500D01*
X77978000Y-127259500D01*
X78232000Y-127259500D01*
X78232000Y-127279500D01*
X79056250Y-127279500D01*
X79215000Y-127120750D01*
X79218072Y-126969000D01*
X79205812Y-126844518D01*
X79169502Y-126724820D01*
X79110537Y-126614506D01*
X79055900Y-126547930D01*
X79073671Y-126526275D01*
X79152850Y-126378142D01*
X79201608Y-126217408D01*
X79218072Y-126050250D01*
X79218072Y-125612750D01*
X79201608Y-125445592D01*
X79152850Y-125284858D01*
X79073671Y-125136725D01*
X78967115Y-125006885D01*
X78867000Y-124924723D01*
X78867000Y-124497423D01*
X78870686Y-124460000D01*
X78867000Y-124422574D01*
X78855974Y-124310622D01*
X78812402Y-124166985D01*
X78798674Y-124141303D01*
X78807322Y-124053500D01*
X78806623Y-123953550D01*
X78837250Y-123931454D01*
X78837250Y-122540500D01*
X78817250Y-122540500D01*
X78817250Y-122286500D01*
X78837250Y-122286500D01*
X78837250Y-120895546D01*
X78662376Y-120769381D01*
X78439274Y-120849224D01*
X78251486Y-120971131D01*
X78107134Y-121111706D01*
X77988981Y-121032759D01*
X77814272Y-120960392D01*
X77628802Y-120923500D01*
X77439698Y-120923500D01*
X77254228Y-120960392D01*
X77079519Y-121032759D01*
X76922286Y-121137819D01*
X76909673Y-121150432D01*
X76777206Y-121017966D01*
X76751349Y-120986459D01*
X76625650Y-120883301D01*
X76482242Y-120806647D01*
X76326634Y-120759444D01*
X76205361Y-120747500D01*
X76205358Y-120747500D01*
X76164808Y-120743506D01*
X76124258Y-120747500D01*
X73164242Y-120747500D01*
X73123692Y-120743506D01*
X73083141Y-120747500D01*
X73083139Y-120747500D01*
X72961866Y-120759444D01*
X72806258Y-120806647D01*
X72662849Y-120883301D01*
X72568650Y-120960608D01*
X72568649Y-120960609D01*
X72537151Y-120986459D01*
X72511303Y-121017955D01*
X72378827Y-121150432D01*
X72366214Y-121137819D01*
X72208981Y-121032759D01*
X72034272Y-120960392D01*
X71848802Y-120923500D01*
X71659698Y-120923500D01*
X71474228Y-120960392D01*
X71299519Y-121032759D01*
X71181366Y-121111706D01*
X71037014Y-120971131D01*
X70849226Y-120849224D01*
X70626124Y-120769381D01*
X70451250Y-120895546D01*
X70451250Y-122286500D01*
X70471250Y-122286500D01*
X70471250Y-122540500D01*
X70451250Y-122540500D01*
X70451250Y-122560500D01*
X70197250Y-122560500D01*
X70197250Y-122540500D01*
X70177250Y-122540500D01*
X70177250Y-122286500D01*
X70197250Y-122286500D01*
X70197250Y-120895546D01*
X70022376Y-120769381D01*
X69799274Y-120849224D01*
X69611486Y-120971131D01*
X69451089Y-121127331D01*
X69324247Y-121311822D01*
X69235835Y-121517513D01*
X69189250Y-121736500D01*
X69189250Y-121864316D01*
X68931072Y-121606139D01*
X68931072Y-121441750D01*
X68914608Y-121274592D01*
X68865850Y-121113858D01*
X68786671Y-120965725D01*
X68710574Y-120873000D01*
X68786671Y-120780275D01*
X68865850Y-120632142D01*
X68914608Y-120471408D01*
X68931072Y-120304250D01*
X68931072Y-119866750D01*
X68914608Y-119699592D01*
X68865850Y-119538858D01*
X68786671Y-119390725D01*
X68680115Y-119260885D01*
X68587071Y-119184527D01*
X68584353Y-119175566D01*
X68507700Y-119032159D01*
X68507699Y-119032157D01*
X68430391Y-118937958D01*
X68404541Y-118906459D01*
X68373041Y-118880608D01*
X67852933Y-118360500D01*
X69189250Y-118360500D01*
X69189250Y-118660500D01*
X69235835Y-118879487D01*
X69324247Y-119085178D01*
X69451089Y-119269669D01*
X69611486Y-119425869D01*
X69799274Y-119547776D01*
X70022376Y-119627619D01*
X70197250Y-119501454D01*
X70197250Y-118360500D01*
X70451250Y-118360500D01*
X70451250Y-119501454D01*
X70626124Y-119627619D01*
X70849226Y-119547776D01*
X71037014Y-119425869D01*
X71197411Y-119269669D01*
X71324253Y-119085178D01*
X71412665Y-118879487D01*
X71459250Y-118660500D01*
X71459250Y-118360500D01*
X77829250Y-118360500D01*
X77829250Y-118660500D01*
X77875835Y-118879487D01*
X77964247Y-119085178D01*
X78091089Y-119269669D01*
X78251486Y-119425869D01*
X78439274Y-119547776D01*
X78662376Y-119627619D01*
X78837250Y-119501454D01*
X78837250Y-118360500D01*
X77829250Y-118360500D01*
X71459250Y-118360500D01*
X70451250Y-118360500D01*
X70197250Y-118360500D01*
X69189250Y-118360500D01*
X67852933Y-118360500D01*
X66833682Y-117341250D01*
X69352141Y-117341250D01*
X69324247Y-117381822D01*
G36*
X55074011Y-121277824D02*
G01*
X55017885Y-121323885D01*
X54911329Y-121453725D01*
X54832150Y-121601858D01*
X54783392Y-121762592D01*
X54766928Y-121929750D01*
X54766928Y-122367250D01*
X54783392Y-122534408D01*
X54832150Y-122695142D01*
X54911329Y-122843275D01*
X54929100Y-122864930D01*
X54874463Y-122931506D01*
X54815498Y-123041820D01*
X54779188Y-123161518D01*
X54766928Y-123286000D01*
X54770000Y-123437750D01*
X54928750Y-123596500D01*
X55753000Y-123596500D01*
X55753000Y-123576500D01*
X56007000Y-123576500D01*
X56007000Y-123596500D01*
X56027000Y-123596500D01*
X56027000Y-123850500D01*
X56007000Y-123850500D01*
X56007000Y-123870500D01*
X55753000Y-123870500D01*
X55753000Y-123850500D01*
X54928750Y-123850500D01*
X54878440Y-123900810D01*
X53738284Y-122760654D01*
X53714422Y-122731578D01*
X53598392Y-122636355D01*
X53466015Y-122565598D01*
X53322378Y-122522026D01*
X53210426Y-122511000D01*
X53210423Y-122511000D01*
X53173000Y-122507314D01*
X53135577Y-122511000D01*
X52010425Y-122511000D01*
X51973000Y-122507314D01*
X51935574Y-122511000D01*
X51823622Y-122522026D01*
X51679985Y-122565598D01*
X51547608Y-122636355D01*
X51431578Y-122731578D01*
X51336355Y-122847608D01*
X51265598Y-122979985D01*
X51222026Y-123123622D01*
X51207314Y-123273000D01*
X51211000Y-123310426D01*
X51211000Y-123734928D01*
X51023000Y-123734928D01*
X50898518Y-123747188D01*
X50778820Y-123783498D01*
X50668506Y-123842463D01*
X50571815Y-123921815D01*
X50492463Y-124018506D01*
X50433498Y-124128820D01*
X50397188Y-124248518D01*
X50384928Y-124373000D01*
X50384928Y-124773000D01*
X50397188Y-124897482D01*
X50433498Y-125017180D01*
X50492463Y-125127494D01*
X50529747Y-125172925D01*
X50496944Y-125211890D01*
X50436603Y-125321457D01*
X50398796Y-125440691D01*
X50388000Y-125541250D01*
X50546750Y-125700000D01*
X51846000Y-125700000D01*
X51846000Y-125626000D01*
X52100000Y-125626000D01*
X52100000Y-125700000D01*
X53399250Y-125700000D01*
X53558000Y-125541250D01*
X53547204Y-125440691D01*
X53509397Y-125321457D01*
X53449056Y-125211890D01*
X53416253Y-125172925D01*
X53453537Y-125127494D01*
X53512502Y-125017180D01*
X53548812Y-124897482D01*
X53561072Y-124773000D01*
X53561072Y-124738703D01*
X54307720Y-125485351D01*
X54331578Y-125514422D01*
X54447608Y-125609645D01*
X54579985Y-125680402D01*
X54723622Y-125723974D01*
X54835574Y-125735000D01*
X54835576Y-125735000D01*
X54872999Y-125738686D01*
X54910422Y-125735000D01*
X55333369Y-125735000D01*
X53557370Y-127511000D01*
X53462353Y-127511000D01*
X53512502Y-127417180D01*
X53548812Y-127297482D01*
X53561072Y-127173000D01*
X53561072Y-126773000D01*
X53548812Y-126648518D01*
X53512502Y-126528820D01*
X53453537Y-126418506D01*
X53416253Y-126373075D01*
X53449056Y-126334110D01*
X53509397Y-126224543D01*
X53547204Y-126105309D01*
X53558000Y-126004750D01*
X53399250Y-125846000D01*
X52100000Y-125846000D01*
X52100000Y-125920000D01*
X51846000Y-125920000D01*
X51846000Y-125846000D01*
X50546750Y-125846000D01*
X50388000Y-126004750D01*
X50398796Y-126105309D01*
X50436603Y-126224543D01*
X50496944Y-126334110D01*
X50529747Y-126373075D01*
X50492463Y-126418506D01*
X50433498Y-126528820D01*
X50397188Y-126648518D01*
X50384928Y-126773000D01*
X50384928Y-127173000D01*
X50397188Y-127297482D01*
X50433498Y-127417180D01*
X50492463Y-127527494D01*
X50571815Y-127624185D01*
X50668506Y-127703537D01*
X50778820Y-127762502D01*
X50898518Y-127798812D01*
X51023000Y-127811072D01*
X51211000Y-127811072D01*
X51211000Y-128235574D01*
X51207314Y-128273000D01*
X51222026Y-128422378D01*
X51265598Y-128566015D01*
X51336355Y-128698392D01*
X51376657Y-128747500D01*
X49914934Y-128747500D01*
X49098500Y-127931068D01*
X49098500Y-122013550D01*
X49102494Y-121973000D01*
X49097322Y-121920490D01*
X49086556Y-121811174D01*
X49039353Y-121655566D01*
X48995220Y-121573000D01*
X48962699Y-121512157D01*
X48885392Y-121417958D01*
X48885389Y-121417955D01*
X48859541Y-121386459D01*
X48828045Y-121360611D01*
X47778011Y-120310578D01*
X47897482Y-120298812D01*
X48017180Y-120262502D01*
X48127494Y-120203537D01*
X48224185Y-120124185D01*
X48303537Y-120027494D01*
X48362502Y-119917180D01*
X48398812Y-119797482D01*
X48411072Y-119673000D01*
X48411072Y-117971990D01*
X55074010Y-117971990D01*
X55074011Y-121277824D01*
G37*
X55074011Y-121277824D02*
X55017885Y-121323885D01*
X54911329Y-121453725D01*
X54832150Y-121601858D01*
X54783392Y-121762592D01*
X54766928Y-121929750D01*
X54766928Y-122367250D01*
X54783392Y-122534408D01*
X54832150Y-122695142D01*
X54911329Y-122843275D01*
X54929100Y-122864930D01*
X54874463Y-122931506D01*
X54815498Y-123041820D01*
X54779188Y-123161518D01*
X54766928Y-123286000D01*
X54770000Y-123437750D01*
X54928750Y-123596500D01*
X55753000Y-123596500D01*
X55753000Y-123576500D01*
X56007000Y-123576500D01*
X56007000Y-123596500D01*
X56027000Y-123596500D01*
X56027000Y-123850500D01*
X56007000Y-123850500D01*
X56007000Y-123870500D01*
X55753000Y-123870500D01*
X55753000Y-123850500D01*
X54928750Y-123850500D01*
X54878440Y-123900810D01*
X53738284Y-122760654D01*
X53714422Y-122731578D01*
X53598392Y-122636355D01*
X53466015Y-122565598D01*
X53322378Y-122522026D01*
X53210426Y-122511000D01*
X53210423Y-122511000D01*
X53173000Y-122507314D01*
X53135577Y-122511000D01*
X52010425Y-122511000D01*
X51973000Y-122507314D01*
X51935574Y-122511000D01*
X51823622Y-122522026D01*
X51679985Y-122565598D01*
X51547608Y-122636355D01*
X51431578Y-122731578D01*
X51336355Y-122847608D01*
X51265598Y-122979985D01*
X51222026Y-123123622D01*
X51207314Y-123273000D01*
X51211000Y-123310426D01*
X51211000Y-123734928D01*
X51023000Y-123734928D01*
X50898518Y-123747188D01*
X50778820Y-123783498D01*
X50668506Y-123842463D01*
X50571815Y-123921815D01*
X50492463Y-124018506D01*
X50433498Y-124128820D01*
X50397188Y-124248518D01*
X50384928Y-124373000D01*
X50384928Y-124773000D01*
X50397188Y-124897482D01*
X50433498Y-125017180D01*
X50492463Y-125127494D01*
X50529747Y-125172925D01*
X50496944Y-125211890D01*
X50436603Y-125321457D01*
X50398796Y-125440691D01*
X50388000Y-125541250D01*
X50546750Y-125700000D01*
X51846000Y-125700000D01*
X51846000Y-125626000D01*
X52100000Y-125626000D01*
X52100000Y-125700000D01*
X53399250Y-125700000D01*
X53558000Y-125541250D01*
X53547204Y-125440691D01*
X53509397Y-125321457D01*
X53449056Y-125211890D01*
X53416253Y-125172925D01*
X53453537Y-125127494D01*
X53512502Y-125017180D01*
X53548812Y-124897482D01*
X53561072Y-124773000D01*
X53561072Y-124738703D01*
X54307720Y-125485351D01*
X54331578Y-125514422D01*
X54447608Y-125609645D01*
X54579985Y-125680402D01*
X54723622Y-125723974D01*
X54835574Y-125735000D01*
X54835576Y-125735000D01*
X54872999Y-125738686D01*
X54910422Y-125735000D01*
X55333369Y-125735000D01*
X53557370Y-127511000D01*
X53462353Y-127511000D01*
X53512502Y-127417180D01*
X53548812Y-127297482D01*
X53561072Y-127173000D01*
X53561072Y-126773000D01*
X53548812Y-126648518D01*
X53512502Y-126528820D01*
X53453537Y-126418506D01*
X53416253Y-126373075D01*
X53449056Y-126334110D01*
X53509397Y-126224543D01*
X53547204Y-126105309D01*
X53558000Y-126004750D01*
X53399250Y-125846000D01*
X52100000Y-125846000D01*
X52100000Y-125920000D01*
X51846000Y-125920000D01*
X51846000Y-125846000D01*
X50546750Y-125846000D01*
X50388000Y-126004750D01*
X50398796Y-126105309D01*
X50436603Y-126224543D01*
X50496944Y-126334110D01*
X50529747Y-126373075D01*
X50492463Y-126418506D01*
X50433498Y-126528820D01*
X50397188Y-126648518D01*
X50384928Y-126773000D01*
X50384928Y-127173000D01*
X50397188Y-127297482D01*
X50433498Y-127417180D01*
X50492463Y-127527494D01*
X50571815Y-127624185D01*
X50668506Y-127703537D01*
X50778820Y-127762502D01*
X50898518Y-127798812D01*
X51023000Y-127811072D01*
X51211000Y-127811072D01*
X51211000Y-128235574D01*
X51207314Y-128273000D01*
X51222026Y-128422378D01*
X51265598Y-128566015D01*
X51336355Y-128698392D01*
X51376657Y-128747500D01*
X49914934Y-128747500D01*
X49098500Y-127931068D01*
X49098500Y-122013550D01*
X49102494Y-121973000D01*
X49097322Y-121920490D01*
X49086556Y-121811174D01*
X49039353Y-121655566D01*
X48995220Y-121573000D01*
X48962699Y-121512157D01*
X48885392Y-121417958D01*
X48885389Y-121417955D01*
X48859541Y-121386459D01*
X48828045Y-121360611D01*
X47778011Y-120310578D01*
X47897482Y-120298812D01*
X48017180Y-120262502D01*
X48127494Y-120203537D01*
X48224185Y-120124185D01*
X48303537Y-120027494D01*
X48362502Y-119917180D01*
X48398812Y-119797482D01*
X48411072Y-119673000D01*
X48411072Y-117971990D01*
X55074010Y-117971990D01*
X55074011Y-121277824D01*
G36*
X67233858Y-122670850D02*
G01*
X67394592Y-122719608D01*
X67561750Y-122736072D01*
X67726139Y-122736072D01*
X67847501Y-122857434D01*
X67847501Y-123045497D01*
X67755795Y-123182744D01*
X67677774Y-123371102D01*
X67638000Y-123571061D01*
X67638000Y-123774939D01*
X67677774Y-123974898D01*
X67755795Y-124163256D01*
X67847501Y-124300504D01*
X67847500Y-126132449D01*
X67843506Y-126173000D01*
X67847500Y-126213550D01*
X67847500Y-126213552D01*
X67859444Y-126334825D01*
X67898757Y-126464422D01*
X67906647Y-126490433D01*
X67983301Y-126633842D01*
X68005554Y-126660957D01*
X68086459Y-126759541D01*
X68117966Y-126785398D01*
X68858468Y-127525901D01*
X68952667Y-127603209D01*
X69096076Y-127679862D01*
X69251683Y-127727065D01*
X69413509Y-127743004D01*
X69575336Y-127727065D01*
X69730943Y-127679862D01*
X69765839Y-127661210D01*
X72280160Y-127661210D01*
X72315057Y-127679863D01*
X72470664Y-127727065D01*
X72632490Y-127743004D01*
X72794316Y-127727065D01*
X72949923Y-127679863D01*
X73093332Y-127603209D01*
X73187531Y-127525901D01*
X73313004Y-127400429D01*
X73322928Y-127398454D01*
X73322928Y-127742000D01*
X73335188Y-127866482D01*
X73371498Y-127986180D01*
X73430463Y-128096494D01*
X73509815Y-128193185D01*
X73574401Y-128246189D01*
X73574401Y-128413900D01*
X72146081Y-128413900D01*
X72173812Y-128322482D01*
X72186072Y-128198000D01*
X72183000Y-128046250D01*
X72024250Y-127887500D01*
X71200000Y-127887500D01*
X71200000Y-127907500D01*
X70946000Y-127907500D01*
X70946000Y-127887500D01*
X70121750Y-127887500D01*
X69963000Y-128046250D01*
X69959928Y-128198000D01*
X69972188Y-128322482D01*
X69999919Y-128413900D01*
X64988110Y-128413900D01*
X64728072Y-128153863D01*
X64728072Y-128013750D01*
X64711608Y-127846592D01*
X64662850Y-127685858D01*
X64583671Y-127537725D01*
X64477115Y-127407885D01*
X64347275Y-127301329D01*
X64199142Y-127222150D01*
X64038408Y-127173392D01*
X63871250Y-127156928D01*
X63433750Y-127156928D01*
X63266592Y-127173392D01*
X63105858Y-127222150D01*
X62957725Y-127301329D01*
X62865000Y-127377426D01*
X62772275Y-127301329D01*
X62624142Y-127222150D01*
X62463408Y-127173392D01*
X62296250Y-127156928D01*
X61892059Y-127156928D01*
X61327097Y-126591967D01*
X61356266Y-126615905D01*
X61488643Y-126686662D01*
X61632280Y-126730234D01*
X61744232Y-126741260D01*
X61744234Y-126741260D01*
X61781657Y-126744946D01*
X61819080Y-126741260D01*
X64212817Y-126741260D01*
X64250240Y-126744946D01*
X64287663Y-126741260D01*
X64287666Y-126741260D01*
X64399618Y-126730234D01*
X64543255Y-126686662D01*
X64675632Y-126615905D01*
X64791662Y-126520682D01*
X64815524Y-126491606D01*
X64898675Y-126408455D01*
X64981592Y-126433608D01*
X65148750Y-126450072D01*
X65661250Y-126450072D01*
X65828408Y-126433608D01*
X65989142Y-126384850D01*
X66137275Y-126305671D01*
X66267115Y-126199115D01*
X66373671Y-126069275D01*
X66452850Y-125921142D01*
X66501608Y-125760408D01*
X66518072Y-125593250D01*
X66518072Y-125155750D01*
X66501608Y-124988592D01*
X66452850Y-124827858D01*
X66373671Y-124679725D01*
X66355900Y-124658070D01*
X66410537Y-124591494D01*
X66469502Y-124481180D01*
X66505812Y-124361482D01*
X66518072Y-124237000D01*
X66515000Y-124085250D01*
X66356250Y-123926500D01*
X65532000Y-123926500D01*
X65532000Y-123946500D01*
X65278000Y-123946500D01*
X65278000Y-123926500D01*
X64453750Y-123926500D01*
X64299942Y-124080308D01*
X64268572Y-124059347D01*
X64268572Y-123964750D01*
X64255111Y-123828075D01*
X64239693Y-123777250D01*
X64255111Y-123726425D01*
X64268572Y-123589750D01*
X64268572Y-123464750D01*
X64255111Y-123328075D01*
X64239693Y-123277250D01*
X64255111Y-123226425D01*
X64268572Y-123089750D01*
X64268572Y-122964750D01*
X64255111Y-122828075D01*
X64239693Y-122777250D01*
X64245533Y-122757998D01*
X64733620Y-122757998D01*
X64685820Y-122772498D01*
X64575506Y-122831463D01*
X64478815Y-122910815D01*
X64399463Y-123007506D01*
X64340498Y-123117820D01*
X64304188Y-123237518D01*
X64291928Y-123362000D01*
X64295000Y-123513750D01*
X64453750Y-123672500D01*
X65278000Y-123672500D01*
X65278000Y-123652500D01*
X65532000Y-123652500D01*
X65532000Y-123672500D01*
X66356250Y-123672500D01*
X66515000Y-123513750D01*
X66518072Y-123362000D01*
X66505812Y-123237518D01*
X66476673Y-123141458D01*
X66525516Y-123092615D01*
X66638784Y-122923097D01*
X66687494Y-122805501D01*
X66874892Y-122768226D01*
X67063250Y-122690205D01*
X67155167Y-122628788D01*
X67233858Y-122670850D01*
G37*
X67233858Y-122670850D02*
X67394592Y-122719608D01*
X67561750Y-122736072D01*
X67726139Y-122736072D01*
X67847501Y-122857434D01*
X67847501Y-123045497D01*
X67755795Y-123182744D01*
X67677774Y-123371102D01*
X67638000Y-123571061D01*
X67638000Y-123774939D01*
X67677774Y-123974898D01*
X67755795Y-124163256D01*
X67847501Y-124300504D01*
X67847500Y-126132449D01*
X67843506Y-126173000D01*
X67847500Y-126213550D01*
X67847500Y-126213552D01*
X67859444Y-126334825D01*
X67898757Y-126464422D01*
X67906647Y-126490433D01*
X67983301Y-126633842D01*
X68005554Y-126660957D01*
X68086459Y-126759541D01*
X68117966Y-126785398D01*
X68858468Y-127525901D01*
X68952667Y-127603209D01*
X69096076Y-127679862D01*
X69251683Y-127727065D01*
X69413509Y-127743004D01*
X69575336Y-127727065D01*
X69730943Y-127679862D01*
X69765839Y-127661210D01*
X72280160Y-127661210D01*
X72315057Y-127679863D01*
X72470664Y-127727065D01*
X72632490Y-127743004D01*
X72794316Y-127727065D01*
X72949923Y-127679863D01*
X73093332Y-127603209D01*
X73187531Y-127525901D01*
X73313004Y-127400429D01*
X73322928Y-127398454D01*
X73322928Y-127742000D01*
X73335188Y-127866482D01*
X73371498Y-127986180D01*
X73430463Y-128096494D01*
X73509815Y-128193185D01*
X73574401Y-128246189D01*
X73574401Y-128413900D01*
X72146081Y-128413900D01*
X72173812Y-128322482D01*
X72186072Y-128198000D01*
X72183000Y-128046250D01*
X72024250Y-127887500D01*
X71200000Y-127887500D01*
X71200000Y-127907500D01*
X70946000Y-127907500D01*
X70946000Y-127887500D01*
X70121750Y-127887500D01*
X69963000Y-128046250D01*
X69959928Y-128198000D01*
X69972188Y-128322482D01*
X69999919Y-128413900D01*
X64988110Y-128413900D01*
X64728072Y-128153863D01*
X64728072Y-128013750D01*
X64711608Y-127846592D01*
X64662850Y-127685858D01*
X64583671Y-127537725D01*
X64477115Y-127407885D01*
X64347275Y-127301329D01*
X64199142Y-127222150D01*
X64038408Y-127173392D01*
X63871250Y-127156928D01*
X63433750Y-127156928D01*
X63266592Y-127173392D01*
X63105858Y-127222150D01*
X62957725Y-127301329D01*
X62865000Y-127377426D01*
X62772275Y-127301329D01*
X62624142Y-127222150D01*
X62463408Y-127173392D01*
X62296250Y-127156928D01*
X61892059Y-127156928D01*
X61327097Y-126591967D01*
X61356266Y-126615905D01*
X61488643Y-126686662D01*
X61632280Y-126730234D01*
X61744232Y-126741260D01*
X61744234Y-126741260D01*
X61781657Y-126744946D01*
X61819080Y-126741260D01*
X64212817Y-126741260D01*
X64250240Y-126744946D01*
X64287663Y-126741260D01*
X64287666Y-126741260D01*
X64399618Y-126730234D01*
X64543255Y-126686662D01*
X64675632Y-126615905D01*
X64791662Y-126520682D01*
X64815524Y-126491606D01*
X64898675Y-126408455D01*
X64981592Y-126433608D01*
X65148750Y-126450072D01*
X65661250Y-126450072D01*
X65828408Y-126433608D01*
X65989142Y-126384850D01*
X66137275Y-126305671D01*
X66267115Y-126199115D01*
X66373671Y-126069275D01*
X66452850Y-125921142D01*
X66501608Y-125760408D01*
X66518072Y-125593250D01*
X66518072Y-125155750D01*
X66501608Y-124988592D01*
X66452850Y-124827858D01*
X66373671Y-124679725D01*
X66355900Y-124658070D01*
X66410537Y-124591494D01*
X66469502Y-124481180D01*
X66505812Y-124361482D01*
X66518072Y-124237000D01*
X66515000Y-124085250D01*
X66356250Y-123926500D01*
X65532000Y-123926500D01*
X65532000Y-123946500D01*
X65278000Y-123946500D01*
X65278000Y-123926500D01*
X64453750Y-123926500D01*
X64299942Y-124080308D01*
X64268572Y-124059347D01*
X64268572Y-123964750D01*
X64255111Y-123828075D01*
X64239693Y-123777250D01*
X64255111Y-123726425D01*
X64268572Y-123589750D01*
X64268572Y-123464750D01*
X64255111Y-123328075D01*
X64239693Y-123277250D01*
X64255111Y-123226425D01*
X64268572Y-123089750D01*
X64268572Y-122964750D01*
X64255111Y-122828075D01*
X64239693Y-122777250D01*
X64245533Y-122757998D01*
X64733620Y-122757998D01*
X64685820Y-122772498D01*
X64575506Y-122831463D01*
X64478815Y-122910815D01*
X64399463Y-123007506D01*
X64340498Y-123117820D01*
X64304188Y-123237518D01*
X64291928Y-123362000D01*
X64295000Y-123513750D01*
X64453750Y-123672500D01*
X65278000Y-123672500D01*
X65278000Y-123652500D01*
X65532000Y-123652500D01*
X65532000Y-123672500D01*
X66356250Y-123672500D01*
X66515000Y-123513750D01*
X66518072Y-123362000D01*
X66505812Y-123237518D01*
X66476673Y-123141458D01*
X66525516Y-123092615D01*
X66638784Y-122923097D01*
X66687494Y-122805501D01*
X66874892Y-122768226D01*
X67063250Y-122690205D01*
X67155167Y-122628788D01*
X67233858Y-122670850D01*
G36*
X75335188Y-127017518D02*
G01*
X75322928Y-127142000D01*
X75322928Y-127388362D01*
X75299072Y-127412218D01*
X75299072Y-127142000D01*
X75286812Y-127017518D01*
X75280365Y-126996266D01*
X75368314Y-126908317D01*
X75335188Y-127017518D01*
G37*
X75335188Y-127017518D02*
X75322928Y-127142000D01*
X75322928Y-127388362D01*
X75299072Y-127412218D01*
X75299072Y-127142000D01*
X75286812Y-127017518D01*
X75280365Y-126996266D01*
X75368314Y-126908317D01*
X75335188Y-127017518D01*
G36*
X76226002Y-125889000D02*
G01*
X76184000Y-125889000D01*
X76184000Y-125869000D01*
X76164000Y-125869000D01*
X76164000Y-125615000D01*
X76184000Y-125615000D01*
X76184000Y-125596511D01*
X76226002Y-125596511D01*
X76226002Y-125889000D01*
G37*
X76226002Y-125889000D02*
X76184000Y-125889000D01*
X76184000Y-125869000D01*
X76164000Y-125869000D01*
X76164000Y-125615000D01*
X76184000Y-125615000D01*
X76184000Y-125596511D01*
X76226002Y-125596511D01*
X76226002Y-125889000D01*
G36*
X60882500Y-122650250D02*
G01*
X60902500Y-122650250D01*
X60902500Y-122904250D01*
X60882500Y-122904250D01*
X60882500Y-122924250D01*
X60628500Y-122924250D01*
X60628500Y-122904250D01*
X60608500Y-122904250D01*
X60608500Y-122650250D01*
X60628500Y-122650250D01*
X60628500Y-122630250D01*
X60882500Y-122630250D01*
X60882500Y-122650250D01*
G37*
X60882500Y-122650250D02*
X60902500Y-122650250D01*
X60902500Y-122904250D01*
X60882500Y-122904250D01*
X60882500Y-122924250D01*
X60628500Y-122924250D01*
X60628500Y-122904250D01*
X60608500Y-122904250D01*
X60608500Y-122650250D01*
X60628500Y-122650250D01*
X60628500Y-122630250D01*
X60882500Y-122630250D01*
X60882500Y-122650250D01*
G36*
X58719000Y-118078250D02*
G01*
X58877750Y-118237000D01*
X59664500Y-118237000D01*
X59664500Y-118217000D01*
X59918500Y-118217000D01*
X59918500Y-118237000D01*
X59938500Y-118237000D01*
X59938500Y-118491000D01*
X59918500Y-118491000D01*
X59918500Y-118511000D01*
X59664500Y-118511000D01*
X59664500Y-118491000D01*
X58877750Y-118491000D01*
X58719000Y-118649750D01*
X58715928Y-118839000D01*
X58728188Y-118963482D01*
X58764498Y-119083180D01*
X58823463Y-119193494D01*
X58886073Y-119269785D01*
X58806325Y-119277639D01*
X58674903Y-119317506D01*
X58553783Y-119382246D01*
X58447621Y-119469371D01*
X58360496Y-119575533D01*
X58295756Y-119696653D01*
X58255889Y-119828075D01*
X58242428Y-119964750D01*
X58242428Y-120264178D01*
X57943000Y-120264178D01*
X57806325Y-120277639D01*
X57674903Y-120317506D01*
X57553783Y-120382246D01*
X57447621Y-120469371D01*
X57360496Y-120575533D01*
X57295756Y-120696653D01*
X57255889Y-120828075D01*
X57242428Y-120964750D01*
X57242428Y-121089750D01*
X57255889Y-121226425D01*
X57271307Y-121277250D01*
X57255889Y-121328075D01*
X57242428Y-121464750D01*
X57242428Y-121589750D01*
X57255889Y-121726425D01*
X57271307Y-121777250D01*
X57255889Y-121828075D01*
X57242428Y-121964750D01*
X57242428Y-122089750D01*
X57255889Y-122226425D01*
X57267667Y-122265250D01*
X57224381Y-122265250D01*
X56993072Y-122033941D01*
X56993072Y-121929750D01*
X56976608Y-121762592D01*
X56927850Y-121601858D01*
X56848671Y-121453725D01*
X56742115Y-121323885D01*
X56725010Y-121309847D01*
X56725010Y-117971990D01*
X58717275Y-117971990D01*
X58719000Y-118078250D01*
G37*
X58719000Y-118078250D02*
X58877750Y-118237000D01*
X59664500Y-118237000D01*
X59664500Y-118217000D01*
X59918500Y-118217000D01*
X59918500Y-118237000D01*
X59938500Y-118237000D01*
X59938500Y-118491000D01*
X59918500Y-118491000D01*
X59918500Y-118511000D01*
X59664500Y-118511000D01*
X59664500Y-118491000D01*
X58877750Y-118491000D01*
X58719000Y-118649750D01*
X58715928Y-118839000D01*
X58728188Y-118963482D01*
X58764498Y-119083180D01*
X58823463Y-119193494D01*
X58886073Y-119269785D01*
X58806325Y-119277639D01*
X58674903Y-119317506D01*
X58553783Y-119382246D01*
X58447621Y-119469371D01*
X58360496Y-119575533D01*
X58295756Y-119696653D01*
X58255889Y-119828075D01*
X58242428Y-119964750D01*
X58242428Y-120264178D01*
X57943000Y-120264178D01*
X57806325Y-120277639D01*
X57674903Y-120317506D01*
X57553783Y-120382246D01*
X57447621Y-120469371D01*
X57360496Y-120575533D01*
X57295756Y-120696653D01*
X57255889Y-120828075D01*
X57242428Y-120964750D01*
X57242428Y-121089750D01*
X57255889Y-121226425D01*
X57271307Y-121277250D01*
X57255889Y-121328075D01*
X57242428Y-121464750D01*
X57242428Y-121589750D01*
X57255889Y-121726425D01*
X57271307Y-121777250D01*
X57255889Y-121828075D01*
X57242428Y-121964750D01*
X57242428Y-122089750D01*
X57255889Y-122226425D01*
X57267667Y-122265250D01*
X57224381Y-122265250D01*
X56993072Y-122033941D01*
X56993072Y-121929750D01*
X56976608Y-121762592D01*
X56927850Y-121601858D01*
X56848671Y-121453725D01*
X56742115Y-121323885D01*
X56725010Y-121309847D01*
X56725010Y-117971990D01*
X58717275Y-117971990D01*
X58719000Y-118078250D01*
G36*
X66752991Y-119595424D02*
G01*
X66721392Y-119699592D01*
X66704928Y-119866750D01*
X66704928Y-120304250D01*
X66721392Y-120471408D01*
X66770150Y-120632142D01*
X66844792Y-120771787D01*
X66674933Y-120738000D01*
X66471055Y-120738000D01*
X66344196Y-120763234D01*
X66327244Y-120761564D01*
X66289821Y-120765250D01*
X64236053Y-120765250D01*
X64215244Y-120696653D01*
X64150504Y-120575533D01*
X64063379Y-120469371D01*
X63957217Y-120382246D01*
X63836097Y-120317506D01*
X63704675Y-120277639D01*
X63568000Y-120264178D01*
X63268572Y-120264178D01*
X63268572Y-119964750D01*
X63255111Y-119828075D01*
X63215244Y-119696653D01*
X63150504Y-119575533D01*
X63063379Y-119469371D01*
X62957217Y-119382246D01*
X62836097Y-119317506D01*
X62704675Y-119277639D01*
X62568000Y-119264178D01*
X62443000Y-119264178D01*
X62306325Y-119277639D01*
X62255500Y-119293057D01*
X62204675Y-119277639D01*
X62136512Y-119270926D01*
X62191115Y-119226115D01*
X62297671Y-119096275D01*
X62376850Y-118948142D01*
X62425608Y-118787408D01*
X62442072Y-118620250D01*
X62442072Y-118107750D01*
X62428701Y-117971990D01*
X65129558Y-117971990D01*
X66752991Y-119595424D01*
G37*
X66752991Y-119595424D02*
X66721392Y-119699592D01*
X66704928Y-119866750D01*
X66704928Y-120304250D01*
X66721392Y-120471408D01*
X66770150Y-120632142D01*
X66844792Y-120771787D01*
X66674933Y-120738000D01*
X66471055Y-120738000D01*
X66344196Y-120763234D01*
X66327244Y-120761564D01*
X66289821Y-120765250D01*
X64236053Y-120765250D01*
X64215244Y-120696653D01*
X64150504Y-120575533D01*
X64063379Y-120469371D01*
X63957217Y-120382246D01*
X63836097Y-120317506D01*
X63704675Y-120277639D01*
X63568000Y-120264178D01*
X63268572Y-120264178D01*
X63268572Y-119964750D01*
X63255111Y-119828075D01*
X63215244Y-119696653D01*
X63150504Y-119575533D01*
X63063379Y-119469371D01*
X62957217Y-119382246D01*
X62836097Y-119317506D01*
X62704675Y-119277639D01*
X62568000Y-119264178D01*
X62443000Y-119264178D01*
X62306325Y-119277639D01*
X62255500Y-119293057D01*
X62204675Y-119277639D01*
X62136512Y-119270926D01*
X62191115Y-119226115D01*
X62297671Y-119096275D01*
X62376850Y-118948142D01*
X62425608Y-118787408D01*
X62442072Y-118620250D01*
X62442072Y-118107750D01*
X62428701Y-117971990D01*
X65129558Y-117971990D01*
X66752991Y-119595424D01*
M02*
